<svg version="1.1" xmlns="http://www.w3.org/2000/svg" xmlns:xlink="http://www.w3.org/1999/xlink" width="170.07229" height="207.6966" viewBox="0,0,170.07229,207.6966"><g transform="translate(-176.49922,-26.8491)"><g data-paper-data="{&quot;isPaintingLayer&quot;:true}" fill-rule="nonzero" stroke-linejoin="miter" stroke-miterlimit="10" stroke-dasharray="" stroke-dashoffset="0" style="mix-blend-mode: normal"><g fill="none" stroke="#000000" stroke-width="2" stroke-linecap="butt"><path d="M178.68666,189.58667l40.83521,-20.25102l40.54149,21.57772l-40.83521,20.25102z" data-paper-data="{&quot;index&quot;:null}"/><path d="M219.93666,169.08667l40.83521,-20.25102l40.54149,21.57772l-40.83521,20.25102z" data-paper-data="{&quot;index&quot;:null}"/></g><g fill="none" stroke="#000000" stroke-width="2" stroke-linecap="butt"><path d="M178.87017,135.75681l40.83521,-20.25102l40.54149,21.57772l-40.83521,20.25102z" data-paper-data="{&quot;index&quot;:null}"/><path d="M220.12017,115.25681l40.83521,-20.25102l40.54149,21.57772l-40.83521,20.25102z" data-paper-data="{&quot;index&quot;:null}"/></g><path d="M177.55777,189.52966v-53.66935l41.97219,22.0182v53.32532z" fill="#e6e6e6" stroke="#000000" stroke-width="2" stroke-linecap="butt"/><path d="M219.71348,211.38734v-53.32532l41.97218,-22.0182v53.66936z" data-paper-data="{&quot;index&quot;:null}" fill="none" stroke="#000000" stroke-width="2" stroke-linecap="butt"/><path d="M261.52515,190.24074v-51.86435l40.94008,-21.41496v52.19896z" data-paper-data="{&quot;index&quot;:null}" fill="none" stroke="#000000" stroke-width="2" stroke-linecap="butt"/><g fill="none" stroke="#000000" stroke-width="2" stroke-linecap="butt"><path d="M221.2242,211.10318l40.83521,-20.25102l40.54149,21.57772l-40.83521,20.25102z" data-paper-data="{&quot;index&quot;:null}"/><path d="M262.4742,190.60318l40.83521,-20.25102l40.54149,21.57772l-40.83521,20.25102z" data-paper-data="{&quot;index&quot;:null}"/></g><g fill="none" stroke="#000000" stroke-width="2" stroke-linecap="butt"><path d="M221.40771,157.27332l40.83521,-20.25102l40.54149,21.57772l-40.83521,20.25102z" data-paper-data="{&quot;index&quot;:null}"/><path d="M262.65771,136.77332l40.83521,-20.25102l40.54149,21.57772l-40.83521,20.25102z" data-paper-data="{&quot;index&quot;:null}"/></g><path d="M220.09531,211.04617v-53.66935l41.97219,22.0182v53.32532z" fill="#e6e6e6" stroke="#000000" stroke-width="2" stroke-linecap="butt"/><path d="M262.25102,232.90385v-53.32532l41.97218,-22.0182v53.66936z" data-paper-data="{&quot;index&quot;:null}" fill="#e6e6e6" stroke="#000000" stroke-width="2" stroke-linecap="butt"/><path d="M304.06269,211.75725v-51.86435l40.94008,-21.41496v52.19896z" data-paper-data="{&quot;index&quot;:null}" fill="#e6e6e6" stroke="#000000" stroke-width="2" stroke-linecap="butt"/><g fill="none" stroke="#000000" stroke-width="2" stroke-linecap="butt"><path d="M179.18215,136.02811l40.83521,-20.25102l40.54149,21.57772l-40.83521,20.25102z" data-paper-data="{&quot;index&quot;:null}"/><path d="M220.43215,115.52811l40.83521,-20.25102l40.54149,21.57772l-40.83521,20.25102z" data-paper-data="{&quot;index&quot;:null}"/></g><g fill="#98651e" stroke-width="2" stroke-linecap="butt"><path d="M179.36566,82.19825l81.37575,-50.28105l0.00095,51.60775l-1.79617,38.26904z" data-paper-data="{&quot;index&quot;:null}" stroke="#000000"/><path d="M220.61566,61.69825l40.83521,-20.25102l40.54149,21.57772l-40.83521,20.25102z" data-paper-data="{&quot;index&quot;:null}" stroke="#98651e"/></g><path d="M178.05326,135.9711v-53.66935l41.97219,22.0182v53.32532z" fill="#e6e6e6" stroke="#000000" stroke-width="2" stroke-linecap="butt"/><path d="M220.20897,157.82878v-53.32532l41.97218,-22.0182v53.66936z" data-paper-data="{&quot;index&quot;:null}" fill="none" stroke="#000000" stroke-width="2" stroke-linecap="butt"/><path d="M262.02064,136.68218v-51.86435l40.94008,-21.41496v52.19896z" data-paper-data="{&quot;index&quot;:null}" fill="none" stroke="#000000" stroke-width="2" stroke-linecap="butt"/><g fill="none" stroke="#000000" stroke-width="2" stroke-linecap="butt"><path d="M221.71969,157.54462l40.83521,-20.25102l40.54149,21.57772l-40.83521,20.25102z" data-paper-data="{&quot;index&quot;:null}"/><path d="M262.96969,137.04462l40.83521,-20.25102l40.54149,21.57772l-40.83521,20.25102z" data-paper-data="{&quot;index&quot;:null}"/></g><g fill="#98651e" stroke="#000000" stroke-width="2" stroke-linecap="butt"><path d="M182.86416,81.19224c0,0 21.54891,-12.96943 28.43812,-16.38593c6.71823,-3.33171 51.43613,-33.89512 51.43613,-33.89512l40.54149,74.13027l-40.83521,20.25102z" data-paper-data="{&quot;index&quot;:null}"/><path d="M263.1532,123.7553c0,0 -1.01515,-84.9719 6.16088,-88.53064c3.44467,-1.70828 36.17584,24.73607 36.17584,24.73607l39.03999,24.58072l-40.83521,20.25102z" data-paper-data="{&quot;index&quot;:null}"/></g><path d="M220.5908,157.48761v-53.66935l41.97219,22.0182v53.32532z" fill="#e6e6e6" stroke="#000000" stroke-width="2" stroke-linecap="butt"/><path d="M262.74651,179.34529v-53.32532l41.97218,-22.0182v53.66936z" data-paper-data="{&quot;index&quot;:null}" fill="#e6e6e6" stroke="#000000" stroke-width="2" stroke-linecap="butt"/><path d="M304.55818,158.19869v-51.86435l40.94008,-21.41496v52.19896z" data-paper-data="{&quot;index&quot;:null}" fill="#e6e6e6" stroke="#000000" stroke-width="2" stroke-linecap="butt"/><path d="M294.80481,216.78679l-0.27083,-28.71273l23.98718,-12.93502l0.30767,29.63573z" fill="#98651e" stroke="#000000" stroke-width="2" stroke-linecap="butt"/><path d="M261.77177,126.6967l4.5045,-94.59459l73.57357,51.05105" fill="none" stroke="#000000" stroke-width="4.5" stroke-linecap="round"/><path d="M180.69069,83.15315l87.08709,-54.05405" fill="none" stroke="#000000" stroke-width="4.5" stroke-linecap="round"/><path d="M325.18019,106.81392c0,0 -29.92294,12.46789 -36.17743,15.07393c-2.18983,0.91243 -4.74246,6.77052 -4.74246,6.77052c0,0 0.21549,26.9363 0.26583,33.22852c0.01997,2.49632 7.42588,2.15334 7.42588,2.15334l30.45917,-14.15274" fill="none" stroke="#3ccc15" stroke-width="2.5" stroke-linecap="round"/><path d="M284.26031,140.0421l26.76715,-10.15306" fill="none" stroke="#3ccc15" stroke-width="2.5" stroke-linecap="round"/><path d="M284.26031,147.73381l27.99782,-10.46072" fill="none" stroke="#3ccc15" stroke-width="2.5" stroke-linecap="round"/></g></g></svg>