<svg version="1.1" xmlns="http://www.w3.org/2000/svg" xmlns:xlink="http://www.w3.org/1999/xlink" width="127.00158" height="172.52152" viewBox="0,0,127.00158,172.52152"><g transform="translate(-176.49922,-40.50766)"><g data-paper-data="{&quot;isPaintingLayer&quot;:true}" fill-rule="nonzero" stroke-linecap="butt" stroke-linejoin="miter" stroke-miterlimit="10" stroke-dasharray="" stroke-dashoffset="0" style="mix-blend-mode: normal"><g><g><g stroke="#cbcbcb" stroke-width="2"><g fill="none"><path d="M178.68666,189.58665l40.83521,-20.25102l40.54149,21.57772l-40.83521,20.25102z" data-paper-data="{&quot;index&quot;:null}"/><path d="M219.93666,169.08665l40.83521,-20.25102l40.54149,21.57772l-40.83521,20.25102z" data-paper-data="{&quot;index&quot;:null}"/></g><g fill="#b3b3b3"><path d="M178.87017,135.75679l40.83521,-20.25102l40.54149,21.57772l-40.83521,20.25102z" data-paper-data="{&quot;index&quot;:null}"/><path d="M220.12017,115.25679l40.83521,-20.25102l39.79149,21.20272l-40.08521,20.62602z" data-paper-data="{&quot;index&quot;:null}"/></g><path d="M177.55777,189.52964v-53.66935l41.97219,22.0182v53.32532z" fill="#b3b3b3"/><path d="M219.71348,211.38732v-53.32532l41.97218,-22.0182v53.66936z" data-paper-data="{&quot;index&quot;:null}" fill="#b3b3b3"/><path d="M261.52515,190.24072v-51.86435l40.22579,-20.55782l0.71429,51.34182z" data-paper-data="{&quot;index&quot;:null}" fill="#b3b3b3"/></g><path d="M230.08125,206.76335l0.10482,-26.27033l8.72479,-4.29764v26.27033z" fill="#005db5" stroke="#000000" stroke-width="1"/><path d="M244.5659,199.23424l0.10482,-26.27033l8.7248,-4.29764v26.27033z" fill="#005db5" stroke="#000000" stroke-width="1"/><path d="M268.4181,187.25555l0.10482,-26.27033l8.7248,-4.29764v26.27033z" fill="#005db5" stroke="#000000" stroke-width="1"/><path d="M286.76687,177.97002l0.10482,-26.27033l8.7248,-4.29764v26.27033z" fill="#005db5" stroke="#000000" stroke-width="1"/><g stroke="#cbcbcb" stroke-width="2"><path d="M220.50213,115.19379l39.97807,-21.10816l39.68435,21.14915l-39.97807,20.67959z" data-paper-data="{&quot;index&quot;:null}" fill="none"/><path d="M219.8285,61.8829l40.83521,-20.25102l40.54149,21.57772l-40.83521,20.25102z" data-paper-data="{&quot;index&quot;:null}" fill="#b3b3b3"/><path d="M219.56526,114.12141l-0.34403,-51.60515l40.59605,21.33013v51.94918z" fill="#b3b3b3"/><path d="M261.03291,135.97909v-51.94918l40.59605,-21.33013l0.00001,52.63725z" data-paper-data="{&quot;index&quot;:null}" fill="#b3b3b3"/></g></g><path d="M267.88491,105.0316v-17.33333l29,-14l0.33333,16.66667z" fill="#4bacff" stroke="#000000" stroke-width="1"/><path d="M224.21824,92.36494l0.33334,-16.66667l29,14v17.33334z" data-paper-data="{&quot;index&quot;:null}" fill="#4bacff" stroke="#000000" stroke-width="1"/></g></g></g></svg>