<svg version="1.1" xmlns="http://www.w3.org/2000/svg" xmlns:xlink="http://www.w3.org/1999/xlink" width="86.19729" height="76.38055" viewBox="0,0,86.19729,76.38055"><g transform="translate(-196.69348,-125.66035)"><g data-paper-data="{&quot;isPaintingLayer&quot;:true}" fill-rule="nonzero" stroke-linejoin="miter" stroke-miterlimit="10" stroke-dasharray="" stroke-dashoffset="0" style="mix-blend-mode: normal"><path d="M199.31165,179.33665l40.83521,-20.25102l40.54149,21.57772l-40.83521,20.25102z" data-paper-data="{&quot;index&quot;:null}" fill="#000000" stroke="#000000" stroke-width="2" stroke-linecap="butt"/><path d="M209.83776,183.60755l4.41699,-2.63378l24.03081,12.71951l-4.7478,2.79918z" fill="#000000" stroke="#ffffff" stroke-width="1" stroke-linecap="butt"/><path d="M241.30173,166.44397l4.41699,-2.63378l24.03081,12.7195l-4.7478,2.79918z" fill="#000000" stroke="#ffffff" stroke-width="1" stroke-linecap="butt"/><path d="M248.23773,196.23766l-4.7478,-2.79918l24.85781,-12.05791l4.0862,2.46838z" data-paper-data="{&quot;index&quot;:null}" fill="#000000" stroke="#ffffff" stroke-width="1" stroke-linecap="butt"/><path d="M214.20338,177.58549l-4.7478,-2.79918l24.85781,-12.0579l4.0862,2.46838z" data-paper-data="{&quot;index&quot;:null}" fill="#000000" stroke="#ffffff" stroke-width="1" stroke-linecap="butt"/><path d="M245.89444,197.4993c0,2.51207 -6.20304,4.01666 -6.20304,4.01666c0,0 -5.37494,-2.28364 -5.37494,-3.52046c0,-2.51207 3.25342,-3.39069 6.45059,-3.39069c3.19717,0 5.12739,0.38243 5.12739,2.89449z" fill="#828282" stroke="#808080" stroke-width="1" stroke-linecap="butt"/><path d="M240.97045,165.16601c-3.19717,0 -6.45059,-0.87863 -6.45059,-3.3907c0,-1.23682 5.37494,-3.52046 5.37494,-3.52046c0,0 6.20304,1.50459 6.20304,4.01666c0,2.51207 -1.93022,2.8945 -5.12739,2.8945z" data-paper-data="{&quot;index&quot;:null}" fill="#828282" stroke="#808080" stroke-width="1" stroke-linecap="butt"/><path d="M211.49128,179.13992c0,2.32937 -1.81671,4.2177 -4.4658,4.2177c-2.64909,0 -8.93158,-4.2177 -8.93158,-4.2177c0,0 6.1171,-4.05229 8.76619,-4.05229c2.64909,0 4.63119,1.72292 4.63119,4.05229z" fill="#828282" stroke="#828282" stroke-width="1" stroke-linecap="butt"/><path d="M273.22341,176.44883c2.64909,0 8.76619,4.0523 8.76619,4.0523c0,0 -6.2825,4.21769 -8.93158,4.21769c-2.64909,0 -4.4658,-1.88832 -4.4658,-4.21769c0,-2.32937 1.9821,-4.0523 4.63119,-4.0523z" data-paper-data="{&quot;index&quot;:null}" fill="#828282" stroke="#828282" stroke-width="1" stroke-linecap="butt"/><g stroke="#b3b3b3"><path d="M239.60924,200.7246l-0.57586,-31.09675l-13.31771,-7.77221" fill="none" stroke-width="2.5" stroke-linecap="round"/><path d="M232.79902,170.18655v-3.29057l3.35257,2.0453v3.1908z" fill="#35ff00" stroke-width="1" stroke-linecap="butt"/><path d="M229.31851,168.15271v-3.29057l3.35257,2.0453v3.1908z" fill="#ffaf00" stroke-width="1" stroke-linecap="butt"/><path d="M225.88788,166.16876v-3.29057l3.35257,2.0453v3.1908z" fill="#ff0000" stroke-width="1" stroke-linecap="butt"/></g><g data-paper-data="{&quot;index&quot;:null}" stroke="#b3b3b3"><path d="M197.94349,178.65587l0.57586,-31.09675l13.31771,-7.7722" fill="none" stroke-width="2.5" stroke-linecap="round"/><path d="M201.40114,150.06335v-3.1908l3.35257,-2.0453v3.29057z" fill="#35ff00" stroke-width="1" stroke-linecap="butt"/><path d="M204.88165,148.02951v-3.1908l3.35257,-2.0453v3.29057z" fill="#ffaf00" stroke-width="1" stroke-linecap="butt"/><path d="M208.31228,146.04556v-3.1908l3.35257,-2.0453v3.29057z" fill="#ff0000" stroke-width="1" stroke-linecap="butt"/></g><g stroke="#b3b3b3"><path d="M239.97061,158.85041l0.57586,-31.09675l15.49045,8.52335" fill="none" stroke-width="2.5" stroke-linecap="round"/><path d="M249.79622,137.18439v-3.29057l3.35257,2.0453v3.1908z" data-paper-data="{&quot;index&quot;:null}" fill="#ff0000" stroke-width="1" stroke-linecap="butt"/><path d="M246.31571,135.15055v-3.29057l3.35257,2.0453v3.1908z" data-paper-data="{&quot;index&quot;:null}" fill="#ffaf00" stroke-width="1" stroke-linecap="butt"/><path d="M242.88508,133.1666v-3.29057l3.35257,2.0453v3.1908z" data-paper-data="{&quot;index&quot;:null}" fill="#35ff00" stroke-width="1" stroke-linecap="butt"/></g><g data-paper-data="{&quot;index&quot;:null}" stroke="#b3b3b3"><path d="M265.34005,157.93469l15.49045,-8.52335l0.57587,31.09675" fill="none" stroke-width="2.5" stroke-linecap="round"/><path d="M268.22819,160.78759v-3.1908l3.35257,-2.0453v3.29057z" data-paper-data="{&quot;index&quot;:null}" fill="#ff0000" stroke-width="1" stroke-linecap="butt"/><path d="M271.70871,158.75376v-3.1908l3.35257,-2.0453v3.29057z" data-paper-data="{&quot;index&quot;:null}" fill="#ffaf00" stroke-width="1" stroke-linecap="butt"/><path d="M275.13934,156.7698v-3.1908l3.35257,-2.0453v3.29057z" data-paper-data="{&quot;index&quot;:null}" fill="#35ff00" stroke-width="1" stroke-linecap="butt"/></g></g></g></svg>