<svg version="1.1" xmlns="http://www.w3.org/2000/svg" xmlns:xlink="http://www.w3.org/1999/xlink" width="165.02697" height="168.73322" viewBox="0,0,165.02697,168.73322"><defs><linearGradient x1="291.39935" y1="159.29275" x2="323.00089" y2="159.29275" gradientUnits="userSpaceOnUse" id="color-1"><stop offset="0" stop-color="#ffffff"/><stop offset="1" stop-color="#676767"/></linearGradient><linearGradient x1="275.38047" y1="151.54562" x2="306.98201" y2="151.54562" gradientUnits="userSpaceOnUse" id="color-2"><stop offset="0" stop-color="#ffffff"/><stop offset="1" stop-color="#676767"/></linearGradient><linearGradient x1="291.26081" y1="138.95" x2="322.72963" y2="138.95" gradientUnits="userSpaceOnUse" id="color-3"><stop offset="0" stop-color="#ffffff"/><stop offset="1" stop-color="#676767"/></linearGradient><linearGradient x1="275.30921" y1="131.20288" x2="306.77803" y2="131.20288" gradientUnits="userSpaceOnUse" id="color-4"><stop offset="0" stop-color="#ffffff"/><stop offset="1" stop-color="#676767"/></linearGradient><linearGradient x1="307.13993" y1="152.97489" x2="323.43928" y2="152.97489" gradientUnits="userSpaceOnUse" id="color-5"><stop offset="0" stop-color="#ffffff"/><stop offset="1" stop-color="#676767"/></linearGradient><linearGradient x1="290.76935" y1="153.04424" x2="307.06868" y2="153.04424" gradientUnits="userSpaceOnUse" id="color-6"><stop offset="0" stop-color="#ffffff"/><stop offset="1" stop-color="#676767"/></linearGradient><linearGradient x1="274.93316" y1="145.44281" x2="290.83168" y2="145.44281" gradientUnits="userSpaceOnUse" id="color-7"><stop offset="0" stop-color="#ffffff"/><stop offset="1" stop-color="#676767"/></linearGradient><linearGradient x1="275.99933" y1="167.09275" x2="307.60089" y2="167.09275" gradientUnits="userSpaceOnUse" id="color-8"><stop offset="0" stop-color="#ffffff"/><stop offset="1" stop-color="#676767"/></linearGradient><linearGradient x1="259.98046" y1="159.34562" x2="291.582" y2="159.34562" gradientUnits="userSpaceOnUse" id="color-9"><stop offset="0" stop-color="#ffffff"/><stop offset="1" stop-color="#676767"/></linearGradient><linearGradient x1="275.86081" y1="146.75" x2="307.32963" y2="146.75" gradientUnits="userSpaceOnUse" id="color-10"><stop offset="0" stop-color="#ffffff"/><stop offset="1" stop-color="#676767"/></linearGradient><linearGradient x1="259.90921" y1="139.00287" x2="291.37802" y2="139.00287" gradientUnits="userSpaceOnUse" id="color-11"><stop offset="0" stop-color="#ffffff"/><stop offset="1" stop-color="#676767"/></linearGradient><linearGradient x1="291.73994" y1="160.77489" x2="308.03927" y2="160.77489" gradientUnits="userSpaceOnUse" id="color-12"><stop offset="0" stop-color="#ffffff"/><stop offset="1" stop-color="#676767"/></linearGradient><linearGradient x1="275.36935" y1="160.84425" x2="291.66868" y2="160.84425" gradientUnits="userSpaceOnUse" id="color-13"><stop offset="0" stop-color="#ffffff"/><stop offset="1" stop-color="#676767"/></linearGradient><linearGradient x1="230.54591" y1="210.76336" x2="263.5653" y2="210.76336" gradientUnits="userSpaceOnUse" id="color-14"><stop offset="0" stop-color="#000000"/><stop offset="1" stop-color="#ffffff"/></linearGradient><linearGradient x1="259.53316" y1="153.24281" x2="275.43168" y2="153.24281" gradientUnits="userSpaceOnUse" id="color-15"><stop offset="0" stop-color="#ffffff"/><stop offset="1" stop-color="#676767"/></linearGradient><linearGradient x1="230.10053" y1="241.73765" x2="294.11931" y2="241.73765" gradientUnits="userSpaceOnUse" id="color-16"><stop offset="0" stop-color="#000000"/><stop offset="1" stop-color="#ffffff"/></linearGradient><linearGradient x1="262.55177" y1="225.61037" x2="326.57055" y2="225.61037" gradientUnits="userSpaceOnUse" id="color-17"><stop offset="0" stop-color="#000000"/><stop offset="1" stop-color="#ffffff"/></linearGradient><linearGradient x1="278.88588" y1="199.09381" x2="278.88588" y2="258.36631" gradientUnits="userSpaceOnUse" id="color-18"><stop offset="0" stop-color="#cccccc"/><stop offset="1" stop-color="#1a1a1a"/></linearGradient><linearGradient x1="311.37301" y1="184.08177" x2="311.37301" y2="241.73035" gradientUnits="userSpaceOnUse" id="color-19"><stop offset="0" stop-color="#cccccc"/><stop offset="1" stop-color="#1a1a1a"/></linearGradient><linearGradient x1="198.65843" y1="223.91531" x2="262.6772" y2="223.91531" gradientUnits="userSpaceOnUse" id="color-20"><stop offset="0" stop-color="#000000"/><stop offset="1" stop-color="#ffffff"/></linearGradient><linearGradient x1="166.20718" y1="207.78803" x2="230.22597" y2="207.78803" gradientUnits="userSpaceOnUse" id="color-21"><stop offset="0" stop-color="#000000"/><stop offset="1" stop-color="#ffffff"/></linearGradient><linearGradient x1="166.06282" y1="165.44027" x2="230.08159" y2="165.44027" gradientUnits="userSpaceOnUse" id="color-22"><stop offset="0" stop-color="#000000"/><stop offset="1" stop-color="#ffffff"/></linearGradient><linearGradient x1="213.89184" y1="181.27147" x2="213.89184" y2="240.54396" gradientUnits="userSpaceOnUse" id="color-23"><stop offset="0" stop-color="#cccccc"/><stop offset="1" stop-color="#1a1a1a"/></linearGradient><linearGradient x1="245.72213" y1="198.94945" x2="245.72213" y2="258.22194" gradientUnits="userSpaceOnUse" id="color-24"><stop offset="0" stop-color="#cccccc"/><stop offset="1" stop-color="#1a1a1a"/></linearGradient><linearGradient x1="181.40473" y1="166.25943" x2="181.40473" y2="223.90802" gradientUnits="userSpaceOnUse" id="color-25"><stop offset="0" stop-color="#cccccc"/><stop offset="1" stop-color="#1a1a1a"/></linearGradient><linearGradient x1="166.29305" y1="167.3275" x2="230.31183" y2="167.3275" gradientUnits="userSpaceOnUse" id="color-26"><stop offset="0" stop-color="#000000"/><stop offset="1" stop-color="#ffffff"/></linearGradient><linearGradient x1="198.74429" y1="151.20021" x2="262.76307" y2="151.20021" gradientUnits="userSpaceOnUse" id="color-27"><stop offset="0" stop-color="#000000"/><stop offset="1" stop-color="#ffffff"/></linearGradient><linearGradient x1="181.91465" y1="124.53929" x2="181.91465" y2="183.81178" gradientUnits="userSpaceOnUse" id="color-28"><stop offset="0" stop-color="#cccccc"/><stop offset="1" stop-color="#1a1a1a"/></linearGradient><linearGradient x1="215.07841" y1="124.68366" x2="215.07841" y2="183.95615" gradientUnits="userSpaceOnUse" id="color-29"><stop offset="0" stop-color="#cccccc"/><stop offset="1" stop-color="#1a1a1a"/></linearGradient><linearGradient x1="231.46182" y1="138.49589" x2="263.66924" y2="138.49589" gradientUnits="userSpaceOnUse" id="color-30"><stop offset="0" stop-color="#000000"/><stop offset="1" stop-color="#ffffff"/></linearGradient><linearGradient x1="232.08056" y1="167.13081" x2="296.09934" y2="167.13081" gradientUnits="userSpaceOnUse" id="color-31"><stop offset="0" stop-color="#000000"/><stop offset="1" stop-color="#ffffff"/></linearGradient><linearGradient x1="247.71557" y1="125.84203" x2="247.71557" y2="183.49062" gradientUnits="userSpaceOnUse" id="color-32"><stop offset="0" stop-color="#cccccc"/><stop offset="1" stop-color="#1a1a1a"/></linearGradient><linearGradient x1="280.6087" y1="125.98641" x2="280.6087" y2="183.63499" gradientUnits="userSpaceOnUse" id="color-33"><stop offset="0" stop-color="#cccccc"/><stop offset="1" stop-color="#1a1a1a"/></linearGradient></defs><g transform="translate(-163.87538,-91.27495)"><g data-paper-data="{&quot;isPaintingLayer&quot;:true}" fill-rule="nonzero" stroke="#000000" stroke-linecap="butt" stroke-linejoin="miter" stroke-miterlimit="10" stroke-dasharray="" stroke-dashoffset="0" style="mix-blend-mode: normal"><g data-paper-data="{&quot;index&quot;:null}" stroke-width="0.5"><path d="M307.25714,167.19645l-15.8578,-7.65302l15.74374,-8.1544l15.8578,7.65303z" data-paper-data="{&quot;index&quot;:null}" fill="url(#color-1)"/><path d="M291.23827,159.44934l-15.85781,-7.65303l15.74374,-8.15439l15.85781,7.65303z" data-paper-data="{&quot;index&quot;:null}" fill="url(#color-2)"/></g><g data-paper-data="{&quot;index&quot;:null}" stroke-width="0.5"><path d="M307.05201,146.85371l-15.7912,-7.65303l15.67762,-8.1544l15.7912,7.65303z" data-paper-data="{&quot;index&quot;:null}" fill="url(#color-3)"/><path d="M291.10041,139.10659l-15.7912,-7.65302l15.67762,-8.1544l15.7912,7.65302z" data-paper-data="{&quot;index&quot;:null}" fill="url(#color-4)"/></g><path d="M307.13993,167.21136v-20.15208l16.29934,-8.32086v20.28209z" data-paper-data="{&quot;index&quot;:null}" fill="url(#color-5)" stroke-width="0.5"/><path d="M290.76935,159.08987v-20.28209l16.29933,8.32086v20.15208z" data-paper-data="{&quot;index&quot;:null}" fill="url(#color-6)" stroke-width="0.5"/><path d="M274.93316,151.3228v-19.72642l15.89852,8.09289v19.59996z" data-paper-data="{&quot;index&quot;:null}" fill="url(#color-7)" stroke-width="0.5"/><g data-paper-data="{&quot;index&quot;:null}" stroke-width="0.5"><path d="M291.85715,174.99646l-15.85781,-7.65302l15.74374,-8.15441l15.85781,7.65304z" data-paper-data="{&quot;index&quot;:null}" fill="url(#color-8)"/><path d="M275.83826,167.24934l-15.8578,-7.65303l15.74374,-8.15439l15.8578,7.65302z" data-paper-data="{&quot;index&quot;:null}" fill="url(#color-9)"/></g><g data-paper-data="{&quot;index&quot;:null}" stroke-width="0.5"><path d="M291.652,154.65371l-15.7912,-7.65303l15.67762,-8.1544l15.7912,7.65304z" data-paper-data="{&quot;index&quot;:null}" fill="url(#color-10)"/><path d="M275.70041,146.90659l-15.7912,-7.65303l15.67762,-8.1544l15.7912,7.65302z" data-paper-data="{&quot;index&quot;:null}" fill="url(#color-11)"/></g><path d="M291.73994,175.01136v-20.15208l16.29933,-8.32086v20.28209z" data-paper-data="{&quot;index&quot;:null}" fill="url(#color-12)" stroke-width="0.5"/><path d="M275.36935,166.88986v-20.28209l16.29933,8.32086v20.15208z" data-paper-data="{&quot;index&quot;:null}" fill="url(#color-13)" stroke-width="0.5"/><path d="M230.54591,240.39961v-41.95085l33.01938,-17.32164v42.2215z" data-paper-data="{&quot;index&quot;:null}" fill="url(#color-14)" stroke-width="2"/><path d="M259.53316,159.1228v-19.72642l15.89853,8.09289v19.59996z" data-paper-data="{&quot;index&quot;:null}" fill="url(#color-15)" stroke-width="0.5"/><g stroke-width="2"><path d="M230.10053,241.21579l32.12492,-15.93141l31.89385,16.97512l-32.12492,15.93141z" data-paper-data="{&quot;index&quot;:null}" fill="url(#color-16)"/><path d="M262.55177,225.08852l32.12492,-15.93141l31.89385,16.97512l-32.12492,15.93141z" data-paper-data="{&quot;index&quot;:null}" fill="url(#color-17)"/></g><path d="M262.3762,258.36631v-41.95085l33.01937,-17.32165v42.22151z" data-paper-data="{&quot;index&quot;:null}" fill="url(#color-18)" stroke-width="2"/><path d="M295.2693,241.73035v-40.80151l32.20743,-16.84707v41.06474z" data-paper-data="{&quot;index&quot;:null}" fill="url(#color-19)" stroke-width="2"/><g data-paper-data="{&quot;index&quot;:null}" stroke-width="2"><path d="M230.78335,240.36857l-32.12492,-15.93141l31.89386,-16.97512l32.12492,15.93141z" data-paper-data="{&quot;index&quot;:null}" fill="url(#color-20)"/><path d="M198.33211,224.24129l-32.12492,-15.93141l31.89386,-16.97512l32.12493,15.93141z" data-paper-data="{&quot;index&quot;:null}" fill="url(#color-21)"/></g><g data-paper-data="{&quot;index&quot;:null}" stroke-width="2"><path d="M230.63897,198.02081l-32.12492,-15.93141l31.89386,-16.97512l32.12492,15.93141z" data-paper-data="{&quot;index&quot;:null}" fill="#6dda00"/><path d="M198.18774,181.89353l-32.12492,-15.93141l31.89385,-16.97512l32.12492,15.93141z" data-paper-data="{&quot;index&quot;:null}" fill="url(#color-22)"/></g><path d="M197.38216,223.49298v-42.22151l33.01937,17.32164v41.95085z" data-paper-data="{&quot;index&quot;:null}" fill="url(#color-23)" stroke-width="2"/><path d="M229.21244,241.17094v-42.22149l33.01938,17.32164v41.95085z" fill="url(#color-24)" stroke-width="2"/><path d="M165.30102,207.32418v-41.06475l32.20743,16.84708v40.80151z" data-paper-data="{&quot;index&quot;:null}" fill="url(#color-25)" stroke-width="2"/><g stroke-width="2"><path d="M166.29305,166.80564l32.12492,-15.93141l31.89385,16.97512l-32.12492,15.93141z" data-paper-data="{&quot;index&quot;:null}" fill="url(#color-26)"/><path d="M198.74429,150.67836l32.12492,-15.9314l31.89386,16.97512l-32.12493,15.93141z" data-paper-data="{&quot;index&quot;:null}" fill="url(#color-27)"/></g><g fill="#6dda00" stroke-width="2"><path d="M166.43741,124.45787l32.12492,-15.93141l31.89386,16.97512l-32.12493,15.93141z" data-paper-data="{&quot;index&quot;:null}"/><path d="M198.88866,108.33058l32.12492,-15.93141l31.89386,16.97512l-32.12493,15.93141z" data-paper-data="{&quot;index&quot;:null}"/></g><path d="M165.40496,166.76079v-42.2215l33.01938,17.32164v41.95085z" fill="url(#color-28)" stroke-width="2"/><path d="M198.56872,183.95615v-41.95085l33.01938,-17.32164v42.22151z" data-paper-data="{&quot;index&quot;:null}" fill="url(#color-29)" stroke-width="2"/><path d="M231.46182,167.3202v-40.80151l32.20743,-16.84708v41.06474z" data-paper-data="{&quot;index&quot;:null}" fill="url(#color-30)" stroke-width="2"/><path d="M232.08056,166.60896l32.12492,-15.93141l31.89385,16.97512l-32.12492,15.93141z" data-paper-data="{&quot;index&quot;:null}" fill="url(#color-31)" stroke-width="2"/><path d="M232.22493,125.34378l32.12492,-15.93141l31.89386,16.97512l-32.12493,15.93141z" data-paper-data="{&quot;index&quot;:null}" fill="#6dda00" stroke-width="2"/><path d="M232.01784,166.43963l-0.27065,-40.5976l31.93677,16.78034v40.86825z" fill="url(#color-32)" stroke-width="2"/><path d="M264.64031,183.63499v-40.86824l31.93678,-16.78034v41.40955z" data-paper-data="{&quot;index&quot;:null}" fill="url(#color-33)" stroke-width="2"/><g fill="#6dda00" stroke-width="2"><path d="M230.2449,198.86803l32.12492,-15.93141l31.89386,16.97512l-32.12492,15.93141z" data-paper-data="{&quot;index&quot;:null}"/><path d="M262.69614,182.74075l32.12492,-15.93141l31.89385,16.97512l-32.12492,15.93141z" data-paper-data="{&quot;index&quot;:null}"/></g><path d="M313.42992,232.01425l-0.32609,-19.95227l10.25129,-4.91264l0.20774,19.7887z" fill="#000000" stroke-width="0.5"/><path d="M172.52014,158.11467l-0.24922,-18.94798l17.70189,9.71976v18.2003z" fill="#4ccbff" stroke-width="0.5"/><path d="M170.88102,200.6257l-0.24922,-18.94798l17.70189,9.71976v18.2003z" fill="#4ccbff" stroke-width="0.5"/><path d="M208.07919,166.62077v-18.2003l17.70189,-9.71976l-0.24922,18.94798z" data-paper-data="{&quot;index&quot;:null}" fill="#4ccbff" stroke-width="0.5"/></g></g></svg>