<svg version="1.1" xmlns="http://www.w3.org/2000/svg" xmlns:xlink="http://www.w3.org/1999/xlink" width="247.66433" height="207.63821" viewBox="0,0,247.66433,207.63821"><g transform="translate(-117.51998,-35.3595)"><g data-paper-data="{&quot;isPaintingLayer&quot;:true}" fill-rule="nonzero" stroke-linejoin="miter" stroke-miterlimit="10" stroke-dasharray="" stroke-dashoffset="0" style="mix-blend-mode: normal"><g><g fill="none" stroke-width="2" stroke-linecap="butt"><g stroke="none"><path d="M158.51998,200.08666l40.83521,-20.25102l40.54149,21.57772l-40.83521,20.25102z" data-paper-data="{&quot;index&quot;:null}"/><path d="M199.76998,179.58666l40.83521,-20.25102l40.54149,21.57772l-40.83521,20.25102z" data-paper-data="{&quot;index&quot;:null}"/><path d="M240.43665,159.25332l40.83521,-20.25102l40.54149,21.57772l-40.83521,20.25102z" data-paper-data="{&quot;index&quot;:null}"/></g><g stroke="none"><path d="M117.51998,178.08666l40.83521,-20.25102l40.54149,21.57772l-40.83521,20.25102z" data-paper-data="{&quot;index&quot;:null}"/><path d="M158.76998,157.58666l40.83521,-20.25102l40.54149,21.57772l-40.83521,20.25102z" data-paper-data="{&quot;index&quot;:null}"/><path d="M199.43665,137.25332l40.83521,-20.25102l40.54149,21.57772l-40.83521,20.25102z" data-paper-data="{&quot;index&quot;:null}"/></g><g><path d="M199.18665,221.41999l40.83521,-20.25102l40.54149,21.57772l-40.83521,20.25102z" data-paper-data="{&quot;index&quot;:null}" stroke="none"/><path d="M240.43665,200.91999l40.83521,-20.25102l40.54149,21.57772l-40.83521,20.25102z" data-paper-data="{&quot;index&quot;:null}" stroke="#000000"/><path d="M281.10332,180.58666l40.83521,-20.25102l40.54149,21.57772l-40.83521,20.25102z" data-paper-data="{&quot;index&quot;:null}" stroke="#000000"/></g></g><g><g><path d="M204.54342,183.1154c-21.10487,10.62565 -75.6904,0.73415 -75.11918,-1.27497c1.71375,-6.02766 12.75177,-46.31728 12.75177,-46.31728c0,0 0.04037,-0.85595 0.08921,-1.89133c0.22424,-4.75379 1.88067,-38.68819 1.88067,-38.68819c0,0 16.74992,6.44653 25.54356,6.37786c8.80323,-0.06874 27.24707,-6.79006 27.24707,-6.79006l0.91187,46.34883z" fill="#a5a5a5" stroke="#000000" stroke-width="2" stroke-linecap="round"/><g fill="none"><path d="" stroke="#000000" stroke-width="2" stroke-linecap="round"/><g stroke="none" stroke-width="1" stroke-linecap="butt" font-family="sans-serif" font-weight="normal" font-size="12" text-anchor="start"/></g><path d="M177.36651,78.65376c0,3.48459 -2.94763,6.30941 -6.58375,6.30941c-3.6361,0 -6.58375,-2.82482 -6.58375,-6.30941c0,-3.48459 2.94763,-6.30941 6.58375,-6.30941c3.6361,0 6.58375,2.82482 6.58375,6.30941z" fill="#ffffff" stroke="#000000" stroke-width="1" stroke-linecap="butt"/><path d="M188.06509,65.34912c0,3.56034 -3.19327,6.44658 -7.13238,6.44658c-3.93911,0 -7.13238,-2.88623 -7.13238,-6.44658c0,-3.56034 3.19327,-6.44658 7.13238,-6.44658c3.93911,0 7.13238,2.88624 7.13238,6.44658z" fill="#ffffff" stroke="#000000" stroke-width="1" stroke-linecap="butt"/><path d="M204.52443,50.67288c0,3.93911 -16.51628,4.9378 -20.98565,4.9378c-1.24117,0 -8.86769,1.2003 -13.86378,1.10624c-4.90452,-0.09234 -6.91014,0.44835 -7.64536,-0.30773c-0.15742,-0.16188 -4.88314,-1.01332 -5.73788,-1.4187c-2.87059,-1.36145 -6.29721,-3.88003 -6.73014,-6.10455c-0.43126,-2.21603 5.85912,-8.1424 5.85912,-8.91161c0,-3.93911 22.00273,-4.11483 26.47211,-4.11483c4.46937,0 22.63158,10.8743 22.63158,14.81341z" fill="#ffffff" stroke="#000000" stroke-width="1" stroke-linecap="butt"/><path d="M197.66637,92.90127c0,2.87859 -13.19489,7.95534 -28.11803,7.95534c-14.92314,0 -25.92346,-5.07677 -25.92346,-7.95534c0,-2.87859 12.0976,-6.0351 27.02075,-6.0351c14.92314,0 27.02075,3.15651 27.02075,6.0351z" fill="#000000" stroke="#000000" stroke-width="2" stroke-linecap="butt"/></g><g data-paper-data="{&quot;index&quot;:null}"><path d="M204.57406,150.27785l0.733,-37.25739c0,0 14.82604,5.40293 21.90249,5.45818c7.06875,0.0552 20.53313,-5.12683 20.53313,-5.12683c0,0 1.33152,27.27808 1.51177,31.09941c0.03926,0.8323 0.07171,1.52035 0.07171,1.52035c0,0 8.87289,32.38671 10.25049,37.23204c0.45916,1.61503 -43.41928,9.56629 -60.38437,1.02489z" fill="#a5a5a5" stroke="#000000" stroke-width="2" stroke-linecap="round"/><g fill="none"><path d="" stroke="#000000" stroke-width="2" stroke-linecap="round"/><g stroke="none" stroke-width="1" stroke-linecap="butt" font-family="sans-serif" font-weight="normal" font-size="12" text-anchor="start"/></g><path d="M226.33067,95.18544c2.92287,0 5.29232,2.27074 5.29232,5.0718c0,2.80108 -2.36945,5.0718 -5.29232,5.0718c-2.92287,0 -5.29232,-2.27072 -5.29232,-5.0718c0,-2.80108 2.36945,-5.0718 5.29232,-5.0718z" fill="#ffffff" stroke="#000000" stroke-width="1" stroke-linecap="butt"/><path d="M218.17168,84.38029c3.16644,0 5.73335,2.32009 5.73335,5.18207c0,2.86197 -2.56691,5.18207 -5.73335,5.18207c-3.16644,0 -5.73335,-2.32009 -5.73335,-5.18207c0,-2.86197 2.56691,-5.18207 5.73335,-5.18207z" fill="#ffffff" stroke="#000000" stroke-width="1" stroke-linecap="butt"/><path d="M199.20754,77.7649c0,-3.16644 14.59966,-11.90771 18.19235,-11.90771c3.59269,0 21.27954,0.14127 21.27954,3.30771c0,0.61834 5.05651,5.38223 4.70983,7.16358c-0.34799,1.78819 -3.10249,3.81274 -5.41,4.90714c-0.68708,0.32586 -4.48584,1.01029 -4.61238,1.14042c-0.59102,0.60777 -2.20323,0.17314 -6.1457,0.24736c-4.01608,0.07561 -10.14666,-0.88924 -11.14436,-0.88924c-3.59269,0 -16.86927,-0.8028 -16.86927,-3.96924z" fill="#ffffff" stroke="#000000" stroke-width="1" stroke-linecap="butt"/><path d="M204.72035,111.71008c0,-2.31394 9.72463,-4.8513 21.72057,-4.8513c11.99593,0 21.72057,2.53736 21.72057,4.8513c0,2.31394 -8.84259,6.39488 -20.8385,6.39488c-11.99593,0 -22.60262,-4.08094 -22.60262,-6.39488z" fill="#000000" stroke="#000000" stroke-width="2" stroke-linecap="butt"/></g></g><g stroke="#000000" stroke-width="2" stroke-linecap="butt"><g fill="none"><path d="M240.18665,200.58665l40.83521,-20.25102l40.54149,21.57772l-40.83521,20.25102z" data-paper-data="{&quot;index&quot;:null}"/><path d="M281.43665,180.08665l40.83521,-20.25102l40.54149,21.57772l-40.83521,20.25102z" data-paper-data="{&quot;index&quot;:null}"/></g><g fill="#bebebe"><path d="M240.37017,146.75679l40.83521,-20.25102l40.54149,21.57772l-40.83521,20.25102z" data-paper-data="{&quot;index&quot;:null}"/><path d="M281.62017,126.25679l40.83521,-20.25102l40.54149,21.57772l-40.83521,20.25102z" data-paper-data="{&quot;index&quot;:null}"/></g><path d="M239.05777,200.52964v-53.66935l41.97219,22.0182v53.32532z" fill="#bebebe"/><path d="M281.21348,222.38732v-53.32532l41.97218,-22.0182v53.66936z" data-paper-data="{&quot;index&quot;:null}" fill="#bebebe"/><path d="M323.02515,201.24072v-51.86435l40.94008,-21.41496v52.19896z" data-paper-data="{&quot;index&quot;:null}" fill="#bebebe"/></g></g></g></g></svg>