<svg version="1.1" xmlns="http://www.w3.org/2000/svg" xmlns:xlink="http://www.w3.org/1999/xlink" width="86.55332" height="118.56694" viewBox="0,0,86.55332,118.56694"><g transform="translate(-196.75926,-84.6024)"><g data-paper-data="{&quot;isPaintingLayer&quot;:true}" fill-rule="nonzero" stroke-linejoin="miter" stroke-miterlimit="10" stroke-dasharray="" stroke-dashoffset="0" style="mix-blend-mode: normal"><g data-paper-data="{&quot;index&quot;:null}" fill="none" stroke="none" stroke-width="1" stroke-linecap="butt" font-family="sans-serif" font-weight="normal" font-size="12" text-anchor="start"/><g stroke="#000000" stroke-width="2"><path d="M199.31166,179.33666l40.83521,-20.25102l40.54149,21.57772l-40.83521,20.25102z" data-paper-data="{&quot;index&quot;:null}" fill="none" stroke-linecap="butt"/><path d="M199.49518,126.88292l40.83521,-20.25102l40.54149,21.57772l-40.83521,20.25102z" data-paper-data="{&quot;index&quot;:null}" fill="#b77f1f" stroke-linecap="butt"/><path d="M240.97935,201.49512v-51.94918l40.59605,-21.33013l-0.34403,51.60515z" fill="#b77f1f" stroke-linecap="butt"/><path d="M275.0073,138.16545l0.53756,38.16656" fill="none" stroke-linecap="round"/><path d="M267.48151,162.35552l-0.53756,-15.58916" fill="none" stroke-linecap="round"/><path d="M260.33128,165.74285l-0.53756,-13.97648" fill="none" stroke-linecap="round"/><path d="M249.58013,190.47047l-0.53755,-38.16655" fill="none" stroke-linecap="round"/><path d="M199.23194,179.12142l-0.34403,-51.60515l40.59605,21.33013v51.94918z" fill="#b77f1f" stroke-linecap="butt"/><path d="M205.456,137.46591l-0.53755,38.16656" fill="none" stroke-linecap="round"/><path d="M212.9818,179.93292l0.53756,-19.35206" fill="none" stroke-linecap="round"/><path d="M220.66959,162.89308l-0.53756,19.35205" fill="none" stroke-linecap="round"/><path d="M231.42073,151.60438l-0.53755,38.16655" fill="none" stroke-linecap="round"/><g stroke-linecap="round"><path d="M239.52259,87.32195v60.74873l-41.06478,-21.38084z" data-paper-data="{&quot;index&quot;:null}" fill="#ffe950"/><path d="M234.2705,98.01065l-4.30046,13.43892" data-paper-data="{&quot;index&quot;:null}" fill="none"/><path d="M231.7447,137.4143l2.68779,-19.35205" data-paper-data="{&quot;index&quot;:null}" fill="none"/><path d="M219.54287,112.84866l-9.67603,13.43893" data-paper-data="{&quot;index&quot;:null}" fill="none"/><path d="M226.36913,119.67492l-3.7629,12.36381" data-paper-data="{&quot;index&quot;:null}" fill="none"/></g><g data-paper-data="{&quot;index&quot;:null}" stroke-linecap="round"><path d="M281.61403,126.31427l-41.06478,21.38084v-60.74873z" data-paper-data="{&quot;index&quot;:null}" fill="#ffe950"/><path d="M245.80134,97.63508l4.30046,13.43892" data-paper-data="{&quot;index&quot;:null}" fill="none"/><path d="M248.32714,137.03873l-2.68779,-19.35205" data-paper-data="{&quot;index&quot;:null}" fill="none"/><path d="M260.52896,112.47309l9.67603,13.43892" data-paper-data="{&quot;index&quot;:null}" fill="none"/><path d="M257.46561,131.66315l-3.76291,-12.3638" data-paper-data="{&quot;index&quot;:null}" fill="none"/></g><path d="M268.88774,170.25689l1.07511,13.97648l-6.99527,3.22535l-1.06809,-13.97649z" data-paper-data="{&quot;index&quot;:null}" fill="#5c4700" stroke-linecap="butt"/><path d="M214.05691,152.51751l0.53756,-8.06336l5.37557,2.15023l-0.53756,7.5258z" fill="#00b6b7" stroke-linecap="butt"/><path d="M266.36194,151.60438l-0.53756,-7.5258l5.37557,-2.15023l0.53756,8.06336z" data-paper-data="{&quot;index&quot;:null}" fill="#00b6b7" stroke-linecap="butt"/><path d="M255.23523,156.60438l-0.53756,-7.5258l5.37557,-2.15023l0.53756,8.06336z" data-paper-data="{&quot;index&quot;:null}" fill="#00b6b7" stroke-linecap="butt"/></g></g></g></svg>