<svg version="1.1" xmlns="http://www.w3.org/2000/svg" xmlns:xlink="http://www.w3.org/1999/xlink" width="331.56238" height="191.37482" viewBox="0,0,331.56238,191.37482"><g transform="translate(-74.15011,-95.67054)"><g data-paper-data="{&quot;isPaintingLayer&quot;:true}" fill-rule="nonzero" stroke-linejoin="miter" stroke-miterlimit="10" stroke-dasharray="" stroke-dashoffset="0" style="mix-blend-mode: normal"><g><g fill="#f5ffa9" stroke="#f5ffa9" stroke-width="2" stroke-linecap="butt"><path d="M158.35332,199.75334l40.83521,-20.25102l40.54149,21.57772l-40.83521,20.25102z" data-paper-data="{&quot;index&quot;:null}"/><path d="M199.60332,179.25334l40.83521,-20.25102l40.54149,21.57772l-40.83521,20.25102z" data-paper-data="{&quot;index&quot;:null}"/><path d="M240.26999,158.92l40.83521,-20.25102l40.54149,21.57772l-40.83521,20.25102z" data-paper-data="{&quot;index&quot;:null}"/></g><g fill="#f5ffa9" stroke="#f5ffa9" stroke-width="2" stroke-linecap="butt"><path d="M117.51998,178.08668l40.83521,-20.25102l40.54149,21.57772l-40.83521,20.25102z" data-paper-data="{&quot;index&quot;:null}"/><path d="M158.76998,157.58666l40.83521,-20.25102l40.54149,21.57772l-40.83521,20.25102z" data-paper-data="{&quot;index&quot;:null}"/><path d="M199.43665,137.25331l40.83521,-20.25102l40.54149,21.57772l-40.83521,20.25102z" data-paper-data="{&quot;index&quot;:null}"/></g><g fill="#f5ffa9" stroke="#f5ffa9" stroke-width="2" stroke-linecap="butt"><path d="M199.18665,221.42l40.83521,-20.25102l40.54149,21.57772l-40.83521,20.25102z" data-paper-data="{&quot;index&quot;:null}"/><path d="M240.43665,200.92l40.83521,-20.25102l40.54149,21.57772l-40.83521,20.25102z" data-paper-data="{&quot;index&quot;:null}"/><path d="M281.10332,180.58668l40.83521,-20.25102l40.54149,21.57772l-40.83521,20.25102z" data-paper-data="{&quot;index&quot;:null}"/></g><path d="M198.63485,264.34342l40.83521,-20.25102l40.54149,21.57772l-40.83521,20.25102z" data-paper-data="{&quot;index&quot;:null}" fill="#f5ffa9" stroke="#f5ffa9" stroke-width="2" stroke-linecap="butt"/><path d="M240.52674,243.80289l40.83521,-20.25102l40.54149,21.57772l-40.83521,20.25102z" data-paper-data="{&quot;index&quot;:null}" fill="#f5ffa9" stroke="#f5ffa9" stroke-width="2" stroke-linecap="butt"/><path d="M322.14835,202.58668l40.83521,-20.25102l40.54149,21.57772l-40.83521,20.25102z" data-paper-data="{&quot;index&quot;:null}" fill="#f5ffa9" stroke="#f5ffa9" stroke-width="2" stroke-linecap="butt"/><path d="M281.33754,222.58668l40.83521,-20.25102l40.54149,21.57772l-40.83521,20.25102z" data-paper-data="{&quot;index&quot;:null}" fill="#f5ffa9" stroke="#f5ffa9" stroke-width="2" stroke-linecap="butt"/><path d="M76.33755,198.39749l40.83521,-20.25102l40.54149,21.57772l-40.83521,20.25102z" data-paper-data="{&quot;index&quot;:null}" fill="#f5ffa9" stroke="#f5ffa9" stroke-width="2" stroke-linecap="butt"/><path d="M115.79701,219.61371l40.83521,-20.25102l40.54149,21.57772l-40.83521,20.25102z" data-paper-data="{&quot;index&quot;:null}" fill="#f5ffa9" stroke="#f5ffa9" stroke-width="2" stroke-linecap="butt"/><path d="M156.47269,242.04614l40.83521,-20.25102l40.54149,21.57772l-40.83521,20.25102z" data-paper-data="{&quot;index&quot;:null}" fill="#f5ffa9" stroke="#f5ffa9" stroke-width="2" stroke-linecap="butt"/><g fill="none" stroke="#d4e45c" stroke-width="2.5" stroke-linecap="round"><path d="M119.25929,159.42978l0.21127,27.25352"/><path d="M123.90719,160.27485l-5.28169,2.53521l-3.16902,-2.53521"/><path d="M118.62549,165.97909l-4.01408,-2.53521"/><path d="M119.8931,166.19034l4.01409,-0.84508"/><path d="M114.18887,169.14808l4.01409,3.38028"/><path d="M124.54099,169.57064l-4.64789,2.74648"/></g><g fill="none" stroke="#d4e45c" stroke-width="2.5" stroke-linecap="round"><path d="M95.76611,203.63676l-0.21127,-27.25352"/><path d="M100.20273,177.2283l-5.28169,2.53521l-3.16901,-2.53521"/><path d="M94.92104,182.93253l-4.01408,-2.53521"/><path d="M96.18865,183.14378l4.01408,-0.84507"/><path d="M94.4985,189.48183l-4.01408,-3.38028"/><path d="M100.83654,186.52407l-4.64789,2.74648"/></g><g fill="none" stroke="#d4e45c" stroke-width="2.5" stroke-linecap="round"><path d="M141.20262,174.57148l0.21126,27.25352"/><path d="M145.85051,175.41657l-5.28169,2.53521l-3.16902,-2.53521"/><path d="M140.56881,181.12077l-4.01408,-2.53521"/><path d="M141.83642,181.33206l4.01409,-0.84508"/><path d="M140.14628,187.67009l-4.01409,-3.38028"/><path d="M146.48431,184.71234l-4.64789,2.74648"/></g><g fill="none" stroke="#d4e45c" stroke-width="2.5" stroke-linecap="round"><path d="M119.22893,186.54518l0.21127,27.25352"/><path d="M123.87682,187.39025l-5.28169,2.53521l-3.16902,-2.53521"/><path d="M118.59513,193.09447l-4.01408,-2.53521"/><path d="M119.86273,193.30573l4.01408,-0.84508"/><path d="M118.17259,199.64376l-4.01409,-3.38028"/><path d="M119.86273,199.4325l4.64789,-2.74648"/></g><g fill="none" stroke="#d4e45c" stroke-width="2.5" stroke-linecap="round"><path d="M107.72967,209.19344l-0.21127,-27.25352"/><path d="M112.1663,182.78497l-5.28169,2.53521l-3.16902,-2.53521"/><path d="M106.8846,188.48921l-4.01408,-2.53521"/><path d="M108.15221,188.70048l4.01408,-0.84508"/><path d="M106.46207,195.03851l-4.01409,-3.38028"/><path d="M108.15221,194.82722l4.64789,-2.74648"/></g><g fill="none" stroke="#d4e45c" stroke-width="2.5" stroke-linecap="round"><path d="M157.20336,168.66712l-0.21126,-27.25352"/><path d="M161.63997,142.25865l-5.28169,2.53521l-3.16901,-2.53521"/><path d="M152.34421,145.42768l4.01408,2.53521"/><path d="M161.63997,147.32907l-4.01408,0.84508"/><path d="M151.92166,151.13189l4.01409,3.38028"/><path d="M157.62589,154.30091l4.64789,-2.74648"/></g><g fill="none" stroke="#d4e45c" stroke-width="2.5" stroke-linecap="round"><path d="M171.46577,147.59778l0.21127,27.25352"/><path d="M176.11367,148.44286l-5.28169,2.53521l-3.16902,-2.53521"/><path d="M166.81789,151.61189l4.01408,2.53521"/><path d="M172.09958,154.35837l4.01408,-0.84508"/><path d="M166.39535,157.31611l4.01409,3.38028"/><path d="M172.09958,160.48511l4.64789,-2.74648"/></g><g fill="none" stroke="#d4e45c" stroke-width="2.5" stroke-linecap="round"><path d="M186.15073,181.03554l-0.21127,-27.25352"/><path d="M190.58735,154.62708l-5.28169,2.53521l-3.16902,-2.53521"/><path d="M181.29158,157.79609l4.01408,2.53521"/><path d="M186.57326,160.54258l4.01408,-0.84508"/><path d="M184.88312,166.8806l-4.01409,-3.38028"/><path d="M186.57326,166.66934l4.64789,-2.74648"/></g><g fill="none" stroke="#d4e45c" stroke-width="2.5" stroke-linecap="round"><path d="M145.93946,148.1241l0.21127,27.25352"/><path d="M150.58735,148.96918l-5.28169,2.53521l-3.16902,-2.53521"/><path d="M141.29158,152.13821l4.01408,2.53521"/><path d="M146.57326,154.88468l4.01408,-0.84508"/><path d="M140.86903,157.84243l4.01409,3.38028"/><path d="M151.22115,158.26495l-4.64789,2.74648"/></g><g fill="none" stroke="#d4e45c" stroke-width="2.5" stroke-linecap="round"><path d="M161.80862,181.16712l-0.21127,-27.25352"/><path d="M166.24525,154.75865l-5.28169,2.53521l-3.16902,-2.53521"/><path d="M160.96355,160.46289l-4.01408,-2.53521"/><path d="M162.23116,160.67415l4.01408,-0.84508"/><path d="M156.52693,163.63189l4.01409,3.38028"/><path d="M162.23116,166.8009l4.64789,-2.74648"/></g><g fill="none" stroke="#d4e45c" stroke-width="2.5" stroke-linecap="round"><path d="M173.70261,158.91359l0.21127,27.25352"/><path d="M178.35051,159.75865l-5.28169,2.53521l-3.16902,-2.53521"/><path d="M173.06881,165.46288l-4.01408,-2.53521"/><path d="M174.33642,165.67415l4.01408,-0.84508"/><path d="M172.64628,172.01219l-4.01409,-3.38028"/><path d="M174.33642,171.8009l4.64789,-2.74648"/></g><g fill="none" stroke="#d4e45c" stroke-width="2.5" stroke-linecap="round"><path d="M136.86051,154.04518l0.21127,27.25352"/><path d="M141.5084,154.89022l-5.28169,2.53521l-3.16902,-2.53521"/><path d="M136.22671,160.59445l-4.01408,-2.53521"/><path d="M137.49431,160.80574l4.01408,-0.84508"/><path d="M131.79008,163.76348l4.01409,3.38028"/><path d="M142.1422,164.18602l-4.64789,2.74648"/></g><g fill="none" stroke="#d4e45c" stroke-width="2.5" stroke-linecap="round"><path d="M151.9402,189.45659l-0.21127,-27.25352"/><path d="M156.37682,163.04813l-5.28169,2.53521l-3.16902,-2.53521"/><path d="M151.09513,168.75237l-4.01408,-2.53521"/><path d="M152.36273,168.96362l4.01408,-0.84508"/><path d="M150.67259,175.30166l-4.01409,-3.38028"/><path d="M157.01062,172.34391l-4.64789,2.74648"/></g><g fill="none" stroke="#d4e45c" stroke-width="2.5" stroke-linecap="round"><path d="M162.07178,194.06185l-0.21126,-27.25352"/><path d="M166.5084,167.65339l-5.28169,2.53521l-3.16902,-2.53521"/><path d="M157.21262,170.82241l4.01409,2.53521"/><path d="M162.49431,173.5689l4.01409,-0.84507"/><path d="M160.80417,179.90693l-4.01408,-3.38028"/><path d="M162.49431,179.69566l4.64789,-2.74648"/></g><g fill="none" stroke="#d4e45c" stroke-width="2.5" stroke-linecap="round"><path d="M130.18035,166.79822l0.21127,27.25352"/><path d="M134.82823,167.64329l-5.28169,2.53521l-3.16901,-2.53521"/><path d="M129.54655,173.34749l-4.01408,-2.53521"/><path d="M134.82824,172.7137l-4.01409,0.84507"/><path d="M129.12401,179.89681l-4.01409,-3.38028"/><path d="M135.46204,176.93906l-4.64789,2.74648"/></g><g fill="none" stroke="#d4e45c" stroke-width="2.5" stroke-linecap="round"><path d="M130.65478,206.157l-0.21127,-27.25352"/><path d="M135.09139,179.74854l-5.28169,2.53521l-3.16901,-2.53521"/><path d="M125.79563,182.91756l4.01408,2.53521"/><path d="M131.07731,185.66402l4.01409,-0.84507"/><path d="M129.38717,192.00207l-4.01409,-3.38028"/><path d="M131.07731,191.79079l4.64789,-2.74648"/></g><g fill="none" stroke="#d4e45c" stroke-width="2.5" stroke-linecap="round"><path d="M116.49615,167.71925l0.21126,27.25352"/><path d="M121.14403,168.56434l-5.28169,2.53521l-3.16902,-2.53521"/><path d="M111.84825,171.73335l4.01409,2.53521"/><path d="M121.14403,173.63473l-4.01409,0.84508"/><path d="M111.42572,177.43757l4.01408,3.38028"/><path d="M117.12994,180.60659l4.64789,-2.74648"/></g><g fill="none" stroke="#d4e45c" stroke-width="2.5" stroke-linecap="round"><path d="M109.8653,188.13068l-0.21126,-27.25352"/><path d="M114.30193,161.72222l-5.28169,2.53521l-3.16902,-2.53521"/><path d="M109.02023,167.42646l-4.01409,-2.53521"/><path d="M110.28784,167.63772l4.01408,-0.84508"/><path d="M108.5977,173.97575l-4.01408,-3.38028"/><path d="M114.93573,171.01801l-4.64789,2.74648"/></g><g fill="none" stroke="#d4e45c" stroke-width="2.5" stroke-linecap="round"><g><path d="M199.65347,142.98375l-0.21126,-27.25352"/><path d="M204.09009,116.5753l-5.28169,2.53521l-3.16902,-2.53521"/><path d="M194.79431,119.74431l4.01409,2.53521"/><path d="M200.076,122.4908l4.01409,-0.84507"/><path d="M198.38586,128.82883l-4.01408,-3.38028"/><path d="M200.076,128.61755l4.64789,-2.74648"/></g><g><path d="M209.69451,149.86347l-0.21126,-27.25352"/><path d="M214.13113,123.45501l-5.28169,2.53521l-3.16902,-2.53521"/><path d="M208.84944,129.15924l-4.01409,-2.53521"/><path d="M210.11704,129.37049l4.01409,-0.84507"/><path d="M204.41282,132.32824l4.01408,3.38028"/><path d="M210.11704,135.49727l4.64789,-2.74648"/></g><g><path d="M186.7836,147.17372l-0.21126,-27.25352"/><path d="M191.22022,120.76527l-5.28169,2.53521l-3.16902,-2.53521"/><path d="M181.92444,123.93428l4.01409,2.53521"/><path d="M187.20613,126.68077l4.01409,-0.84507"/><path d="M185.51599,133.01878l-4.01408,-3.38028"/><path d="M187.20613,132.80753l4.64789,-2.74648"/></g><g><path d="M219.69451,159.86345l-0.21126,-27.25352"/><path d="M224.13113,133.45501l-5.28169,2.53521l-3.16902,-2.53521"/><path d="M214.83535,136.62402l4.01409,2.53521"/><path d="M220.11704,139.3705l4.01409,-0.84507"/><path d="M218.4269,145.70853l-4.01408,-3.38028"/><path d="M224.76493,142.75078l-4.64789,2.74648"/></g><g><path d="M199.11902,151.76243l-0.21126,-27.25352"/><path d="M203.55564,125.35399l-5.28169,2.53521l-3.16902,-2.53521"/><path d="M198.27395,131.0582l-4.01409,-2.53521"/><path d="M203.55564,130.42441l-4.01409,0.84507"/><path d="M197.85141,137.60751l-4.01408,-3.38028"/><path d="M199.54155,137.39623l4.64789,-2.74648"/></g><g><path d="M211.45509,133.69554l0.21126,27.25352"/><path d="M216.10297,134.54061l-5.28169,2.53521l-3.16902,-2.53521"/><path d="M210.82128,140.24483l-4.01409,-2.53521"/><path d="M212.08888,140.4561l4.01409,-0.84507"/><path d="M206.38466,143.41384l4.01408,3.38028"/><path d="M212.08888,146.58287l4.64789,-2.74648"/></g><g><path d="M179.15755,157.94606l-0.21126,-27.25352"/><path d="M183.59417,131.5376l-5.28169,2.53521l-3.16902,-2.53521"/><path d="M174.29839,134.70662l4.01409,2.53521"/><path d="M183.59417,136.60803l-4.01409,0.84507"/><path d="M177.88994,143.79113l-4.01408,-3.38028"/><path d="M179.58008,143.57985l4.64789,-2.74648"/></g><g><path d="M190.42325,163.11693l-0.21126,-27.25352"/><path d="M194.85987,136.70846l-5.28169,2.53521l-3.16902,-2.53521"/><path d="M185.56409,139.87748l4.01409,2.53521"/><path d="M190.84578,142.62398l4.01409,-0.84507"/><path d="M185.14156,145.58171l4.01408,3.38028"/><path d="M190.84578,148.75074l4.64789,-2.74648"/></g><g><path d="M201.11934,169.82577l-0.21126,-27.25352"/><path d="M205.55596,143.41731l-5.28169,2.53521l-3.16902,-2.53521"/><path d="M196.26018,146.58632l4.01409,2.53521"/><path d="M201.54187,149.33279l4.01409,-0.84507"/><path d="M199.85173,155.67082l-4.01408,-3.38028"/><path d="M201.54187,155.45957l4.64789,-2.74648"/></g></g><g fill="none" stroke="#d4e45c" stroke-width="2.5" stroke-linecap="round"><g><path d="M240.36801,124.17406l-0.21126,-27.25352"/><path d="M244.80463,97.76561l-5.28169,2.53521l-3.16902,-2.53521"/><path d="M239.52294,103.46983l-4.01409,-2.53521"/><path d="M240.79054,103.6811l4.01409,-0.84507"/><path d="M239.1004,110.01914l-4.01408,-3.38028"/><path d="M240.79054,109.80787l4.64789,-2.74648"/></g><g><path d="M250.40905,131.05377l-0.21126,-27.25352"/><path d="M254.84567,104.64532l-5.28169,2.53521l-3.16902,-2.53521"/><path d="M245.54989,107.81433l4.01409,2.53521"/><path d="M250.83158,110.56082l4.01409,-0.84507"/><path d="M249.14144,116.89885l-4.01408,-3.38028"/><path d="M255.47947,113.94109l-4.64789,2.74648"/></g><g><path d="M227.49814,128.36404l-0.21126,-27.25352"/><path d="M231.93476,101.95558l-5.28169,2.53521l-3.16902,-2.53521"/><path d="M222.63898,105.12459l4.01409,2.53521"/><path d="M227.92067,107.87107l4.01409,-0.84507"/><path d="M226.23053,114.20911l-4.01408,-3.38028"/><path d="M232.56856,111.25135l-4.64789,2.74648"/></g><g><path d="M260.40905,141.05377l-0.21126,-27.25352"/><path d="M264.84567,114.64532l-5.28169,2.53521l-3.16902,-2.53521"/><path d="M255.54989,117.81433l4.01409,2.53521"/><path d="M260.83158,120.56082l4.01409,-0.84507"/><path d="M259.14144,126.89885l-4.01408,-3.38028"/><path d="M260.83158,126.68757l4.64789,-2.74648"/></g><g><path d="M239.83356,132.95275l-0.21126,-27.25352"/><path d="M244.27018,106.5443l-5.28169,2.53521l-3.16902,-2.53521"/><path d="M234.9744,109.71331l4.01409,2.53521"/><path d="M240.25609,112.45978l4.01409,-0.84507"/><path d="M238.56595,118.79781l-4.01408,-3.38028"/><path d="M240.25609,118.58654l4.64789,-2.74648"/></g><g><path d="M252.38089,142.13938l-0.21126,-27.25352"/><path d="M256.81751,115.73092l-5.28169,2.53521l-3.16902,-2.53521"/><path d="M247.52173,118.89993l4.01409,2.53521"/><path d="M252.80342,121.64641l4.01409,-0.84507"/><path d="M251.11328,127.98445l-4.01408,-3.38028"/><path d="M252.80342,127.77318l4.64789,-2.74648"/></g><g><path d="M219.87209,139.13635l-0.21126,-27.25352"/><path d="M224.30871,112.72791l-5.28169,2.53521l-3.16902,-2.53521"/><path d="M215.01293,115.89692l4.01409,2.53521"/><path d="M220.29462,118.6434l4.01409,-0.84507"/><path d="M218.60448,124.98143l-4.01408,-3.38028"/><path d="M220.29462,124.77017l4.64789,-2.74648"/></g><g><path d="M231.13779,144.30724l-0.21126,-27.25352"/><path d="M235.57441,117.89878l-5.28169,2.53521l-3.16902,-2.53521"/><path d="M226.27863,121.06779l4.01409,2.53521"/><path d="M231.56032,123.81428l4.01409,-0.84507"/><path d="M229.87018,130.1523l-4.01408,-3.38028"/><path d="M231.56032,129.94104l4.64789,-2.74648"/></g><g><path d="M241.83388,151.01608l-0.21126,-27.25352"/><path d="M246.2705,124.60762l-5.28169,2.53521l-3.16902,-2.53521"/><path d="M236.97472,127.77662l4.01409,2.53521"/><path d="M242.25641,130.52311l4.01409,-0.84507"/><path d="M240.56627,136.86113l-4.01408,-3.38028"/><path d="M246.9043,133.90339l-4.64789,2.74648"/></g></g><g fill="none" stroke="#d4e45c" stroke-width="2.5" stroke-linecap="round"><g><path d="M279.20284,147.97119l-0.21126,-27.25352"/><path d="M283.63946,121.56273l-5.28169,2.53521l-3.16902,-2.53521"/><path d="M274.34368,124.73174l4.01409,2.53521"/><path d="M279.62537,127.47822l4.01409,-0.84507"/><path d="M277.93523,133.81624l-4.01408,-3.38028"/><path d="M279.62537,133.60499l4.64789,-2.74648"/></g><g><path d="M289.24388,154.85088l-0.21126,-27.25352"/><path d="M293.6805,128.44243l-5.28169,2.53521l-3.16902,-2.53521"/><path d="M284.38472,131.61145l4.01409,2.53521"/><path d="M289.66641,134.35794l4.01409,-0.84507"/><path d="M287.97627,140.69597l-4.01408,-3.38028"/><path d="M289.66641,140.48469l4.64789,-2.74648"/></g><g><path d="M266.12171,124.90762l0.21126,27.25352"/><path d="M270.76959,125.75271l-5.28169,2.53521l-3.16902,-2.53521"/><path d="M261.47381,128.9217l4.01409,2.53521"/><path d="M266.7555,131.6682l4.01409,-0.84507"/><path d="M265.06536,138.00623l-4.01408,-3.38028"/><path d="M266.7555,137.79495l4.64789,-2.74648"/></g><g><path d="M299.24388,164.85089l-0.21126,-27.25352"/><path d="M303.6805,138.44243l-5.28169,2.53521l-3.16902,-2.53521"/><path d="M294.38472,141.61145l4.01409,2.53521"/><path d="M299.66641,144.35794l4.01409,-0.84507"/><path d="M293.96219,147.31568l4.01408,3.38028"/><path d="M299.66641,150.48469l4.64789,-2.74648"/></g><g><path d="M278.66839,156.74987l-0.21126,-27.25352"/><path d="M283.10501,130.34141l-5.28169,2.53521l-3.16902,-2.53521"/><path d="M277.82332,136.04564l-4.01409,-2.53521"/><path d="M279.09092,136.25689l4.01409,-0.84507"/><path d="M273.3867,139.21464l4.01408,3.38028"/><path d="M279.09092,142.38367l4.64789,-2.74648"/></g><g><path d="M291.21572,165.93649l-0.21126,-27.25352"/><path d="M295.65234,139.52803l-5.28169,2.53521l-3.16902,-2.53521"/><path d="M286.35656,142.69705l4.01409,2.53521"/><path d="M291.63825,145.44353l4.01409,-0.84507"/><path d="M289.94811,151.78157l-4.01408,-3.38028"/><path d="M291.63825,151.57029l4.64789,-2.74648"/></g><g><path d="M258.70691,162.93347l-0.21126,-27.25352"/><path d="M263.14354,136.52503l-5.28169,2.53521l-3.16902,-2.53521"/><path d="M257.86185,142.22925l-4.01409,-2.53521"/><path d="M263.14353,141.59544l-4.01409,0.84507"/><path d="M253.42523,145.39826l4.01408,3.38028"/><path d="M259.12944,148.56729l4.64789,-2.74648"/></g><g><path d="M269.97262,168.10437l-0.21126,-27.25352"/><path d="M274.40924,141.6959l-5.28169,2.53521l-3.16902,-2.53521"/><path d="M265.11346,144.86493l4.01409,2.53521"/><path d="M270.39515,147.6114l4.01409,-0.84507"/><path d="M268.70501,153.94943l-4.01408,-3.38028"/><path d="M270.39515,153.73816l4.64789,-2.74648"/></g><g><path d="M280.66871,174.81318l-0.21126,-27.25352"/><path d="M285.10533,148.40475l-5.28169,2.53521l-3.16902,-2.53521"/><path d="M279.82364,154.10895l-4.01409,-2.53521"/><path d="M281.09124,154.32024l4.01409,-0.84507"/><path d="M279.4011,160.65827l-4.01408,-3.38028"/><path d="M285.73913,157.70051l-4.64789,2.74648"/></g></g><g fill="none" stroke="#d4e45c" stroke-width="2.5" stroke-linecap="round"><g><path d="M239.50504,141.69522l0.21126,27.25352"/><path d="M244.15292,142.54028l-5.28169,2.53521l-3.16902,-2.53521"/><path d="M234.85714,145.70931l4.01409,2.53521"/><path d="M240.13883,148.45579l4.01409,-0.84507"/><path d="M238.44869,154.79382l-4.01408,-3.38028"/><path d="M240.13883,154.58254l4.64789,-2.74648"/></g><g><path d="M249.75734,175.82846l-0.21126,-27.25352"/><path d="M254.19396,149.42l-5.28169,2.53521l-3.16902,-2.53521"/><path d="M244.89818,152.589l4.01409,2.53521"/><path d="M250.17987,155.33549l4.01409,-0.84507"/><path d="M248.48973,161.67352l-4.01408,-3.38028"/><path d="M254.82776,158.71577l-4.64789,2.74648"/></g><g><path d="M226.84644,173.13872l-0.21126,-27.25352"/><path d="M231.28306,146.73026l-5.28169,2.53521l-3.16902,-2.53521"/><path d="M221.98728,149.89927l4.01409,2.53521"/><path d="M227.26897,152.64575l4.01409,-0.84507"/><path d="M225.57883,158.98377l-4.01408,-3.38028"/><path d="M231.91686,156.02603l-4.64789,2.74648"/></g><g><path d="M259.75734,185.82846l-0.21126,-27.25352"/><path d="M264.19396,159.42l-5.28169,2.53521l-3.16902,-2.53521"/><path d="M254.89818,162.589l4.01409,2.53521"/><path d="M260.17987,165.33549l4.01409,-0.84507"/><path d="M258.48973,171.67353l-4.01408,-3.38028"/><path d="M264.82776,168.71577l-4.64789,2.74648"/></g><g><path d="M239.18186,177.72744l-0.21126,-27.25352"/><path d="M243.61848,151.31899l-5.28169,2.53521l-3.16902,-2.53521"/><path d="M234.3227,154.48798l4.01409,2.53521"/><path d="M243.61848,156.3894l-4.01409,0.84507"/><path d="M237.91425,163.5725l-4.01408,-3.38028"/><path d="M244.25228,160.61475l-4.64789,2.74648"/></g><g><path d="M251.51793,159.66053l0.21126,27.25352"/><path d="M256.1658,160.5056l-5.28169,2.53521l-3.16902,-2.53521"/><path d="M246.87003,163.6746l4.01409,2.53521"/><path d="M252.15172,166.42109l4.01409,-0.84507"/><path d="M250.46158,172.75911l-4.01408,-3.38028"/><path d="M252.15172,172.54786l4.64789,-2.74648"/></g><g><path d="M219.22038,183.91105l-0.21126,-27.25352"/><path d="M223.657,157.50259l-5.28169,2.53521l-3.16902,-2.53521"/><path d="M214.36122,160.67161l4.01409,2.53521"/><path d="M219.64291,163.41807l4.01409,-0.84507"/><path d="M217.95277,169.75612l-4.01408,-3.38028"/><path d="M219.64291,169.54483l4.64789,-2.74648"/></g><g><path d="M230.48608,189.08191l-0.21126,-27.25352"/><path d="M234.9227,162.67345l-5.28169,2.53521l-3.16902,-2.53521"/><path d="M225.62692,165.84248l4.01409,2.53521"/><path d="M230.90861,168.58896l4.01409,-0.84507"/><path d="M229.21847,174.92699l-4.01408,-3.38028"/><path d="M230.90861,174.71573l4.64789,-2.74648"/></g><g><path d="M241.18217,195.79076l-0.21126,-27.25352"/><path d="M245.61879,169.3823l-5.28169,2.53521l-3.16902,-2.53521"/><path d="M236.32301,172.55132l4.01409,2.53521"/><path d="M241.6047,175.29778l4.01409,-0.84507"/><path d="M239.91456,181.63581l-4.01408,-3.38028"/><path d="M241.6047,181.42456l4.64789,-2.74648"/></g></g><g fill="none" stroke="#d4e45c" stroke-width="2.5" stroke-linecap="round"><g><path d="M200.22977,188.35988l-0.21126,-27.25352"/><path d="M204.66639,161.95143l-5.28169,2.53521l-3.16902,-2.53521"/><path d="M195.37061,165.12043l4.01409,2.53521"/><path d="M200.6523,167.86691l4.01409,-0.84507"/><path d="M194.94808,170.82465l4.01408,3.38028"/><path d="M200.6523,173.99368l4.64789,-2.74648"/></g><g><path d="M210.27081,195.23958l-0.21126,-27.25352"/><path d="M214.70743,168.83114l-5.28169,2.53521l-3.16902,-2.53521"/><path d="M205.41165,172.00014l4.01409,2.53521"/><path d="M214.70743,173.90155l-4.01409,0.84507"/><path d="M209.0032,181.08466l-4.01408,-3.38028"/><path d="M210.69334,180.87339l4.64789,-2.74648"/></g><g><path d="M187.14864,165.29633l0.21126,27.25352"/><path d="M191.79652,166.14139l-5.28169,2.53521l-3.16902,-2.53521"/><path d="M186.51483,171.84561l-4.01409,-2.53521"/><path d="M191.79652,171.21182l-4.01409,0.84507"/><path d="M186.09229,178.39492l-4.01408,-3.38028"/><path d="M192.43032,175.43716l-4.64789,2.74648"/></g><g><path d="M220.27081,205.23958l-0.21126,-27.25352"/><path d="M224.70743,178.83114l-5.28169,2.53521l-3.16902,-2.53521"/><path d="M215.41165,182.00014l4.01409,2.53521"/><path d="M220.69334,184.74663l4.01409,-0.84507"/><path d="M219.0032,191.08466l-4.01408,-3.38028"/><path d="M220.69334,190.87339l4.64789,-2.74648"/></g><g><path d="M199.69532,197.13857l-0.21126,-27.25352"/><path d="M204.13194,170.7301l-5.28169,2.53521l-3.16902,-2.53521"/><path d="M194.83616,173.89913l4.01409,2.53521"/><path d="M200.11785,176.64561l4.01409,-0.84507"/><path d="M198.42771,182.98364l-4.01408,-3.38028"/><path d="M200.11785,182.77236l4.64789,-2.74648"/></g><g><path d="M212.24265,206.32518l-0.21126,-27.25352"/><path d="M216.67927,179.91674l-5.28169,2.53521l-3.16902,-2.53521"/><path d="M207.38349,183.08574l4.01409,2.53521"/><path d="M212.66518,185.83223l4.01409,-0.84507"/><path d="M210.97504,192.17026l-4.01408,-3.38028"/><path d="M212.66518,191.95899l4.64789,-2.74648"/></g><g><path d="M179.73385,203.32218l-0.21126,-27.25352"/><path d="M184.17047,176.91373l-5.28169,2.53521l-3.16902,-2.53521"/><path d="M174.87469,180.08274l4.01409,2.53521"/><path d="M180.15638,182.82921l4.01409,-0.84507"/><path d="M178.46624,189.16724l-4.01408,-3.38028"/><path d="M180.15638,188.95598l4.64789,-2.74648"/></g><g><path d="M190.99955,208.49306l-0.21126,-27.25352"/><path d="M195.43617,182.08459l-5.28169,2.53521l-3.16902,-2.53521"/><path d="M186.14039,185.25361l4.01409,2.53521"/><path d="M191.42208,188.0001l4.01409,-0.84507"/><path d="M189.73194,194.33813l-4.01408,-3.38028"/><path d="M191.42208,194.12685l4.64789,-2.74648"/></g><g><path d="M201.69564,215.20188l-0.21126,-27.25352"/><path d="M206.13226,188.79344l-5.28169,2.53521l-3.16902,-2.53521"/><path d="M196.83648,191.96244l4.01409,2.53521"/><path d="M202.11817,194.70893l4.01409,-0.84507"/><path d="M200.42803,201.04696l-4.01408,-3.38028"/><path d="M202.11817,200.83567l4.64789,-2.74648"/></g></g><g fill="none" stroke="#d4e45c" stroke-width="2.5" stroke-linecap="round"><g><path d="M161.99638,207.77101l-0.21126,-27.25352"/><path d="M166.433,181.36257l-5.28169,2.53521l-3.16902,-2.53521"/><path d="M157.13722,184.53157l4.01409,2.53521"/><path d="M166.433,186.43298l-4.01409,0.84507"/><path d="M160.72877,193.61609l-4.01408,-3.38028"/><path d="M162.41891,193.40482l4.64789,-2.74648"/></g><g><path d="M172.03742,214.65073l-0.21126,-27.25352"/><path d="M176.47404,188.24226l-5.28169,2.53521l-3.16902,-2.53521"/><path d="M167.17826,191.41129l4.01409,2.53521"/><path d="M172.45995,194.15777l4.01409,-0.84507"/><path d="M170.76981,200.4958l-4.01408,-3.38028"/><path d="M177.10784,197.53805l-4.64789,2.74648"/></g><g><path d="M149.12651,211.96099l-0.21126,-27.25352"/><path d="M153.56313,185.55253l-5.28169,2.53521l-3.16902,-2.53521"/><path d="M144.26735,188.72155l4.01409,2.53521"/><path d="M149.54904,191.46801l4.01409,-0.84507"/><path d="M147.8589,197.80606l-4.01408,-3.38028"/><path d="M154.19693,194.84831l-4.64789,2.74648"/></g><g><path d="M182.03742,224.65072l-0.21126,-27.25352"/><path d="M186.47404,198.24226l-5.28169,2.53521l-3.16902,-2.53521"/><path d="M177.17826,201.41129l4.01409,2.53521"/><path d="M182.45995,204.15777l4.01409,-0.84507"/><path d="M180.76981,210.4958l-4.01408,-3.38028"/><path d="M182.45995,210.28452l4.64789,-2.74648"/></g><g><path d="M161.46193,216.5497l-0.21126,-27.25352"/><path d="M165.89855,190.14125l-5.28169,2.53521l-3.16902,-2.53521"/><path d="M156.60277,193.31026l4.01409,2.53521"/><path d="M165.89855,195.21167l-4.01409,0.84507"/><path d="M160.19432,202.39476l-4.01408,-3.38028"/><path d="M161.88446,202.1835l4.64789,-2.74648"/></g><g><path d="M174.00926,225.73632l-0.21126,-27.25352"/><path d="M178.44588,199.32786l-5.28169,2.53521l-3.16902,-2.53521"/><path d="M169.1501,202.49689l4.01409,2.53521"/><path d="M174.43179,205.24337l4.01409,-0.84507"/><path d="M172.74165,211.5814l-4.01408,-3.38028"/><path d="M179.07968,208.62365l-4.64789,2.74648"/></g><g><path d="M141.28919,195.47979l0.21126,27.25352"/><path d="M145.93708,196.32487l-5.28169,2.53521l-3.16902,-2.53521"/><path d="M136.6413,199.49387l4.01409,2.53521"/><path d="M141.92299,202.24036l4.01409,-0.84507"/><path d="M140.23285,208.57839l-4.01408,-3.38028"/><path d="M146.57088,205.62063l-4.64789,2.74648"/></g><g><path d="M152.76616,227.90418l-0.21126,-27.25352"/><path d="M157.20278,201.49574l-5.28169,2.53521l-3.16902,-2.53521"/><path d="M147.907,204.66475l4.01409,2.53521"/><path d="M157.20278,206.56615l-4.01409,0.84507"/><path d="M151.49855,213.74924l-4.01408,-3.38028"/><path d="M153.18869,213.53799l4.64789,-2.74648"/></g><g><path d="M163.46225,234.61303l-0.21126,-27.25352"/><path d="M167.89887,208.20457l-5.28169,2.53521l-3.16902,-2.53521"/><path d="M162.61718,213.9088l-4.01409,-2.53521"/><path d="M163.88477,214.12007l4.01409,-0.84507"/><path d="M162.19464,220.4581l-4.01408,-3.38028"/><path d="M168.53266,217.50035l-4.64789,2.74648"/></g></g><g fill="none" stroke="#d4e45c" stroke-width="2.5" stroke-linecap="round"><g><path d="M359.49337,162.68534l0.21126,27.25352"/><path d="M364.14125,163.53042l-5.28169,2.53521l-3.16902,-2.53521"/><path d="M354.84547,166.69943l4.01409,2.53521"/><path d="M360.12716,169.44592l4.01409,-0.84507"/><path d="M358.43702,175.78395l-4.01408,-3.38028"/><path d="M360.12716,175.57267l4.64789,-2.74648"/></g><g><path d="M369.53441,169.56506l0.21126,27.25352"/><path d="M374.18229,170.41014l-5.28169,2.53521l-3.16902,-2.53521"/><path d="M364.88651,173.57915l4.01409,2.53521"/><path d="M370.1682,176.32562l4.01409,-0.84507"/><path d="M364.46398,179.28336l4.01408,3.38028"/><path d="M370.1682,182.45239l4.64789,-2.74648"/></g><g><path d="M346.83477,194.12883l-0.21126,-27.25352"/><path d="M351.27139,167.72037l-5.28169,2.53521l-3.16902,-2.53521"/><path d="M341.97561,170.88941l4.01409,2.53521"/><path d="M351.27139,172.79081l-4.01409,0.84507"/><path d="M345.56716,179.97391l-4.01408,-3.38028"/><path d="M347.2573,179.76265l4.64789,-2.74648"/></g><g><path d="M379.74567,206.81859l-0.21126,-27.25352"/><path d="M384.18229,180.41014l-5.28169,2.53521l-3.16902,-2.53521"/><path d="M374.88651,183.57915l4.01409,2.53521"/><path d="M380.1682,186.32562l4.01409,-0.84507"/><path d="M378.47806,192.66364l-4.01408,-3.38028"/><path d="M380.1682,192.45239l4.64789,-2.74648"/></g><g><path d="M359.17019,198.71756l-0.21126,-27.25352"/><path d="M363.60681,172.30911l-5.28169,2.53521l-3.16902,-2.53521"/><path d="M354.31103,175.47811l4.01409,2.53521"/><path d="M359.59272,178.2246l4.01409,-0.84507"/><path d="M357.90258,184.56263l-4.01408,-3.38028"/><path d="M359.59272,184.35134l4.64789,-2.74648"/></g><g><path d="M371.71752,207.90419l-0.21126,-27.25352"/><path d="M376.15414,181.49574l-5.28169,2.53521l-3.16902,-2.53521"/><path d="M366.85836,184.66475l4.01409,2.53521"/><path d="M376.15414,186.56615l-4.01409,0.84507"/><path d="M370.44991,193.74924l-4.01408,-3.38028"/><path d="M372.14005,193.53799l4.64789,-2.74648"/></g><g><path d="M339.20871,204.90118l-0.21126,-27.25352"/><path d="M343.64533,178.49271l-5.28169,2.53521l-3.16902,-2.53521"/><path d="M334.34955,181.66174l4.01409,2.53521"/><path d="M339.63124,184.40822l4.01409,-0.84507"/><path d="M337.9411,190.74625l-4.01408,-3.38028"/><path d="M339.63124,190.53497l4.64789,-2.74648"/></g><g><path d="M350.47441,210.07205l-0.21126,-27.25352"/><path d="M354.91103,183.6636l-5.28169,2.53521l-3.16902,-2.53521"/><path d="M345.61525,186.83261l4.01409,2.53521"/><path d="M350.89694,189.57909l4.01409,-0.84507"/><path d="M349.2068,195.91712l-4.01408,-3.38028"/><path d="M350.89694,195.70585l4.64789,-2.74648"/></g><g><path d="M361.1705,216.78087l-0.21126,-27.25352"/><path d="M365.60712,190.37244l-5.28169,2.53521l-3.16902,-2.53521"/><path d="M356.31134,193.54145l4.01409,2.53521"/><path d="M365.60712,195.44285l-4.01409,0.84507"/><path d="M355.88881,199.24567l4.01408,3.38028"/><path d="M361.59303,202.41469l4.64789,-2.74648"/></g></g><g fill="none" stroke="#d4e45c" stroke-width="2.5" stroke-linecap="round"><g><path d="M322.72438,169.56273l-0.21126,-27.25352"/><path d="M327.161,143.15429l-5.28169,2.53521l-3.16902,-2.53521"/><path d="M317.86522,146.32329l4.01409,2.53521"/><path d="M323.14691,149.06979l4.01409,-0.84507"/><path d="M321.45677,155.40782l-4.01408,-3.38028"/><path d="M323.14691,155.19654l4.64789,-2.74648"/></g><g><path d="M332.55416,149.18892l0.21126,27.25352"/><path d="M337.20204,150.034l-5.28169,2.53521l-3.16902,-2.53521"/><path d="M327.90626,153.20302l4.01409,2.53521"/><path d="M337.20204,155.10441l-4.01409,0.84507"/><path d="M331.49781,162.28751l-4.01408,-3.38028"/><path d="M337.83584,159.32977l-4.64789,2.74648"/></g><g><path d="M309.85452,173.75272l-0.21126,-27.25352"/><path d="M314.29114,147.34425l-5.28169,2.53521l-3.16902,-2.53521"/><path d="M304.99536,150.51326l4.01409,2.53521"/><path d="M310.27705,153.25975l4.01409,-0.84507"/><path d="M308.58691,159.59778l-4.01408,-3.38028"/><path d="M310.27705,159.38651l4.64789,-2.74648"/></g><g><path d="M342.76542,186.44246l-0.21126,-27.25352"/><path d="M347.20204,160.034l-5.28169,2.53521l-3.16902,-2.53521"/><path d="M337.90626,163.20302l4.01409,2.53521"/><path d="M343.18795,165.94949l4.01409,-0.84507"/><path d="M337.48373,168.90725l4.01408,3.38028"/><path d="M343.18795,172.07625l4.64789,-2.74648"/></g><g><path d="M321.97868,151.0879l0.21126,27.25352"/><path d="M326.62656,151.93298l-5.28169,2.53521l-3.16902,-2.53521"/><path d="M317.33078,155.10199l4.01409,2.53521"/><path d="M326.62656,157.00339l-4.01409,0.84507"/><path d="M316.90825,160.80621l4.01408,3.38028"/><path d="M322.61247,163.97524l4.64789,-2.74648"/></g><g><path d="M334.73726,187.52806l-0.21126,-27.25352"/><path d="M339.17389,161.1196l-5.28169,2.53521l-3.16902,-2.53521"/><path d="M329.87811,164.28862l4.01409,2.53521"/><path d="M339.17388,166.19001l-4.01409,0.84507"/><path d="M333.46966,173.37313l-4.01408,-3.38028"/><path d="M335.15979,173.16185l4.64789,-2.74648"/></g><g><path d="M302.22846,184.52504l-0.21126,-27.25352"/><path d="M306.66508,158.11658l-5.28169,2.53521l-3.16902,-2.53521"/><path d="M297.3693,161.2856l4.01409,2.53521"/><path d="M302.65099,164.03209l4.01409,-0.84507"/><path d="M300.96085,170.37012l-4.01408,-3.38028"/><path d="M302.65099,170.15885l4.64789,-2.74648"/></g><g><path d="M313.49416,189.69593l-0.21126,-27.25352"/><path d="M317.93078,163.28748l-5.28169,2.53521l-3.16902,-2.53521"/><path d="M308.635,166.45648l4.01409,2.53521"/><path d="M317.93078,168.35789l-4.01409,0.84507"/><path d="M312.22655,175.54098l-4.01408,-3.38028"/><path d="M318.56458,172.58324l-4.64789,2.74648"/></g><g><path d="M324.19025,196.40476l-0.21126,-27.25352"/><path d="M328.62687,169.99629l-5.28169,2.53521l-3.16902,-2.53521"/><path d="M319.33109,173.16532l4.01409,2.53521"/><path d="M324.61278,175.9118l4.01409,-0.84507"/><path d="M322.92264,182.24983l-4.01408,-3.38028"/><path d="M329.26067,179.29208l-4.64789,2.74648"/></g></g><g fill="none" stroke="#d4e45c" stroke-width="2.5" stroke-linecap="round"><g><path d="M285.11756,188.34729l-0.21126,-27.25352"/><path d="M289.55418,161.93885l-5.28169,2.53521l-3.16902,-2.53521"/><path d="M280.2584,165.10786l4.01409,2.53521"/><path d="M285.54008,167.85434l4.01409,-0.84507"/><path d="M283.84995,174.19238l-4.01408,-3.38028"/><path d="M285.54008,173.98111l4.64789,-2.74648"/></g><g><path d="M295.1586,195.22702l-0.21126,-27.25352"/><path d="M299.59522,168.81856l-5.28169,2.53521l-3.16902,-2.53521"/><path d="M290.29944,171.98758l4.01409,2.53521"/><path d="M295.58113,174.73404l4.01409,-0.84507"/><path d="M293.89099,181.07209l-4.01408,-3.38028"/><path d="M300.22902,178.11434l-4.64789,2.74648"/></g><g><path d="M272.24769,192.53728l-0.21126,-27.25352"/><path d="M276.68431,166.12881l-5.28169,2.53521l-3.16902,-2.53521"/><path d="M267.38853,169.29784l4.01409,2.53521"/><path d="M272.67022,172.04432l4.01409,-0.84507"/><path d="M270.98008,178.38235l-4.01408,-3.38028"/><path d="M272.67022,178.17107l4.64789,-2.74648"/></g><g><path d="M305.1586,205.22702l-0.21126,-27.25352"/><path d="M309.59522,178.81856l-5.28169,2.53521l-3.16902,-2.53521"/><path d="M300.29944,181.98758l4.01409,2.53521"/><path d="M309.59522,183.88898l-4.01409,0.84507"/><path d="M303.89099,191.07209l-4.01408,-3.38028"/><path d="M310.22902,188.11434l-4.64789,2.74648"/></g><g><path d="M284.58311,197.126l-0.21126,-27.25352"/><path d="M289.01973,170.71755l-5.28169,2.53521l-3.16902,-2.53521"/><path d="M279.72395,173.88656l4.01409,2.53521"/><path d="M285.00564,176.63302l4.01409,-0.84507"/><path d="M283.3155,182.97105l-4.01408,-3.38028"/><path d="M285.00564,182.7598l4.64789,-2.74648"/></g><g><path d="M297.13044,206.31262l-0.21126,-27.25352"/><path d="M301.56706,179.90416l-5.28169,2.53521l-3.16902,-2.53521"/><path d="M292.27128,183.07318l4.01409,2.53521"/><path d="M297.55297,185.81964l4.01409,-0.84507"/><path d="M295.86283,192.15769l-4.01408,-3.38028"/><path d="M297.55297,191.94641l4.64789,-2.74648"/></g><g><path d="M264.41038,176.05608l0.21126,27.25352"/><path d="M269.05825,176.90116l-5.28169,2.53521l-3.16902,-2.53521"/><path d="M263.77657,182.60537l-4.01409,-2.53521"/><path d="M265.04417,182.81665l4.01409,-0.84507"/><path d="M263.35402,189.15468l-4.01408,-3.38028"/><path d="M265.04417,188.94341l4.64789,-2.74648"/></g><g><path d="M275.67608,181.22695l0.21126,27.25352"/><path d="M280.32396,182.07204l-5.28169,2.53521l-3.16902,-2.53521"/><path d="M271.02817,185.24105l4.01409,2.53521"/><path d="M276.30987,187.98751l4.01409,-0.84507"/><path d="M274.61973,194.32554l-4.01408,-3.38028"/><path d="M280.95776,191.3678l-4.64789,2.74648"/></g><g><path d="M286.58342,215.18932l-0.21126,-27.25352"/><path d="M291.02005,188.78085l-5.28169,2.53521l-3.16902,-2.53521"/><path d="M281.72427,191.94988l4.01409,2.53521"/><path d="M287.00595,194.69636l4.01409,-0.84507"/><path d="M285.31582,201.03439l-4.01408,-3.38028"/><path d="M291.65384,198.07664l-4.64789,2.74648"/></g></g><g fill="none" stroke="#d4e45c" stroke-width="2.5" stroke-linecap="round"><g><path d="M320.29498,182.07133l0.21126,27.25352"/><path d="M324.94287,182.91642l-5.28169,2.53521l-3.16902,-2.53521"/><path d="M315.64709,186.08543l4.01409,2.53521"/><path d="M324.94286,187.98683l-4.01409,0.84507"/><path d="M319.23864,195.16992l-4.01408,-3.38028"/><path d="M320.92877,194.95867l4.64789,-2.74648"/></g><g><path d="M330.54729,216.20457l-0.21126,-27.25352"/><path d="M334.98391,189.79613l-5.28169,2.53521l-3.16902,-2.53521"/><path d="M329.70222,195.50035l-4.01409,-2.53521"/><path d="M330.96982,195.71162l4.01409,-0.84507"/><path d="M329.27968,202.04965l-4.01408,-3.38028"/><path d="M330.96982,201.83838l4.64789,-2.74648"/></g><g><path d="M307.42512,186.26132l0.21126,27.25352"/><path d="M312.073,187.10639l-5.28169,2.53521l-3.16902,-2.53521"/><path d="M302.77722,190.27539l4.01409,2.53521"/><path d="M312.073,192.1768l-4.01409,0.84507"/><path d="M306.36877,199.35991l-4.01408,-3.38028"/><path d="M308.05891,199.14862l4.64789,-2.74648"/></g><g><path d="M340.54729,226.20457l-0.21126,-27.25352"/><path d="M344.98391,199.79613l-5.28169,2.53521l-3.16902,-2.53521"/><path d="M335.68813,202.96513l4.01409,2.53521"/><path d="M340.96982,205.71162l4.01409,-0.84507"/><path d="M339.27968,212.04965l-4.01408,-3.38028"/><path d="M340.96982,211.83838l4.64789,-2.74648"/></g><g><path d="M319.9718,218.10356l-0.21126,-27.25352"/><path d="M324.40842,191.69509l-5.28169,2.53521l-3.16902,-2.53521"/><path d="M319.12673,197.39932l-4.01409,-2.53521"/><path d="M320.39433,197.6106l4.01409,-0.84507"/><path d="M318.70419,203.94863l-4.01408,-3.38028"/><path d="M320.39433,203.73735l4.64789,-2.74648"/></g><g><path d="M332.51913,227.29017l-0.21126,-27.25352"/><path d="M336.95575,200.88173l-5.28169,2.53521l-3.16902,-2.53521"/><path d="M331.67406,206.58594l-4.01409,-2.53521"/><path d="M332.94166,206.79722l4.01409,-0.84507"/><path d="M331.25152,213.13525l-4.01408,-3.38028"/><path d="M332.94166,212.92398l4.64789,-2.74648"/></g><g><path d="M300.01033,224.28716l-0.21126,-27.25352"/><path d="M304.44695,197.87872l-5.28169,2.53521l-3.16902,-2.53521"/><path d="M295.15117,201.04773l4.01409,2.53521"/><path d="M300.43286,203.7942l4.01409,-0.84507"/><path d="M298.74271,210.13222l-4.01408,-3.38028"/><path d="M300.43286,209.92096l4.64789,-2.74648"/></g><g><path d="M311.27603,229.45804l-0.21126,-27.25352"/><path d="M315.71265,203.04958l-5.28169,2.53521l-3.16902,-2.53521"/><path d="M306.41686,206.21861l4.01409,2.53521"/><path d="M311.69856,208.96509l4.01409,-0.84507"/><path d="M310.00842,215.30312l-4.01408,-3.38028"/><path d="M311.69856,215.09184l4.64789,-2.74648"/></g><g><path d="M321.97211,236.16688l-0.21126,-27.25352"/><path d="M326.40873,209.75843l-5.28169,2.53521l-3.16902,-2.53521"/><path d="M317.11296,212.92743l4.01409,2.53521"/><path d="M322.39465,215.67392l4.01409,-0.84507"/><path d="M320.70451,222.01195l-4.01408,-3.38028"/><path d="M327.04254,219.05419l-4.64789,2.74648"/></g></g><g fill="none" stroke="#d4e45c" stroke-width="2.5" stroke-linecap="round"><g><path d="M242.28691,180.8182l0.21126,27.25352"/><path d="M246.93479,181.66328l-5.28169,2.53521l-3.16902,-2.53521"/><path d="M237.63901,184.83229l4.01409,2.53521"/><path d="M246.93479,186.7337l-4.01409,0.84507"/><path d="M241.23056,193.91679l-4.01408,-3.38028"/><path d="M242.9207,193.70553l4.64789,-2.74648"/></g><g><path d="M252.53921,214.95144l-0.21126,-27.25352"/><path d="M256.97583,188.54299l-5.28169,2.53521l-3.16902,-2.53521"/><path d="M251.69414,194.2472l-4.01409,-2.53521"/><path d="M252.96174,194.45848l4.01409,-0.84507"/><path d="M251.2716,200.79651l-4.01408,-3.38028"/><path d="M252.96174,200.58524l4.64789,-2.74648"/></g><g><path d="M229.6283,212.2617l-0.21126,-27.25352"/><path d="M234.06492,185.85325l-5.28169,2.53521l-3.16902,-2.53521"/><path d="M224.76914,189.02226l4.01409,2.53521"/><path d="M230.05083,191.76874l4.01409,-0.84507"/><path d="M228.36069,198.10677l-4.01408,-3.38028"/><path d="M230.05083,197.8955l4.64789,-2.74648"/></g><g><path d="M262.5392,224.95143l-0.21126,-27.25352"/><path d="M266.97583,198.54299l-5.28169,2.53521l-3.16902,-2.53521"/><path d="M257.68005,201.71199l4.01409,2.53521"/><path d="M262.96173,204.45848l4.01409,-0.84507"/><path d="M261.2716,210.79651l-4.01408,-3.38028"/><path d="M267.60962,207.83875l-4.64789,2.74648"/></g><g><path d="M241.96372,216.85041l-0.21126,-27.25352"/><path d="M246.40034,190.44194l-5.28169,2.53521l-3.16902,-2.53521"/><path d="M237.10456,193.61097l4.01409,2.53521"/><path d="M242.38625,196.35745l4.01409,-0.84507"/><path d="M240.69611,202.69548l-4.01408,-3.38028"/><path d="M247.03414,199.73773l-4.64789,2.74648"/></g><g><path d="M254.51105,226.03704l-0.21126,-27.25352"/><path d="M258.94767,199.62859l-5.28169,2.53521l-3.16902,-2.53521"/><path d="M249.65189,202.7976l4.01409,2.53521"/><path d="M254.93358,205.54408l4.01409,-0.84507"/><path d="M253.24344,211.88211l-4.01408,-3.38028"/><path d="M254.93358,211.67084l4.64789,-2.74648"/></g><g><path d="M222.00225,223.03403l-0.21126,-27.25352"/><path d="M226.43887,196.62558l-5.28169,2.53521l-3.16902,-2.53521"/><path d="M217.14309,199.79459l4.01409,2.53521"/><path d="M222.42478,202.54106l4.01409,-0.84507"/><path d="M220.73464,208.87908l-4.01408,-3.38028"/><path d="M227.07267,205.92134l-4.64789,2.74648"/></g><g><path d="M233.26795,228.20489l-0.21126,-27.25352"/><path d="M237.70457,201.79643l-5.28169,2.53521l-3.16902,-2.53521"/><path d="M228.40879,204.96546l4.01409,2.53521"/><path d="M233.69048,207.71194l4.01409,-0.84507"/><path d="M232.00034,214.04997l-4.01408,-3.38028"/><path d="M238.33837,211.09222l-4.64789,2.74648"/></g><g><path d="M243.96404,234.91373l-0.21126,-27.25352"/><path d="M248.40066,208.50529l-5.28169,2.53521l-3.16902,-2.53521"/><path d="M239.10488,211.6743l4.01409,2.53521"/><path d="M248.40066,213.57571l-4.01409,0.84507"/><path d="M242.69643,220.75881l-4.01408,-3.38028"/><path d="M244.38657,220.54754l4.64789,-2.74648"/></g></g><g fill="none" stroke="#d4e45c" stroke-width="2.5" stroke-linecap="round"><g><path d="M281.64628,230.929l-0.21126,-27.25352"/><path d="M286.0829,204.52055l-5.28169,2.53521l-3.16902,-2.53521"/><path d="M276.78712,207.68956l4.01409,2.53521"/><path d="M282.06881,210.43603l4.01409,-0.84507"/><path d="M280.37867,216.77405l-4.01408,-3.38028"/><path d="M282.06881,216.5628l4.64789,-2.74648"/></g><g><path d="M291.68732,237.8087l-0.21126,-27.25352"/><path d="M296.12394,211.40026l-5.28169,2.53521l-3.16902,-2.53521"/><path d="M286.82816,214.56927l4.01409,2.53521"/><path d="M292.10985,217.31575l4.01409,-0.84507"/><path d="M290.41971,223.65378l-4.01408,-3.38028"/><path d="M292.10985,223.44251l4.64789,-2.74648"/></g><g><path d="M268.77642,235.11897l-0.21126,-27.25352"/><path d="M273.21304,208.71052l-5.28169,2.53521l-3.16902,-2.53521"/><path d="M263.91726,211.87953l4.01409,2.53521"/><path d="M269.19894,214.62601l4.01409,-0.84507"/><path d="M267.50881,220.96404l-4.01408,-3.38028"/><path d="M269.19894,220.75277l4.64789,-2.74648"/></g><g><path d="M301.68732,247.8087l-0.21126,-27.25352"/><path d="M306.12394,221.40026l-5.28169,2.53521l-3.16902,-2.53521"/><path d="M296.82816,224.56926l4.01409,2.53521"/><path d="M302.10985,227.31575l4.01409,-0.84507"/><path d="M300.41971,233.65378l-4.01408,-3.38028"/><path d="M302.10985,233.44251l4.64789,-2.74648"/></g><g><path d="M281.11184,239.70768l-0.21126,-27.25352"/><path d="M285.54846,213.29922l-5.28169,2.53521l-3.16902,-2.53521"/><path d="M276.25268,216.46824l4.01409,2.53521"/><path d="M281.53436,219.21472l4.01409,-0.84507"/><path d="M279.84423,225.55274l-4.01408,-3.38028"/><path d="M281.53436,225.34147l4.64789,-2.74648"/></g><g><path d="M293.4479,221.64078l0.21126,27.25352"/><path d="M298.09578,222.48586l-5.28169,2.53521l-3.16902,-2.53521"/><path d="M288.80001,225.65486l4.01409,2.53521"/><path d="M294.0817,228.40135l4.01409,-0.84507"/><path d="M292.39156,234.73938l-4.01408,-3.38028"/><path d="M294.0817,234.52811l4.64789,-2.74648"/></g><g><path d="M261.15036,245.89129l-0.21126,-27.25352"/><path d="M265.58698,219.48285l-5.28169,2.53521l-3.16902,-2.53521"/><path d="M256.2912,222.65186l4.01409,2.53521"/><path d="M261.57289,225.39833l4.01409,-0.84507"/><path d="M255.86867,228.35607l4.01408,3.38028"/><path d="M261.57289,231.52509l4.64789,-2.74648"/></g><g><path d="M272.41606,251.06217l-0.21126,-27.25352"/><path d="M276.85268,224.65371l-5.28169,2.53521l-3.16902,-2.53521"/><path d="M267.5569,227.82273l4.01409,2.53521"/><path d="M272.83859,230.5692l4.01409,-0.84507"/><path d="M271.14845,236.90723l-4.01408,-3.38028"/><path d="M272.83859,236.69597l4.64789,-2.74648"/></g><g><path d="M283.11215,257.77099l-0.21126,-27.25352"/><path d="M287.54877,231.36256l-5.28169,2.53521l-3.16902,-2.53521"/><path d="M278.25299,234.53157l4.01409,2.53521"/><path d="M283.53468,237.27804l4.01409,-0.84507"/><path d="M281.84454,243.61607l-4.01408,-3.38028"/><path d="M283.53468,243.4048l4.64789,-2.74648"/></g></g><g fill="none" stroke="#d4e45c" stroke-width="2.5" stroke-linecap="round"><g><path d="M198.29978,232.16956l-0.21126,-27.25352"/><path d="M202.7364,205.76112l-5.28169,2.53521l-3.16902,-2.53521"/><path d="M193.44062,208.93012l4.01409,2.53521"/><path d="M198.72231,211.67661l4.01409,-0.84507"/><path d="M197.03217,218.01464l-4.01408,-3.38028"/><path d="M198.72231,217.80337l4.64789,-2.74648"/></g><g><path d="M208.34082,239.04927l-0.21126,-27.25352"/><path d="M212.77744,212.64081l-5.28169,2.53521l-3.16902,-2.53521"/><path d="M203.48166,215.80984l4.01409,2.53521"/><path d="M208.76335,218.55632l4.01409,-0.84507"/><path d="M207.07321,224.89435l-4.01408,-3.38028"/><path d="M213.41124,221.9366l-4.64789,2.74648"/></g><g><path d="M185.42992,236.35954l-0.21126,-27.25352"/><path d="M189.86654,209.95108l-5.28169,2.53521l-3.16902,-2.53521"/><path d="M180.57076,213.1201l4.01409,2.53521"/><path d="M185.85245,215.86656l4.01409,-0.84507"/><path d="M184.16231,222.20461l-4.01408,-3.38028"/><path d="M190.50034,219.24686l-4.64789,2.74648"/></g><g><path d="M218.34082,249.04927l-0.21126,-27.25352"/><path d="M222.77744,222.64081l-5.28169,2.53521l-3.16902,-2.53521"/><path d="M213.48166,225.80983l4.01409,2.53521"/><path d="M218.76335,228.55632l4.01409,-0.84507"/><path d="M217.07321,234.89435l-4.01408,-3.38028"/><path d="M218.76335,234.68307l4.64789,-2.74648"/></g><g><path d="M197.76534,240.94825l-0.21126,-27.25352"/><path d="M202.20196,214.5398l-5.28169,2.53521l-3.16902,-2.53521"/><path d="M192.90618,217.70881l4.01409,2.53521"/><path d="M198.18787,220.45528l4.01409,-0.84507"/><path d="M196.49773,226.7933l-4.01408,-3.38028"/><path d="M198.18787,226.58205l4.64789,-2.74648"/></g><g><path d="M210.31267,250.13487l-0.21126,-27.25352"/><path d="M214.74929,223.72641l-5.28169,2.53521l-3.16902,-2.53521"/><path d="M205.45351,226.89543l4.01409,2.53521"/><path d="M210.7352,229.64192l4.01409,-0.84507"/><path d="M209.04506,235.97995l-4.01408,-3.38028"/><path d="M210.7352,235.76867l4.64789,-2.74648"/></g><g><path d="M177.80386,247.13187l-0.21126,-27.25352"/><path d="M182.24048,220.72342l-5.28169,2.53521l-3.16902,-2.53521"/><path d="M176.95879,226.42763l-4.01409,-2.53521"/><path d="M178.22639,226.6389l4.01409,-0.84507"/><path d="M176.53625,232.97693l-4.01408,-3.38028"/><path d="M178.22639,232.76565l4.64789,-2.74648"/></g><g><path d="M188.8583,225.0492l0.21126,27.25352"/><path d="M193.50618,225.89428l-5.28169,2.53521l-3.16902,-2.53521"/><path d="M184.2104,229.0633l4.01409,2.53521"/><path d="M189.49209,231.80977l4.01409,-0.84507"/><path d="M187.80195,238.1478l-4.01408,-3.38028"/><path d="M189.49209,237.93654l4.64789,-2.74648"/></g><g><path d="M199.55439,231.75805l0.21126,27.25352"/><path d="M204.20227,232.60312l-5.28169,2.53521l-3.16902,-2.53521"/><path d="M194.90649,235.77214l4.01409,2.53521"/><path d="M200.18818,238.51861l4.01409,-0.84507"/><path d="M198.49804,244.85664l-4.01408,-3.38028"/><path d="M200.18818,244.64538l4.64789,-2.74648"/></g></g><g fill="none" stroke="#d4e45c" stroke-width="2.5" stroke-linecap="round"><g><path d="M240.26746,252.83383l-0.21126,-27.25352"/><path d="M244.70408,226.42537l-5.28169,2.53521l-3.16902,-2.53521"/><path d="M235.4083,229.59439l4.01409,2.53521"/><path d="M240.68999,232.34088l4.01409,-0.84507"/><path d="M238.99985,238.67891l-4.01408,-3.38028"/><path d="M240.68999,238.46763l4.64789,-2.74648"/></g><g><path d="M250.3085,259.71354l-0.21126,-27.25352"/><path d="M254.74512,233.3051l-5.28169,2.53521l-3.16902,-2.53521"/><path d="M245.44934,236.47409l4.01409,2.53521"/><path d="M254.74512,238.37551l-4.01409,0.84507"/><path d="M249.04089,245.55861l-4.01408,-3.38028"/><path d="M250.73103,245.34734l4.64789,-2.74648"/></g><g><path d="M227.3976,257.02381l-0.21126,-27.25352"/><path d="M231.83422,230.61535l-5.28169,2.53521l-3.16902,-2.53521"/><path d="M222.53844,233.78436l4.01409,2.53521"/><path d="M227.82013,236.53085l4.01409,-0.84507"/><path d="M226.12999,242.86887l-4.01408,-3.38028"/><path d="M227.82013,242.65761l4.64789,-2.74648"/></g><g><path d="M260.3085,269.71353l-0.21126,-27.25352"/><path d="M264.74512,243.3051l-5.28169,2.53521l-3.16902,-2.53521"/><path d="M255.44934,246.47409l4.01409,2.53521"/><path d="M264.74512,248.37551l-4.01409,0.84507"/><path d="M255.02681,252.17833l4.01408,3.38028"/><path d="M260.73103,255.34734l4.64789,-2.74648"/></g><g><path d="M239.73302,261.61251l-0.21126,-27.25352"/><path d="M244.16964,235.20408l-5.28169,2.53521l-3.16902,-2.53521"/><path d="M238.88795,240.90829l-4.01409,-2.53521"/><path d="M244.16964,240.27449l-4.01409,0.84507"/><path d="M238.46541,247.45759l-4.01408,-3.38028"/><path d="M240.15555,247.24632l4.64789,-2.74648"/></g><g><path d="M252.06909,243.54562l0.21126,27.25352"/><path d="M256.71697,244.3907l-5.28169,2.53521l-3.16902,-2.53521"/><path d="M251.43528,250.09491l-4.01409,-2.53521"/><path d="M252.70288,250.30618l4.01409,-0.84507"/><path d="M251.01274,256.64421l-4.01408,-3.38028"/><path d="M252.70288,256.43294l4.64789,-2.74648"/></g><g><path d="M219.56028,240.5426l0.21126,27.25352"/><path d="M224.20816,241.38768l-5.28169,2.53521l-3.16902,-2.53521"/><path d="M214.91238,244.5567l4.01409,2.53521"/><path d="M224.20816,246.45811l-4.01409,0.84507"/><path d="M218.50393,253.6412l-4.01408,-3.38028"/><path d="M220.19407,253.42994l4.64789,-2.74648"/></g><g><path d="M231.03724,272.967l-0.21126,-27.25352"/><path d="M235.47386,246.55857l-5.28169,2.53521l-3.16902,-2.53521"/><path d="M226.17808,249.72757l4.01409,2.53521"/><path d="M231.45977,252.47405l4.01409,-0.84507"/><path d="M225.75555,255.43181l4.01408,3.38028"/><path d="M231.45977,258.6008l4.64789,-2.74648"/></g><g><path d="M241.73333,279.67584l-0.21126,-27.25352"/><path d="M246.16995,253.26739l-5.28169,2.53521l-3.16902,-2.53521"/><path d="M236.87417,256.4364l4.01409,2.53521"/><path d="M246.16995,258.3378l-4.01409,0.84507"/><path d="M240.46572,265.5209l-4.01408,-3.38028"/><path d="M242.15586,265.30965l4.64789,-2.74648"/></g></g></g></g></g></svg>