<svg version="1.1" xmlns="http://www.w3.org/2000/svg" xmlns:xlink="http://www.w3.org/1999/xlink" width="129.62654" height="166.26172" viewBox="0,0,129.62654,166.26172"><g transform="translate(-175.67127,-97.19007)"><g data-paper-data="{&quot;isPaintingLayer&quot;:true}" fill-rule="nonzero" stroke-linejoin="miter" stroke-miterlimit="10" stroke-dasharray="" stroke-dashoffset="0" style="mix-blend-mode: normal"><g><g data-paper-data="{&quot;index&quot;:null}" fill="none" stroke="#000000" stroke-width="2" stroke-linecap="butt"><path d="M178.55016,240.00927l40.83521,-20.25102l40.54149,21.57772l-40.83521,20.25102z" data-paper-data="{&quot;index&quot;:null}"/><path d="M219.80016,219.50927l40.83521,-20.25102l40.54149,21.57772l-40.83521,20.25102z" data-paper-data="{&quot;index&quot;:null}"/></g><g data-paper-data="{&quot;index&quot;:null}" stroke="#000000" stroke-width="2" stroke-linecap="butt"><path d="M180.23367,185.92941l40.83521,-20.25102l40.54149,21.57772l-40.83521,20.25102z" data-paper-data="{&quot;index&quot;:null}" fill="#ffffd1"/><path d="M221.73367,164.92941l40.83521,-20.25102l40.54149,21.57772l-40.83521,20.25102z" data-paper-data="{&quot;index&quot;:null}" fill="#cccc7b"/></g><path d="M176.67127,238.95226v-53.66935l41.97219,22.0182v53.32532z" data-paper-data="{&quot;index&quot;:null}" fill="#cccc7b" stroke="#000000" stroke-width="2" stroke-linecap="butt"/><path d="M219.57698,261.80993v-53.32532l41.97218,-22.0182v53.66936z" data-paper-data="{&quot;index&quot;:null}" fill="#cccc7b" stroke="#000000" stroke-width="2" stroke-linecap="butt"/><path d="M262.38865,239.66334v-51.86435l40.94008,-21.41496v52.19896z" data-paper-data="{&quot;index&quot;:null}" fill="#cccc7b" stroke="#000000" stroke-width="2" stroke-linecap="butt"/><path d="" data-paper-data="{&quot;index&quot;:null}" fill="#e8e8ac" stroke="none" stroke-width="0.5" stroke-linecap="butt"/><g data-paper-data="{&quot;index&quot;:null}" fill="none" stroke="#000000" stroke-width="2" stroke-linecap="butt"><path d="M222.42495,206.69409l-21.21978,-10.52333l21.06716,-11.21274l21.21979,10.52333z" data-paper-data="{&quot;index&quot;:null}"/><path d="M200.98962,196.04138l-21.21978,-10.52333l21.06716,-11.21274l21.21979,10.52333z" data-paper-data="{&quot;index&quot;:null}"/></g><path d="M200.4514,168.81185l-21.21978,-10.52333c0,0 33.02707,-22.36516 36.92975,-25.03923c0.77061,-0.52801 -0.04442,-0.23412 -0.04442,-0.23412c0,0 2.11757,-0.28881 3.98716,2.231c4.43279,5.9745 22.41446,33.35294 22.41446,33.35294c0,0 -12.24815,11.78779 -19.35807,11.82374c-0.37722,0.00191 -0.35112,-1.59053 -0.77498,-1.63195c-7.33653,-0.71695 -21.93411,-9.97906 -21.93411,-9.97906z" data-paper-data="{&quot;index&quot;:null}" fill="#cccc7b" stroke="#000000" stroke-width="2" stroke-linecap="butt"/><path d="M222.26811,206.96458v-27.71021l21.81062,-11.44163v27.88898z" data-paper-data="{&quot;index&quot;:null}" fill="#cccc7b" stroke="#000000" stroke-width="2" stroke-linecap="butt"/><path d="M199.11214,195.79709v-27.88898l21.81061,11.44163v27.71021z" data-paper-data="{&quot;index&quot;:null}" fill="#cccc7b" stroke="#000000" stroke-width="2" stroke-linecap="butt"/><path d="M178.83793,186.20028v-27.1249l21.27429,11.12817v26.95102z" data-paper-data="{&quot;index&quot;:null}" fill="#cccc7b" stroke="#000000" stroke-width="2" stroke-linecap="butt"/><g data-paper-data="{&quot;index&quot;:null}" fill="none" stroke="#000000" stroke-width="2" stroke-linecap="butt"><path d="M279.42495,176.69409l-21.21978,-10.52333l21.06716,-11.21274l21.21979,10.52333z" data-paper-data="{&quot;index&quot;:null}"/><path d="M257.98962,166.04138l-21.21978,-10.52333l21.06716,-11.21274l21.21979,10.52333z" data-paper-data="{&quot;index&quot;:null}"/></g><g data-paper-data="{&quot;index&quot;:null}" fill="#ffffd1" stroke="#000000" stroke-width="2" stroke-linecap="butt"><path d="M279.32959,148.7217l-21.21978,-10.52333l21.06716,-11.21274l21.21979,10.52333z" data-paper-data="{&quot;index&quot;:null}"/><path d="M257.89426,138.06899l-21.21978,-10.52333l21.06716,-11.21274l21.21979,10.52333z" data-paper-data="{&quot;index&quot;:null}"/></g><path d="M279.26811,176.71458v-27.7102l21.81062,-11.44163v27.88898z" data-paper-data="{&quot;index&quot;:null}" fill="#cccc7b" stroke="#000000" stroke-width="2" stroke-linecap="butt"/><path d="M257.36214,165.54709v-27.88898l21.81061,11.44163v27.71021z" data-paper-data="{&quot;index&quot;:null}" fill="#cccc7b" stroke="#000000" stroke-width="2" stroke-linecap="butt"/><path d="M236.17127,154.86695v-27.1249l21.27429,11.12817v26.95102z" data-paper-data="{&quot;index&quot;:null}" fill="#cccc7b" stroke="#000000" stroke-width="2" stroke-linecap="butt"/><path d="M221.45805,179.44402l-4.87682,-48.88885" data-paper-data="{&quot;index&quot;:null}" fill="none" stroke="#000000" stroke-width="2" stroke-linecap="round"/><path d="M178.80129,157.85069l37.69585,-26.2752" data-paper-data="{&quot;index&quot;:null}" fill="none" stroke="#000000" stroke-width="2" stroke-linecap="round"/><path d="M215.36351,128.69007l28.66666,40" fill="none" stroke="#000000" stroke-width="2" stroke-linecap="round"/><path d="M257.4514,138.31185l-21.21978,-10.52333c0,0 33.02707,-22.36516 36.92975,-25.03923c0.77061,-0.52801 -0.04442,-0.23412 -0.04442,-0.23412c0,0 2.11757,-0.28881 3.98716,2.231c4.43279,5.9745 22.41446,33.35294 22.41446,33.35294c0,0 -9.31792,4.06166 -15.73303,7.40875c-2.1832,1.13909 -2.81975,2.15587 -4.62503,2.165c-0.37722,0.00191 0.64888,0.65947 0.22502,0.61805c-7.33653,-0.71695 -21.93412,-9.97905 -21.93412,-9.97905z" data-paper-data="{&quot;index&quot;:null}" fill="#cccc7b" stroke="#000000" stroke-width="2" stroke-linecap="butt"/><path d="M278.45805,148.94402l-4.87682,-48.88886" data-paper-data="{&quot;index&quot;:null}" fill="none" stroke="#000000" stroke-width="2" stroke-linecap="round"/><path d="M273.49714,101.07549l-37.69585,26.2752" data-paper-data="{&quot;index&quot;:null}" fill="none" stroke="#000000" stroke-width="2" stroke-linecap="round"/><path d="M301.03017,138.19007l-28.66666,-40" fill="none" stroke="#000000" stroke-width="2" stroke-linecap="round"/><path d="M253.97461,242.47762l-7.5,-46.50581c0,0 26.74211,-13.70569 31.77065,-15.03077c1.41909,-0.37395 5.22935,5.28077 5.22935,5.28077l1.25,38.50582c0,0 0.93331,2.97142 -0.00629,3.5138c-3.81768,2.2037 -30.74371,14.2362 -30.74371,14.2362z" fill="#cccc7b" stroke="none" stroke-width="0" stroke-linecap="butt"/><path d="M245.4885,193.89688c0,0 -0.81648,-16.09121 -0.05394,-21.10615c0.1873,-1.23177 3.05394,-1.11205 3.05394,-1.39385c0,-0.98615 4.25,4.25 4.25,4.25h12.25v7.75z" fill="#cccc7b" stroke="none" stroke-width="0" stroke-linecap="butt"/><path d="M190.11214,186.21239v-21.49553l18.81061,8.81868v21.35774z" data-paper-data="{&quot;index&quot;:null}" fill="#808080" stroke="none" stroke-width="0" stroke-linecap="butt"/><path d="M189.77881,191.54572v-21.49553l18.8106,8.81868v21.35775z" data-paper-data="{&quot;index&quot;:null}" fill="#808080" stroke="none" stroke-width="0" stroke-linecap="butt"/><path d="M247.44548,156.54572v-21.49553l18.81061,8.81868v21.35775z" data-paper-data="{&quot;index&quot;:null}" fill="#808080" stroke="none" stroke-width="0" stroke-linecap="butt"/><path d="M246.77881,160.21239v-21.49553l18.8106,8.81868v21.35775z" data-paper-data="{&quot;index&quot;:null}" fill="#808080" stroke="none" stroke-width="0" stroke-linecap="butt"/><path d="M258.33704,242.36583l0.57777,-34.8l19.88889,-10.44444l-0.44444,34.44444c0,0 0.66998,0.40333 0.26166,0.62741c-1.98696,1.09041 -20.28387,10.17259 -20.28387,10.17259z" fill="#ecca00" stroke="#000000" stroke-width="2" stroke-linecap="butt"/><path d="M269.51591,203.3615l-0.2,33" fill="none" stroke="#000000" stroke-width="2" stroke-linecap="round"/></g></g></g></svg>