<svg version="1.1" xmlns="http://www.w3.org/2000/svg" xmlns:xlink="http://www.w3.org/1999/xlink" width="85.9351" height="96.96212" viewBox="0,0,85.9351,96.96212"><g transform="translate(-197.12421,-105.50767)"><g data-paper-data="{&quot;isPaintingLayer&quot;:true}" fill-rule="nonzero" stroke-linejoin="miter" stroke-miterlimit="10" stroke-dasharray="" stroke-dashoffset="0" style="mix-blend-mode: normal"><path d="M199.31165,179.33666l40.83521,-20.25102l40.54149,21.57772l-40.83521,20.25102z" data-paper-data="{&quot;index&quot;:null}" fill="none" stroke="#000000" stroke-width="2" stroke-linecap="butt"/><path d="M199.49517,126.88292l40.83521,-20.25102l40.54149,21.57772l-40.83521,20.25102z" data-paper-data="{&quot;index&quot;:null}" fill="#ff0000" stroke="#000000" stroke-width="2" stroke-linecap="butt"/><path d="M199.23193,179.12142l-0.34403,-51.60515l40.59605,21.33013v51.94918z" fill="#ffffff" stroke="#000000" stroke-width="2" stroke-linecap="butt"/><path d="M240.69958,200.09459v-51.94918l40.59605,-21.33013l0.00001,52.63725z" data-paper-data="{&quot;index&quot;:null}" fill="#ffffff" stroke="#000000" stroke-width="2" stroke-linecap="butt"/><path d="M261.92338,143.7811c0,0 0.08173,2.49715 0.15913,4.76229c0.06961,2.03707 0.1357,3.77372 0.1357,5.26209c0,2.51253 0,3.24319 0,3.24319" fill="#ff0000" stroke="#ff0000" stroke-width="6.5" stroke-linecap="round"/><path d="M256.61635,152.62615c0,0 2.5097,-1.1477 4.35354,-1.93133c2.0627,-0.87664 7.43986,-3.08086 7.43986,-3.08086" fill="none" stroke="#ff0000" stroke-width="6.5" stroke-linecap="round"/><text transform="translate(250.45175,173.18266) rotate(-23.92406) scale(0.16245,0.16245)" font-size="40" xml:space="preserve" fill="#000000" fill-rule="nonzero" stroke="none" stroke-width="1" stroke-linecap="butt" stroke-linejoin="miter" stroke-miterlimit="10" stroke-dasharray="" stroke-dashoffset="0" font-family="Marker" font-weight="normal" text-anchor="start" style="mix-blend-mode: normal"><tspan x="0" dy="0">CLINIQUE</tspan></text><path d="M219.87965,143.79123c0,0 -0.03381,2.49826 -0.06123,4.76456c-0.02465,2.03811 -0.03893,3.77596 -0.10774,5.26274c-0.11617,2.50984 -0.14995,3.23972 -0.14995,3.23972" fill="#ff0000" stroke="#ff0000" stroke-width="6.5" stroke-linecap="round"/><path d="M225.45131,153.51671c0,0 -2.5289,-1.10475 -4.34246,-1.95612c-2.02882,-0.95243 -7.25726,-3.48933 -7.25726,-3.48933" fill="none" stroke="#ff0000" stroke-width="6.5" stroke-linecap="round"/><path d="M199.42405,126.32555l40.53075,-14.80055l-0.4554,38.02604" fill="none" stroke="#000000" stroke-width="3" stroke-linecap="round"/><path d="M280.03015,127.69176l-39.98594,-16.62584l-0.0894,-3.18413" fill="none" stroke="#000000" stroke-width="3" stroke-linecap="round"/><path d="M255.89386,179.60755v-5.46482h8.88033v5.46482z" fill="#ffffff" stroke="none" stroke-width="0" stroke-linecap="butt"/><path d="M260.36216,190.95209l-0.67206,-15.40162l10.18659,-4.7044l0.52271,15.25227z" fill="#ff0000" stroke="#000000" stroke-width="0.5" stroke-linecap="butt"/><text transform="translate(206.49098,165.99806) rotate(25.30162) scale(0.06567,0.06567)" font-size="40" xml:space="preserve" fill="#ff0000" fill-rule="nonzero" stroke="none" stroke-width="1" stroke-linecap="butt" stroke-linejoin="miter" stroke-miterlimit="10" stroke-dasharray="" stroke-dashoffset="0" font-family="Serif" font-weight="normal" text-anchor="start" style="mix-blend-mode: normal"><tspan x="0" dy="0">Annexe</tspan></text><path d="M203.85617,182.23363l0.51129,-14.91915l9.96411,4.60165l-0.65738,15.06523z" data-paper-data="{&quot;index&quot;:null}" fill="#cecece" stroke="#000000" stroke-width="0.5" stroke-linecap="butt"/></g></g></svg>