<svg version="1.1" xmlns="http://www.w3.org/2000/svg" xmlns:xlink="http://www.w3.org/1999/xlink" width="332.36805" height="260.73246" viewBox="0,0,332.36805,260.73246"><g transform="translate(-74.4067,-49.63377)"><g data-paper-data="{&quot;isPaintingLayer&quot;:true}" fill-rule="nonzero" stroke-linejoin="miter" stroke-miterlimit="10" stroke-dasharray="" stroke-dashoffset="0" style="mix-blend-mode: normal"><g fill="none" stroke="#000000" stroke-width="2" stroke-linecap="butt"><path d="M284.96753,183.65801l38.34974,-19.01843l38.0739,20.26437l-38.34974,19.01842z" data-paper-data="{&quot;index&quot;:null}"/><path d="M323.70682,164.40576l38.34974,-19.01843l38.0739,20.26438l-38.34974,19.01843z" data-paper-data="{&quot;index&quot;:null}"/></g><g fill="#f6ffae" stroke="#000000" stroke-width="2" stroke-linecap="butt"><path d="M285.13987,133.10454l38.34974,-19.01843l38.0739,20.26438l-38.34974,19.01843z" data-paper-data="{&quot;index&quot;:null}"/><path d="M323.87915,113.85228l38.34975,-19.01843l38.0739,20.26438l-38.34974,19.01843z" data-paper-data="{&quot;index&quot;:null}"/></g><path d="M283.90735,183.60447v-50.40273l39.41752,20.67804v50.07964z" fill="#e4e4e4" stroke="#000000" stroke-width="2" stroke-linecap="butt"/><path d="M323.49722,204.13176v-50.07963l39.41751,-20.67804v50.40273z" data-paper-data="{&quot;index&quot;:null}" fill="#e4e4e4" stroke="#000000" stroke-width="2" stroke-linecap="butt"/><path d="M361.83079,184.89441v-48.70758l38.44823,-20.11153l0.31107,49.64397z" data-paper-data="{&quot;index&quot;:null}" fill="#e4e4e4" stroke="#000000" stroke-width="2" stroke-linecap="butt"/><path d="M322.3361,153.71514v-48.70759l38.44823,-20.11152v49.02183z" data-paper-data="{&quot;index&quot;:null}" fill="#f6ffae" stroke="#000000" stroke-width="2" stroke-linecap="butt"/><path d="M322.66862,119.03753l38.34974,-19.01843l38.0739,20.26437l-38.34974,19.01842z" data-paper-data="{&quot;index&quot;:null}" fill="none" stroke="#000000" stroke-width="2" stroke-linecap="butt"/><path d="M322.84097,69.77642l38.34974,-19.01842l38.0739,20.26437l-38.34974,19.01842z" data-paper-data="{&quot;index&quot;:null}" fill="#e4e4e4" stroke="#000000" stroke-width="2" stroke-linecap="butt"/><path d="M322.59374,118.83539l-0.32309,-48.46416l38.12514,20.03186v48.78725z" fill="#f6ffae" stroke="#000000" stroke-width="2" stroke-linecap="butt"/><path d="M361.53744,139.36269v-48.78725l38.12514,-20.03186l0.00001,49.43345z" data-paper-data="{&quot;index&quot;:null}" fill="#e4e4e4" stroke="#000000" stroke-width="2" stroke-linecap="butt"/><path d="M284.59561,137.36898l38.34974,-19.01842l38.0739,20.26437l-38.34975,19.01842z" data-paper-data="{&quot;index&quot;:null}" fill="none" stroke="#000000" stroke-width="2" stroke-linecap="butt"/><path d="M284.76795,88.10788l38.34974,-19.01843l38.0739,20.26438l-38.34975,19.01843z" data-paper-data="{&quot;index&quot;:null}" fill="#e4e4e4" stroke="#e4e4e4" stroke-width="2" stroke-linecap="butt"/><path d="M284.52074,137.16684l0.92118,-47.53095l36.88086,19.09865v48.78725z" fill="#f6ffae" stroke="#000000" stroke-width="2" stroke-linecap="butt"/><path d="M323.46443,157.69413v-48.78725l38.12514,-20.03186l0.00001,49.43344z" data-paper-data="{&quot;index&quot;:null}" fill="#e4e4e4" stroke="#000000" stroke-width="2" stroke-linecap="butt"/><path d="M285.58472,88.86622l39.96001,-20.05264l33.22054,20.52954" fill="none" stroke="#000000" stroke-width="2" stroke-linecap="round"/><path d="M245.57782,157.57585l38.34974,-19.01842l38.0739,20.26437l-38.34974,19.01843z" data-paper-data="{&quot;index&quot;:null}" fill="none" stroke="#000000" stroke-width="2" stroke-linecap="butt"/><path d="M245.75017,108.31477l115.42897,-57.38191l35.73058,20.55485l-113.08564,57.09143z" data-paper-data="{&quot;index&quot;:null}" fill="#e4e4e4" stroke="#000000" stroke-width="2" stroke-linecap="butt"/><path d="M245.50295,157.37373l-0.32309,-48.46416l38.12514,20.03185v48.78725z" fill="#e4e4e4" stroke="#000000" stroke-width="2" stroke-linecap="butt"/><g fill="#bfbfbf" stroke="#000000" stroke-width="2" stroke-linecap="butt"><g><path d="M200.62727,266.33096l40.83521,-20.25102l40.54149,21.57772l-40.83521,20.25102z" data-paper-data="{&quot;index&quot;:null}"/><path d="M241.87727,245.83096l40.83521,-20.25102l40.54149,21.57772l-40.83521,20.25102z" data-paper-data="{&quot;index&quot;:null}"/><path d="M282.54394,225.49763l40.83521,-20.25102l40.54149,21.57772l-40.83521,20.25102z" data-paper-data="{&quot;index&quot;:null}"/></g><g><path d="M159.62727,244.33096l40.83521,-20.25102l40.54149,21.57772l-40.83521,20.25102z" data-paper-data="{&quot;index&quot;:null}"/><path d="M200.87727,223.83096l40.83521,-20.25102l40.54149,21.57772l-40.83521,20.25102z" data-paper-data="{&quot;index&quot;:null}"/><path d="M241.54394,203.49763l40.83521,-20.25102l40.54149,21.57772l-40.83521,20.25102z" data-paper-data="{&quot;index&quot;:null}"/></g><g><path d="M241.29394,287.66429l40.83521,-20.25102l40.54149,21.57772l-40.83521,20.25102z" data-paper-data="{&quot;index&quot;:null}"/><path d="M282.54394,267.16429l40.83521,-20.25102l40.54149,21.57772l-40.83521,20.25102z" data-paper-data="{&quot;index&quot;:null}"/><path d="M323.21061,246.83096l40.83521,-20.25102l40.54149,21.57772l-40.83521,20.25102z" data-paper-data="{&quot;index&quot;:null}"/></g></g><path d="M284.44664,177.90103v-48.78725l38.12514,-20.03186l0.00001,49.43344z" data-paper-data="{&quot;index&quot;:null}" fill="#e4e4e4" stroke="#000000" stroke-width="2" stroke-linecap="butt"/><path d="M254.41702,214.84304l-0.31107,-51.40675l11.59196,6.28319v50.76401z" fill="#e4e4e4" stroke="#000000" stroke-width="2" stroke-linecap="butt"/><path d="M267.10803,220.48348l-1.41011,-50.76402l11.28089,4.23033l1.86163,40.83769z" fill="#e4e4e4" stroke="#000000" stroke-width="2" stroke-linecap="butt"/><path d="M359.55325,185.85283l0.05954,-24.93448l24.42343,-12.43947l0.16661,24.56787z" fill="#b3b3b3" stroke="#000000" stroke-width="2" stroke-linecap="butt"/><g stroke="#000000" stroke-width="2" stroke-linecap="butt"><g fill="none"><g><path d="M76.69433,200.13l40.83521,-20.25102l40.54149,21.57772l-40.83521,20.25102z" data-paper-data="{&quot;index&quot;:null}"/><path d="M117.94433,179.63l40.83521,-20.25102l40.54149,21.57772l-40.83521,20.25102z" data-paper-data="{&quot;index&quot;:null}"/></g><g><path d="M118.36099,222.13l40.83521,-20.25102l40.54149,21.57772l-40.83521,20.25102z" data-paper-data="{&quot;index&quot;:null}"/><path d="M159.61099,201.63l40.83521,-20.25102l40.54149,21.57772l-40.83521,20.25102z" data-paper-data="{&quot;index&quot;:null}"/></g></g><g fill="#e4e4e4"><g><path d="M76.87785,105.01601l40.83521,-20.25102l40.54149,21.57772l-40.83521,20.25102z" data-paper-data="{&quot;index&quot;:null}"/><path d="M118.12785,84.51601l40.83521,-20.25102l40.54149,21.57772l-40.83521,20.25102z" data-paper-data="{&quot;index&quot;:null}"/></g><g><path d="M118.54451,127.01601l40.83521,-20.25102l40.54149,21.57772l-40.83521,20.25102z" data-paper-data="{&quot;index&quot;:null}"/><path d="M159.79451,106.51601l40.83521,-20.25102l40.54149,21.57772l-40.83521,20.25102z" data-paper-data="{&quot;index&quot;:null}"/></g></g><path d="M75.75672,200.0136l-0.34403,-94.95348l83.94438,43.69236v95.64155z" fill="#e4e4e4"/><path d="M159.88462,243.54544l-0.68807,-93.92137l82.22421,-40.94009l-0.34403,93.2333z" data-paper-data="{&quot;index&quot;:null}" fill="#e4e4e4"/></g><path d="M170.59896,175.38876v-18.04202l65.01349,-30.48479v18.04202z" fill="#00acf3" stroke="#000000" stroke-width="2" stroke-linecap="butt"/><path d="M292.24995,153.32573v-18.04202l65.01349,-30.48479v18.04202z" fill="#00acf3" stroke="#000000" stroke-width="2" stroke-linecap="butt"/><path d="M81.9671,145.23793v-18.04202l65.01348,30.48479v18.04202z" data-paper-data="{&quot;index&quot;:null}" fill="#00acf3" stroke="#000000" stroke-width="2" stroke-linecap="butt"/><path d="M187.55552,229.23244l0.05954,-24.93448l24.42343,-12.43948l0.16661,24.56788z" fill="#b3b3b3" stroke="#000000" stroke-width="2" stroke-linecap="butt"/><path d="M218.04229,199.80433l-0.45153,-17.5905l20.76405,-9.26313v17.13897z" fill="#00acf3" stroke="#000000" stroke-width="2" stroke-linecap="butt"/><path d="M332.31129,179.51894l-0.45152,-17.5905l20.76405,-9.26313v17.13898z" fill="#00acf3" stroke="#000000" stroke-width="2" stroke-linecap="butt"/><path d="M370.72413,116.33869l-0.45152,-17.5905l20.76405,-9.26313v17.13898z" fill="#00acf3" stroke="#000000" stroke-width="2" stroke-linecap="butt"/><path d="M82.00033,189.52059v-18.04202l65.01349,30.48479v18.04202z" data-paper-data="{&quot;index&quot;:null}" fill="#00acf3" stroke="#000000" stroke-width="2" stroke-linecap="butt"/><text transform="translate(260.12944,286.44928) scale(0.18512,0.18512)" font-size="40" xml:space="preserve" fill="#ffffff" fill-rule="nonzero" stroke="none" stroke-width="1" stroke-linecap="butt" stroke-linejoin="miter" stroke-miterlimit="10" stroke-dasharray="" stroke-dashoffset="0" font-family="Handwriting" font-weight="normal" text-anchor="start" style="mix-blend-mode: normal"><tspan x="0" dy="0">Collège</tspan><tspan x="0" dy="46.15px">Maria Casarès</tspan></text></g></g></svg>