<svg version="1.1" xmlns="http://www.w3.org/2000/svg" xmlns:xlink="http://www.w3.org/1999/xlink" width="127.64459" height="130.12812" viewBox="0,0,127.64459,130.12812"><g transform="translate(-176.49922,-82.90105)"><g data-paper-data="{&quot;isPaintingLayer&quot;:true}" fill-rule="nonzero" stroke-linejoin="miter" stroke-miterlimit="10" stroke-dasharray="" stroke-dashoffset="0" style="mix-blend-mode: normal"><g stroke-linecap="butt"><g stroke="#000000" stroke-width="2"><g fill="none"><path d="M178.68666,189.58665l40.83521,-20.25102l40.54149,21.57772l-40.83521,20.25102z" data-paper-data="{&quot;index&quot;:null}"/><path d="M219.93666,169.08665l40.83521,-20.25102l40.54149,21.57772l-40.83521,20.25102z" data-paper-data="{&quot;index&quot;:null}"/></g><g fill="#ffffff"><path d="M178.87017,135.75679l40.83521,-20.25102l40.54149,21.57772l-40.83521,20.25102z" data-paper-data="{&quot;index&quot;:null}"/><path d="M220.12017,115.25679l40.83521,-20.25102l40.54149,21.57772l-40.83521,20.25102z" data-paper-data="{&quot;index&quot;:null}"/></g><path d="M177.55777,189.52964v-53.66935l41.97219,22.0182v53.32532z" fill="#ffffff"/><path d="M219.71348,211.38732v-53.32532l41.97218,-22.0182v53.66936z" data-paper-data="{&quot;index&quot;:null}" fill="#ffffff"/><path d="M261.52515,190.24072v-51.86435l40.94008,-21.41496v52.19896z" data-paper-data="{&quot;index&quot;:null}" fill="#ffffff"/></g><path d="M213.19526,119.82893l16.50811,-8.27154l40.56905,19.47534l-24.06767,11.71976z" fill="#ffffff" stroke="none" stroke-width="0"/><path d="M256.71235,139.68929l45.02737,-21.08716l-33.97813,67.30828l-12.87657,6.12421z" data-paper-data="{&quot;index&quot;:null}" fill="#ffffff" stroke="none" stroke-width="0"/></g><path d="M195.86584,197.62562l0.28994,-24.62862l10.88961,5.21897v25.35348z" fill="#9a5600" stroke="#000000" stroke-width="1" stroke-linecap="butt"/><path d="M184.35237,192.22825l0.28994,-24.62862l10.88962,5.21897v25.35348z" fill="#9a5600" stroke="#000000" stroke-width="1" stroke-linecap="butt"/><path d="M260.61041,94.82803l22.43992,-10.62944l18.50309,31.88831z" fill="#ffffff" stroke="#000000" stroke-width="2" stroke-linecap="round"/><path d="M195.92854,126.59846l22.43992,-10.62944l18.5031,31.88831z" fill="#ffffff" stroke="#000000" stroke-width="2" stroke-linecap="round"/><path d="M218.11378,115.81293l64.75606,-31.27674l19.16251,32.15777l-64.75606,31.49699z" fill="#ffffff" stroke="#000000" stroke-width="2" stroke-linecap="round"/><g stroke="#000000" stroke-width="1" stroke-linecap="butt"><path d="M197.41302,141.94473l9.62237,-4.77193l9.55316,5.08455l-9.62237,4.77193z" data-paper-data="{&quot;index&quot;:null}" fill="none"/><path d="M197.45626,129.58458l9.62237,-4.77193l9.55316,5.08455l-9.62237,4.77193z" data-paper-data="{&quot;index&quot;:null}" fill="#ffffff"/><path d="M197.39423,141.89401l-0.08107,-12.16019l9.56601,5.02621v12.24126z" fill="#ffffff"/><path d="M207.16563,147.04453v-12.24126l9.56601,-5.02621v12.40339z" data-paper-data="{&quot;index&quot;:null}" fill="#ffffff"/></g><path d="M228.90646,110.30647l19.60302,31.93751" fill="none" stroke="#000000" stroke-width="2" stroke-linecap="round"/><path d="M242.49655,105.17456l19.60303,31.93751" fill="none" stroke="#000000" stroke-width="2" stroke-linecap="round"/><path d="M273.04657,130.65862l-19.60303,-31.93751" fill="none" stroke="#000000" stroke-width="2" stroke-linecap="round"/><path d="M287.07716,123.98492l-19.60303,-31.93752" fill="none" stroke="#000000" stroke-width="2" stroke-linecap="round"/><path d="M286.05931,177.95306l-0.61161,-26.2477c0,0 4.39121,-20.28459 6.457,-21.26368c2.09703,-0.99389 6.33866,15.64988 6.33866,15.64988l0.63446,25.21561z" fill="#31fff7" stroke="#000000" stroke-width="1" stroke-linecap="butt"/><g stroke="#000000" stroke-width="0.5"><path d="M201.5997,129.439l5.73456,-2.84388l5.69331,3.03019l-5.73455,2.84389z" data-paper-data="{&quot;index&quot;:null}" fill="none" stroke-linecap="butt"/><path d="M201.62548,122.07283l5.73456,-2.84388l5.69331,3.0302l-5.73456,2.84388z" data-paper-data="{&quot;index&quot;:null}" fill="#e4e4e4" stroke-linecap="butt"/><path d="M201.58851,129.40876l-0.04831,-7.24699l5.70097,2.99542v7.29531z" fill="#ffffff" stroke-linecap="butt"/><path d="M207.41188,132.47828v-7.29531l5.70098,-2.99542v7.39194z" data-paper-data="{&quot;index&quot;:null}" fill="#ffffff" stroke-linecap="butt"/><path d="M207.25504,116.57504l0.09532,8.5787l-5.86212,-3.19318z" fill="#9a9a9a" stroke-linecap="round"/><path d="M213.16481,122.1512l-5.7668,3.00254v-8.53105z" fill="#9a9a9a" stroke-linecap="round"/></g><path d="M268.42974,186.46981l-0.61161,-26.2477c0,0 4.39121,-20.28459 6.457,-21.26368c2.09703,-0.99389 6.33866,15.64988 6.33866,15.64988l0.63446,25.21561z" fill="#31fff7" stroke="#000000" stroke-width="1" stroke-linecap="butt"/><path d="M250.80017,194.98657l-0.61161,-26.24771c0,0 4.39121,-20.28459 6.457,-21.26367c2.09703,-0.99389 6.33866,15.64988 6.33866,15.64988l0.63446,25.2156z" fill="#31fff7" stroke="#000000" stroke-width="1" stroke-linecap="butt"/><path d="M233.89656,203.77709l-0.61161,-26.2477c0,0 4.39121,-20.28459 6.457,-21.26367c2.09703,-0.99389 6.33866,15.64988 6.33866,15.64988l0.63446,25.2156z" fill="#31fff7" stroke="#000000" stroke-width="1" stroke-linecap="butt"/><path d="M208.80858,111.97107c0,0.90448 -0.65176,1.63772 -1.45575,1.63772c-0.80399,0 -1.45575,-0.73324 -1.45575,-1.63772c0,-0.90448 0.65176,-1.63772 1.45575,-1.63772c0.80399,0 1.45575,0.73324 1.45575,1.63772z" fill="#000000" stroke="#000000" stroke-width="1" stroke-linecap="butt"/><path d="M207.21696,118.00567l0.20964,-24.73765" fill="none" stroke="#000000" stroke-width="1" stroke-linecap="round"/><path d="M202.29039,99.7669l9.22421,3.35426" fill="none" stroke="#000000" stroke-width="1" stroke-linecap="round"/><path d="M211.07349,145.21984l-0.14658,-6.29071c0,0 1.05243,-4.86155 1.54753,-5.0962c0.50259,-0.2382 1.51917,3.75076 1.51917,3.75076l0.15206,6.04335z" fill="#31fff7" stroke="#000000" stroke-width="1" stroke-linecap="butt"/><path d="M200.67317,143.54246l0.15205,-6.04335c0,0 1.01658,-3.98896 1.51917,-3.75076c0.4951,0.23466 1.54753,5.0962 1.54753,5.0962l-0.14658,6.29071z" data-paper-data="{&quot;index&quot;:null}" fill="#31fff7" stroke="#000000" stroke-width="1" stroke-linecap="butt"/></g></g></svg>