<svg version="1.1" xmlns="http://www.w3.org/2000/svg" xmlns:xlink="http://www.w3.org/1999/xlink" width="174.84694" height="97.42614" viewBox="0,0,174.84694,97.42614"><g transform="translate(-196.79619,-150.94578)"><g data-paper-data="{&quot;isPaintingLayer&quot;:true}" fill-rule="nonzero" stroke-linejoin="miter" stroke-miterlimit="10" stroke-dasharray="" stroke-dashoffset="0" style="mix-blend-mode: normal"><path d="M199.48574,202.17873l85.29172,-42.29791l84.67823,45.06897l-85.29172,42.29791z" data-paper-data="{&quot;index&quot;:null}" fill="#00ca55" stroke="#000000" stroke-width="2" stroke-linecap="butt"/><path d="M283.90129,246.97083l0.37259,-6.70659l-86.44055,-45.08322" fill="none" stroke="#000000" stroke-width="2" stroke-linecap="round"/><path d="M198.20593,201.14244l-0.37259,-6.33401l85.69537,-42.4751l1.11777,2.98071v4.84365" fill="none" stroke="#000000" stroke-width="2" stroke-linecap="round"/><path d="M369.22408,204.12314v-5.21624l-84.57761,41.72992" fill="none" stroke="#000000" stroke-width="2" stroke-linecap="round"/><path d="M369.22408,198.16172l-86.06796,-45.82839" fill="none" stroke="#000000" stroke-width="2" stroke-linecap="round"/><path d="M277,200c0,1.7489 -1.79086,3.16666 -4,3.16666c-2.20914,0 -4,-1.41777 -4,-3.16666c0,-1.7489 1.79086,-3.16667 4,-3.16667c2.20914,0 4,1.41777 4,3.16667z" fill="#c3c3c3" stroke="#000000" stroke-width="0.5" stroke-linecap="butt"/><path d="M318.58334,207.75c0,1.7489 -1.79086,3.16666 -4,3.16666c-2.20914,0 -4,-1.41777 -4,-3.16666c0,-1.7489 1.79086,-3.16667 4,-3.16667c2.20914,0 4,1.41777 4,3.16667z" fill="#926300" stroke="#000000" stroke-width="0.5" stroke-linecap="butt"/><path d="M256.33334,200.70833c0,1.7489 -1.79086,3.16667 -4,3.16667c-2.20914,0 -4,-1.41777 -4,-3.16667c0,-1.7489 1.79086,-3.16667 4,-3.16667c2.20914,0 4,1.41777 4,3.16667z" fill="#ffffff" stroke="#000000" stroke-width="0.5" stroke-linecap="butt"/><path d="M318.0625,207.6875c0,1.03553 0.81149,1.875 1.8125,1.875c1.00101,0 1.8125,-0.83947 1.8125,-1.875c0,-1.03553 -0.81149,-1.875 -1.8125,-1.875c-1.00101,0 -1.8125,0.83947 -1.8125,1.875z" fill="#926300" stroke="#000000" stroke-width="0.5" stroke-linecap="butt"/><path d="M319.5625,206.9375l1.75,-1.625" fill="none" stroke="#ffffff" stroke-width="0.5" stroke-linecap="round"/><path d="M319.5625,207.9375l1.75,1.375" fill="none" stroke="#ffffff" stroke-width="0.5" stroke-linecap="round"/><path d="M227.45834,203.25c0,1.7489 -1.79086,3.16666 -4,3.16666c-2.20914,0 -4,-1.41777 -4,-3.16666c0,-1.7489 1.79086,-3.16667 4,-3.16667c2.20914,0 4,1.41777 4,3.16667z" fill="#926300" stroke="#000000" stroke-width="0.5" stroke-linecap="butt"/><path d="M226.9375,203.1875c0,1.03553 0.81149,1.875 1.8125,1.875c1.00101,0 1.8125,-0.83947 1.8125,-1.875c0,-1.03553 -0.81149,-1.875 -1.8125,-1.875c-1.00101,0 -1.8125,0.83947 -1.8125,1.875z" fill="#926300" stroke="#000000" stroke-width="0.5" stroke-linecap="butt"/><path d="M228.4375,202.4375l1.75,-1.625" fill="none" stroke="#ffffff" stroke-width="0.5" stroke-linecap="round"/><path d="M228.4375,203.4375l1.75,1.375" fill="none" stroke="#ffffff" stroke-width="0.5" stroke-linecap="round"/><path d="M253.70834,194.75c0,1.7489 -1.79086,3.16666 -4,3.16666c-2.20914,0 -4,-1.41777 -4,-3.16666c0,-1.7489 1.79086,-3.16667 4,-3.16667c2.20914,0 4,1.41777 4,3.16667z" fill="#926300" stroke="#000000" stroke-width="0.5" stroke-linecap="butt"/><path d="M253.1875,194.6875c0,1.03554 0.81149,1.875 1.8125,1.875c1.00101,0 1.8125,-0.83946 1.8125,-1.875c0,-1.03554 -0.81149,-1.875 -1.8125,-1.875c-1.00101,0 -1.8125,0.83946 -1.8125,1.875z" fill="#926300" stroke="#000000" stroke-width="0.5" stroke-linecap="butt"/><path d="M254.6875,193.9375l1.75,-1.625" fill="none" stroke="#ffffff" stroke-width="0.5" stroke-linecap="round"/><path d="M254.6875,194.9375l1.75,1.375" fill="none" stroke="#ffffff" stroke-width="0.5" stroke-linecap="round"/><path d="M286.45834,221.125c0,1.7489 -1.79086,3.16666 -4,3.16666c-2.20914,0 -4,-1.41777 -4,-3.16666c0,-1.7489 1.79086,-3.16667 4,-3.16667c2.20914,0 4,1.41777 4,3.16667z" fill="#926300" stroke="#000000" stroke-width="0.5" stroke-linecap="butt"/><path d="M285.9375,221.0625c0,1.03554 0.81149,1.875 1.8125,1.875c1.00101,0 1.8125,-0.83946 1.8125,-1.875c0,-1.03554 -0.81149,-1.875 -1.8125,-1.875c-1.00101,0 -1.8125,0.83946 -1.8125,1.875z" fill="#926300" stroke="#000000" stroke-width="0.5" stroke-linecap="butt"/><path d="M287.4375,220.3125l1.75,-1.625" fill="none" stroke="#ffffff" stroke-width="0.5" stroke-linecap="round"/><path d="M287.4375,221.3125l1.75,1.375" fill="none" stroke="#ffffff" stroke-width="0.5" stroke-linecap="round"/><path d="M302.08334,180.375c0,1.7489 -1.79086,3.16666 -4,3.16666c-2.20914,0 -4,-1.41777 -4,-3.16666c0,-1.7489 1.79086,-3.16667 4,-3.16667c2.20914,0 4,1.41777 4,3.16667z" fill="#926300" stroke="#000000" stroke-width="0.5" stroke-linecap="butt"/><path d="M301.5625,180.3125c0,1.03554 0.81149,1.875 1.8125,1.875c1.00101,0 1.8125,-0.83946 1.8125,-1.875c0,-1.03554 -0.81149,-1.875 -1.8125,-1.875c-1.00101,0 -1.8125,0.83946 -1.8125,1.875z" fill="#926300" stroke="#000000" stroke-width="0.5" stroke-linecap="butt"/><path d="M303.0625,179.5625l1.75,-1.625" fill="none" stroke="#ffffff" stroke-width="0.5" stroke-linecap="round"/><path d="M303.0625,180.5625l1.75,1.375" fill="none" stroke="#ffffff" stroke-width="0.5" stroke-linecap="round"/><path d="M276.8125,200.0625c0,0.75939 0.81148,1.375 1.8125,1.375c1.00102,0 1.8125,-0.61561 1.8125,-1.375c0,-0.75939 -0.81148,-1.375 -1.8125,-1.375c-1.00102,0 -1.8125,0.61561 -1.8125,1.375z" fill="#c3c3c3" stroke="#000000" stroke-width="0.5" stroke-linecap="butt"/><path d="M280.3125,197.8125l-0.875,2l1.25,1.875" fill="none" stroke="#000000" stroke-width="0.5" stroke-linecap="round"/><path d="M340.375,194.625c0,1.7489 -1.79086,3.16667 -4,3.16667c-2.20914,0 -4,-1.41777 -4,-3.16667c0,-1.7489 1.79086,-3.16667 4,-3.16667c2.20914,0 4,1.41777 4,3.16667z" fill="#c3c3c3" stroke="#000000" stroke-width="0.5" stroke-linecap="butt"/><path d="M340.1875,194.6875c0,0.75939 0.81149,1.375 1.8125,1.375c1.00101,0 1.8125,-0.61561 1.8125,-1.375c0,-0.75939 -0.81149,-1.375 -1.8125,-1.375c-1.00101,0 -1.8125,0.61561 -1.8125,1.375z" fill="#c3c3c3" stroke="#000000" stroke-width="0.5" stroke-linecap="butt"/><path d="M343.6875,192.4375l-0.875,2l1.25,1.875" fill="none" stroke="#000000" stroke-width="0.5" stroke-linecap="round"/><path d="M251.75,215.875c0,1.7489 -1.79086,3.16667 -4,3.16667c-2.20914,0 -4,-1.41777 -4,-3.16667c0,-1.7489 1.79086,-3.16667 4,-3.16667c2.20914,0 4,1.41777 4,3.16667z" fill="#c3c3c3" stroke="#000000" stroke-width="0.5" stroke-linecap="butt"/><path d="M251.5625,215.9375c0,0.75939 0.81149,1.375 1.8125,1.375c1.00101,0 1.8125,-0.61561 1.8125,-1.375c0,-0.75939 -0.81149,-1.375 -1.8125,-1.375c-1.00101,0 -1.8125,0.61561 -1.8125,1.375z" fill="#c3c3c3" stroke="#000000" stroke-width="0.5" stroke-linecap="butt"/><path d="M255.0625,213.6875l-0.875,2l1.25,1.875" fill="none" stroke="#000000" stroke-width="0.5" stroke-linecap="round"/><path d="M267,182c0,1.7489 -1.79086,3.16666 -4,3.16666c-2.20914,0 -4,-1.41777 -4,-3.16666c0,-1.7489 1.79086,-3.16667 4,-3.16667c2.20914,0 4,1.41777 4,3.16667z" fill="#c3c3c3" stroke="#000000" stroke-width="0.5" stroke-linecap="butt"/><path d="M266.8125,182.0625c0,0.75939 0.81149,1.375 1.8125,1.375c1.00101,0 1.8125,-0.61561 1.8125,-1.375c0,-0.75939 -0.81149,-1.375 -1.8125,-1.375c-1.00101,0 -1.8125,0.61561 -1.8125,1.375z" fill="#c3c3c3" stroke="#000000" stroke-width="0.5" stroke-linecap="butt"/><path d="M270.3125,179.8125l-0.875,2l1.25,1.875" fill="none" stroke="#000000" stroke-width="0.5" stroke-linecap="round"/><path d="M256.3125,200.8125c0,0.82843 0.72754,1.5 1.625,1.5c0.89746,0 1.625,-0.67157 1.625,-1.5c0,-0.82843 -0.72754,-1.5 -1.625,-1.5c-0.89746,0 -1.625,0.67157 -1.625,1.5z" fill="#ffffff" stroke="#000000" stroke-width="0.5" stroke-linecap="butt"/><path d="M259.8125,198.4375l-1.625,2l1.5,2.125" fill="none" stroke="#ffffec" stroke-width="0.5" stroke-linecap="round"/><path d="M287.20834,173.95833c0,1.7489 -1.79086,3.16667 -4,3.16667c-2.20914,0 -4,-1.41776 -4,-3.16667c0,-1.7489 1.79086,-3.16667 4,-3.16667c2.20914,0 4,1.41777 4,3.16667z" fill="#ffffff" stroke="#000000" stroke-width="0.5" stroke-linecap="butt"/><path d="M287.1875,174.0625c0,0.82842 0.72753,1.5 1.625,1.5c0.89747,0 1.625,-0.67158 1.625,-1.5c0,-0.82842 -0.72753,-1.5 -1.625,-1.5c-0.89747,0 -1.625,0.67158 -1.625,1.5z" fill="#ffffff" stroke="#000000" stroke-width="0.5" stroke-linecap="butt"/><path d="M290.6875,171.6875l-1.625,2l1.5,2.125" fill="none" stroke="#ffffec" stroke-width="0.5" stroke-linecap="round"/><path d="M301.45834,204.20833c0,1.7489 -1.79086,3.16667 -4,3.16667c-2.20914,0 -4,-1.41777 -4,-3.16667c0,-1.7489 1.79086,-3.16667 4,-3.16667c2.20914,0 4,1.41777 4,3.16667z" fill="#ffffff" stroke="#000000" stroke-width="0.5" stroke-linecap="butt"/><path d="M301.4375,204.3125c0,0.82842 0.72753,1.5 1.625,1.5c0.89747,0 1.625,-0.67158 1.625,-1.5c0,-0.82842 -0.72753,-1.5 -1.625,-1.5c-0.89747,0 -1.625,0.67158 -1.625,1.5z" fill="#ffffff" stroke="#000000" stroke-width="0.5" stroke-linecap="butt"/><path d="M304.9375,201.9375l-1.625,2l1.5,2.125" fill="none" stroke="#ffffec" stroke-width="0.5" stroke-linecap="round"/></g></g></svg>