<svg version="1.1" xmlns="http://www.w3.org/2000/svg" xmlns:xlink="http://www.w3.org/1999/xlink" width="166.73191" height="86.53765" viewBox="0,0,166.73191,86.53765"><g transform="translate(-156.63405,-139.08735)"><g data-paper-data="{&quot;isPaintingLayer&quot;:true}" fill-rule="nonzero" stroke-linejoin="miter" stroke-miterlimit="10" stroke-dasharray="" stroke-dashoffset="0" style="mix-blend-mode: normal"><g><path d="M228.12465,151.00128v-3.25" fill="none" stroke="#a75c15" stroke-width="2.5" stroke-linecap="round"/><path d="M228.12465,139.75128c2.48528,0 4.5,1.84682 4.5,4.125c0,2.27818 -2.01472,4.125 -4.5,4.125c-2.48528,0 -4.5,-1.84682 -4.5,-4.125c0,-2.27818 2.01472,-4.125 4.5,-4.125z" fill="#009a05" stroke="#000000" stroke-width="0.5" stroke-linecap="butt"/><path d="M230.37465,156.00128v3.25" fill="none" stroke="#a75c15" stroke-width="2.5" stroke-linecap="round"/><path d="M230.37465,148.00128c2.48528,0 4.5,1.84682 4.5,4.125c0,2.27818 -2.01472,4.125 -4.5,4.125c-2.48528,0 -4.5,-1.84682 -4.5,-4.125c0,-2.27818 2.01472,-4.125 4.5,-4.125z" fill="#009a05" stroke="#000000" stroke-width="0.5" stroke-linecap="butt"/><path d="M221.87465,156.00128v-3.25" fill="none" stroke="#a75c15" stroke-width="2.5" stroke-linecap="round"/><path d="M221.87465,144.75128c2.48528,0 4.5,1.84682 4.5,4.125c0,2.27818 -2.01472,4.125 -4.5,4.125c-2.48528,0 -4.5,-1.84682 -4.5,-4.125c0,-2.27818 2.01472,-4.125 4.5,-4.125z" fill="#009a05" stroke="#000000" stroke-width="0.5" stroke-linecap="butt"/><path d="M226.87465,161.00128v-3.25" fill="none" stroke="#a75c15" stroke-width="2.5" stroke-linecap="round"/><path d="M226.87465,149.75128c2.48528,0 4.5,1.84682 4.5,4.125c0,2.27818 -2.01472,4.125 -4.5,4.125c-2.48528,0 -4.5,-1.84682 -4.5,-4.125c0,-2.27818 2.01472,-4.125 4.5,-4.125z" fill="#009a05" stroke="#000000" stroke-width="0.5" stroke-linecap="butt"/><path d="M222.12465,164.00128v-3.25" fill="none" stroke="#a75c15" stroke-width="2.5" stroke-linecap="round"/><path d="M222.12465,152.75128c2.48528,0 4.5,1.84682 4.5,4.125c0,2.27818 -2.01472,4.125 -4.5,4.125c-2.48528,0 -4.5,-1.84682 -4.5,-4.125c0,-2.27818 2.01472,-4.125 4.5,-4.125z" fill="#009a05" stroke="#000000" stroke-width="0.5" stroke-linecap="butt"/><path d="M227.62465,163.50128v3.25" fill="none" stroke="#a75c15" stroke-width="2.5" stroke-linecap="round"/><path d="M227.62465,155.50128c2.48528,0 4.5,1.84682 4.5,4.125c0,2.27818 -2.01472,4.125 -4.5,4.125c-2.48528,0 -4.5,-1.84682 -4.5,-4.125c0,-2.27818 2.01472,-4.125 4.5,-4.125z" fill="#009a05" stroke="#000000" stroke-width="0.5" stroke-linecap="butt"/></g><g><path d="M217.20383,168.625v3.25" fill="none" stroke="#a75c15" stroke-width="2.5" stroke-linecap="round"/><path d="M217.70383,161.125c2.48528,0 4.5,1.84682 4.5,4.125c0,2.27818 -2.01472,4.125 -4.5,4.125c-2.48528,0 -4.5,-1.84682 -4.5,-4.125c0,-2.27818 2.01472,-4.125 4.5,-4.125z" fill="#009a05" stroke="#000000" stroke-width="0.5" stroke-linecap="butt"/><path d="M224.45383,164.625v3.25" fill="none" stroke="#a75c15" stroke-width="2.5" stroke-linecap="round"/><path d="M224.45383,156.625c2.48528,0 4.5,1.84682 4.5,4.125c0,2.27818 -2.01472,4.125 -4.5,4.125c-2.48528,0 -4.5,-1.84682 -4.5,-4.125c0,-2.27818 2.01472,-4.125 4.5,-4.125z" fill="#009a05" stroke="#000000" stroke-width="0.5" stroke-linecap="butt"/><path d="M227.95383,165.875v3.25" fill="none" stroke="#a75c15" stroke-width="2.5" stroke-linecap="round"/><path d="M227.95383,157.875c2.48528,0 4.5,1.84682 4.5,4.125c0,2.27818 -2.01472,4.125 -4.5,4.125c-2.48528,0 -4.5,-1.84682 -4.5,-4.125c0,-2.27818 2.01472,-4.125 4.5,-4.125z" fill="#009a05" stroke="#000000" stroke-width="0.5" stroke-linecap="butt"/><path d="M222.95383,171.375v-3.25" fill="none" stroke="#a75c15" stroke-width="2.5" stroke-linecap="round"/><path d="M222.95383,160.125c2.48528,0 4.5,1.84682 4.5,4.125c0,2.27818 -2.01472,4.125 -4.5,4.125c-2.48528,0 -4.5,-1.84682 -4.5,-4.125c0,-2.27818 2.01472,-4.125 4.5,-4.125z" fill="#009a05" stroke="#000000" stroke-width="0.5" stroke-linecap="butt"/><path d="M227.20383,170.125v3.25" fill="none" stroke="#a75c15" stroke-width="2.5" stroke-linecap="round"/><path d="M227.20383,162.125c2.48528,0 4.5,1.84682 4.5,4.125c0,2.27818 -2.01472,4.125 -4.5,4.125c-2.48528,0 -4.5,-1.84682 -4.5,-4.125c0,-2.27818 2.01472,-4.125 4.5,-4.125z" fill="#009a05" stroke="#000000" stroke-width="0.5" stroke-linecap="butt"/><path d="M222.70383,172.625v3.25" fill="none" stroke="#a75c15" stroke-width="2.5" stroke-linecap="round"/><path d="M222.70383,164.625c2.48528,0 4.5,1.84682 4.5,4.125c0,2.27818 -2.01472,4.125 -4.5,4.125c-2.48528,0 -4.5,-1.84682 -4.5,-4.125c0,-2.27818 2.01472,-4.125 4.5,-4.125z" fill="#009a05" stroke="#000000" stroke-width="0.5" stroke-linecap="butt"/></g><path d="M218.95383,181.875v3.25" fill="none" stroke="#a75c15" stroke-width="2.5" stroke-linecap="round"/><path d="M218.95383,173.875c2.48528,0 4.5,1.84682 4.5,4.125c0,2.27818 -2.01472,4.125 -4.5,4.125c-2.48528,0 -4.5,-1.84682 -4.5,-4.125c0,-2.27818 2.01472,-4.125 4.5,-4.125z" fill="#009a05" stroke="#000000" stroke-width="0.5" stroke-linecap="butt"/><path d="M221.20383,190.125v3.25" fill="none" stroke="#a75c15" stroke-width="2.5" stroke-linecap="round"/><path d="M221.20383,182.125c2.48528,0 4.5,1.84682 4.5,4.125c0,2.27818 -2.01472,4.125 -4.5,4.125c-2.48528,0 -4.5,-1.84682 -4.5,-4.125c0,-2.27818 2.01472,-4.125 4.5,-4.125z" fill="#009a05" stroke="#000000" stroke-width="0.5" stroke-linecap="butt"/><path d="M158.82149,181.18872l81.47152,-40.4034l80.88551,43.05034l-81.47152,40.4034z" data-paper-data="{&quot;index&quot;:null}" fill="none" stroke="#009a05" stroke-width="2" stroke-linecap="butt"/><path d="M212.70383,190.125v-3.25" fill="none" stroke="#a75c15" stroke-width="2.5" stroke-linecap="round"/><path d="M212.70383,178.875c2.48528,0 4.5,1.84682 4.5,4.125c0,2.27818 -2.01472,4.125 -4.5,4.125c-2.48528,0 -4.5,-1.84682 -4.5,-4.125c0,-2.27818 2.01472,-4.125 4.5,-4.125z" fill="#009a05" stroke="#000000" stroke-width="0.5" stroke-linecap="butt"/><path d="M217.70383,191.875v3.25" fill="none" stroke="#a75c15" stroke-width="2.5" stroke-linecap="round"/><path d="M217.70383,183.875c2.48528,0 4.5,1.84682 4.5,4.125c0,2.27818 -2.01472,4.125 -4.5,4.125c-2.48528,0 -4.5,-1.84682 -4.5,-4.125c0,-2.27818 2.01472,-4.125 4.5,-4.125z" fill="#009a05" stroke="#000000" stroke-width="0.5" stroke-linecap="butt"/><path d="M212.95383,194.875v3.25" fill="none" stroke="#a75c15" stroke-width="2.5" stroke-linecap="round"/><g><path d="M287.70383,164.375v3.25" fill="none" stroke="#a75c15" stroke-width="2.5" stroke-linecap="round"/><path d="M288.20383,155.375c2.48528,0 4.5,1.84682 4.5,4.125c0,2.27818 -2.01472,4.125 -4.5,4.125c-2.48528,0 -4.5,-1.84682 -4.5,-4.125c0,-2.27818 2.01472,-4.125 4.5,-4.125z" fill="#009a05" stroke="#000000" stroke-width="0.5" stroke-linecap="butt"/><path d="M276.70383,171.375v-3.25" fill="none" stroke="#a75c15" stroke-width="2.5" stroke-linecap="round"/><path d="M276.70383,160.125c2.48528,0 4.5,1.84682 4.5,4.125c0,2.27818 -2.01472,4.125 -4.5,4.125c-2.48528,0 -4.5,-1.84682 -4.5,-4.125c0,-2.27818 2.01472,-4.125 4.5,-4.125z" fill="#009a05" stroke="#000000" stroke-width="0.5" stroke-linecap="butt"/><path d="M291.20383,169.875v3.25" fill="none" stroke="#a75c15" stroke-width="2.5" stroke-linecap="round"/><path d="M291.20383,161.875c2.48528,0 4.5,1.84682 4.5,4.125c0,2.27818 -2.01472,4.125 -4.5,4.125c-2.48528,0 -4.5,-1.84682 -4.5,-4.125c0,-2.27818 2.01472,-4.125 4.5,-4.125z" fill="#009a05" stroke="#000000" stroke-width="0.5" stroke-linecap="butt"/><path d="M282.45383,168.125v3.25" fill="none" stroke="#a75c15" stroke-width="2.5" stroke-linecap="round"/><path d="M282.45383,160.125c2.48528,0 4.5,1.84682 4.5,4.125c0,2.27818 -2.01472,4.125 -4.5,4.125c-2.48528,0 -4.5,-1.84682 -4.5,-4.125c0,-2.27818 2.01472,-4.125 4.5,-4.125z" fill="#009a05" stroke="#000000" stroke-width="0.5" stroke-linecap="butt"/><path d="M286.70383,175.125v3.25" fill="none" stroke="#a75c15" stroke-width="2.5" stroke-linecap="round"/><path d="M286.70383,167.125c2.48528,0 4.5,1.84682 4.5,4.125c0,2.27818 -2.01472,4.125 -4.5,4.125c-2.48528,0 -4.5,-1.84682 -4.5,-4.125c0,-2.27818 2.01472,-4.125 4.5,-4.125z" fill="#009a05" stroke="#000000" stroke-width="0.5" stroke-linecap="butt"/><path d="M296.20383,176.875v-3.25" fill="none" stroke="#a75c15" stroke-width="2.5" stroke-linecap="round"/><path d="M296.20383,165.625c2.48528,0 4.5,1.84682 4.5,4.125c0,2.27818 -2.01472,4.125 -4.5,4.125c-2.48528,0 -4.5,-1.84682 -4.5,-4.125c0,-2.27818 2.01472,-4.125 4.5,-4.125z" fill="#009a05" stroke="#000000" stroke-width="0.5" stroke-linecap="butt"/></g><path d="M212.95383,186.875c2.48528,0 4.5,1.84682 4.5,4.125c0,2.27818 -2.01472,4.125 -4.5,4.125c-2.48528,0 -4.5,-1.84682 -4.5,-4.125c0,-2.27818 2.01472,-4.125 4.5,-4.125z" fill="#009a05" stroke="#000000" stroke-width="0.5" stroke-linecap="butt"/><path d="M218.45383,197.625v3.25" fill="none" stroke="#a75c15" stroke-width="2.5" stroke-linecap="round"/><path d="M218.45383,189.625c2.48528,0 4.5,1.84682 4.5,4.125c0,2.27818 -2.01472,4.125 -4.5,4.125c-2.48528,0 -4.5,-1.84682 -4.5,-4.125c0,-2.27818 2.01472,-4.125 4.5,-4.125z" fill="#009a05" stroke="#000000" stroke-width="0.5" stroke-linecap="butt"/><path d="M299.70383,185.625v-3.25" fill="none" stroke="#a75c15" stroke-width="2.5" stroke-linecap="round"/><path d="M299.70383,174.375c2.48528,0 4.5,1.84682 4.5,4.125c0,2.27818 -2.01472,4.125 -4.5,4.125c-2.48528,0 -4.5,-1.84682 -4.5,-4.125c0,-2.27818 2.01472,-4.125 4.5,-4.125z" fill="#009a05" stroke="#000000" stroke-width="0.5" stroke-linecap="butt"/><path d="M304.95383,189.375v-3.25" fill="none" stroke="#a75c15" stroke-width="2.5" stroke-linecap="round"/><g><path d="M243.762,150.58735v-3.25" fill="none" stroke="#a75c15" stroke-width="2.5" stroke-linecap="round"/><path d="M243.762,139.33735c2.48528,0 4.5,1.84682 4.5,4.125c0,2.27818 -2.01472,4.125 -4.5,4.125c-2.48528,0 -4.5,-1.84682 -4.5,-4.125c0,-2.27818 2.01472,-4.125 4.5,-4.125z" fill="#009a05" stroke="#000000" stroke-width="0.5" stroke-linecap="butt"/><path d="M246.012,155.58735v3.25" fill="none" stroke="#a75c15" stroke-width="2.5" stroke-linecap="round"/><path d="M246.012,147.58735c2.48528,0 4.5,1.84682 4.5,4.125c0,2.27818 -2.01472,4.125 -4.5,4.125c-2.48528,0 -4.5,-1.84682 -4.5,-4.125c0,-2.27818 2.01472,-4.125 4.5,-4.125z" fill="#009a05" stroke="#000000" stroke-width="0.5" stroke-linecap="butt"/><path d="M237.512,155.58735v-3.25" fill="none" stroke="#a75c15" stroke-width="2.5" stroke-linecap="round"/><path d="M237.512,144.33735c2.48528,0 4.5,1.84682 4.5,4.125c0,2.27818 -2.01472,4.125 -4.5,4.125c-2.48528,0 -4.5,-1.84682 -4.5,-4.125c0,-2.27818 2.01472,-4.125 4.5,-4.125z" fill="#009a05" stroke="#000000" stroke-width="0.5" stroke-linecap="butt"/><path d="M242.512,160.58735v-3.25" fill="none" stroke="#a75c15" stroke-width="2.5" stroke-linecap="round"/><path d="M242.512,149.33735c2.48528,0 4.5,1.84682 4.5,4.125c0,2.27818 -2.01472,4.125 -4.5,4.125c-2.48528,0 -4.5,-1.84682 -4.5,-4.125c0,-2.27818 2.01472,-4.125 4.5,-4.125z" fill="#009a05" stroke="#000000" stroke-width="0.5" stroke-linecap="butt"/><path d="M237.762,163.58735v-3.25" fill="none" stroke="#a75c15" stroke-width="2.5" stroke-linecap="round"/><path d="M237.762,152.33735c2.48528,0 4.5,1.84682 4.5,4.125c0,2.27818 -2.01472,4.125 -4.5,4.125c-2.48528,0 -4.5,-1.84682 -4.5,-4.125c0,-2.27818 2.01472,-4.125 4.5,-4.125z" fill="#009a05" stroke="#000000" stroke-width="0.5" stroke-linecap="butt"/><path d="M243.262,163.08735v3.25" fill="none" stroke="#a75c15" stroke-width="2.5" stroke-linecap="round"/><path d="M243.262,155.08735c2.48528,0 4.5,1.84682 4.5,4.125c0,2.27818 -2.01472,4.125 -4.5,4.125c-2.48528,0 -4.5,-1.84682 -4.5,-4.125c0,-2.27818 2.01472,-4.125 4.5,-4.125z" fill="#009a05" stroke="#000000" stroke-width="0.5" stroke-linecap="butt"/></g><path d="M304.95383,178.125c2.48528,0 4.5,1.84682 4.5,4.125c0,2.27818 -2.01472,4.125 -4.5,4.125c-2.48528,0 -4.5,-1.84682 -4.5,-4.125c0,-2.27818 2.01472,-4.125 4.5,-4.125z" fill="#009a05" stroke="#000000" stroke-width="0.5" stroke-linecap="butt"/><path d="M294.45383,186.875v3.25" fill="none" stroke="#a75c15" stroke-width="2.5" stroke-linecap="round"/><path d="M294.45383,178.875c2.48528,0 4.5,1.84682 4.5,4.125c0,2.27818 -2.01472,4.125 -4.5,4.125c-2.48528,0 -4.5,-1.84682 -4.5,-4.125c0,-2.27818 2.01472,-4.125 4.5,-4.125z" fill="#009a05" stroke="#000000" stroke-width="0.5" stroke-linecap="butt"/><path d="M300.20383,190.625v3.25" fill="none" stroke="#a75c15" stroke-width="2.5" stroke-linecap="round"/><path d="M300.20383,182.625c2.48528,0 4.5,1.84682 4.5,4.125c0,2.27818 -2.01472,4.125 -4.5,4.125c-2.48528,0 -4.5,-1.84682 -4.5,-4.125c0,-2.27818 2.01472,-4.125 4.5,-4.125z" fill="#009a05" stroke="#000000" stroke-width="0.5" stroke-linecap="butt"/><path d="M169.20383,173.875v3.25" fill="none" stroke="#a75c15" stroke-width="2.5" stroke-linecap="round"/><path d="M169.20383,165.875c2.48528,0 4.5,1.84682 4.5,4.125c0,2.27818 -2.01472,4.125 -4.5,4.125c-2.48528,0 -4.5,-1.84682 -4.5,-4.125c0,-2.27818 2.01472,-4.125 4.5,-4.125z" fill="#009a05" stroke="#000000" stroke-width="0.5" stroke-linecap="butt"/><path d="M174.45383,180.875v-3.25" fill="none" stroke="#a75c15" stroke-width="2.5" stroke-linecap="round"/><path d="M174.45383,169.625c2.48528,0 4.5,1.84682 4.5,4.125c0,2.27818 -2.01472,4.125 -4.5,4.125c-2.48528,0 -4.5,-1.84682 -4.5,-4.125c0,-2.27818 2.01472,-4.125 4.5,-4.125z" fill="#009a05" stroke="#000000" stroke-width="0.5" stroke-linecap="butt"/><path d="M163.95383,178.375v3.25" fill="none" stroke="#a75c15" stroke-width="2.5" stroke-linecap="round"/><path d="M163.95383,170.375c2.48528,0 4.5,1.84682 4.5,4.125c0,2.27818 -2.01472,4.125 -4.5,4.125c-2.48528,0 -4.5,-1.84682 -4.5,-4.125c0,-2.27818 2.01472,-4.125 4.5,-4.125z" fill="#009a05" stroke="#000000" stroke-width="0.5" stroke-linecap="butt"/><path d="M169.70383,182.125v3.25" fill="none" stroke="#a75c15" stroke-width="2.5" stroke-linecap="round"/><g><path d="M241.45383,166.125v-3.25" fill="none" stroke="#a75c15" stroke-width="2.5" stroke-linecap="round"/><path d="M241.45383,154.875c2.48528,0 4.5,1.84682 4.5,4.125c0,2.27818 -2.01472,4.125 -4.5,4.125c-2.48528,0 -4.5,-1.84682 -4.5,-4.125c0,-2.27818 2.01472,-4.125 4.5,-4.125z" fill="#009a05" stroke="#000000" stroke-width="0.5" stroke-linecap="butt"/><path d="M243.70383,171.125v3.25" fill="none" stroke="#a75c15" stroke-width="2.5" stroke-linecap="round"/><path d="M243.70383,163.125c2.48528,0 4.5,1.84682 4.5,4.125c0,2.27818 -2.01472,4.125 -4.5,4.125c-2.48528,0 -4.5,-1.84682 -4.5,-4.125c0,-2.27818 2.01472,-4.125 4.5,-4.125z" fill="#009a05" stroke="#000000" stroke-width="0.5" stroke-linecap="butt"/><path d="M235.20383,171.125v-3.25" fill="none" stroke="#a75c15" stroke-width="2.5" stroke-linecap="round"/><path d="M235.20383,159.875c2.48528,0 4.5,1.84682 4.5,4.125c0,2.27818 -2.01472,4.125 -4.5,4.125c-2.48528,0 -4.5,-1.84682 -4.5,-4.125c0,-2.27818 2.01472,-4.125 4.5,-4.125z" fill="#009a05" stroke="#000000" stroke-width="0.5" stroke-linecap="butt"/><path d="M240.20383,176.125v-3.25" fill="none" stroke="#a75c15" stroke-width="2.5" stroke-linecap="round"/><path d="M240.20383,164.875c2.48528,0 4.5,1.84682 4.5,4.125c0,2.27818 -2.01472,4.125 -4.5,4.125c-2.48528,0 -4.5,-1.84682 -4.5,-4.125c0,-2.27818 2.01472,-4.125 4.5,-4.125z" fill="#009a05" stroke="#000000" stroke-width="0.5" stroke-linecap="butt"/><path d="M235.45383,179.125v-3.25" fill="none" stroke="#a75c15" stroke-width="2.5" stroke-linecap="round"/><path d="M235.45383,167.875c2.48528,0 4.5,1.84682 4.5,4.125c0,2.27818 -2.01472,4.125 -4.5,4.125c-2.48528,0 -4.5,-1.84682 -4.5,-4.125c0,-2.27818 2.01472,-4.125 4.5,-4.125z" fill="#009a05" stroke="#000000" stroke-width="0.5" stroke-linecap="butt"/><path d="M240.95383,178.625v3.25" fill="none" stroke="#a75c15" stroke-width="2.5" stroke-linecap="round"/><path d="M240.95383,170.625c2.48528,0 4.5,1.84682 4.5,4.125c0,2.27818 -2.01472,4.125 -4.5,4.125c-2.48528,0 -4.5,-1.84682 -4.5,-4.125c0,-2.27818 2.01472,-4.125 4.5,-4.125z" fill="#009a05" stroke="#000000" stroke-width="0.5" stroke-linecap="butt"/></g><path d="M169.70383,174.125c2.48528,0 4.5,1.84682 4.5,4.125c0,2.27818 -2.01472,4.125 -4.5,4.125c-2.48528,0 -4.5,-1.84682 -4.5,-4.125c0,-2.27818 2.01472,-4.125 4.5,-4.125z" fill="#009a05" stroke="#000000" stroke-width="0.5" stroke-linecap="butt"/><path d="M239.20383,212.875v3.25" fill="none" stroke="#a75c15" stroke-width="2.5" stroke-linecap="round"/><path d="M239.20383,204.875c2.48528,0 4.5,1.84682 4.5,4.125c0,2.27818 -2.01472,4.125 -4.5,4.125c-2.48528,0 -4.5,-1.84682 -4.5,-4.125c0,-2.27818 2.01472,-4.125 4.5,-4.125z" fill="#009a05" stroke="#000000" stroke-width="0.5" stroke-linecap="butt"/><path d="M244.45383,216.625v3.25" fill="none" stroke="#a75c15" stroke-width="2.5" stroke-linecap="round"/><path d="M244.45383,208.625c2.48528,0 4.5,1.84682 4.5,4.125c0,2.27818 -2.01472,4.125 -4.5,4.125c-2.48528,0 -4.5,-1.84682 -4.5,-4.125c0,-2.27818 2.01472,-4.125 4.5,-4.125z" fill="#009a05" stroke="#000000" stroke-width="0.5" stroke-linecap="butt"/><path d="M233.95383,217.375v3.25" fill="none" stroke="#a75c15" stroke-width="2.5" stroke-linecap="round"/><path d="M233.95383,209.375c2.48528,0 4.5,1.84682 4.5,4.125c0,2.27818 -2.01472,4.125 -4.5,4.125c-2.48528,0 -4.5,-1.84682 -4.5,-4.125c0,-2.27818 2.01472,-4.125 4.5,-4.125z" fill="#009a05" stroke="#000000" stroke-width="0.5" stroke-linecap="butt"/><path d="M239.70383,221.125v3.25" fill="none" stroke="#a75c15" stroke-width="2.5" stroke-linecap="round"/><path d="M239.70383,213.125c2.48528,0 4.5,1.84682 4.5,4.125c0,2.27818 -2.01472,4.125 -4.5,4.125c-2.48528,0 -4.5,-1.84682 -4.5,-4.125c0,-2.27818 2.01472,-4.125 4.5,-4.125z" fill="#009a05" stroke="#000000" stroke-width="0.5" stroke-linecap="butt"/><path d="M311.70383,182.375v-3.25" fill="none" stroke="#a75c15" stroke-width="2.5" stroke-linecap="round"/><path d="M311.70383,171.125c2.48528,0 4.5,1.84682 4.5,4.125c0,2.27818 -2.01472,4.125 -4.5,4.125c-2.48528,0 -4.5,-1.84682 -4.5,-4.125c0,-2.27818 2.01472,-4.125 4.5,-4.125z" fill="#009a05" stroke="#000000" stroke-width="0.5" stroke-linecap="butt"/><path d="M316.45383,181.875v3.25" fill="none" stroke="#a75c15" stroke-width="2.5" stroke-linecap="round"/><path d="M316.45383,173.875c2.48528,0 4.5,1.84682 4.5,4.125c0,2.27818 -2.01472,4.125 -4.5,4.125c-2.48528,0 -4.5,-1.84682 -4.5,-4.125c0,-2.27818 2.01472,-4.125 4.5,-4.125z" fill="#009a05" stroke="#000000" stroke-width="0.5" stroke-linecap="butt"/><path d="M311.20383,184.375v3.25" fill="none" stroke="#a75c15" stroke-width="2.5" stroke-linecap="round"/><path d="M311.20383,176.375c2.48528,0 4.5,1.84682 4.5,4.125c0,2.27818 -2.01472,4.125 -4.5,4.125c-2.48528,0 -4.5,-1.84682 -4.5,-4.125c0,-2.27818 2.01472,-4.125 4.5,-4.125z" fill="#009a05" stroke="#000000" stroke-width="0.5" stroke-linecap="butt"/><path d="M230.70383,187.625v-3.25" fill="none" stroke="#a75c15" stroke-width="2.5" stroke-linecap="round"/><path d="M231.20383,175.375c2.48528,0 4.5,1.84682 4.5,4.125c0,2.27818 -2.01472,4.125 -4.5,4.125c-2.48528,0 -4.5,-1.84682 -4.5,-4.125c0,-2.27818 2.01472,-4.125 4.5,-4.125z" fill="#009a05" stroke="#000000" stroke-width="0.5" stroke-linecap="butt"/><path d="M219.70383,188.125v3.25" fill="none" stroke="#a75c15" stroke-width="2.5" stroke-linecap="round"/><path d="M219.70383,180.125c2.48528,0 4.5,1.84682 4.5,4.125c0,2.27818 -2.01472,4.125 -4.5,4.125c-2.48528,0 -4.5,-1.84682 -4.5,-4.125c0,-2.27818 2.01472,-4.125 4.5,-4.125z" fill="#009a05" stroke="#000000" stroke-width="0.5" stroke-linecap="butt"/><path d="M234.20383,189.875v3.25" fill="none" stroke="#a75c15" stroke-width="2.5" stroke-linecap="round"/><path d="M234.20383,181.875c2.48528,0 4.5,1.84682 4.5,4.125c0,2.27818 -2.01472,4.125 -4.5,4.125c-2.48528,0 -4.5,-1.84682 -4.5,-4.125c0,-2.27818 2.01472,-4.125 4.5,-4.125z" fill="#009a05" stroke="#000000" stroke-width="0.5" stroke-linecap="butt"/><path d="M225.45383,191.375v-3.25" fill="none" stroke="#a75c15" stroke-width="2.5" stroke-linecap="round"/><path d="M225.45383,180.125c2.48528,0 4.5,1.84682 4.5,4.125c0,2.27818 -2.01472,4.125 -4.5,4.125c-2.48528,0 -4.5,-1.84682 -4.5,-4.125c0,-2.27818 2.01472,-4.125 4.5,-4.125z" fill="#009a05" stroke="#000000" stroke-width="0.5" stroke-linecap="butt"/><path d="M229.70383,198.375v-3.25" fill="none" stroke="#a75c15" stroke-width="2.5" stroke-linecap="round"/><path d="M229.70383,187.125c2.48528,0 4.5,1.84682 4.5,4.125c0,2.27818 -2.01472,4.125 -4.5,4.125c-2.48528,0 -4.5,-1.84682 -4.5,-4.125c0,-2.27818 2.01472,-4.125 4.5,-4.125z" fill="#009a05" stroke="#000000" stroke-width="0.5" stroke-linecap="butt"/><path d="M239.20383,193.625v3.25" fill="none" stroke="#a75c15" stroke-width="2.5" stroke-linecap="round"/><path d="M239.20383,185.625c2.48528,0 4.5,1.84682 4.5,4.125c0,2.27818 -2.01472,4.125 -4.5,4.125c-2.48528,0 -4.5,-1.84682 -4.5,-4.125c0,-2.27818 2.01472,-4.125 4.5,-4.125z" fill="#009a05" stroke="#000000" stroke-width="0.5" stroke-linecap="butt"/><path d="M211.45383,167.375v3.25" fill="none" stroke="#a75c15" stroke-width="2.5" stroke-linecap="round"/><path d="M211.45383,159.375c2.48528,0 4.5,1.84682 4.5,4.125c0,2.27818 -2.01472,4.125 -4.5,4.125c-2.48528,0 -4.5,-1.84682 -4.5,-4.125c0,-2.27818 2.01472,-4.125 4.5,-4.125z" fill="#009a05" stroke="#000000" stroke-width="0.5" stroke-linecap="butt"/><path d="M213.70383,175.625v3.25" fill="none" stroke="#a75c15" stroke-width="2.5" stroke-linecap="round"/><path d="M213.70383,167.625c2.48528,0 4.5,1.84682 4.5,4.125c0,2.27818 -2.01472,4.125 -4.5,4.125c-2.48528,0 -4.5,-1.84682 -4.5,-4.125c0,-2.27818 2.01472,-4.125 4.5,-4.125z" fill="#009a05" stroke="#000000" stroke-width="0.5" stroke-linecap="butt"/><path d="M205.20383,172.375v3.25" fill="none" stroke="#a75c15" stroke-width="2.5" stroke-linecap="round"/><path d="M205.20383,164.375c2.48528,0 4.5,1.84682 4.5,4.125c0,2.27818 -2.01472,4.125 -4.5,4.125c-2.48528,0 -4.5,-1.84682 -4.5,-4.125c0,-2.27818 2.01472,-4.125 4.5,-4.125z" fill="#009a05" stroke="#000000" stroke-width="0.5" stroke-linecap="butt"/><path d="M210.20383,180.625v-3.25" fill="none" stroke="#a75c15" stroke-width="2.5" stroke-linecap="round"/><path d="M210.20383,169.375c2.48528,0 4.5,1.84682 4.5,4.125c0,2.27818 -2.01472,4.125 -4.5,4.125c-2.48528,0 -4.5,-1.84682 -4.5,-4.125c0,-2.27818 2.01472,-4.125 4.5,-4.125z" fill="#009a05" stroke="#000000" stroke-width="0.5" stroke-linecap="butt"/><path d="M205.45383,180.375v3.25" fill="none" stroke="#a75c15" stroke-width="2.5" stroke-linecap="round"/><path d="M205.45383,172.375c2.48528,0 4.5,1.84682 4.5,4.125c0,2.27818 -2.01472,4.125 -4.5,4.125c-2.48528,0 -4.5,-1.84682 -4.5,-4.125c0,-2.27818 2.01472,-4.125 4.5,-4.125z" fill="#009a05" stroke="#000000" stroke-width="0.5" stroke-linecap="butt"/><path d="M210.95383,183.125v3.25" fill="none" stroke="#a75c15" stroke-width="2.5" stroke-linecap="round"/><path d="M210.95383,175.125c2.48528,0 4.5,1.84682 4.5,4.125c0,2.27818 -2.01472,4.125 -4.5,4.125c-2.48528,0 -4.5,-1.84682 -4.5,-4.125c0,-2.27818 2.01472,-4.125 4.5,-4.125z" fill="#009a05" stroke="#000000" stroke-width="0.5" stroke-linecap="butt"/><path d="M255.45383,153.625v3.25" fill="none" stroke="#a75c15" stroke-width="2.5" stroke-linecap="round"/><path d="M255.45383,145.625c2.48528,0 4.5,1.84682 4.5,4.125c0,2.27818 -2.01472,4.125 -4.5,4.125c-2.48528,0 -4.5,-1.84682 -4.5,-4.125c0,-2.27818 2.01472,-4.125 4.5,-4.125z" fill="#009a05" stroke="#000000" stroke-width="0.5" stroke-linecap="butt"/><path d="M250.70383,158.125v3.25" fill="none" stroke="#a75c15" stroke-width="2.5" stroke-linecap="round"/><path d="M250.70383,150.125c2.48528,0 4.5,1.84682 4.5,4.125c0,2.27818 -2.01472,4.125 -4.5,4.125c-2.48528,0 -4.5,-1.84682 -4.5,-4.125c0,-2.27818 2.01472,-4.125 4.5,-4.125z" fill="#009a05" stroke="#000000" stroke-width="0.5" stroke-linecap="butt"/><path d="M242.45383,180.625v-3.25" data-paper-data="{&quot;index&quot;:null}" fill="none" stroke="#a75c15" stroke-width="2.5" stroke-linecap="round"/><path d="M246.95383,173.5c0,2.27818 -2.01472,4.125 -4.5,4.125c-2.48528,0 -4.5,-1.84682 -4.5,-4.125c0,-2.27818 2.01472,-4.125 4.5,-4.125c2.48528,0 4.5,1.84682 4.5,4.125z" data-paper-data="{&quot;index&quot;:null}" fill="#009a05" stroke="#000000" stroke-width="0.5" stroke-linecap="butt"/><path d="M240.20383,188.875v-3.25" data-paper-data="{&quot;index&quot;:null}" fill="none" stroke="#a75c15" stroke-width="2.5" stroke-linecap="round"/><path d="M244.70383,181.75c0,2.27818 -2.01472,4.125 -4.5,4.125c-2.48528,0 -4.5,-1.84682 -4.5,-4.125c0,-2.27818 2.01472,-4.125 4.5,-4.125c2.48528,0 4.5,1.84682 4.5,4.125z" data-paper-data="{&quot;index&quot;:null}" fill="#009a05" stroke="#000000" stroke-width="0.5" stroke-linecap="butt"/><path d="M248.70383,182.375v3.25" data-paper-data="{&quot;index&quot;:null}" fill="none" stroke="#a75c15" stroke-width="2.5" stroke-linecap="round"/><path d="M253.20383,178.5c0,2.27818 -2.01472,4.125 -4.5,4.125c-2.48528,0 -4.5,-1.84682 -4.5,-4.125c0,-2.27818 2.01472,-4.125 4.5,-4.125c2.48528,0 4.5,1.84682 4.5,4.125z" data-paper-data="{&quot;index&quot;:null}" fill="#009a05" stroke="#000000" stroke-width="0.5" stroke-linecap="butt"/><path d="M243.70383,187.375v3.25" data-paper-data="{&quot;index&quot;:null}" fill="none" stroke="#a75c15" stroke-width="2.5" stroke-linecap="round"/><path d="M248.20383,183.5c0,2.27818 -2.01472,4.125 -4.5,4.125c-2.48528,0 -4.5,-1.84682 -4.5,-4.125c0,-2.27818 2.01472,-4.125 4.5,-4.125c2.48528,0 4.5,1.84682 4.5,4.125z" data-paper-data="{&quot;index&quot;:null}" fill="#009a05" stroke="#000000" stroke-width="0.5" stroke-linecap="butt"/><path d="M248.45383,190.375v3.25" data-paper-data="{&quot;index&quot;:null}" fill="none" stroke="#a75c15" stroke-width="2.5" stroke-linecap="round"/><path d="M252.95383,186.5c0,2.27818 -2.01472,4.125 -4.5,4.125c-2.48528,0 -4.5,-1.84682 -4.5,-4.125c0,-2.27818 2.01472,-4.125 4.5,-4.125c2.48528,0 4.5,1.84682 4.5,4.125z" data-paper-data="{&quot;index&quot;:null}" fill="#009a05" stroke="#000000" stroke-width="0.5" stroke-linecap="butt"/><path d="M242.95383,193.125v3.25" data-paper-data="{&quot;index&quot;:null}" fill="none" stroke="#a75c15" stroke-width="2.5" stroke-linecap="round"/><path d="M247.45383,189.25c0,2.27818 -2.01472,4.125 -4.5,4.125c-2.48528,0 -4.5,-1.84682 -4.5,-4.125c0,-2.27818 2.01472,-4.125 4.5,-4.125c2.48528,0 4.5,1.84682 4.5,4.125z" data-paper-data="{&quot;index&quot;:null}" fill="#009a05" stroke="#000000" stroke-width="0.5" stroke-linecap="butt"/><path d="M196.70383,194.125v3.25" fill="none" stroke="#a75c15" stroke-width="2.5" stroke-linecap="round"/><path d="M197.20383,186.625c2.48528,0 4.5,1.84682 4.5,4.125c0,2.27818 -2.01472,4.125 -4.5,4.125c-2.48528,0 -4.5,-1.84682 -4.5,-4.125c0,-2.27818 2.01472,-4.125 4.5,-4.125z" fill="#009a05" stroke="#000000" stroke-width="0.5" stroke-linecap="butt"/><path d="M203.95383,190.125v3.25" fill="none" stroke="#a75c15" stroke-width="2.5" stroke-linecap="round"/><path d="M203.95383,182.125c2.48528,0 4.5,1.84682 4.5,4.125c0,2.27818 -2.01472,4.125 -4.5,4.125c-2.48528,0 -4.5,-1.84682 -4.5,-4.125c0,-2.27818 2.01472,-4.125 4.5,-4.125z" fill="#009a05" stroke="#000000" stroke-width="0.5" stroke-linecap="butt"/><path d="M207.45383,191.375v3.25" fill="none" stroke="#a75c15" stroke-width="2.5" stroke-linecap="round"/><path d="M207.45383,183.375c2.48528,0 4.5,1.84682 4.5,4.125c0,2.27818 -2.01472,4.125 -4.5,4.125c-2.48528,0 -4.5,-1.84682 -4.5,-4.125c0,-2.27818 2.01472,-4.125 4.5,-4.125z" fill="#009a05" stroke="#000000" stroke-width="0.5" stroke-linecap="butt"/><path d="M202.45383,193.625v3.25" fill="none" stroke="#a75c15" stroke-width="2.5" stroke-linecap="round"/><path d="M202.45383,185.625c2.48528,0 4.5,1.84682 4.5,4.125c0,2.27818 -2.01472,4.125 -4.5,4.125c-2.48528,0 -4.5,-1.84682 -4.5,-4.125c0,-2.27818 2.01472,-4.125 4.5,-4.125z" fill="#009a05" stroke="#000000" stroke-width="0.5" stroke-linecap="butt"/><path d="M206.70383,195.625v3.25" fill="none" stroke="#a75c15" stroke-width="2.5" stroke-linecap="round"/><path d="M206.70383,187.625c2.48528,0 4.5,1.84682 4.5,4.125c0,2.27818 -2.01472,4.125 -4.5,4.125c-2.48528,0 -4.5,-1.84682 -4.5,-4.125c0,-2.27818 2.01472,-4.125 4.5,-4.125z" fill="#009a05" stroke="#000000" stroke-width="0.5" stroke-linecap="butt"/><path d="M202.20383,198.125v3.25" fill="none" stroke="#a75c15" stroke-width="2.5" stroke-linecap="round"/><path d="M202.20383,190.125c2.48528,0 4.5,1.84682 4.5,4.125c0,2.27818 -2.01472,4.125 -4.5,4.125c-2.48528,0 -4.5,-1.84682 -4.5,-4.125c0,-2.27818 2.01472,-4.125 4.5,-4.125z" fill="#009a05" stroke="#000000" stroke-width="0.5" stroke-linecap="butt"/><path d="M283.70383,186.375v3.25" fill="none" stroke="#a75c15" stroke-width="2.5" stroke-linecap="round"/><path d="M284.20383,177.375c2.48528,0 4.5,1.84682 4.5,4.125c0,2.27818 -2.01472,4.125 -4.5,4.125c-2.48528,0 -4.5,-1.84682 -4.5,-4.125c0,-2.27818 2.01472,-4.125 4.5,-4.125z" fill="#009a05" stroke="#000000" stroke-width="0.5" stroke-linecap="butt"/><path d="M272.70383,190.125v3.25" fill="none" stroke="#a75c15" stroke-width="2.5" stroke-linecap="round"/><path d="M272.70383,182.125c2.48528,0 4.5,1.84682 4.5,4.125c0,2.27818 -2.01472,4.125 -4.5,4.125c-2.48528,0 -4.5,-1.84682 -4.5,-4.125c0,-2.27818 2.01472,-4.125 4.5,-4.125z" fill="#009a05" stroke="#000000" stroke-width="0.5" stroke-linecap="butt"/><path d="M287.20383,191.875v3.25" fill="none" stroke="#a75c15" stroke-width="2.5" stroke-linecap="round"/><path d="M287.20383,183.875c2.48528,0 4.5,1.84682 4.5,4.125c0,2.27818 -2.01472,4.125 -4.5,4.125c-2.48528,0 -4.5,-1.84682 -4.5,-4.125c0,-2.27818 2.01472,-4.125 4.5,-4.125z" fill="#009a05" stroke="#000000" stroke-width="0.5" stroke-linecap="butt"/><path d="M278.45383,190.125v3.25" fill="none" stroke="#a75c15" stroke-width="2.5" stroke-linecap="round"/><path d="M278.45383,182.125c2.48528,0 4.5,1.84682 4.5,4.125c0,2.27818 -2.01472,4.125 -4.5,4.125c-2.48528,0 -4.5,-1.84682 -4.5,-4.125c0,-2.27818 2.01472,-4.125 4.5,-4.125z" fill="#009a05" stroke="#000000" stroke-width="0.5" stroke-linecap="butt"/><path d="M282.70383,197.125v3.25" fill="none" stroke="#a75c15" stroke-width="2.5" stroke-linecap="round"/><path d="M282.70383,189.125c2.48528,0 4.5,1.84682 4.5,4.125c0,2.27818 -2.01472,4.125 -4.5,4.125c-2.48528,0 -4.5,-1.84682 -4.5,-4.125c0,-2.27818 2.01472,-4.125 4.5,-4.125z" fill="#009a05" stroke="#000000" stroke-width="0.5" stroke-linecap="butt"/><path d="M292.20383,195.625v3.25" fill="none" stroke="#a75c15" stroke-width="2.5" stroke-linecap="round"/><path d="M292.20383,187.625c2.48528,0 4.5,1.84682 4.5,4.125c0,2.27818 -2.01472,4.125 -4.5,4.125c-2.48528,0 -4.5,-1.84682 -4.5,-4.125c0,-2.27818 2.01472,-4.125 4.5,-4.125z" fill="#009a05" stroke="#000000" stroke-width="0.5" stroke-linecap="butt"/><path d="M237.20383,201.625v-3.25" fill="none" stroke="#a75c15" stroke-width="2.5" stroke-linecap="round"/><path d="M237.20383,190.375c2.48528,0 4.5,1.84683 4.5,4.125c0,2.27818 -2.01472,4.125 -4.5,4.125c-2.48528,0 -4.5,-1.84682 -4.5,-4.125c0,-2.27817 2.01472,-4.125 4.5,-4.125z" fill="#009a05" stroke="#000000" stroke-width="0.5" stroke-linecap="butt"/><path d="M242.45383,202.125v3.25" fill="none" stroke="#a75c15" stroke-width="2.5" stroke-linecap="round"/><path d="M242.45383,194.125c2.48528,0 4.5,1.84683 4.5,4.125c0,2.27818 -2.01472,4.125 -4.5,4.125c-2.48528,0 -4.5,-1.84682 -4.5,-4.125c0,-2.27817 2.01472,-4.125 4.5,-4.125z" fill="#009a05" stroke="#000000" stroke-width="0.5" stroke-linecap="butt"/><path d="M231.95383,202.875v3.25" fill="none" stroke="#a75c15" stroke-width="2.5" stroke-linecap="round"/><path d="M231.95383,194.875c2.48528,0 4.5,1.84683 4.5,4.125c0,2.27818 -2.01472,4.125 -4.5,4.125c-2.48528,0 -4.5,-1.84682 -4.5,-4.125c0,-2.27817 2.01472,-4.125 4.5,-4.125z" fill="#009a05" stroke="#000000" stroke-width="0.5" stroke-linecap="butt"/><path d="M237.70383,206.625v3.25" fill="none" stroke="#a75c15" stroke-width="2.5" stroke-linecap="round"/><path d="M237.70383,198.625c2.48528,0 4.5,1.84682 4.5,4.125c0,2.27817 -2.01472,4.125 -4.5,4.125c-2.48528,0 -4.5,-1.84683 -4.5,-4.125c0,-2.27818 2.01472,-4.125 4.5,-4.125z" fill="#009a05" stroke="#000000" stroke-width="0.5" stroke-linecap="butt"/><path d="M272.20383,198.125v-3.25" fill="none" stroke="#a75c15" stroke-width="2.5" stroke-linecap="round"/><path d="M272.20383,186.875c2.48528,0 4.5,1.84682 4.5,4.125c0,2.27818 -2.01472,4.125 -4.5,4.125c-2.48528,0 -4.5,-1.84682 -4.5,-4.125c0,-2.27818 2.01472,-4.125 4.5,-4.125z" fill="#009a05" stroke="#000000" stroke-width="0.5" stroke-linecap="butt"/><path d="M277.45383,198.625v3.25" fill="none" stroke="#a75c15" stroke-width="2.5" stroke-linecap="round"/><path d="M277.45383,190.625c2.48528,0 4.5,1.84682 4.5,4.125c0,2.27818 -2.01472,4.125 -4.5,4.125c-2.48528,0 -4.5,-1.84682 -4.5,-4.125c0,-2.27818 2.01472,-4.125 4.5,-4.125z" fill="#009a05" stroke="#000000" stroke-width="0.5" stroke-linecap="butt"/><path d="M266.95383,199.375v3.25" fill="none" stroke="#a75c15" stroke-width="2.5" stroke-linecap="round"/><path d="M266.95383,191.375c2.48528,0 4.5,1.84682 4.5,4.125c0,2.27818 -2.01472,4.125 -4.5,4.125c-2.48528,0 -4.5,-1.84682 -4.5,-4.125c0,-2.27818 2.01472,-4.125 4.5,-4.125z" fill="#009a05" stroke="#000000" stroke-width="0.5" stroke-linecap="butt"/><path d="M272.70383,206.375v-3.25" fill="none" stroke="#a75c15" stroke-width="2.5" stroke-linecap="round"/><path d="M272.70383,195.125c2.48528,0 4.5,1.84682 4.5,4.125c0,2.27818 -2.01472,4.125 -4.5,4.125c-2.48528,0 -4.5,-1.84682 -4.5,-4.125c0,-2.27818 2.01472,-4.125 4.5,-4.125z" fill="#009a05" stroke="#000000" stroke-width="0.5" stroke-linecap="butt"/><path d="M258.70383,198.375v3.25" fill="none" stroke="#a75c15" stroke-width="2.5" stroke-linecap="round"/><path d="M259.20383,189.375c2.48528,0 4.5,1.84682 4.5,4.125c0,2.27818 -2.01472,4.125 -4.5,4.125c-2.48528,0 -4.5,-1.84682 -4.5,-4.125c0,-2.27818 2.01472,-4.125 4.5,-4.125z" fill="#009a05" stroke="#000000" stroke-width="0.5" stroke-linecap="butt"/><path d="M247.70383,202.125v3.25" fill="none" stroke="#a75c15" stroke-width="2.5" stroke-linecap="round"/><path d="M247.70383,194.125c2.48528,0 4.5,1.84682 4.5,4.125c0,2.27818 -2.01472,4.125 -4.5,4.125c-2.48528,0 -4.5,-1.84682 -4.5,-4.125c0,-2.27818 2.01472,-4.125 4.5,-4.125z" fill="#009a05" stroke="#000000" stroke-width="0.5" stroke-linecap="butt"/><path d="M262.20383,203.875v3.25" fill="none" stroke="#a75c15" stroke-width="2.5" stroke-linecap="round"/><path d="M262.20383,195.875c2.48528,0 4.5,1.84682 4.5,4.125c0,2.27818 -2.01472,4.125 -4.5,4.125c-2.48528,0 -4.5,-1.84682 -4.5,-4.125c0,-2.27818 2.01472,-4.125 4.5,-4.125z" fill="#009a05" stroke="#000000" stroke-width="0.5" stroke-linecap="butt"/><path d="M253.45383,202.125v3.25" fill="none" stroke="#a75c15" stroke-width="2.5" stroke-linecap="round"/><path d="M253.45383,194.125c2.48528,0 4.5,1.84682 4.5,4.125c0,2.27818 -2.01472,4.125 -4.5,4.125c-2.48528,0 -4.5,-1.84682 -4.5,-4.125c0,-2.27818 2.01472,-4.125 4.5,-4.125z" fill="#009a05" stroke="#000000" stroke-width="0.5" stroke-linecap="butt"/><path d="M257.70383,212.375v-3.25" fill="none" stroke="#a75c15" stroke-width="2.5" stroke-linecap="round"/><path d="M257.70383,201.125c2.48528,0 4.5,1.84682 4.5,4.125c0,2.27818 -2.01472,4.125 -4.5,4.125c-2.48528,0 -4.5,-1.84682 -4.5,-4.125c0,-2.27818 2.01472,-4.125 4.5,-4.125z" fill="#009a05" stroke="#000000" stroke-width="0.5" stroke-linecap="butt"/><path d="M267.20383,207.625v3.25" fill="none" stroke="#a75c15" stroke-width="2.5" stroke-linecap="round"/><path d="M267.20383,199.625c2.48528,0 4.5,1.84682 4.5,4.125c0,2.27818 -2.01472,4.125 -4.5,4.125c-2.48528,0 -4.5,-1.84682 -4.5,-4.125c0,-2.27818 2.01472,-4.125 4.5,-4.125z" fill="#009a05" stroke="#000000" stroke-width="0.5" stroke-linecap="butt"/><path d="M247.70383,211.125v3.25" fill="none" stroke="#a75c15" stroke-width="2.5" stroke-linecap="round"/><path d="M247.70383,203.125c2.48528,0 4.5,1.84683 4.5,4.125c0,2.27817 -2.01472,4.125 -4.5,4.125c-2.48528,0 -4.5,-1.84683 -4.5,-4.125c0,-2.27817 2.01472,-4.125 4.5,-4.125z" fill="#009a05" stroke="#000000" stroke-width="0.5" stroke-linecap="butt"/><path d="M252.45383,213.875v3.25" fill="none" stroke="#a75c15" stroke-width="2.5" stroke-linecap="round"/><path d="M252.45383,205.875c2.48528,0 4.5,1.84683 4.5,4.125c0,2.27817 -2.01472,4.125 -4.5,4.125c-2.48528,0 -4.5,-1.84683 -4.5,-4.125c0,-2.27817 2.01472,-4.125 4.5,-4.125z" fill="#009a05" stroke="#000000" stroke-width="0.5" stroke-linecap="butt"/><path d="M247.20383,216.375v3.25" fill="none" stroke="#a75c15" stroke-width="2.5" stroke-linecap="round"/><path d="M247.20383,208.375c2.48528,0 4.5,1.84683 4.5,4.125c0,2.27817 -2.01472,4.125 -4.5,4.125c-2.48528,0 -4.5,-1.84683 -4.5,-4.125c0,-2.27817 2.01472,-4.125 4.5,-4.125z" fill="#009a05" stroke="#000000" stroke-width="0.5" stroke-linecap="butt"/><path d="M220.20383,196.875v3.25" fill="none" stroke="#a75c15" stroke-width="2.5" stroke-linecap="round"/><path d="M220.70383,187.875c2.48528,0 4.5,1.84682 4.5,4.125c0,2.27818 -2.01472,4.125 -4.5,4.125c-2.48528,0 -4.5,-1.84682 -4.5,-4.125c0,-2.27818 2.01472,-4.125 4.5,-4.125z" fill="#009a05" stroke="#000000" stroke-width="0.5" stroke-linecap="butt"/><path d="M209.20383,200.625v3.25" fill="none" stroke="#a75c15" stroke-width="2.5" stroke-linecap="round"/><path d="M209.20383,192.625c2.48528,0 4.5,1.84682 4.5,4.125c0,2.27818 -2.01472,4.125 -4.5,4.125c-2.48528,0 -4.5,-1.84682 -4.5,-4.125c0,-2.27818 2.01472,-4.125 4.5,-4.125z" fill="#009a05" stroke="#000000" stroke-width="0.5" stroke-linecap="butt"/><path d="M223.70383,202.375v3.25" fill="none" stroke="#a75c15" stroke-width="2.5" stroke-linecap="round"/><path d="M223.70383,194.375c2.48528,0 4.5,1.84682 4.5,4.125c0,2.27818 -2.01472,4.125 -4.5,4.125c-2.48528,0 -4.5,-1.84682 -4.5,-4.125c0,-2.27818 2.01472,-4.125 4.5,-4.125z" fill="#009a05" stroke="#000000" stroke-width="0.5" stroke-linecap="butt"/><path d="M214.95383,200.625v3.25" fill="none" stroke="#a75c15" stroke-width="2.5" stroke-linecap="round"/><path d="M214.95383,192.625c2.48528,0 4.5,1.84682 4.5,4.125c0,2.27818 -2.01472,4.125 -4.5,4.125c-2.48528,0 -4.5,-1.84682 -4.5,-4.125c0,-2.27818 2.01472,-4.125 4.5,-4.125z" fill="#009a05" stroke="#000000" stroke-width="0.5" stroke-linecap="butt"/><path d="M219.20383,207.625v3.25" fill="none" stroke="#a75c15" stroke-width="2.5" stroke-linecap="round"/><path d="M219.20383,199.625c2.48528,0 4.5,1.84682 4.5,4.125c0,2.27818 -2.01472,4.125 -4.5,4.125c-2.48528,0 -4.5,-1.84682 -4.5,-4.125c0,-2.27818 2.01472,-4.125 4.5,-4.125z" fill="#009a05" stroke="#000000" stroke-width="0.5" stroke-linecap="butt"/><path d="M228.70383,206.125v3.25" fill="none" stroke="#a75c15" stroke-width="2.5" stroke-linecap="round"/><path d="M228.70383,198.125c2.48528,0 4.5,1.84682 4.5,4.125c0,2.27818 -2.01472,4.125 -4.5,4.125c-2.48528,0 -4.5,-1.84682 -4.5,-4.125c0,-2.27818 2.01472,-4.125 4.5,-4.125z" fill="#009a05" stroke="#000000" stroke-width="0.5" stroke-linecap="butt"/><path d="M197.45383,167.375v3.25" fill="none" stroke="#a75c15" stroke-width="2.5" stroke-linecap="round"/><path d="M197.45383,159.375c2.48528,0 4.5,1.84682 4.5,4.125c0,2.27818 -2.01472,4.125 -4.5,4.125c-2.48528,0 -4.5,-1.84682 -4.5,-4.125c0,-2.27818 2.01472,-4.125 4.5,-4.125z" fill="#009a05" stroke="#000000" stroke-width="0.5" stroke-linecap="butt"/><path d="M199.70383,175.625v3.25" fill="none" stroke="#a75c15" stroke-width="2.5" stroke-linecap="round"/><path d="M199.70383,167.625c2.48528,0 4.5,1.84682 4.5,4.125c0,2.27818 -2.01472,4.125 -4.5,4.125c-2.48528,0 -4.5,-1.84682 -4.5,-4.125c0,-2.27818 2.01472,-4.125 4.5,-4.125z" fill="#009a05" stroke="#000000" stroke-width="0.5" stroke-linecap="butt"/><path d="M191.20383,172.375v3.25" fill="none" stroke="#a75c15" stroke-width="2.5" stroke-linecap="round"/><path d="M191.20383,164.375c2.48528,0 4.5,1.84682 4.5,4.125c0,2.27818 -2.01472,4.125 -4.5,4.125c-2.48528,0 -4.5,-1.84682 -4.5,-4.125c0,-2.27818 2.01472,-4.125 4.5,-4.125z" fill="#009a05" stroke="#000000" stroke-width="0.5" stroke-linecap="butt"/><path d="M196.20383,177.375v3.25" fill="none" stroke="#a75c15" stroke-width="2.5" stroke-linecap="round"/><path d="M196.20383,169.375c2.48528,0 4.5,1.84682 4.5,4.125c0,2.27818 -2.01472,4.125 -4.5,4.125c-2.48528,0 -4.5,-1.84682 -4.5,-4.125c0,-2.27818 2.01472,-4.125 4.5,-4.125z" fill="#009a05" stroke="#000000" stroke-width="0.5" stroke-linecap="butt"/><path d="M191.45383,180.375v3.25" fill="none" stroke="#a75c15" stroke-width="2.5" stroke-linecap="round"/><path d="M191.45383,172.375c2.48528,0 4.5,1.84682 4.5,4.125c0,2.27818 -2.01472,4.125 -4.5,4.125c-2.48528,0 -4.5,-1.84682 -4.5,-4.125c0,-2.27818 2.01472,-4.125 4.5,-4.125z" fill="#009a05" stroke="#000000" stroke-width="0.5" stroke-linecap="butt"/><path d="M196.95383,183.125v3.25" fill="none" stroke="#a75c15" stroke-width="2.5" stroke-linecap="round"/><path d="M196.95383,175.125c2.48528,0 4.5,1.84682 4.5,4.125c0,2.27818 -2.01472,4.125 -4.5,4.125c-2.48528,0 -4.5,-1.84682 -4.5,-4.125c0,-2.27818 2.01472,-4.125 4.5,-4.125z" fill="#009a05" stroke="#000000" stroke-width="0.5" stroke-linecap="butt"/><path d="M176.20383,185.125v3.25" fill="none" stroke="#a75c15" stroke-width="2.5" stroke-linecap="round"/><path d="M176.70383,177.625c2.48528,0 4.5,1.84683 4.5,4.125c0,2.27817 -2.01472,4.125 -4.5,4.125c-2.48528,0 -4.5,-1.84683 -4.5,-4.125c0,-2.27817 2.01472,-4.125 4.5,-4.125z" fill="#009a05" stroke="#000000" stroke-width="0.5" stroke-linecap="butt"/><path d="M183.45383,181.125v3.25" fill="none" stroke="#a75c15" stroke-width="2.5" stroke-linecap="round"/><path d="M183.45383,173.125c2.48528,0 4.5,1.84683 4.5,4.125c0,2.27817 -2.01472,4.125 -4.5,4.125c-2.48528,0 -4.5,-1.84683 -4.5,-4.125c0,-2.27817 2.01472,-4.125 4.5,-4.125z" fill="#009a05" stroke="#000000" stroke-width="0.5" stroke-linecap="butt"/><path d="M186.95383,182.375v3.25" fill="none" stroke="#a75c15" stroke-width="2.5" stroke-linecap="round"/><path d="M186.95383,174.375c2.48528,0 4.5,1.84683 4.5,4.125c0,2.27817 -2.01472,4.125 -4.5,4.125c-2.48528,0 -4.5,-1.84683 -4.5,-4.125c0,-2.27817 2.01472,-4.125 4.5,-4.125z" fill="#009a05" stroke="#000000" stroke-width="0.5" stroke-linecap="butt"/><path d="M181.95383,184.625v3.25" fill="none" stroke="#a75c15" stroke-width="2.5" stroke-linecap="round"/><path d="M181.95383,176.625c2.48528,0 4.5,1.84683 4.5,4.125c0,2.27817 -2.01472,4.125 -4.5,4.125c-2.48528,0 -4.5,-1.84683 -4.5,-4.125c0,-2.27817 2.01472,-4.125 4.5,-4.125z" fill="#009a05" stroke="#000000" stroke-width="0.5" stroke-linecap="butt"/><path d="M186.20383,189.875v-3.25" fill="none" stroke="#a75c15" stroke-width="2.5" stroke-linecap="round"/><path d="M186.20383,178.625c2.48528,0 4.5,1.84683 4.5,4.125c0,2.27817 -2.01472,4.125 -4.5,4.125c-2.48528,0 -4.5,-1.84683 -4.5,-4.125c0,-2.27817 2.01472,-4.125 4.5,-4.125z" fill="#009a05" stroke="#000000" stroke-width="0.5" stroke-linecap="butt"/><path d="M181.70383,192.375v-3.25" fill="none" stroke="#a75c15" stroke-width="2.5" stroke-linecap="round"/><path d="M181.70383,181.125c2.48528,0 4.5,1.84683 4.5,4.125c0,2.27817 -2.01472,4.125 -4.5,4.125c-2.48528,0 -4.5,-1.84683 -4.5,-4.125c0,-2.27817 2.01472,-4.125 4.5,-4.125z" fill="#009a05" stroke="#000000" stroke-width="0.5" stroke-linecap="butt"/><path d="M189.20383,191.375v-3.25" fill="none" stroke="#a75c15" stroke-width="2.5" stroke-linecap="round"/><path d="M189.20383,180.125c2.48528,0 4.5,1.84683 4.5,4.125c0,2.27817 -2.01472,4.125 -4.5,4.125c-2.48528,0 -4.5,-1.84683 -4.5,-4.125c0,-2.27817 2.01472,-4.125 4.5,-4.125z" fill="#009a05" stroke="#000000" stroke-width="0.5" stroke-linecap="butt"/><path d="M193.95383,190.875v3.25" fill="none" stroke="#a75c15" stroke-width="2.5" stroke-linecap="round"/><path d="M193.95383,182.875c2.48528,0 4.5,1.84683 4.5,4.125c0,2.27817 -2.01472,4.125 -4.5,4.125c-2.48528,0 -4.5,-1.84683 -4.5,-4.125c0,-2.27817 2.01472,-4.125 4.5,-4.125z" fill="#009a05" stroke="#000000" stroke-width="0.5" stroke-linecap="butt"/><path d="M188.70383,193.375v3.25" fill="none" stroke="#a75c15" stroke-width="2.5" stroke-linecap="round"/><path d="M188.70383,185.375c2.48528,0 4.5,1.84683 4.5,4.125c0,2.27817 -2.01472,4.125 -4.5,4.125c-2.48528,0 -4.5,-1.84683 -4.5,-4.125c0,-2.27817 2.01472,-4.125 4.5,-4.125z" fill="#009a05" stroke="#000000" stroke-width="0.5" stroke-linecap="butt"/><path d="M225.70383,207.625v3.25" fill="none" stroke="#a75c15" stroke-width="2.5" stroke-linecap="round"/><path d="M225.70383,199.625c2.48528,0 4.5,1.84682 4.5,4.125c0,2.27818 -2.01472,4.125 -4.5,4.125c-2.48528,0 -4.5,-1.84682 -4.5,-4.125c0,-2.27818 2.01472,-4.125 4.5,-4.125z" fill="#009a05" stroke="#000000" stroke-width="0.5" stroke-linecap="butt"/><path d="M230.45383,210.375v3.25" fill="none" stroke="#a75c15" stroke-width="2.5" stroke-linecap="round"/><path d="M230.45383,202.375c2.48528,0 4.5,1.84682 4.5,4.125c0,2.27818 -2.01472,4.125 -4.5,4.125c-2.48528,0 -4.5,-1.84682 -4.5,-4.125c0,-2.27818 2.01472,-4.125 4.5,-4.125z" fill="#009a05" stroke="#000000" stroke-width="0.5" stroke-linecap="butt"/><path d="M225.20383,212.875v3.25" fill="none" stroke="#a75c15" stroke-width="2.5" stroke-linecap="round"/><path d="M225.20383,204.875c2.48528,0 4.5,1.84682 4.5,4.125c0,2.27818 -2.01472,4.125 -4.5,4.125c-2.48528,0 -4.5,-1.84682 -4.5,-4.125c0,-2.27818 2.01472,-4.125 4.5,-4.125z" fill="#009a05" stroke="#000000" stroke-width="0.5" stroke-linecap="butt"/><g><path d="M251.76267,164.07468v3.25" fill="none" stroke="#a75c15" stroke-width="2.5" stroke-linecap="round"/><path d="M252.26267,156.57468c2.48528,0 4.5,1.84682 4.5,4.125c0,2.27818 -2.01472,4.125 -4.5,4.125c-2.48528,0 -4.5,-1.84682 -4.5,-4.125c0,-2.27818 2.01472,-4.125 4.5,-4.125z" fill="#009a05" stroke="#000000" stroke-width="0.5" stroke-linecap="butt"/><path d="M259.01267,163.32468v-3.25" fill="none" stroke="#a75c15" stroke-width="2.5" stroke-linecap="round"/><path d="M259.01267,152.07468c2.48528,0 4.5,1.84682 4.5,4.125c0,2.27818 -2.01472,4.125 -4.5,4.125c-2.48528,0 -4.5,-1.84682 -4.5,-4.125c0,-2.27818 2.01472,-4.125 4.5,-4.125z" fill="#009a05" stroke="#000000" stroke-width="0.5" stroke-linecap="butt"/><path d="M262.51267,161.32468v3.25" fill="none" stroke="#a75c15" stroke-width="2.5" stroke-linecap="round"/><path d="M262.51267,153.32468c2.48528,0 4.5,1.84682 4.5,4.125c0,2.27818 -2.01472,4.125 -4.5,4.125c-2.48528,0 -4.5,-1.84682 -4.5,-4.125c0,-2.27818 2.01472,-4.125 4.5,-4.125z" fill="#009a05" stroke="#000000" stroke-width="0.5" stroke-linecap="butt"/><path d="M257.51267,166.82468v-3.25" fill="none" stroke="#a75c15" stroke-width="2.5" stroke-linecap="round"/><path d="M257.51267,155.57468c2.48528,0 4.5,1.84682 4.5,4.125c0,2.27818 -2.01472,4.125 -4.5,4.125c-2.48528,0 -4.5,-1.84682 -4.5,-4.125c0,-2.27818 2.01472,-4.125 4.5,-4.125z" fill="#009a05" stroke="#000000" stroke-width="0.5" stroke-linecap="butt"/><path d="M261.76267,165.57468v3.25" fill="none" stroke="#a75c15" stroke-width="2.5" stroke-linecap="round"/><path d="M261.76267,157.57468c2.48528,0 4.5,1.84682 4.5,4.125c0,2.27818 -2.01472,4.125 -4.5,4.125c-2.48528,0 -4.5,-1.84682 -4.5,-4.125c0,-2.27818 2.01472,-4.125 4.5,-4.125z" fill="#009a05" stroke="#000000" stroke-width="0.5" stroke-linecap="butt"/><path d="M257.26267,168.07468v3.25" fill="none" stroke="#a75c15" stroke-width="2.5" stroke-linecap="round"/><path d="M257.26267,160.07468c2.48528,0 4.5,1.84682 4.5,4.125c0,2.27818 -2.01472,4.125 -4.5,4.125c-2.48528,0 -4.5,-1.84682 -4.5,-4.125c0,-2.27818 2.01472,-4.125 4.5,-4.125z" fill="#009a05" stroke="#000000" stroke-width="0.5" stroke-linecap="butt"/></g><g><path d="M260.20383,180.625v-3.25" fill="none" stroke="#a75c15" stroke-width="2.5" stroke-linecap="round"/><path d="M260.20383,169.375c2.48528,0 4.5,1.84682 4.5,4.125c0,2.27818 -2.01472,4.125 -4.5,4.125c-2.48528,0 -4.5,-1.84682 -4.5,-4.125c0,-2.27818 2.01472,-4.125 4.5,-4.125z" fill="#009a05" stroke="#000000" stroke-width="0.5" stroke-linecap="butt"/><path d="M265.45383,181.125v3.25" fill="none" stroke="#a75c15" stroke-width="2.5" stroke-linecap="round"/><path d="M265.45383,173.125c2.48528,0 4.5,1.84682 4.5,4.125c0,2.27818 -2.01472,4.125 -4.5,4.125c-2.48528,0 -4.5,-1.84682 -4.5,-4.125c0,-2.27818 2.01472,-4.125 4.5,-4.125z" fill="#009a05" stroke="#000000" stroke-width="0.5" stroke-linecap="butt"/><path d="M254.95383,181.875v3.25" fill="none" stroke="#a75c15" stroke-width="2.5" stroke-linecap="round"/><path d="M254.95383,173.875c2.48528,0 4.5,1.84682 4.5,4.125c0,2.27818 -2.01472,4.125 -4.5,4.125c-2.48528,0 -4.5,-1.84682 -4.5,-4.125c0,-2.27818 2.01472,-4.125 4.5,-4.125z" fill="#009a05" stroke="#000000" stroke-width="0.5" stroke-linecap="butt"/><path d="M260.70383,188.875v-3.25" fill="none" stroke="#a75c15" stroke-width="2.5" stroke-linecap="round"/><path d="M260.70383,177.625c2.48528,0 4.5,1.84682 4.5,4.125c0,2.27818 -2.01472,4.125 -4.5,4.125c-2.48528,0 -4.5,-1.84682 -4.5,-4.125c0,-2.27818 2.01472,-4.125 4.5,-4.125z" fill="#009a05" stroke="#000000" stroke-width="0.5" stroke-linecap="butt"/></g><g><path d="M269.20383,163.125v3.25" fill="none" stroke="#a75c15" stroke-width="2.5" stroke-linecap="round"/><path d="M269.20383,155.125c2.48528,0 4.5,1.84682 4.5,4.125c0,2.27818 -2.01472,4.125 -4.5,4.125c-2.48528,0 -4.5,-1.84682 -4.5,-4.125c0,-2.27818 2.01472,-4.125 4.5,-4.125z" fill="#009a05" stroke="#000000" stroke-width="0.5" stroke-linecap="butt"/><path d="M273.95383,165.875v3.25" fill="none" stroke="#a75c15" stroke-width="2.5" stroke-linecap="round"/><path d="M273.95383,157.875c2.48528,0 4.5,1.84682 4.5,4.125c0,2.27818 -2.01472,4.125 -4.5,4.125c-2.48528,0 -4.5,-1.84682 -4.5,-4.125c0,-2.27818 2.01472,-4.125 4.5,-4.125z" fill="#009a05" stroke="#000000" stroke-width="0.5" stroke-linecap="butt"/><path d="M268.70383,168.375v3.25" fill="none" stroke="#a75c15" stroke-width="2.5" stroke-linecap="round"/><path d="M268.70383,160.375c2.48528,0 4.5,1.84682 4.5,4.125c0,2.27818 -2.01472,4.125 -4.5,4.125c-2.48528,0 -4.5,-1.84682 -4.5,-4.125c0,-2.27818 2.01472,-4.125 4.5,-4.125z" fill="#009a05" stroke="#000000" stroke-width="0.5" stroke-linecap="butt"/></g><g><path d="M271.70383,174.125v3.25" fill="none" stroke="#a75c15" stroke-width="2.5" stroke-linecap="round"/><path d="M271.70383,166.125c2.48528,0 4.5,1.84683 4.5,4.125c0,2.27817 -2.01472,4.125 -4.5,4.125c-2.48528,0 -4.5,-1.84683 -4.5,-4.125c0,-2.27817 2.01472,-4.125 4.5,-4.125z" fill="#009a05" stroke="#000000" stroke-width="0.5" stroke-linecap="butt"/><path d="M276.45383,176.875v3.25" fill="none" stroke="#a75c15" stroke-width="2.5" stroke-linecap="round"/><path d="M276.45383,168.875c2.48528,0 4.5,1.84683 4.5,4.125c0,2.27817 -2.01472,4.125 -4.5,4.125c-2.48528,0 -4.5,-1.84683 -4.5,-4.125c0,-2.27817 2.01472,-4.125 4.5,-4.125z" fill="#009a05" stroke="#000000" stroke-width="0.5" stroke-linecap="butt"/><path d="M271.20383,182.625v-3.25" fill="none" stroke="#a75c15" stroke-width="2.5" stroke-linecap="round"/><path d="M271.20383,171.375c2.48528,0 4.5,1.84683 4.5,4.125c0,2.27817 -2.01472,4.125 -4.5,4.125c-2.48528,0 -4.5,-1.84683 -4.5,-4.125c0,-2.27817 2.01472,-4.125 4.5,-4.125z" fill="#009a05" stroke="#000000" stroke-width="0.5" stroke-linecap="butt"/></g></g></g></svg>