<svg version="1.1" xmlns="http://www.w3.org/2000/svg" xmlns:xlink="http://www.w3.org/1999/xlink" width="298.46439" height="227.47358" viewBox="0,0,298.46439,227.47358"><defs><linearGradient x1="294.3363" y1="109.9932" x2="306.21454" y2="109.9932" gradientUnits="userSpaceOnUse" id="color-1"><stop offset="0" stop-color="#809096"/><stop offset="1" stop-color="#ffffff"/></linearGradient><linearGradient x1="307.10803" y1="103.33559" x2="318.98627" y2="103.33559" gradientUnits="userSpaceOnUse" id="color-2"><stop offset="0" stop-color="#809096"/><stop offset="1" stop-color="#ffffff"/></linearGradient><linearGradient x1="319.18587" y1="96.81676" x2="331.06411" y2="96.81676" gradientUnits="userSpaceOnUse" id="color-3"><stop offset="0" stop-color="#809096"/><stop offset="1" stop-color="#ffffff"/></linearGradient><linearGradient x1="251.87316" y1="131.0918" x2="263.7514" y2="131.0918" gradientUnits="userSpaceOnUse" id="color-4"><stop offset="0" stop-color="#809096"/><stop offset="1" stop-color="#ffffff"/></linearGradient><linearGradient x1="276.72274" y1="117.91536" x2="288.60098" y2="117.91536" gradientUnits="userSpaceOnUse" id="color-5"><stop offset="0" stop-color="#809096"/><stop offset="1" stop-color="#ffffff"/></linearGradient><linearGradient x1="167.07016" y1="175.63277" x2="178.9484" y2="175.63277" gradientUnits="userSpaceOnUse" id="color-6"><stop offset="0" stop-color="#809096"/><stop offset="1" stop-color="#ffffff"/></linearGradient><linearGradient x1="179.8419" y1="168.6976" x2="191.72014" y2="168.6976" gradientUnits="userSpaceOnUse" id="color-7"><stop offset="0" stop-color="#809096"/><stop offset="1" stop-color="#ffffff"/></linearGradient><linearGradient x1="192.61364" y1="161.2073" x2="204.49188" y2="161.2073" gradientUnits="userSpaceOnUse" id="color-8"><stop offset="0" stop-color="#809096"/><stop offset="1" stop-color="#ffffff"/></linearGradient><linearGradient x1="125.16215" y1="197.84163" x2="137.04038" y2="197.84163" gradientUnits="userSpaceOnUse" id="color-9"><stop offset="0" stop-color="#809096"/><stop offset="1" stop-color="#ffffff"/></linearGradient><linearGradient x1="137.93389" y1="190.90646" x2="149.81213" y2="190.90646" gradientUnits="userSpaceOnUse" id="color-10"><stop offset="0" stop-color="#809096"/><stop offset="1" stop-color="#ffffff"/></linearGradient><linearGradient x1="150.70563" y1="183.41616" x2="162.58387" y2="183.41616" gradientUnits="userSpaceOnUse" id="color-11"><stop offset="0" stop-color="#809096"/><stop offset="1" stop-color="#ffffff"/></linearGradient><linearGradient x1="95.76384" y1="189.53805" x2="107.64208" y2="189.53805" gradientUnits="userSpaceOnUse" id="color-12"><stop offset="0" stop-color="#809096"/><stop offset="1" stop-color="#ffffff"/></linearGradient><linearGradient x1="109.0907" y1="197.03611" x2="120.96894" y2="197.03611" gradientUnits="userSpaceOnUse" id="color-13"><stop offset="0" stop-color="#809096"/><stop offset="1" stop-color="#ffffff"/></linearGradient><linearGradient x1="82.17105" y1="182.32919" x2="94.04929" y2="182.32919" gradientUnits="userSpaceOnUse" id="color-14"><stop offset="0" stop-color="#809096"/><stop offset="1" stop-color="#ffffff"/></linearGradient><linearGradient x1="53.85583" y1="168.72476" x2="65.73407" y2="168.72476" gradientUnits="userSpaceOnUse" id="color-15"><stop offset="0" stop-color="#809096"/><stop offset="1" stop-color="#ffffff"/></linearGradient><linearGradient x1="67.18269" y1="176.22282" x2="79.06093" y2="176.22282" gradientUnits="userSpaceOnUse" id="color-16"><stop offset="0" stop-color="#809096"/><stop offset="1" stop-color="#ffffff"/></linearGradient><linearGradient x1="40.26304" y1="161.51591" x2="52.14128" y2="161.51591" gradientUnits="userSpaceOnUse" id="color-17"><stop offset="0" stop-color="#809096"/><stop offset="1" stop-color="#ffffff"/></linearGradient><linearGradient x1="264.6449" y1="124.71175" x2="276.52314" y2="124.71175" gradientUnits="userSpaceOnUse" id="color-18"><stop offset="0" stop-color="#809096"/><stop offset="1" stop-color="#ffffff"/></linearGradient></defs><g transform="translate(-36.98151,-17.62614)"><g data-paper-data="{&quot;isPaintingLayer&quot;:true}" fill-rule="nonzero" stroke-linejoin="miter" stroke-miterlimit="10" stroke-dasharray="" stroke-dashoffset="0" style="mix-blend-mode: normal"><path d="" data-paper-data="{&quot;index&quot;:null}" fill="#e4e4e4" stroke="#000000" stroke-width="2" stroke-linecap="butt"/><path d="" data-paper-data="{&quot;index&quot;:null}" fill="#e4e4e4" stroke="#000000" stroke-width="2" stroke-linecap="butt"/><path d="" data-paper-data="{&quot;index&quot;:null}" fill="#e4e4e4" stroke="#000000" stroke-width="2" stroke-linecap="butt"/><path d="" data-paper-data="{&quot;index&quot;:null}" fill="#e4e4e4" stroke="#000000" stroke-width="2" stroke-linecap="butt"/><path d="" data-paper-data="{&quot;index&quot;:null}" fill="#e4e4e4" stroke="#000000" stroke-width="2" stroke-linecap="butt"/><path d="" fill="#ffa933" stroke="none" stroke-width="0.5" stroke-linecap="butt"/><path d="M265.61637,134.66221v-15.95078l11.87824,-6.44819v15.95078z" fill="#00b4ff" stroke="#000000" stroke-width="2" stroke-linecap="butt"/><path d="M278.66568,127.17191v-15.95078l11.87824,-6.44819v15.95078z" fill="#00b4ff" stroke="#000000" stroke-width="2" stroke-linecap="butt"/><path d="M250.60423,134.45719l-0.34403,-51.60515l40.59605,21.33013v51.94918z" fill="#e4e4e4" stroke="#000000" stroke-width="2" stroke-linecap="butt"/><path d="M292.34944,156.59243v-51.94918l40.59605,-21.33013l0.00001,52.63725z" data-paper-data="{&quot;index&quot;:null}" fill="#e4e4e4" stroke="#000000" stroke-width="2" stroke-linecap="butt"/><path d="M294.3363,121.19268v-15.95078l11.87824,-6.44819v15.95078z" fill="url(#color-1)" stroke="#000000" stroke-width="2" stroke-linecap="butt"/><path d="M307.10803,114.53507v-15.95078l11.87824,-6.44819v15.95078z" fill="url(#color-2)" stroke="#000000" stroke-width="2" stroke-linecap="butt"/><path d="M319.18587,108.01624v-15.95078l11.87824,-6.44819v15.95078z" fill="url(#color-3)" stroke="#000000" stroke-width="2" stroke-linecap="butt"/><path d="M276.81622,97.49345v15.95078l-11.87824,-6.44819v-15.95078z" data-paper-data="{&quot;index&quot;:null}" fill="#00b4ff" stroke="#000000" stroke-width="2" stroke-linecap="butt"/><path d="M290.14309,104.99151v15.95078l-11.87824,-6.44819v-15.95078z" data-paper-data="{&quot;index&quot;:null}" fill="#00b4ff" stroke="#000000" stroke-width="2" stroke-linecap="butt"/><path d="M263.22344,90.28459v15.95078l-11.87824,-6.44819v-15.95078z" data-paper-data="{&quot;index&quot;:null}" fill="#00b4ff" stroke="#000000" stroke-width="2" stroke-linecap="butt"/><path d="M208.14109,155.55579l-0.34403,-51.60515l40.59605,21.33013v51.94918z" fill="#e4e4e4" stroke="#000000" stroke-width="2" stroke-linecap="butt"/><path d="M249.8863,177.69104v-51.94918l40.59605,-21.33013l0.00001,52.63725z" data-paper-data="{&quot;index&quot;:null}" fill="#e4e4e4" stroke="#000000" stroke-width="2" stroke-linecap="butt"/><path d="M251.87316,142.29128v-15.95078l11.87824,-6.44819v15.95078z" fill="url(#color-4)" stroke="#000000" stroke-width="2" stroke-linecap="butt"/><path d="M276.72274,129.11485v-15.95078l11.87824,-6.44819v15.95078z" fill="url(#color-5)" stroke="#000000" stroke-width="2" stroke-linecap="butt"/><path d="M234.35309,118.59205v15.95078l-11.87824,-6.44819v-15.95078z" data-paper-data="{&quot;index&quot;:null}" fill="#00b4ff" stroke="#000000" stroke-width="2" stroke-linecap="butt"/><path d="M247.67996,126.09011v15.95078l-11.87824,-6.44819v-15.95078z" data-paper-data="{&quot;index&quot;:null}" fill="#00b4ff" stroke="#000000" stroke-width="2" stroke-linecap="butt"/><path d="M220.76031,111.3832v15.95078l-11.87824,-6.44819v-15.95078z" data-paper-data="{&quot;index&quot;:null}" fill="#00b4ff" stroke="#000000" stroke-width="2" stroke-linecap="butt"/><path d="M207.13785,200.72482v-51.94918l40.59605,-21.33013l0.00001,52.63725l-8.95505,4.63211l-0.36184,-41.24206l-21.58903,10.11185l0.64456,40.60651z" data-paper-data="{&quot;index&quot;:null}" fill="#e4e4e4" stroke="#000000" stroke-width="2" stroke-linecap="butt"/><path d="M124.03199,198.84774l-0.34403,-51.60515l40.59605,21.33013v51.94918z" fill="#e4e4e4" stroke="#000000" stroke-width="2" stroke-linecap="butt"/><path d="M165.7772,221.26054v-51.94918l40.59605,-21.33013l0.00001,52.63725z" data-paper-data="{&quot;index&quot;:null}" fill="#e4e4e4" stroke="#000000" stroke-width="2" stroke-linecap="butt"/><path d="M167.07016,186.83226v-15.95078l11.87824,-6.44819v15.95078z" fill="url(#color-6)" stroke="#000000" stroke-width="2" stroke-linecap="butt"/><path d="M179.8419,179.89709v-15.95078l11.87824,-6.44819v15.95078z" fill="url(#color-7)" stroke="#000000" stroke-width="2" stroke-linecap="butt"/><path d="M192.61364,172.40679v-15.95078l11.87824,-6.44819v15.95078z" fill="url(#color-8)" stroke="#000000" stroke-width="2" stroke-linecap="butt"/><path d="M149.55009,162.5779v15.95078l-11.87824,-6.44819v-15.95078z" data-paper-data="{&quot;index&quot;:null}" fill="#00b4ff" stroke="#000000" stroke-width="2" stroke-linecap="butt"/><path d="M162.87695,170.07596v15.95078l-11.87824,-6.44819v-15.95078z" data-paper-data="{&quot;index&quot;:null}" fill="#00b4ff" stroke="#000000" stroke-width="2" stroke-linecap="butt"/><path d="M135.9573,155.36904v15.95078l-11.87824,-6.44819v-15.95078z" data-paper-data="{&quot;index&quot;:null}" fill="#00b4ff" stroke="#000000" stroke-width="2" stroke-linecap="butt"/><path d="M82.12398,221.05659l-0.34403,-51.60515l40.59605,21.33013v51.94918z" fill="#e4e4e4" stroke="#000000" stroke-width="2" stroke-linecap="butt"/><path d="M123.86919,243.4694v-51.94918l40.59605,-21.33013l0.00001,52.63725z" data-paper-data="{&quot;index&quot;:null}" fill="#e4e4e4" stroke="#000000" stroke-width="2" stroke-linecap="butt"/><path d="M125.16215,209.04111v-15.95078l11.87824,-6.44819v15.95078z" fill="url(#color-9)" stroke="#000000" stroke-width="2" stroke-linecap="butt"/><path d="M137.93389,202.10594v-15.95078l11.87824,-6.44819v15.95078z" fill="url(#color-10)" stroke="#000000" stroke-width="2" stroke-linecap="butt"/><path d="M150.70563,194.61564v-15.95078l11.87824,-6.44819v15.95078z" fill="url(#color-11)" stroke="#000000" stroke-width="2" stroke-linecap="butt"/><path d="M107.64208,184.78675v15.95078l-11.87824,-6.44819v-15.95078z" data-paper-data="{&quot;index&quot;:null}" fill="url(#color-12)" stroke="#000000" stroke-width="2" stroke-linecap="butt"/><path d="M120.96894,192.28481v15.95078l-11.87824,-6.44819v-15.95078z" data-paper-data="{&quot;index&quot;:null}" fill="url(#color-13)" stroke="#000000" stroke-width="2" stroke-linecap="butt"/><path d="M94.04929,177.5779v15.95078l-11.87824,-6.44819v-15.95078z" data-paper-data="{&quot;index&quot;:null}" fill="url(#color-14)" stroke="#000000" stroke-width="2" stroke-linecap="butt"/><g fill="#0b7bb3" stroke="#000000" stroke-width="2" stroke-linecap="round"><g><path d="M248.63843,19.9047l0.67875,61.08811l-41.74355,-22.73836z"/><path d="M290.9989,59.61196l-41.06478,21.38084v-60.74873z"/></g><g><path d="M206.17529,41.0033l0.67875,61.08811l-41.74355,-22.73836z"/><path d="M248.53576,80.71057l-41.06478,21.38084v-60.74873z"/></g><g><path d="M164.6681,63.05786l0.67875,61.08811l-41.74355,-22.73836z"/><path d="M207.02857,102.76512l-41.06478,21.38084v-60.74873z"/></g><g><path d="M121.64985,85.26672l0.67875,61.08811l-41.74355,-22.73836z"/><path d="M164.01032,124.97398l-41.06478,21.38084v-60.74873z"/></g><path d="M79.74183,107.47557l0.67875,61.08811l-41.74355,-22.73836z"/><path d="M122.10231,146.90527l-41.06478,21.38084v-60.74874z"/></g><g fill="#0b7bb3" stroke="#000000" stroke-width="2" stroke-linecap="round"><g><path d="M291.38688,41.83599l0.67875,61.08811l-41.74355,-22.73836z"/><path d="M333.74735,81.54326l-41.06478,21.38084v-60.74873z"/></g><g><path d="M248.92375,62.9346l0.67875,61.08811l-41.74355,-22.73836z"/><path d="M291.28422,102.64186l-41.06478,21.38084v-60.74873z"/></g><g><path d="M207.41656,84.98916l0.67875,61.08811l-41.74355,-22.73836z"/><path d="M249.77703,124.69642l-41.06478,21.38084v-60.74873z"/></g><g><path d="M164.3983,107.19801l0.67875,61.08811l-41.74355,-22.73836z"/><path d="M206.75877,146.90527l-41.06478,21.38084v-60.74873z"/></g><path d="M122.49029,129.40687l0.67875,61.08811l-41.74355,-22.73836z"/><path d="M164.85076,168.83656l-41.06478,21.38085v-60.74874z"/></g><path d="M40.21597,200.24331l-0.34403,-51.60515l40.59605,21.33013v51.94918z" fill="#e4e4e4" stroke="#000000" stroke-width="2" stroke-linecap="butt"/><path d="M65.73407,163.97347v15.95078l-11.87824,-6.44819v-15.95078z" data-paper-data="{&quot;index&quot;:null}" fill="url(#color-15)" stroke="#000000" stroke-width="2" stroke-linecap="butt"/><path d="M79.06093,171.47153v15.95078l-11.87824,-6.44819v-15.95078z" data-paper-data="{&quot;index&quot;:null}" fill="url(#color-16)" stroke="#000000" stroke-width="2" stroke-linecap="butt"/><path d="M52.14128,156.76461v15.95078l-11.87824,-6.44819v-15.95078z" data-paper-data="{&quot;index&quot;:null}" fill="url(#color-17)" stroke="#000000" stroke-width="2" stroke-linecap="butt"/><path d="M264.6449,135.91124v-15.95078l11.87824,-6.44819v15.95078z" fill="url(#color-18)" stroke="#000000" stroke-width="2" stroke-linecap="butt"/></g></g></svg>