<svg version="1.1" xmlns="http://www.w3.org/2000/svg" xmlns:xlink="http://www.w3.org/1999/xlink" width="251.10024" height="234.78417" viewBox="0,0,251.10024,234.78417"><defs><linearGradient x1="183.6937" y1="140.21021" x2="192.70271" y2="140.21021" gradientUnits="userSpaceOnUse" id="color-1"><stop offset="0" stop-color="#00b4ff"/><stop offset="1" stop-color="#00b4ff" stop-opacity="0"/></linearGradient><linearGradient x1="201.49803" y1="131.82387" x2="210.50704" y2="131.82387" gradientUnits="userSpaceOnUse" id="color-2"><stop offset="0" stop-color="#00b4ff"/><stop offset="1" stop-color="#00b4ff" stop-opacity="0"/></linearGradient><linearGradient x1="185.8365" y1="191.24226" x2="194.84551" y2="191.24226" gradientUnits="userSpaceOnUse" id="color-3"><stop offset="0" stop-color="#00b4ff"/><stop offset="1" stop-color="#00b4ff" stop-opacity="0"/></linearGradient><linearGradient x1="201.89478" y1="183.14693" x2="210.90379" y2="183.14693" gradientUnits="userSpaceOnUse" id="color-4"><stop offset="0" stop-color="#00b4ff"/><stop offset="1" stop-color="#00b4ff" stop-opacity="0"/></linearGradient><linearGradient x1="224.06422" y1="122.67026" x2="233.07323" y2="122.67026" gradientUnits="userSpaceOnUse" id="color-5"><stop offset="0" stop-color="#00b4ff"/><stop offset="1" stop-color="#00b4ff" stop-opacity="0"/></linearGradient><linearGradient x1="239.8315" y1="115.15694" x2="248.84051" y2="115.15694" gradientUnits="userSpaceOnUse" id="color-6"><stop offset="0" stop-color="#00b4ff"/><stop offset="1" stop-color="#00b4ff" stop-opacity="0"/></linearGradient><linearGradient x1="333.57654" y1="139.36343" x2="324.56753" y2="139.36343" gradientUnits="userSpaceOnUse" id="color-7"><stop offset="0" stop-color="#00b4ff" stop-opacity="0"/><stop offset="1" stop-color="#00b4ff"/></linearGradient><linearGradient x1="317.04199" y1="132.72313" x2="308.03298" y2="132.72313" gradientUnits="userSpaceOnUse" id="color-8"><stop offset="0" stop-color="#00b4ff" stop-opacity="0"/><stop offset="1" stop-color="#00b4ff"/></linearGradient><linearGradient x1="293.23226" y1="122.88175" x2="284.22325" y2="122.88175" gradientUnits="userSpaceOnUse" id="color-9"><stop offset="0" stop-color="#00b4ff" stop-opacity="0"/><stop offset="1" stop-color="#00b4ff"/></linearGradient><linearGradient x1="276.11569" y1="116.24146" x2="267.10668" y2="116.24146" gradientUnits="userSpaceOnUse" id="color-10"><stop offset="0" stop-color="#00b4ff" stop-opacity="0"/><stop offset="1" stop-color="#00b4ff"/></linearGradient><linearGradient x1="335.82509" y1="193.12029" x2="326.81608" y2="193.12029" gradientUnits="userSpaceOnUse" id="color-11"><stop offset="0" stop-color="#00b4ff" stop-opacity="0"/><stop offset="1" stop-color="#00b4ff"/></linearGradient><linearGradient x1="318.12651" y1="184.15193" x2="309.1175" y2="184.15193" gradientUnits="userSpaceOnUse" id="color-12"><stop offset="0" stop-color="#00b4ff" stop-opacity="0"/><stop offset="1" stop-color="#00b4ff"/></linearGradient><linearGradient x1="226.52466" y1="193.22643" x2="235.53367" y2="193.22643" gradientUnits="userSpaceOnUse" id="color-13"><stop offset="0" stop-color="#00b4ff"/><stop offset="1" stop-color="#00b4ff" stop-opacity="0"/></linearGradient><linearGradient x1="296.30095" y1="191.71812" x2="287.29194" y2="191.71812" gradientUnits="userSpaceOnUse" id="color-14"><stop offset="0" stop-color="#00b4ff" stop-opacity="0"/><stop offset="1" stop-color="#00b4ff"/></linearGradient><linearGradient x1="296.06282" y1="168.4904" x2="287.05381" y2="168.4904" gradientUnits="userSpaceOnUse" id="color-15"><stop offset="0" stop-color="#00b4ff" stop-opacity="0"/><stop offset="1" stop-color="#00b4ff"/></linearGradient><linearGradient x1="225.41351" y1="169.99872" x2="234.42252" y2="169.99872" gradientUnits="userSpaceOnUse" id="color-16"><stop offset="0" stop-color="#00b4ff"/><stop offset="1" stop-color="#00b4ff" stop-opacity="0"/></linearGradient></defs><g transform="translate(-134.04615,-43.32601)"><g data-paper-data="{&quot;isPaintingLayer&quot;:true}" fill-rule="nonzero" stroke-linejoin="miter" stroke-miterlimit="10" stroke-dasharray="" stroke-dashoffset="0" style="mix-blend-mode: normal"><g fill="none" stroke="#000000" stroke-width="2" stroke-linecap="butt"><path d="M178.68668,189.58666l40.83521,-20.25102l40.54149,21.57772l-40.83521,20.25102z" data-paper-data="{&quot;index&quot;:null}"/><path d="M219.93668,169.08666l40.83521,-20.25102l40.54149,21.57772l-40.83521,20.25102z" data-paper-data="{&quot;index&quot;:null}"/></g><g fill="#efefef" stroke="#000000" stroke-width="2" stroke-linecap="butt"><path d="M178.87019,135.7568l40.83521,-20.25102l40.54149,21.57772l-40.83521,20.25102z" data-paper-data="{&quot;index&quot;:null}"/><path d="M220.12019,115.2568l40.83521,-20.25102l40.54149,21.57772l-40.83521,20.25102z" data-paper-data="{&quot;index&quot;:null}"/></g><path d="M177.55779,189.52965v-53.66935l41.97219,22.0182v53.32532z" fill="none" stroke="#000000" stroke-width="2" stroke-linecap="butt"/><path d="M219.7135,211.38733v-53.32532l41.97218,-22.0182v53.66936z" data-paper-data="{&quot;index&quot;:null}" fill="#efefef" stroke="#000000" stroke-width="2" stroke-linecap="butt"/><path d="M261.52517,190.24073v-51.86435l40.94008,-21.41496v52.19896z" data-paper-data="{&quot;index&quot;:null}" fill="none" stroke="#000000" stroke-width="2" stroke-linecap="butt"/><path d="M260.87323,188.34566l40.83521,-20.25102l40.54149,21.57772l-40.83521,20.25102z" data-paper-data="{&quot;index&quot;:null}" fill="none" stroke="#000000" stroke-width="2" stroke-linecap="butt"/><path d="M261.05672,135.89192l40.83521,-20.25102l40.54149,21.57772l-40.83521,20.25102z" data-paper-data="{&quot;index&quot;:null}" fill="#efefef" stroke="#000000" stroke-width="2" stroke-linecap="butt"/><path d="M260.79348,188.13042l-0.34403,-51.60515l40.59605,21.33013v51.94918z" fill="#efefef" stroke="#000000" stroke-width="2" stroke-linecap="butt"/><path d="M302.26115,209.9881v-51.94918l40.59605,-21.33013l0.00001,52.63725z" data-paper-data="{&quot;index&quot;:null}" fill="none" stroke="#000000" stroke-width="2" stroke-linecap="butt"/><path d="M137.2396,208.85617l40.83521,-20.25102l40.54149,21.57772l-40.83521,20.25102z" data-paper-data="{&quot;index&quot;:null}" fill="none" stroke="#000000" stroke-width="2" stroke-linecap="butt"/><path d="M137.42312,156.40243l40.83521,-20.25102l40.54149,21.57772l-40.83521,20.25102z" data-paper-data="{&quot;index&quot;:null}" fill="#efefef" stroke="#000000" stroke-width="2" stroke-linecap="butt"/><path d="M137.15988,208.64093l-0.34403,-51.60515l40.59605,21.33013v51.94918z" fill="#efefef" stroke="#000000" stroke-width="2" stroke-linecap="butt"/><path d="M178.62753,230.49861v-51.94918l40.59605,-21.33013l0.00001,52.63725z" data-paper-data="{&quot;index&quot;:null}" fill="#efefef" stroke="#000000" stroke-width="2" stroke-linecap="butt"/><path d="M301.39876,209.35167l40.83521,-20.25102l40.54149,21.57772l-40.83521,20.25102z" data-paper-data="{&quot;index&quot;:null}" fill="none" stroke="#000000" stroke-width="2" stroke-linecap="butt"/><path d="M301.58225,156.89792l40.83521,-20.25102l40.54149,21.57772l-40.83521,20.25102z" data-paper-data="{&quot;index&quot;:null}" fill="#efefef" stroke="#000000" stroke-width="2" stroke-linecap="butt"/><path d="M301.31901,209.13643l-0.34403,-51.60515l40.59605,21.33013v51.94918z" fill="#efefef" stroke="#000000" stroke-width="2" stroke-linecap="butt"/><path d="M342.78669,230.99411v-51.94918l40.59605,-21.33013l0.00001,52.63725z" data-paper-data="{&quot;index&quot;:null}" fill="#efefef" stroke="#000000" stroke-width="2" stroke-linecap="butt"/><g fill="none" stroke="#000000" stroke-width="2" stroke-linecap="butt"><path d="M177.68067,139.03111l40.83521,-20.25102l40.54149,21.57772l-40.83521,20.25102z" data-paper-data="{&quot;index&quot;:null}"/><path d="M218.93067,118.53111l40.83521,-20.25102l40.54149,21.57772l-40.83521,20.25102z" data-paper-data="{&quot;index&quot;:null}"/></g><g fill="#efefef" stroke="#000000" stroke-width="2" stroke-linecap="butt"><path d="M177.86418,85.20125l40.83521,-20.25102l40.54149,21.57772l-40.83521,20.25102z" data-paper-data="{&quot;index&quot;:null}"/><path d="M219.11418,64.70125l40.83521,-20.25102l40.54149,21.57772l-40.83521,20.25102z" data-paper-data="{&quot;index&quot;:null}"/></g><path d="M176.55178,138.9741v-53.66935l41.97219,22.0182v53.32532z" fill="none" stroke="#000000" stroke-width="2" stroke-linecap="butt"/><path d="M218.70749,160.83178v-53.32532l41.97218,-22.0182v53.66936z" data-paper-data="{&quot;index&quot;:null}" fill="#efefef" stroke="#000000" stroke-width="2" stroke-linecap="butt"/><path d="M260.51916,139.68517v-51.86435l40.94008,-21.41496v52.19896z" data-paper-data="{&quot;index&quot;:null}" fill="none" stroke="#000000" stroke-width="2" stroke-linecap="butt"/><path d="M259.86722,137.79011l40.83521,-20.25102l40.54149,21.57772l-40.83521,20.25102z" data-paper-data="{&quot;index&quot;:null}" fill="none" stroke="#000000" stroke-width="2" stroke-linecap="butt"/><path d="M260.05072,85.33637l40.83521,-20.25102l40.54149,21.57772l-40.83521,20.25102z" data-paper-data="{&quot;index&quot;:null}" fill="#efefef" stroke="#000000" stroke-width="2" stroke-linecap="butt"/><path d="M259.78748,137.57486l-0.34403,-51.60515l40.59605,21.33013v51.94918z" fill="#efefef" stroke="#000000" stroke-width="2" stroke-linecap="butt"/><path d="M301.25515,159.43255v-51.94918l40.59605,-21.33013l0.00001,52.63725z" data-paper-data="{&quot;index&quot;:null}" fill="none" stroke="#000000" stroke-width="2" stroke-linecap="butt"/><path d="M136.23359,158.30062l40.83521,-20.25102l40.54149,21.57772l-40.83521,20.25102z" data-paper-data="{&quot;index&quot;:null}" fill="none" stroke="#000000" stroke-width="2" stroke-linecap="butt"/><path d="M136.41711,105.84688l40.83521,-20.25102l40.54149,21.57772l-40.83521,20.25102z" data-paper-data="{&quot;index&quot;:null}" fill="#efefef" stroke="#000000" stroke-width="2" stroke-linecap="butt"/><path d="M136.15387,158.08538l-0.34403,-51.60515l40.59605,21.33013v51.94918z" fill="#efefef" stroke="#000000" stroke-width="2" stroke-linecap="butt"/><path d="M177.62152,179.94306v-51.94918l40.59605,-21.33013l0.00001,52.63725z" data-paper-data="{&quot;index&quot;:null}" fill="#efefef" stroke="#000000" stroke-width="2" stroke-linecap="butt"/><path d="M300.39275,158.79611l40.83521,-20.25102l40.54149,21.57772l-40.83521,20.25102z" data-paper-data="{&quot;index&quot;:null}" fill="none" stroke="#000000" stroke-width="2" stroke-linecap="butt"/><path d="M300.57625,106.34237l40.83521,-20.25102l40.54149,21.57772l-40.83521,20.25102z" data-paper-data="{&quot;index&quot;:null}" fill="#efefef" stroke="#000000" stroke-width="2" stroke-linecap="butt"/><path d="M300.31301,158.58088l-0.34403,-51.60515l40.59605,21.33013v51.94918z" fill="#efefef" stroke="#000000" stroke-width="2" stroke-linecap="butt"/><path d="M341.78068,180.43856v-51.94918l40.59605,-21.33013l0.00001,52.63725z" data-paper-data="{&quot;index&quot;:null}" fill="#efefef" stroke="#000000" stroke-width="2" stroke-linecap="butt"/><path d="M190.30265,238.62836l72.59063,-35.99918l72.0685,38.35759l-72.59063,35.99918z" data-paper-data="{&quot;index&quot;:null}" fill="#4e4e4e" stroke="#4e4e4e" stroke-width="2" stroke-linecap="butt"/><path d="M241.79537,200.75936l-0.91949,-31.01962l20.77077,-9.00901c0,0 0,6.96989 0,11.01101c0,4.94934 0.58201,18.84458 0.58201,18.84458z" fill="#999999" stroke="#000000" stroke-width="2" stroke-linecap="butt"/><path d="M263.27327,189.75976l-1.21049,-29.35509l19.22851,11.33707v28.52853z" fill="#999999" stroke="#000000" stroke-width="2" stroke-linecap="butt"/><path d="M183.6937,149.21922v-16.51652l9.00901,-4.74905l0.29101,16.76107z" fill="url(#color-1)" stroke="#000000" stroke-width="2" stroke-linecap="butt"/><path d="M201.49803,140.83288v-16.51652l9.00901,-4.74905l0.29101,16.76107z" fill="url(#color-2)" stroke="#000000" stroke-width="2" stroke-linecap="butt"/><path d="M185.8365,200.25127v-16.51652l9.00901,-4.74905l0.29101,16.76107z" fill="url(#color-3)" stroke="#000000" stroke-width="2" stroke-linecap="butt"/><path d="M201.89478,192.15594v-16.51652l9.00901,-4.74906l0.29101,16.76107z" fill="url(#color-4)" stroke="#000000" stroke-width="2" stroke-linecap="butt"/><path d="M224.06422,131.67926v-16.51652l9.00901,-4.74905l0.29101,16.76107z" fill="url(#color-5)" stroke="#000000" stroke-width="2" stroke-linecap="butt"/><path d="M239.8315,124.16595v-16.51652l9.00901,-4.74905l0.29101,16.76107z" fill="url(#color-6)" stroke="#000000" stroke-width="2" stroke-linecap="butt"/><path d="M324.27652,143.86793l0.29101,-16.76107l9.00901,4.74906v16.51652z" data-paper-data="{&quot;index&quot;:null}" fill="url(#color-7)" stroke="#000000" stroke-width="2" stroke-linecap="butt"/><path d="M307.74197,137.22763l0.29101,-16.76107l9.00901,4.74905v16.51652z" data-paper-data="{&quot;index&quot;:null}" fill="url(#color-8)" stroke="#000000" stroke-width="2" stroke-linecap="butt"/><path d="M283.93224,127.38625l0.29101,-16.76107l9.00901,4.74905v16.51652z" data-paper-data="{&quot;index&quot;:null}" fill="url(#color-9)" stroke="#000000" stroke-width="2" stroke-linecap="butt"/><path d="M266.81567,120.74596l0.29101,-16.76107l9.00901,4.74906v16.51652z" data-paper-data="{&quot;index&quot;:null}" fill="url(#color-10)" stroke="#000000" stroke-width="2" stroke-linecap="butt"/><path d="M326.52507,197.62479l0.29101,-16.76107l9.00901,4.74905v16.51652z" data-paper-data="{&quot;index&quot;:null}" fill="url(#color-11)" stroke="#000000" stroke-width="2" stroke-linecap="butt"/><path d="M308.82649,188.65643l0.29101,-16.76107l9.00901,4.74905v16.51652z" data-paper-data="{&quot;index&quot;:null}" fill="url(#color-12)" stroke="#000000" stroke-width="2" stroke-linecap="butt"/><path d="M349.21562,133.02771l0.29101,34.62988" fill="none" stroke="#3247e4" stroke-width="5" stroke-linecap="round"/><path d="M349.79763,151.36117l24.73563,-11.9313" fill="none" stroke="#3247e4" stroke-width="5" stroke-linecap="round"/><path d="M375.45916,119.40323l0.29101,34.62989" fill="none" stroke="#3247e4" stroke-width="5" stroke-linecap="round"/><path d="M226.52466,202.23544v-16.51652l9.00901,-4.74905l0.29101,16.76107z" fill="url(#color-13)" stroke="#000000" stroke-width="2" stroke-linecap="butt"/><path d="M287.00093,196.22262l0.29101,-16.76107l9.00901,4.74905v16.51652z" data-paper-data="{&quot;index&quot;:null}" fill="url(#color-14)" stroke="#000000" stroke-width="2" stroke-linecap="butt"/><path d="M286.7628,172.9949l0.29101,-16.76107l9.00901,4.74905v16.51652z" data-paper-data="{&quot;index&quot;:null}" fill="url(#color-15)" stroke="#000000" stroke-width="2" stroke-linecap="butt"/><path d="M225.41351,179.00773v-16.51652l9.00901,-4.74906l0.29101,16.76107z" fill="url(#color-16)" stroke="#000000" stroke-width="2" stroke-linecap="butt"/></g></g></svg>