<svg version="1.1" xmlns="http://www.w3.org/2000/svg" xmlns:xlink="http://www.w3.org/1999/xlink" width="454.27425" height="328.71325" viewBox="0,0,454.27425,328.71325"><defs><linearGradient x1="423.70321" y1="139.05051" x2="423.70321" y2="278.38442" gradientUnits="userSpaceOnUse" id="color-1"><stop offset="0" stop-color="#ffffff"/><stop offset="1" stop-color="#b3b3b3"/></linearGradient><linearGradient x1="340.77943" y1="142.67438" x2="340.77943" y2="277.53584" gradientUnits="userSpaceOnUse" id="color-2"><stop offset="0" stop-color="#ffffff"/><stop offset="1" stop-color="#b3b3b3"/></linearGradient><linearGradient x1="75.5746" y1="77.4153" x2="75.5746" y2="280.9153" gradientUnits="userSpaceOnUse" id="color-3"><stop offset="0" stop-color="#ffffff"/><stop offset="1" stop-color="#b3b3b3"/></linearGradient><linearGradient x1="199.0746" y1="81.9153" x2="199.0746" y2="280.4153" gradientUnits="userSpaceOnUse" id="color-4"><stop offset="0" stop-color="#ffffff"/><stop offset="1" stop-color="#b3b3b3"/></linearGradient></defs><g transform="translate(-12.40714,-15.64338)"><g data-paper-data="{&quot;isPaintingLayer&quot;:true}" fill-rule="nonzero" stroke="#000000" stroke-width="2" stroke-linecap="butt" stroke-linejoin="miter" stroke-miterlimit="10" stroke-dasharray="" stroke-dashoffset="0" style="mix-blend-mode: normal"><g data-paper-data="{&quot;index&quot;:null}" fill="#bfbfbf"><g><path d="M299.91933,321.89907l-40.83521,-20.25102l40.54149,-21.57772l40.83521,20.25102z" data-paper-data="{&quot;index&quot;:null}"/><path d="M258.66933,301.39908l-40.83521,-20.25102l40.54149,-21.57772l40.83521,20.25102z" data-paper-data="{&quot;index&quot;:null}"/><path d="M218.00266,281.06575l-40.83521,-20.25102l40.54149,-21.57772l40.83521,20.25102z" data-paper-data="{&quot;index&quot;:null}"/></g><g><path d="M340.91933,299.89908l-40.83521,-20.25102l40.54149,-21.57772l40.83521,20.25102z" data-paper-data="{&quot;index&quot;:null}"/><path d="M299.66933,279.39908l-40.83521,-20.25102l40.54149,-21.57772l40.83521,20.25102z" data-paper-data="{&quot;index&quot;:null}"/><path d="M259.00266,259.06575l-40.83521,-20.25102l40.54149,-21.57772l40.83521,20.25102z" data-paper-data="{&quot;index&quot;:null}"/></g><g><path d="M259.25266,343.2324l-40.83521,-20.25102l40.54149,-21.57772l40.83521,20.25102z" data-paper-data="{&quot;index&quot;:null}"/><path d="M218.00266,322.7324l-40.83521,-20.25102l40.54149,-21.57772l40.83521,20.25102z" data-paper-data="{&quot;index&quot;:null}"/><path d="M177.33599,302.39908l-40.83521,-20.25102l40.54149,-21.57772l40.83521,20.25102z" data-paper-data="{&quot;index&quot;:null}"/></g></g><g data-paper-data="{&quot;index&quot;:null}"><g fill="none"><g><path d="M423.85227,255.69811l-40.83521,-20.25102l40.54149,-21.57772l40.83521,20.25102z" data-paper-data="{&quot;index&quot;:null}"/><path d="M382.60227,235.19811l-40.83521,-20.25102l40.54149,-21.57772l40.83521,20.25102z" data-paper-data="{&quot;index&quot;:null}"/></g><g><path d="M382.18561,277.69811l-40.83521,-20.25102l40.54149,-21.57772l40.83521,20.25102z" data-paper-data="{&quot;index&quot;:null}"/><path d="M340.93561,257.19811l-40.83521,-20.25102l40.54149,-21.57772l40.83521,20.25102z" data-paper-data="{&quot;index&quot;:null}"/></g></g><g fill="#e4e4e4"><g><path d="M423.66875,160.58412l-40.83521,-20.25102l40.54149,-21.57772l40.83521,20.25102z" data-paper-data="{&quot;index&quot;:null}"/><path d="M382.41875,140.08412l-40.83521,-20.25102l40.54149,-21.57772l40.83521,20.25102z" data-paper-data="{&quot;index&quot;:null}"/></g><g><path d="M382.00209,182.58413l-40.83521,-20.25102l40.54149,-21.57772l40.83521,20.25102z" data-paper-data="{&quot;index&quot;:null}"/><path d="M340.75209,162.08412l-40.83521,-20.25102l40.54149,-21.57772l40.83521,20.25102z" data-paper-data="{&quot;index&quot;:null}"/></g></g><path d="M381.73102,278.38442v-95.64155l83.94438,-43.69236l-0.34403,94.95348z" fill="url(#color-1)"/><path d="M300.01136,235.90768l-0.34403,-93.2333l82.22421,40.94009l-0.68807,93.92137z" data-paper-data="{&quot;index&quot;:null}" fill="url(#color-2)"/></g><path d="M305.47564,178.89436v-18.04202l65.01349,30.48479v18.04202z" data-paper-data="{&quot;index&quot;:null}" fill="#00acf3"/><path d="M394.10751,209.71312v-18.04202l65.01348,-30.48479v18.04202z" data-paper-data="{&quot;index&quot;:null}" fill="#00acf3"/><path d="M328.88299,250.41675l0.16661,-24.56788l24.42343,12.43948l0.05954,24.93448z" data-paper-data="{&quot;index&quot;:null}" fill="#b3b3b3"/><path d="M302.73328,224.08007v-17.13897l20.76405,9.26313l-0.45153,17.5905z" data-paper-data="{&quot;index&quot;:null}" fill="#00acf3"/><path d="M394.07427,253.99578v-18.04202l65.01349,-30.48479v18.04202z" data-paper-data="{&quot;index&quot;:null}" fill="#00acf3"/><g><g fill="none"><g><path d="M55.59458,238.35195l40.83521,-20.25102l40.54149,21.57772l-40.83521,20.25102z" data-paper-data="{&quot;index&quot;:null}"/><path d="M96.84458,217.85195l40.83521,-20.25102l40.54149,21.57772l-40.83521,20.25102z" data-paper-data="{&quot;index&quot;:null}"/><path d="M137.51125,197.51862l40.83521,-20.25102l40.54149,21.57772l-40.83521,20.25102z" data-paper-data="{&quot;index&quot;:null}"/></g><g><path d="M14.59458,216.35195l40.83521,-20.25102l40.54149,21.57772l-40.83521,20.25102z" data-paper-data="{&quot;index&quot;:null}"/><path d="M55.84458,195.85195l40.83521,-20.25102l40.54149,21.57772l-40.83521,20.25102z" data-paper-data="{&quot;index&quot;:null}"/><path d="M96.51125,175.51862l40.83521,-20.25102l40.54149,21.57772l-40.83521,20.25102z" data-paper-data="{&quot;index&quot;:null}"/></g><g><path d="M96.26125,259.68528l40.83521,-20.25102l40.54149,21.57772l-40.83521,20.25102z" data-paper-data="{&quot;index&quot;:null}"/><path d="M137.51125,239.18528l40.83521,-20.25102l40.54149,21.57772l-40.83521,20.25102z" data-paper-data="{&quot;index&quot;:null}"/><path d="M178.17792,218.85195l40.83521,-20.25102l40.54149,21.57772l-40.83521,20.25102z" data-paper-data="{&quot;index&quot;:null}"/></g></g><g fill="#e4e4e4"><g><path d="M56.09457,99.85195l40.83521,-20.25102l40.54149,21.57772l-40.83521,20.25102z" data-paper-data="{&quot;index&quot;:null}"/><path d="M97.34458,79.35195l40.83521,-20.25102l40.54149,21.57772l-40.83521,20.25102z" data-paper-data="{&quot;index&quot;:null}"/><path d="M138.01125,59.01862l40.83521,-20.25102l40.54149,21.57772l-40.83521,20.25102z" data-paper-data="{&quot;index&quot;:null}"/></g><g><path d="M15.09458,77.85195l40.83521,-20.25102l40.54149,21.57772l-40.83521,20.25102z" data-paper-data="{&quot;index&quot;:null}"/><path d="M56.34457,57.35195l40.83521,-20.25102l40.54149,21.57772l-40.83521,20.25102z" data-paper-data="{&quot;index&quot;:null}"/><path d="M97.01125,37.01862l40.83521,-20.25102l40.54149,21.57772l-40.83521,20.25102z" data-paper-data="{&quot;index&quot;:null}"/></g><g><path d="M96.76125,121.18528l40.83521,-20.25102l40.54149,21.57772l-40.83521,20.25102z" data-paper-data="{&quot;index&quot;:null}"/><path d="M138.01125,100.68528l40.83521,-20.25102l40.54149,21.57772l-40.83521,20.25102z" data-paper-data="{&quot;index&quot;:null}"/><path d="M178.67792,80.35195l40.83521,-20.25102l40.54149,21.57772l-40.83521,20.25102z" data-paper-data="{&quot;index&quot;:null}"/></g></g><path d="M14.8246,217.4153l-0.5,-140l122.5,66v137.5z" fill="url(#color-3)"/><path d="M137.8246,280.4153v-137.5l122.5,-61v138z" data-paper-data="{&quot;index&quot;:null}" fill="url(#color-4)"/></g><path d="M41.2773,133.67693v-18.04202l65.01349,30.48479v18.04202z" data-paper-data="{&quot;index&quot;:null}" fill="#00acf3"/><path d="M38.86817,181.48523v-18.04202l65.01349,30.48479v18.04202z" data-paper-data="{&quot;index&quot;:null}" fill="#00acf3"/><path d="M36.45904,220.23793v-18.04202l65.01349,30.48479v18.04202z" data-paper-data="{&quot;index&quot;:null}" fill="#00acf3"/><path d="M171.07099,167.78864v-18.04202l65.01348,-30.48479v18.04202z" data-paper-data="{&quot;index&quot;:null}" fill="#00acf3"/><path d="M169.4851,212.30399v-18.04202l65.01348,-30.48479v18.04202z" data-paper-data="{&quot;index&quot;:null}" fill="#00acf3"/><path d="M170.70431,248.67357l-0.45153,-17.5905l20.76405,-9.26313v17.13897z" data-paper-data="{&quot;index&quot;:null}" fill="#00acf3"/><path d="M205.89452,247.08768l-1.00522,-39.16098l46.22612,-20.62211v38.15576z" data-paper-data="{&quot;index&quot;:null}" fill="#b3b3b3"/></g></g></svg>