<svg version="1.1" xmlns="http://www.w3.org/2000/svg" xmlns:xlink="http://www.w3.org/1999/xlink" width="168.18282" height="121.79923" viewBox="0,0,168.18282,121.79923"><g transform="translate(-135.50149,-91.22994)"><g data-paper-data="{&quot;isPaintingLayer&quot;:true}" fill-rule="nonzero" stroke-linejoin="miter" stroke-miterlimit="10" stroke-dasharray="" stroke-dashoffset="0" style="mix-blend-mode: normal"><g fill="none" stroke="#000000" stroke-width="2" stroke-linecap="butt"><path d="M178.68666,189.58665l40.83521,-20.25102l40.54149,21.57772l-40.83521,20.25102z" data-paper-data="{&quot;index&quot;:null}"/><path d="M219.93666,169.08665l40.83521,-20.25102l40.54149,21.57772l-40.83521,20.25102z" data-paper-data="{&quot;index&quot;:null}"/></g><g fill="#00acff" stroke="#000000" stroke-width="2" stroke-linecap="butt"><path d="M178.87017,135.75679l44.53892,-43.05809l36.83778,44.38479l-40.83521,20.25102z" data-paper-data="{&quot;index&quot;:null}"/><path d="M224.60361,93.81424l36.35177,1.19153l40.54149,21.57772l-40.83521,20.25102c0,0 -7.55663,-8.70391 -9.43494,-10.94489c-5.48723,-6.54673 -26.62311,-32.07538 -26.62311,-32.07538z" data-paper-data="{&quot;index&quot;:null}"/></g><path d="M177.55777,189.52964v-53.66935l41.97219,22.0182v53.32532z" fill="#fdff00" stroke="#000000" stroke-width="2" stroke-linecap="butt"/><path d="M219.71348,211.38732v-53.32532l41.97218,-22.0182v53.66936z" data-paper-data="{&quot;index&quot;:null}" fill="#fdff00" stroke="#000000" stroke-width="2" stroke-linecap="butt"/><path d="M261.52515,190.24072v-51.86435l40.94008,-21.41496v52.19896z" data-paper-data="{&quot;index&quot;:null}" fill="#fdff00" stroke="#000000" stroke-width="2" stroke-linecap="butt"/><path d="M282.48039,179.53655v-18.47331l9.80949,-5.30842l0.32698,17.8363z" fill="#00acff" stroke="none" stroke-width="0" stroke-linecap="butt"/><path d="M237.96761,200.71592v-19.23041l11.69594,-5.52598l0.38986,18.56729z" fill="#00acff" stroke="#000000" stroke-width="0" stroke-linecap="butt"/><path d="M135.50149,110.33561l2.92399,4.28851" fill="none" stroke="none" stroke-width="0" stroke-linecap="round"/><path d="M301.19389,117.35316l-42.21872,-4.17288l43.69661,4.05726" fill="none" stroke="#000000" stroke-width="2" stroke-linecap="round"/><path d="M260.07992,93.9266l-36.68072,-1.25336" fill="none" stroke="#000000" stroke-width="2" stroke-linecap="round"/><path d="M223.52229,94.85095c2.03433,-1.4531 3.48743,0.58124 3.48743,0.58124l1.04948,1.47543c0.22753,0.47795 0.2267,1.16483 0.68258,1.43386c0.78059,0.46066 1.91685,0.02937 2.66468,0.5415c1.82436,1.24936 2.21998,3.22995 3.51126,4.82007c0.80111,0.98651 1.64854,1.94581 2.41478,2.96007c1.84113,-0.33076 2.62118,1.54135 2.62118,1.54135c0.45813,1.10681 1.17322,3.09028 1.97066,4.06205c1.12587,1.37201 2.86722,2.1646 3.94846,3.57206c0.7793,1.01442 1.45638,2.29688 2.63784,2.7873l1.38197,2.431c0,0 0,2.5 -2.5,2.5c-0.98431,0 -1.58108,-0.38755 -1.94288,-0.85747c-0.77274,-0.34332 -1.56476,-0.66043 -2.16407,-1.23929c-0.70534,-0.68127 -0.79977,-1.80986 -1.3908,-2.59237c-1.03781,-1.37403 -2.77164,-2.10213 -3.84883,-3.44551c-0.83844,-1.04562 -1.39148,-2.15562 -1.88822,-3.3133c-1.30407,-0.03904 -2.03578,-1.29339 -2.03578,-1.29339c-0.83568,-1.46151 -2.04711,-2.6738 -3.10451,-3.98387c-0.92627,-1.14761 -1.05596,-3.02573 -2.33671,-3.75695c-0.82882,-0.4732 -2.01876,-0.07065 -2.79343,-0.62809c-0.95033,-0.68385 -1.36432,-1.9031 -2.04647,-2.85465l-0.89984,-1.25362c0,0 -1.4531,-2.03433 0.58124,-3.48743z" fill="#00acff" stroke="none" stroke-width="0.5" stroke-linecap="butt"/><path d="M260.10681,132.3397c0.48748,0.35855 0.89692,0.96084 0.89692,1.97256c0,2.5 -2.5,2.5 -2.5,2.5l-2.50262,-1.53846c-1.03345,-2.87751 -4.41936,-5.27889 -6.44983,-7.76053c0,0 -1.58309,-1.93489 0.3518,-3.51799c1.93489,-1.58309 3.51799,0.3518 3.51799,0.3518c2.28673,2.79495 4.98824,4.95055 6.68575,7.99262z" fill="#00acff" stroke="none" stroke-width="0.5" stroke-linecap="butt"/><path d="M249.73178,123.591l-0.19493,1.36453" fill="none" stroke="#000000" stroke-width="2" stroke-linecap="round"/><path d="M257.52907,114.42918l-38.40165,43.08002" fill="none" stroke="#000000" stroke-width="2" stroke-linecap="round"/><path d="M178.19164,134.70214l40.74084,-38.01179l4.09358,-3.31385l35.03492,19.79298l-3.71677,4.23685l-33.99433,39.50806l37.76398,-42.87507l-34.11314,-20.07802l30.60436,17.5439" fill="none" stroke="#000000" stroke-width="2" stroke-linecap="round"/><path d="M248.75712,140.16024l-2.33919,-10.13648l32.16382,-14.23005l2.53412,7.99222z" fill="#f3ff00" stroke="#000000" stroke-width="2" stroke-linecap="butt"/><text transform="translate(250.2955,136.43923) rotate(-27.33739) scale(0.16692,0.1553) skewX(4.15646)" font-size="40" xml:space="preserve" fill="#00acff" fill-rule="nonzero" stroke="none" stroke-width="1" stroke-linecap="butt" stroke-linejoin="miter" stroke-miterlimit="10" stroke-dasharray="" stroke-dashoffset="0" font-family="Serif" font-weight="normal" text-anchor="start" style="mix-blend-mode: normal"><tspan x="0" dy="0">LA POSTE </tspan></text><path d="M246.70344,186.16424c0,-0.27614 0.22386,-0.5 0.5,-0.5c0.27614,0 0.5,0.22386 0.5,0.5c0,0.27614 -0.22386,0.5 -0.5,0.5c-0.27614,0 -0.5,-0.22386 -0.5,-0.5z" fill="#fdff00" stroke="none" stroke-width="0.5" stroke-linecap="butt"/><path d="M289.78346,165.50143c0,-0.27614 0.22386,-0.5 0.5,-0.5c0.27614,0 0.5,0.22386 0.5,0.5c0,0.27614 -0.22386,0.5 -0.5,0.5c-0.27614,0 -0.5,-0.22386 -0.5,-0.5z" fill="#fdff00" stroke="none" stroke-width="0.5" stroke-linecap="butt"/><path d="M200.01646,179.34754l0.25669,-18.58869l13.39031,6.2965l-0.23168,19.36801z" fill="#6cb5ff" stroke="#00acff" stroke-width="1" stroke-linecap="butt"/><path d="M222.71351,206.68721l-0.23168,-19.36801l13.39031,-6.2965l0.25669,18.58869z" data-paper-data="{&quot;index&quot;:null}" fill="#6cb5ff" stroke="#00acff" stroke-width="1" stroke-linecap="butt"/><path d="M265.87314,184.68194l-0.23168,-19.36801l13.39031,-6.2965l0.25669,18.58869z" data-paper-data="{&quot;index&quot;:null}" fill="#6cb5ff" stroke="#00acff" stroke-width="1" stroke-linecap="butt"/><path d="M222.58653,183.51769l-0.23168,-19.36801l13.39031,-6.2965l0.25669,18.58869z" data-paper-data="{&quot;index&quot;:null}" fill="#6cb5ff" stroke="#00acff" stroke-width="1" stroke-linecap="butt"/><path d="M265.30586,161.80594l-0.23168,-19.36801l13.39031,-6.2965l0.25669,18.58869z" data-paper-data="{&quot;index&quot;:null}" fill="#6cb5ff" stroke="#00acff" stroke-width="1" stroke-linecap="butt"/></g></g></svg>