<svg version="1.1" xmlns="http://www.w3.org/2000/svg" xmlns:xlink="http://www.w3.org/1999/xlink" width="332.36805" height="260.73246" viewBox="0,0,332.36805,260.73246"><g transform="translate(-73.22525,-49.63377)"><g data-paper-data="{&quot;isPaintingLayer&quot;:true}" fill-rule="nonzero" stroke-linejoin="miter" stroke-miterlimit="10" stroke-dasharray="" stroke-dashoffset="0" style="mix-blend-mode: normal"><g data-paper-data="{&quot;index&quot;:null}" fill="none" stroke="#000000" stroke-width="2" stroke-linecap="butt"><path d="M156.95857,203.92237l-38.34974,-19.01842l38.0739,-20.26437l38.34974,19.01843z" data-paper-data="{&quot;index&quot;:null}"/><path d="M118.21928,184.67013l-38.34974,-19.01843l38.0739,-20.26438l38.34974,19.01843z" data-paper-data="{&quot;index&quot;:null}"/></g><g data-paper-data="{&quot;index&quot;:null}" fill="#f6ffae" stroke="#000000" stroke-width="2" stroke-linecap="butt"><path d="M156.78623,153.36891l-38.34974,-19.01843l38.0739,-20.26438l38.34974,19.01843z" data-paper-data="{&quot;index&quot;:null}"/><path d="M118.04694,134.11665l-38.34974,-19.01843l38.0739,-20.26438l38.34975,19.01843z" data-paper-data="{&quot;index&quot;:null}"/></g><path d="M156.67513,203.95942v-50.07964l39.41752,-20.67804v50.40273z" data-paper-data="{&quot;index&quot;:null}" fill="#e4e4e4" stroke="#000000" stroke-width="2" stroke-linecap="butt"/><path d="M117.08527,183.77681v-50.40273l39.41751,20.67804v50.07963z" data-paper-data="{&quot;index&quot;:null}" fill="#e4e4e4" stroke="#000000" stroke-width="2" stroke-linecap="butt"/><path d="M79.40991,165.71926l0.31107,-49.64397l38.44823,20.11153v48.70758z" data-paper-data="{&quot;index&quot;:null}" fill="#e4e4e4" stroke="#000000" stroke-width="2" stroke-linecap="butt"/><path d="M119.21567,133.91785v-49.02183l38.44823,20.11152v48.70759z" data-paper-data="{&quot;index&quot;:null}" fill="#f6ffae" stroke="#000000" stroke-width="2" stroke-linecap="butt"/><path d="M119.25748,139.30189l-38.34974,-19.01842l38.0739,-20.26437l38.34974,19.01843z" data-paper-data="{&quot;index&quot;:null}" fill="none" stroke="#000000" stroke-width="2" stroke-linecap="butt"/><path d="M119.08513,90.04078l-38.34974,-19.01842l38.0739,-20.26437l38.34974,19.01842z" data-paper-data="{&quot;index&quot;:null}" fill="#e4e4e4" stroke="#000000" stroke-width="2" stroke-linecap="butt"/><path d="M119.60421,139.19033v-48.78725l38.12514,-20.03186l-0.32309,48.46416z" data-paper-data="{&quot;index&quot;:null}" fill="#f6ffae" stroke="#000000" stroke-width="2" stroke-linecap="butt"/><path d="M80.33741,119.97702l0.00001,-49.43345l38.12514,20.03186v48.78725z" data-paper-data="{&quot;index&quot;:null}" fill="#e4e4e4" stroke="#000000" stroke-width="2" stroke-linecap="butt"/><path d="M157.3305,157.63335l-38.34975,-19.01842l38.0739,-20.26437l38.34974,19.01842z" data-paper-data="{&quot;index&quot;:null}" fill="none" stroke="#000000" stroke-width="2" stroke-linecap="butt"/><path d="M157.15816,108.37225l-38.34975,-19.01843l38.0739,-20.26438l38.34974,19.01843z" data-paper-data="{&quot;index&quot;:null}" fill="#e4e4e4" stroke="#e4e4e4" stroke-width="2" stroke-linecap="butt"/><path d="M157.67722,157.52179v-48.78725l36.88086,-19.09865l0.92118,47.53095z" data-paper-data="{&quot;index&quot;:null}" fill="#f6ffae" stroke="#000000" stroke-width="2" stroke-linecap="butt"/><path d="M118.41042,138.30845l0.00001,-49.43344l38.12514,20.03186v48.78725z" data-paper-data="{&quot;index&quot;:null}" fill="#e4e4e4" stroke="#000000" stroke-width="2" stroke-linecap="butt"/><path d="M121.23473,89.34311l33.22054,-20.52954l39.96001,20.05264" data-paper-data="{&quot;index&quot;:null}" fill="none" stroke="#000000" stroke-width="2" stroke-linecap="round"/><path d="M196.34828,177.84022l-38.34974,-19.01843l38.0739,-20.26437l38.34974,19.01842z" data-paper-data="{&quot;index&quot;:null}" fill="none" stroke="#000000" stroke-width="2" stroke-linecap="butt"/><path d="M196.17592,128.57913l-113.08564,-57.09143l35.73058,-20.55485l115.42897,57.38191z" data-paper-data="{&quot;index&quot;:null}" fill="#e4e4e4" stroke="#000000" stroke-width="2" stroke-linecap="butt"/><path d="M196.695,177.72866v-48.78725l38.12514,-20.03185l-0.32309,48.46416z" data-paper-data="{&quot;index&quot;:null}" fill="#e4e4e4" stroke="#000000" stroke-width="2" stroke-linecap="butt"/><g data-paper-data="{&quot;index&quot;:null}" fill="#bfbfbf" stroke="#000000" stroke-width="2" stroke-linecap="butt"><g><path d="M238.83124,287.90867l-40.83521,-20.25102l40.54149,-21.57772l40.83521,20.25102z" data-paper-data="{&quot;index&quot;:null}"/><path d="M197.58124,267.40868l-40.83521,-20.25102l40.54149,-21.57772l40.83521,20.25102z" data-paper-data="{&quot;index&quot;:null}"/><path d="M156.91457,247.07535l-40.83521,-20.25102l40.54149,-21.57772l40.83521,20.25102z" data-paper-data="{&quot;index&quot;:null}"/></g><g><path d="M279.83124,265.90868l-40.83521,-20.25102l40.54149,-21.57772l40.83521,20.25102z" data-paper-data="{&quot;index&quot;:null}"/><path d="M238.58124,245.40868l-40.83521,-20.25102l40.54149,-21.57772l40.83521,20.25102z" data-paper-data="{&quot;index&quot;:null}"/><path d="M197.91457,225.07535l-40.83521,-20.25102l40.54149,-21.57772l40.83521,20.25102z" data-paper-data="{&quot;index&quot;:null}"/></g><g><path d="M198.16457,309.242l-40.83521,-20.25102l40.54149,-21.57772l40.83521,20.25102z" data-paper-data="{&quot;index&quot;:null}"/><path d="M156.91457,288.742l-40.83521,-20.25102l40.54149,-21.57772l40.83521,20.25102z" data-paper-data="{&quot;index&quot;:null}"/><path d="M116.2479,268.40868l-40.83521,-20.25102l40.54149,-21.57772l40.83521,20.25102z" data-paper-data="{&quot;index&quot;:null}"/></g></g><path d="M157.42821,158.51535l0.00001,-49.43344l38.12514,20.03186v48.78725z" data-paper-data="{&quot;index&quot;:null}" fill="#e4e4e4" stroke="#000000" stroke-width="2" stroke-linecap="butt"/><path d="M214.30209,220.48348v-50.76401l11.59196,-6.28319l-0.31107,51.40675z" data-paper-data="{&quot;index&quot;:null}" fill="#e4e4e4" stroke="#000000" stroke-width="2" stroke-linecap="butt"/><path d="M201.15956,214.78747l1.86163,-40.83769l11.28089,-4.23033l-1.41011,50.76402z" data-paper-data="{&quot;index&quot;:null}" fill="#e4e4e4" stroke="#000000" stroke-width="2" stroke-linecap="butt"/><path d="M95.79717,173.04675l0.16661,-24.56787l24.42343,12.43947l0.05954,24.93448z" data-paper-data="{&quot;index&quot;:null}" fill="#b3b3b3" stroke="#000000" stroke-width="2" stroke-linecap="butt"/><g data-paper-data="{&quot;index&quot;:null}" stroke="#000000" stroke-width="2" stroke-linecap="butt"><g fill="none"><g><path d="M362.76418,221.70771l-40.83521,-20.25102l40.54149,-21.57772l40.83521,20.25102z" data-paper-data="{&quot;index&quot;:null}"/><path d="M321.51418,201.20771l-40.83521,-20.25102l40.54149,-21.57772l40.83521,20.25102z" data-paper-data="{&quot;index&quot;:null}"/></g><g><path d="M321.09752,243.70771l-40.83521,-20.25102l40.54149,-21.57772l40.83521,20.25102z" data-paper-data="{&quot;index&quot;:null}"/><path d="M279.84752,223.20771l-40.83521,-20.25102l40.54149,-21.57772l40.83521,20.25102z" data-paper-data="{&quot;index&quot;:null}"/></g></g><g fill="#e4e4e4"><g><path d="M362.58066,126.59372l-40.83521,-20.25102l40.54149,-21.57772l40.83521,20.25102z" data-paper-data="{&quot;index&quot;:null}"/><path d="M321.33066,106.09372l-40.83521,-20.25102l40.54149,-21.57772l40.83521,20.25102z" data-paper-data="{&quot;index&quot;:null}"/></g><g><path d="M320.914,148.59373l-40.83521,-20.25102l40.54149,-21.57772l40.83521,20.25102z" data-paper-data="{&quot;index&quot;:null}"/><path d="M279.664,128.09372l-40.83521,-20.25102l40.54149,-21.57772l40.83521,20.25102z" data-paper-data="{&quot;index&quot;:null}"/></g></g><path d="M320.64293,244.39402v-95.64155l83.94438,-43.69236l-0.34403,94.95348z" fill="#e4e4e4"/><path d="M238.92327,201.91728l-0.34403,-93.2333l82.22421,40.94009l-0.68807,93.92137z" data-paper-data="{&quot;index&quot;:null}" fill="#e4e4e4"/></g><path d="M244.38755,144.90396v-18.04202l65.01349,30.48479v18.04202z" data-paper-data="{&quot;index&quot;:null}" fill="#00acf3" stroke="#000000" stroke-width="2" stroke-linecap="butt"/><path d="M122.73656,122.84093v-18.04202l65.01349,30.48479v18.04202z" data-paper-data="{&quot;index&quot;:null}" fill="#00acf3" stroke="#000000" stroke-width="2" stroke-linecap="butt"/><path d="M333.01942,175.72272v-18.04202l65.01348,-30.48479v18.04202z" data-paper-data="{&quot;index&quot;:null}" fill="#00acf3" stroke="#000000" stroke-width="2" stroke-linecap="butt"/><path d="M267.7949,216.42635l0.16661,-24.56788l24.42343,12.43948l0.05954,24.93448z" data-paper-data="{&quot;index&quot;:null}" fill="#b3b3b3" stroke="#000000" stroke-width="2" stroke-linecap="butt"/><path d="M241.64519,190.08967v-17.13897l20.76405,9.26313l-0.45153,17.5905z" data-paper-data="{&quot;index&quot;:null}" fill="#00acf3" stroke="#000000" stroke-width="2" stroke-linecap="butt"/><path d="M127.37618,169.80429v-17.13898l20.76405,9.26313l-0.45152,17.5905z" data-paper-data="{&quot;index&quot;:null}" fill="#00acf3" stroke="#000000" stroke-width="2" stroke-linecap="butt"/><path d="M88.96334,106.62403v-17.13898l20.76405,9.26313l-0.45152,17.5905z" data-paper-data="{&quot;index&quot;:null}" fill="#00acf3" stroke="#000000" stroke-width="2" stroke-linecap="butt"/><path d="M332.98618,220.00538v-18.04202l65.01349,-30.48479v18.04202z" data-paper-data="{&quot;index&quot;:null}" fill="#00acf3" stroke="#000000" stroke-width="2" stroke-linecap="butt"/><text transform="translate(178.29317,243.26808) scale(0.22273,0.22273)" font-size="40" xml:space="preserve" data-paper-data="{&quot;index&quot;:null}" fill="#ffffff" fill-rule="nonzero" stroke="none" stroke-width="1" stroke-linecap="butt" stroke-linejoin="miter" stroke-miterlimit="10" stroke-dasharray="" stroke-dashoffset="0" font-family="Sans Serif" font-weight="normal" text-anchor="start" style="mix-blend-mode: normal"><tspan x="0" dy="0">Lycée</tspan><tspan x="0" dy="46.150000000000006px">Jean Villar</tspan></text></g></g></svg>