<svg version="1.1" xmlns="http://www.w3.org/2000/svg" xmlns:xlink="http://www.w3.org/1999/xlink" width="85.75158" height="107.86" viewBox="0,0,85.75158,107.86"><g transform="translate(-197.12421,-94.74941)"><g data-paper-data="{&quot;isPaintingLayer&quot;:true}" fill-rule="nonzero" stroke-width="2" stroke-linejoin="miter" stroke-miterlimit="10" stroke-dasharray="" stroke-dashoffset="0" style="mix-blend-mode: normal"><path d="M199.31165,179.33665l40.83521,-20.25102l40.54149,21.57772l-40.83521,20.25102z" data-paper-data="{&quot;index&quot;:null}" fill="none" stroke="#000000" stroke-linecap="butt"/><path d="M199.49517,126.88291l41.43006,-28.82881l39.94664,30.15551l-40.83521,20.25102z" data-paper-data="{&quot;index&quot;:null}" fill="#7c4600" stroke="#7c4600" stroke-linecap="butt"/><path d="M199.23193,179.12141l-0.34403,-51.60515l40.59605,21.33013v51.94918z" fill="#fff8a7" stroke="#000000" stroke-linecap="butt"/><path d="M240.69958,200.97909v-51.94918l40.59605,-21.33013l0.00001,52.63725z" data-paper-data="{&quot;index&quot;:null}" fill="#fff8a7" stroke="#000000" stroke-linecap="butt"/><path d="M203.14298,175.44297v-14.42499l12.28073,5.84797l0.19493,14.81485z" fill="#d6ffff" stroke="#000000" stroke-linecap="butt"/><path d="M221.1352,183.88351v-14.87577l12.6645,6.03071l0.20102,15.27782z" fill="#d6ffff" stroke="#000000" stroke-linecap="butt"/><path d="M221.84669,162.56767v-14.87578l12.6645,6.03071l0.20102,15.27782z" fill="#d6ffff" stroke="#000000" stroke-linecap="butt"/><path d="M204.42949,153.72748v-14.42499l12.28073,5.84797l0.19493,14.81485z" fill="#d6ffff" stroke="#000000" stroke-linecap="butt"/><path d="M247.6362,170.03355l-0.5848,-14.61992c0,0 1.15284,-0.65108 2.00529,-1.05701c2.05005,-0.97621 9.69065,-4.40109 9.69065,-4.40109l0.38986,14.42499z" data-paper-data="{&quot;index&quot;:null}" fill="#d6ffff" stroke="#000000" stroke-linecap="butt"/><path d="M266.25496,161.19336l-0.5564,-13.91022c0,0 1.09688,-0.61947 1.90794,-1.00569c1.95054,-0.92882 9.22023,-4.18745 9.22023,-4.18745l0.37094,13.72475z" data-paper-data="{&quot;index&quot;:null}" fill="#d6ffff" stroke="#000000" stroke-linecap="butt"/><path d="M258.8936,190.64768c0,0 0,-2.98688 0,-3.31385c0,-1.6998 0,-15.8048 0,-15.8048l12.0858,-5.65303v19.11864z" fill="#7c4600" stroke="#000000" stroke-linecap="butt"/><path d="M239.98517,148.93219l0.38986,-52.19815l-41.1307,30.17081" fill="none" stroke="#000000" stroke-linecap="round"/><path d="M241.06605,96.25046l39.85489,31.04425" fill="none" stroke="#000000" stroke-linecap="round"/></g></g></svg>