<svg version="1.1" xmlns="http://www.w3.org/2000/svg" xmlns:xlink="http://www.w3.org/1999/xlink" width="117.95158" height="60.62843" viewBox="0,0,117.95158,60.62843"><g transform="translate(-133.77421,-134.18578)"><g data-paper-data="{&quot;isPaintingLayer&quot;:true}" fill-rule="nonzero" stroke="#000000" stroke-linecap="butt" stroke-linejoin="miter" stroke-miterlimit="10" stroke-dasharray="" stroke-dashoffset="0" style="mix-blend-mode: normal"><path d="M135.96165,163.57417l56.99332,-28.26416l56.58338,30.11582l-56.99332,28.26416z" data-paper-data="{&quot;index&quot;:null}" fill="#00e069" stroke-width="2"/><g fill="#9a9a9a" stroke-width="0.5"><path d="M186.50283,143.93493l2.91715,-1.44668l2.89617,1.54145l-2.91715,1.44668z" data-paper-data="{&quot;index&quot;:null}"/><path d="M189.44961,142.47046l2.91715,-1.44668l2.89617,1.54145l-2.91715,1.44668z" data-paper-data="{&quot;index&quot;:null}"/><path d="M192.35472,141.01791l2.91715,-1.44668l2.89617,1.54145l-2.91715,1.44668z" data-paper-data="{&quot;index&quot;:null}"/></g><g fill="#9a9a9a" stroke-width="0.5"><path d="M183.57391,142.36332l2.91715,-1.44668l2.89617,1.54145l-2.91715,1.44668z" data-paper-data="{&quot;index&quot;:null}"/><path d="M186.52069,140.89885l2.91715,-1.44668l2.89617,1.54145l-2.91715,1.44668z" data-paper-data="{&quot;index&quot;:null}"/><path d="M189.4258,139.4463l2.91715,-1.44668l2.89617,1.54145l-2.91715,1.44668z" data-paper-data="{&quot;index&quot;:null}"/></g><g fill="#9a9a9a" stroke-width="0.5"><path d="M189.40794,145.45891l2.91715,-1.44668l2.89617,1.54145l-2.91715,1.44668z" data-paper-data="{&quot;index&quot;:null}"/><path d="M192.35472,143.99445l2.91715,-1.44668l2.89617,1.54145l-2.91715,1.44668z" data-paper-data="{&quot;index&quot;:null}"/><path d="M195.25983,142.54191l2.91715,-1.44668l2.89617,1.54145l-2.91715,1.44668z" data-paper-data="{&quot;index&quot;:null}"/></g><path d="M189.41687,142.45261l2.91715,-1.44668l2.89617,1.54145l-2.91715,1.44668z" data-paper-data="{&quot;index&quot;:null}" fill="#9a9a9a" stroke-width="0.5"/><g fill="#9a9a9a" stroke-width="0.5"><path d="M176.25283,149.18493l2.91715,-1.44668l2.89617,1.54145l-2.91715,1.44668z" data-paper-data="{&quot;index&quot;:null}"/><path d="M179.19961,147.72046l2.91715,-1.44668l2.89617,1.54145l-2.91715,1.44668z" data-paper-data="{&quot;index&quot;:null}"/><path d="M182.10472,146.26791l2.91715,-1.44668l2.89617,1.54145l-2.91715,1.44668z" data-paper-data="{&quot;index&quot;:null}"/></g><g fill="#9a9a9a" stroke-width="0.5"><path d="M173.32391,147.61332l2.91715,-1.44668l2.89617,1.54145l-2.91715,1.44668z" data-paper-data="{&quot;index&quot;:null}"/><path d="M176.27069,146.14885l2.91715,-1.44668l2.89617,1.54145l-2.91715,1.44668z" data-paper-data="{&quot;index&quot;:null}"/><path d="M179.1758,144.6963l2.91715,-1.44668l2.89617,1.54145l-2.91715,1.44668z" data-paper-data="{&quot;index&quot;:null}"/></g><g fill="#9a9a9a" stroke-width="0.5"><path d="M179.15794,150.70891l2.91715,-1.44668l2.89617,1.54145l-2.91715,1.44668z" data-paper-data="{&quot;index&quot;:null}"/><path d="M182.10472,149.24445l2.91715,-1.44668l2.89617,1.54145l-2.91715,1.44668z" data-paper-data="{&quot;index&quot;:null}"/><path d="M185.00983,147.79191l2.91715,-1.44668l2.89617,1.54145l-2.91715,1.44668z" data-paper-data="{&quot;index&quot;:null}"/></g><path d="M179.16687,147.70261l2.91715,-1.44668l2.89617,1.54145l-2.91715,1.44668z" data-paper-data="{&quot;index&quot;:null}" fill="#9a9a9a" stroke-width="0.5"/><g fill="#9a9a9a" stroke-width="0.5"><path d="M165.75283,154.43493l2.91715,-1.44668l2.89617,1.54145l-2.91715,1.44668z" data-paper-data="{&quot;index&quot;:null}"/><path d="M168.69961,152.97046l2.91715,-1.44668l2.89617,1.54145l-2.91715,1.44668z" data-paper-data="{&quot;index&quot;:null}"/><path d="M171.60472,151.51791l2.91715,-1.44668l2.89617,1.54145l-2.91715,1.44668z" data-paper-data="{&quot;index&quot;:null}"/></g><g fill="#9a9a9a" stroke-width="0.5"><path d="M162.82391,152.86332l2.91715,-1.44668l2.89617,1.54145l-2.91715,1.44668z" data-paper-data="{&quot;index&quot;:null}"/><path d="M165.77069,151.39885l2.91715,-1.44668l2.89617,1.54145l-2.91715,1.44668z" data-paper-data="{&quot;index&quot;:null}"/><path d="M168.6758,149.9463l2.91715,-1.44668l2.89617,1.54145l-2.91715,1.44668z" data-paper-data="{&quot;index&quot;:null}"/></g><g fill="#9a9a9a" stroke-width="0.5"><path d="M168.65794,155.95891l2.91715,-1.44668l2.89617,1.54145l-2.91715,1.44668z" data-paper-data="{&quot;index&quot;:null}"/><path d="M171.60472,154.49445l2.91715,-1.44668l2.89617,1.54145l-2.91715,1.44668z" data-paper-data="{&quot;index&quot;:null}"/><path d="M174.50983,153.04191l2.91715,-1.44668l2.89617,1.54145l-2.91715,1.44668z" data-paper-data="{&quot;index&quot;:null}"/></g><path d="M168.66687,152.95261l2.91715,-1.44668l2.89617,1.54145l-2.91715,1.44668z" data-paper-data="{&quot;index&quot;:null}" fill="#9a9a9a" stroke-width="0.5"/><g fill="#9a9a9a" stroke-width="0.5"><path d="M155.25283,159.68493l2.91715,-1.44668l2.89617,1.54145l-2.91715,1.44668z" data-paper-data="{&quot;index&quot;:null}"/><path d="M158.19961,158.22046l2.91715,-1.44668l2.89617,1.54145l-2.91715,1.44668z" data-paper-data="{&quot;index&quot;:null}"/><path d="M161.10472,156.76791l2.91715,-1.44668l2.89617,1.54145l-2.91715,1.44668z" data-paper-data="{&quot;index&quot;:null}"/></g><g fill="#9a9a9a" stroke-width="0.5"><path d="M152.32391,158.11332l2.91715,-1.44668l2.89617,1.54145l-2.91715,1.44668z" data-paper-data="{&quot;index&quot;:null}"/><path d="M155.27069,156.64885l2.91715,-1.44668l2.89617,1.54145l-2.91715,1.44668z" data-paper-data="{&quot;index&quot;:null}"/><path d="M158.1758,155.1963l2.91715,-1.44668l2.89617,1.54145l-2.91715,1.44668z" data-paper-data="{&quot;index&quot;:null}"/></g><g fill="#9a9a9a" stroke-width="0.5"><path d="M158.15794,161.20891l2.91715,-1.44668l2.89617,1.54145l-2.91715,1.44668z" data-paper-data="{&quot;index&quot;:null}"/><path d="M161.10472,159.74445l2.91715,-1.44668l2.89617,1.54145l-2.91715,1.44668z" data-paper-data="{&quot;index&quot;:null}"/><path d="M164.00983,158.29191l2.91715,-1.44668l2.89617,1.54145l-2.91715,1.44668z" data-paper-data="{&quot;index&quot;:null}"/></g><path d="M158.16687,158.20261l2.91715,-1.44668l2.89617,1.54145l-2.91715,1.44668z" data-paper-data="{&quot;index&quot;:null}" fill="#9a9a9a" stroke-width="0.5"/><g fill="#9a9a9a" stroke-width="0.5"><path d="M144.50283,164.93493l2.91715,-1.44668l2.89617,1.54145l-2.91715,1.44668z" data-paper-data="{&quot;index&quot;:null}"/><path d="M147.44961,163.47046l2.91715,-1.44668l2.89617,1.54145l-2.91715,1.44668z" data-paper-data="{&quot;index&quot;:null}"/><path d="M150.35472,162.01791l2.91715,-1.44668l2.89617,1.54145l-2.91715,1.44668z" data-paper-data="{&quot;index&quot;:null}"/></g><g fill="#9a9a9a" stroke-width="0.5"><path d="M141.57391,163.36332l2.91715,-1.44668l2.89617,1.54145l-2.91715,1.44668z" data-paper-data="{&quot;index&quot;:null}"/><path d="M144.52069,161.89885l2.91715,-1.44668l2.89617,1.54145l-2.91715,1.44668z" data-paper-data="{&quot;index&quot;:null}"/><path d="M147.4258,160.4463l2.91715,-1.44668l2.89617,1.54145l-2.91715,1.44668z" data-paper-data="{&quot;index&quot;:null}"/></g><g fill="#9a9a9a" stroke-width="0.5"><path d="M147.40794,166.45891l2.91715,-1.44668l2.89617,1.54145l-2.91715,1.44668z" data-paper-data="{&quot;index&quot;:null}"/><path d="M150.35472,164.99445l2.91715,-1.44668l2.89617,1.54145l-2.91715,1.44668z" data-paper-data="{&quot;index&quot;:null}"/><path d="M153.25983,163.54191l2.91715,-1.44668l2.89617,1.54145l-2.91715,1.44668z" data-paper-data="{&quot;index&quot;:null}"/></g><path d="M147.41687,163.45261l2.91715,-1.44668l2.89617,1.54145l-2.91715,1.44668z" data-paper-data="{&quot;index&quot;:null}" fill="#9a9a9a" stroke-width="0.5"/><g fill="#9a9a9a" stroke-width="0.5"><path d="M197.00283,149.93493l2.91715,-1.44668l2.89617,1.54145l-2.91715,1.44668z" data-paper-data="{&quot;index&quot;:null}"/><path d="M199.94961,148.47046l2.91715,-1.44668l2.89617,1.54145l-2.91715,1.44668z" data-paper-data="{&quot;index&quot;:null}"/><path d="M202.85472,147.01791l2.91715,-1.44668l2.89617,1.54145l-2.91715,1.44668z" data-paper-data="{&quot;index&quot;:null}"/></g><g fill="#9a9a9a" stroke-width="0.5"><path d="M194.07391,148.36332l2.91715,-1.44668l2.89617,1.54145l-2.91715,1.44668z" data-paper-data="{&quot;index&quot;:null}"/><path d="M197.02069,146.89885l2.91715,-1.44668l2.89617,1.54145l-2.91715,1.44668z" data-paper-data="{&quot;index&quot;:null}"/><path d="M199.9258,145.4463l2.91715,-1.44668l2.89617,1.54145l-2.91715,1.44668z" data-paper-data="{&quot;index&quot;:null}"/></g><g fill="#9a9a9a" stroke-width="0.5"><path d="M199.90794,151.45891l2.91715,-1.44668l2.89617,1.54145l-2.91715,1.44668z" data-paper-data="{&quot;index&quot;:null}"/><path d="M202.85472,149.99445l2.91715,-1.44668l2.89617,1.54145l-2.91715,1.44668z" data-paper-data="{&quot;index&quot;:null}"/><path d="M205.75983,148.54191l2.91715,-1.44668l2.89617,1.54145l-2.91715,1.44668z" data-paper-data="{&quot;index&quot;:null}"/></g><path d="M199.91687,148.45261l2.91715,-1.44668l2.89617,1.54145l-2.91715,1.44668z" data-paper-data="{&quot;index&quot;:null}" fill="#9a9a9a" stroke-width="0.5"/><g fill="#9a9a9a" stroke-width="0.5"><path d="M186.75283,155.18493l2.91715,-1.44668l2.89617,1.54145l-2.91715,1.44668z" data-paper-data="{&quot;index&quot;:null}"/><path d="M189.69961,153.72046l2.91715,-1.44668l2.89617,1.54145l-2.91715,1.44668z" data-paper-data="{&quot;index&quot;:null}"/><path d="M192.60472,152.26791l2.91715,-1.44668l2.89617,1.54145l-2.91715,1.44668z" data-paper-data="{&quot;index&quot;:null}"/></g><g fill="#9a9a9a" stroke-width="0.5"><path d="M183.82391,153.61332l2.91715,-1.44668l2.89617,1.54145l-2.91715,1.44668z" data-paper-data="{&quot;index&quot;:null}"/><path d="M186.77069,152.14885l2.91715,-1.44668l2.89617,1.54145l-2.91715,1.44668z" data-paper-data="{&quot;index&quot;:null}"/><path d="M189.6758,150.6963l2.91715,-1.44668l2.89617,1.54145l-2.91715,1.44668z" data-paper-data="{&quot;index&quot;:null}"/></g><g fill="#9a9a9a" stroke-width="0.5"><path d="M189.65794,156.70891l2.91715,-1.44668l2.89617,1.54145l-2.91715,1.44668z" data-paper-data="{&quot;index&quot;:null}"/><path d="M192.60472,155.24445l2.91715,-1.44668l2.89617,1.54145l-2.91715,1.44668z" data-paper-data="{&quot;index&quot;:null}"/><path d="M195.50983,153.79191l2.91715,-1.44668l2.89617,1.54145l-2.91715,1.44668z" data-paper-data="{&quot;index&quot;:null}"/></g><path d="M189.66687,153.70261l2.91715,-1.44668l2.89617,1.54145l-2.91715,1.44668z" data-paper-data="{&quot;index&quot;:null}" fill="#9a9a9a" stroke-width="0.5"/><g fill="#9a9a9a" stroke-width="0.5"><path d="M176.25283,160.43493l2.91715,-1.44668l2.89617,1.54145l-2.91715,1.44668z" data-paper-data="{&quot;index&quot;:null}"/><path d="M179.19961,158.97046l2.91715,-1.44668l2.89617,1.54145l-2.91715,1.44668z" data-paper-data="{&quot;index&quot;:null}"/><path d="M182.10472,157.51791l2.91715,-1.44668l2.89617,1.54145l-2.91715,1.44668z" data-paper-data="{&quot;index&quot;:null}"/></g><g fill="#9a9a9a" stroke-width="0.5"><path d="M173.32391,158.86332l2.91715,-1.44668l2.89617,1.54145l-2.91715,1.44668z" data-paper-data="{&quot;index&quot;:null}"/><path d="M176.27069,157.39885l2.91715,-1.44668l2.89617,1.54145l-2.91715,1.44668z" data-paper-data="{&quot;index&quot;:null}"/><path d="M179.1758,155.9463l2.91715,-1.44668l2.89617,1.54145l-2.91715,1.44668z" data-paper-data="{&quot;index&quot;:null}"/></g><g fill="#9a9a9a" stroke-width="0.5"><path d="M179.15794,161.95891l2.91715,-1.44668l2.89617,1.54145l-2.91715,1.44668z" data-paper-data="{&quot;index&quot;:null}"/><path d="M182.10472,160.49445l2.91715,-1.44668l2.89617,1.54145l-2.91715,1.44668z" data-paper-data="{&quot;index&quot;:null}"/><path d="M185.00983,159.04191l2.91715,-1.44668l2.89617,1.54145l-2.91715,1.44668z" data-paper-data="{&quot;index&quot;:null}"/></g><path d="M179.16687,158.95261l2.91715,-1.44668l2.89617,1.54145l-2.91715,1.44668z" data-paper-data="{&quot;index&quot;:null}" fill="#9a9a9a" stroke-width="0.5"/><g fill="#9a9a9a" stroke-width="0.5"><path d="M165.75283,165.68493l2.91715,-1.44668l2.89617,1.54145l-2.91715,1.44668z" data-paper-data="{&quot;index&quot;:null}"/><path d="M168.69961,164.22046l2.91715,-1.44668l2.89617,1.54145l-2.91715,1.44668z" data-paper-data="{&quot;index&quot;:null}"/><path d="M171.60472,162.76791l2.91715,-1.44668l2.89617,1.54145l-2.91715,1.44668z" data-paper-data="{&quot;index&quot;:null}"/></g><g fill="#9a9a9a" stroke-width="0.5"><path d="M162.82391,164.11332l2.91715,-1.44668l2.89617,1.54145l-2.91715,1.44668z" data-paper-data="{&quot;index&quot;:null}"/><path d="M165.77069,162.64885l2.91715,-1.44668l2.89617,1.54145l-2.91715,1.44668z" data-paper-data="{&quot;index&quot;:null}"/><path d="M168.6758,161.1963l2.91715,-1.44668l2.89617,1.54145l-2.91715,1.44668z" data-paper-data="{&quot;index&quot;:null}"/></g><g fill="#9a9a9a" stroke-width="0.5"><path d="M168.65794,167.20891l2.91715,-1.44668l2.89617,1.54145l-2.91715,1.44668z" data-paper-data="{&quot;index&quot;:null}"/><path d="M171.60472,165.74445l2.91715,-1.44668l2.89617,1.54145l-2.91715,1.44668z" data-paper-data="{&quot;index&quot;:null}"/><path d="M174.50983,164.29191l2.91715,-1.44668l2.89617,1.54145l-2.91715,1.44668z" data-paper-data="{&quot;index&quot;:null}"/></g><path d="M168.66687,164.20261l2.91715,-1.44668l2.89617,1.54145l-2.91715,1.44668z" data-paper-data="{&quot;index&quot;:null}" fill="#9a9a9a" stroke-width="0.5"/><g fill="#9a9a9a" stroke-width="0.5"><path d="M155.00283,170.93493l2.91715,-1.44668l2.89617,1.54145l-2.91715,1.44668z" data-paper-data="{&quot;index&quot;:null}"/><path d="M157.94961,169.47047l2.91715,-1.44668l2.89617,1.54145l-2.91715,1.44668z" data-paper-data="{&quot;index&quot;:null}"/><path d="M160.85472,168.01791l2.91715,-1.44668l2.89617,1.54145l-2.91715,1.44668z" data-paper-data="{&quot;index&quot;:null}"/></g><g fill="#9a9a9a" stroke-width="0.5"><path d="M152.07391,169.36332l2.91715,-1.44668l2.89617,1.54145l-2.91715,1.44668z" data-paper-data="{&quot;index&quot;:null}"/><path d="M155.02069,167.89885l2.91715,-1.44668l2.89617,1.54145l-2.91715,1.44668z" data-paper-data="{&quot;index&quot;:null}"/><path d="M157.9258,166.4463l2.91715,-1.44668l2.89617,1.54145l-2.91715,1.44668z" data-paper-data="{&quot;index&quot;:null}"/></g><g fill="#9a9a9a" stroke-width="0.5"><path d="M157.90794,172.45892l2.91715,-1.44668l2.89617,1.54145l-2.91715,1.44668z" data-paper-data="{&quot;index&quot;:null}"/><path d="M160.85472,170.99446l2.91715,-1.44668l2.89617,1.54145l-2.91715,1.44668z" data-paper-data="{&quot;index&quot;:null}"/><path d="M163.75983,169.54191l2.91715,-1.44668l2.89617,1.54145l-2.91715,1.44668z" data-paper-data="{&quot;index&quot;:null}"/></g><path d="M157.91687,169.45261l2.91715,-1.44668l2.89617,1.54145l-2.91715,1.44668z" data-paper-data="{&quot;index&quot;:null}" fill="#9a9a9a" stroke-width="0.5"/><g fill="#9a9a9a" stroke-width="0.5"><path d="M207.50283,155.68493l2.91715,-1.44668l2.89617,1.54145l-2.91715,1.44668z" data-paper-data="{&quot;index&quot;:null}"/><path d="M210.44961,154.22046l2.91715,-1.44668l2.89617,1.54145l-2.91715,1.44668z" data-paper-data="{&quot;index&quot;:null}"/><path d="M213.35472,152.76791l2.91715,-1.44668l2.89617,1.54145l-2.91715,1.44668z" data-paper-data="{&quot;index&quot;:null}"/></g><g fill="#9a9a9a" stroke-width="0.5"><path d="M204.57391,154.11332l2.91715,-1.44668l2.89617,1.54145l-2.91715,1.44668z" data-paper-data="{&quot;index&quot;:null}"/><path d="M207.52069,152.64885l2.91715,-1.44668l2.89617,1.54145l-2.91715,1.44668z" data-paper-data="{&quot;index&quot;:null}"/><path d="M210.4258,151.1963l2.91715,-1.44668l2.89617,1.54145l-2.91715,1.44668z" data-paper-data="{&quot;index&quot;:null}"/></g><g fill="#9a9a9a" stroke-width="0.5"><path d="M210.40794,157.20891l2.91715,-1.44668l2.89617,1.54145l-2.91715,1.44668z" data-paper-data="{&quot;index&quot;:null}"/><path d="M213.35472,155.74445l2.91715,-1.44668l2.89617,1.54145l-2.91715,1.44668z" data-paper-data="{&quot;index&quot;:null}"/><path d="M216.25983,154.29191l2.91715,-1.44668l2.89617,1.54145l-2.91715,1.44668z" data-paper-data="{&quot;index&quot;:null}"/></g><path d="M210.41687,154.20261l2.91715,-1.44668l2.89617,1.54145l-2.91715,1.44668z" data-paper-data="{&quot;index&quot;:null}" fill="#9a9a9a" stroke-width="0.5"/><g fill="#9a9a9a" stroke-width="0.5"><path d="M197.25283,160.93493l2.91715,-1.44668l2.89617,1.54145l-2.91715,1.44668z" data-paper-data="{&quot;index&quot;:null}"/><path d="M200.19961,159.47046l2.91715,-1.44668l2.89617,1.54145l-2.91715,1.44668z" data-paper-data="{&quot;index&quot;:null}"/><path d="M203.10472,158.01791l2.91715,-1.44668l2.89617,1.54145l-2.91715,1.44668z" data-paper-data="{&quot;index&quot;:null}"/></g><g fill="#9a9a9a" stroke-width="0.5"><path d="M194.32391,159.36332l2.91715,-1.44668l2.89617,1.54145l-2.91715,1.44668z" data-paper-data="{&quot;index&quot;:null}"/><path d="M197.27069,157.89885l2.91715,-1.44668l2.89617,1.54145l-2.91715,1.44668z" data-paper-data="{&quot;index&quot;:null}"/><path d="M200.1758,156.4463l2.91715,-1.44668l2.89617,1.54145l-2.91715,1.44668z" data-paper-data="{&quot;index&quot;:null}"/></g><g fill="#9a9a9a" stroke-width="0.5"><path d="M200.15794,162.45891l2.91715,-1.44668l2.89617,1.54145l-2.91715,1.44668z" data-paper-data="{&quot;index&quot;:null}"/><path d="M203.10472,160.99445l2.91715,-1.44668l2.89617,1.54145l-2.91715,1.44668z" data-paper-data="{&quot;index&quot;:null}"/><path d="M206.00983,159.54191l2.91715,-1.44668l2.89617,1.54145l-2.91715,1.44668z" data-paper-data="{&quot;index&quot;:null}"/></g><path d="M200.16687,159.45261l2.91715,-1.44668l2.89617,1.54145l-2.91715,1.44668z" data-paper-data="{&quot;index&quot;:null}" fill="#9a9a9a" stroke-width="0.5"/><g fill="#9a9a9a" stroke-width="0.5"><path d="M186.75283,166.18493l2.91715,-1.44668l2.89617,1.54145l-2.91715,1.44668z" data-paper-data="{&quot;index&quot;:null}"/><path d="M189.69961,164.72046l2.91715,-1.44668l2.89617,1.54145l-2.91715,1.44668z" data-paper-data="{&quot;index&quot;:null}"/><path d="M192.60472,163.26791l2.91715,-1.44668l2.89617,1.54145l-2.91715,1.44668z" data-paper-data="{&quot;index&quot;:null}"/></g><g fill="#9a9a9a" stroke-width="0.5"><path d="M183.82391,164.61332l2.91715,-1.44668l2.89617,1.54145l-2.91715,1.44668z" data-paper-data="{&quot;index&quot;:null}"/><path d="M186.77069,163.14885l2.91715,-1.44668l2.89617,1.54145l-2.91715,1.44668z" data-paper-data="{&quot;index&quot;:null}"/><path d="M189.6758,161.6963l2.91715,-1.44668l2.89617,1.54145l-2.91715,1.44668z" data-paper-data="{&quot;index&quot;:null}"/></g><g fill="#9a9a9a" stroke-width="0.5"><path d="M189.65794,167.70891l2.91715,-1.44668l2.89617,1.54145l-2.91715,1.44668z" data-paper-data="{&quot;index&quot;:null}"/><path d="M192.60472,166.24445l2.91715,-1.44668l2.89617,1.54145l-2.91715,1.44668z" data-paper-data="{&quot;index&quot;:null}"/><path d="M195.50983,164.79191l2.91715,-1.44668l2.89617,1.54145l-2.91715,1.44668z" data-paper-data="{&quot;index&quot;:null}"/></g><path d="M189.66687,164.70261l2.91715,-1.44668l2.89617,1.54145l-2.91715,1.44668z" data-paper-data="{&quot;index&quot;:null}" fill="#9a9a9a" stroke-width="0.5"/><g fill="#9a9a9a" stroke-width="0.5"><path d="M176.25283,171.43493l2.91715,-1.44668l2.89617,1.54145l-2.91715,1.44668z" data-paper-data="{&quot;index&quot;:null}"/><path d="M179.19961,169.97047l2.91715,-1.44668l2.89617,1.54145l-2.91715,1.44668z" data-paper-data="{&quot;index&quot;:null}"/><path d="M182.10472,168.51791l2.91715,-1.44668l2.89617,1.54145l-2.91715,1.44668z" data-paper-data="{&quot;index&quot;:null}"/></g><g fill="#9a9a9a" stroke-width="0.5"><path d="M173.32391,169.86332l2.91715,-1.44668l2.89617,1.54145l-2.91715,1.44668z" data-paper-data="{&quot;index&quot;:null}"/><path d="M176.27069,168.39885l2.91715,-1.44668l2.89617,1.54145l-2.91715,1.44668z" data-paper-data="{&quot;index&quot;:null}"/><path d="M179.1758,166.9463l2.91715,-1.44668l2.89617,1.54145l-2.91715,1.44668z" data-paper-data="{&quot;index&quot;:null}"/></g><g fill="#9a9a9a" stroke-width="0.5"><path d="M179.15794,172.95892l2.91715,-1.44668l2.89617,1.54145l-2.91715,1.44668z" data-paper-data="{&quot;index&quot;:null}"/><path d="M182.10472,171.49446l2.91715,-1.44668l2.89617,1.54145l-2.91715,1.44668z" data-paper-data="{&quot;index&quot;:null}"/><path d="M185.00983,170.04191l2.91715,-1.44668l2.89617,1.54145l-2.91715,1.44668z" data-paper-data="{&quot;index&quot;:null}"/></g><path d="M179.16687,169.95261l2.91715,-1.44668l2.89617,1.54145l-2.91715,1.44668z" data-paper-data="{&quot;index&quot;:null}" fill="#9a9a9a" stroke-width="0.5"/><g fill="#9a9a9a" stroke-width="0.5"><path d="M165.50283,176.68493l2.91715,-1.44668l2.89617,1.54145l-2.91715,1.44668z" data-paper-data="{&quot;index&quot;:null}"/><path d="M168.44961,175.22047l2.91715,-1.44668l2.89617,1.54145l-2.91715,1.44668z" data-paper-data="{&quot;index&quot;:null}"/><path d="M171.35472,173.76791l2.91715,-1.44668l2.89617,1.54145l-2.91715,1.44668z" data-paper-data="{&quot;index&quot;:null}"/></g><g fill="#9a9a9a" stroke-width="0.5"><path d="M162.57391,175.11332l2.91715,-1.44668l2.89617,1.54145l-2.91715,1.44668z" data-paper-data="{&quot;index&quot;:null}"/><path d="M165.52069,173.64885l2.91715,-1.44668l2.89617,1.54145l-2.91715,1.44668z" data-paper-data="{&quot;index&quot;:null}"/><path d="M168.4258,172.1963l2.91715,-1.44668l2.89617,1.54145l-2.91715,1.44668z" data-paper-data="{&quot;index&quot;:null}"/></g><g fill="#9a9a9a" stroke-width="0.5"><path d="M168.40794,178.20892l2.91715,-1.44668l2.89617,1.54145l-2.91715,1.44668z" data-paper-data="{&quot;index&quot;:null}"/><path d="M171.35472,176.74446l2.91715,-1.44668l2.89617,1.54145l-2.91715,1.44668z" data-paper-data="{&quot;index&quot;:null}"/><path d="M174.25983,175.29191l2.91715,-1.44668l2.89617,1.54145l-2.91715,1.44668z" data-paper-data="{&quot;index&quot;:null}"/></g><path d="M168.41687,175.20261l2.91715,-1.44668l2.89617,1.54145l-2.91715,1.44668z" data-paper-data="{&quot;index&quot;:null}" fill="#9a9a9a" stroke-width="0.5"/><g fill="#9a9a9a" stroke-width="0.5"><path d="M218.00283,161.68493l2.91715,-1.44668l2.89617,1.54145l-2.91715,1.44668z" data-paper-data="{&quot;index&quot;:null}"/><path d="M220.94961,160.22046l2.91715,-1.44668l2.89617,1.54145l-2.91715,1.44668z" data-paper-data="{&quot;index&quot;:null}"/><path d="M223.85472,158.76791l2.91715,-1.44668l2.89617,1.54145l-2.91715,1.44668z" data-paper-data="{&quot;index&quot;:null}"/></g><g fill="#9a9a9a" stroke-width="0.5"><path d="M215.07391,160.11332l2.91715,-1.44668l2.89617,1.54145l-2.91715,1.44668z" data-paper-data="{&quot;index&quot;:null}"/><path d="M218.02069,158.64885l2.91715,-1.44668l2.89617,1.54145l-2.91715,1.44668z" data-paper-data="{&quot;index&quot;:null}"/><path d="M220.9258,157.1963l2.91715,-1.44668l2.89617,1.54145l-2.91715,1.44668z" data-paper-data="{&quot;index&quot;:null}"/></g><g fill="#9a9a9a" stroke-width="0.5"><path d="M220.90794,163.20891l2.91715,-1.44668l2.89617,1.54145l-2.91715,1.44668z" data-paper-data="{&quot;index&quot;:null}"/><path d="M223.85472,161.74445l2.91715,-1.44668l2.89617,1.54145l-2.91715,1.44668z" data-paper-data="{&quot;index&quot;:null}"/><path d="M226.75983,160.29191l2.91715,-1.44668l2.89617,1.54145l-2.91715,1.44668z" data-paper-data="{&quot;index&quot;:null}"/></g><path d="M220.91687,160.20261l2.91715,-1.44668l2.89617,1.54145l-2.91715,1.44668z" data-paper-data="{&quot;index&quot;:null}" fill="#9a9a9a" stroke-width="0.5"/><g fill="#9a9a9a" stroke-width="0.5"><path d="M207.75283,166.93493l2.91715,-1.44668l2.89617,1.54145l-2.91715,1.44668z" data-paper-data="{&quot;index&quot;:null}"/><path d="M210.69961,165.47046l2.91715,-1.44668l2.89617,1.54145l-2.91715,1.44668z" data-paper-data="{&quot;index&quot;:null}"/><path d="M213.60472,164.01791l2.91715,-1.44668l2.89617,1.54145l-2.91715,1.44668z" data-paper-data="{&quot;index&quot;:null}"/></g><g fill="#9a9a9a" stroke-width="0.5"><path d="M204.82391,165.36332l2.91715,-1.44668l2.89617,1.54145l-2.91715,1.44668z" data-paper-data="{&quot;index&quot;:null}"/><path d="M207.77069,163.89885l2.91715,-1.44668l2.89617,1.54145l-2.91715,1.44668z" data-paper-data="{&quot;index&quot;:null}"/><path d="M210.6758,162.4463l2.91715,-1.44668l2.89617,1.54145l-2.91715,1.44668z" data-paper-data="{&quot;index&quot;:null}"/></g><g fill="#9a9a9a" stroke-width="0.5"><path d="M210.65794,168.45892l2.91715,-1.44668l2.89617,1.54145l-2.91715,1.44668z" data-paper-data="{&quot;index&quot;:null}"/><path d="M213.60472,166.99445l2.91715,-1.44668l2.89617,1.54145l-2.91715,1.44668z" data-paper-data="{&quot;index&quot;:null}"/><path d="M216.50983,165.54191l2.91715,-1.44668l2.89617,1.54145l-2.91715,1.44668z" data-paper-data="{&quot;index&quot;:null}"/></g><path d="M210.66687,165.45261l2.91715,-1.44668l2.89617,1.54145l-2.91715,1.44668z" data-paper-data="{&quot;index&quot;:null}" fill="#9a9a9a" stroke-width="0.5"/><g fill="#9a9a9a" stroke-width="0.5"><path d="M197.25283,172.18493l2.91715,-1.44668l2.89617,1.54145l-2.91715,1.44668z" data-paper-data="{&quot;index&quot;:null}"/><path d="M200.19961,170.72047l2.91715,-1.44668l2.89617,1.54145l-2.91715,1.44668z" data-paper-data="{&quot;index&quot;:null}"/><path d="M203.10472,169.26791l2.91715,-1.44668l2.89617,1.54145l-2.91715,1.44668z" data-paper-data="{&quot;index&quot;:null}"/></g><g fill="#9a9a9a" stroke-width="0.5"><path d="M194.32391,170.61332l2.91715,-1.44668l2.89617,1.54145l-2.91715,1.44668z" data-paper-data="{&quot;index&quot;:null}"/><path d="M197.27069,169.14885l2.91715,-1.44668l2.89617,1.54145l-2.91715,1.44668z" data-paper-data="{&quot;index&quot;:null}"/><path d="M200.1758,167.6963l2.91715,-1.44668l2.89617,1.54145l-2.91715,1.44668z" data-paper-data="{&quot;index&quot;:null}"/></g><g fill="#9a9a9a" stroke-width="0.5"><path d="M200.15794,173.70892l2.91715,-1.44668l2.89617,1.54145l-2.91715,1.44668z" data-paper-data="{&quot;index&quot;:null}"/><path d="M203.10472,172.24446l2.91715,-1.44668l2.89617,1.54145l-2.91715,1.44668z" data-paper-data="{&quot;index&quot;:null}"/><path d="M206.00983,170.79191l2.91715,-1.44668l2.89617,1.54145l-2.91715,1.44668z" data-paper-data="{&quot;index&quot;:null}"/></g><path d="M200.16687,170.70261l2.91715,-1.44668l2.89617,1.54145l-2.91715,1.44668z" data-paper-data="{&quot;index&quot;:null}" fill="#9a9a9a" stroke-width="0.5"/><g fill="#9a9a9a" stroke-width="0.5"><path d="M186.75283,177.43493l2.91715,-1.44668l2.89617,1.54145l-2.91715,1.44668z" data-paper-data="{&quot;index&quot;:null}"/><path d="M189.69961,175.97047l2.91715,-1.44668l2.89617,1.54145l-2.91715,1.44668z" data-paper-data="{&quot;index&quot;:null}"/><path d="M192.60472,174.51791l2.91715,-1.44668l2.89617,1.54145l-2.91715,1.44668z" data-paper-data="{&quot;index&quot;:null}"/></g><g fill="#9a9a9a" stroke-width="0.5"><path d="M183.82391,175.86332l2.91715,-1.44668l2.89617,1.54145l-2.91715,1.44668z" data-paper-data="{&quot;index&quot;:null}"/><path d="M186.77069,174.39885l2.91715,-1.44668l2.89617,1.54145l-2.91715,1.44668z" data-paper-data="{&quot;index&quot;:null}"/><path d="M189.6758,172.9463l2.91715,-1.44668l2.89617,1.54145l-2.91715,1.44668z" data-paper-data="{&quot;index&quot;:null}"/></g><g fill="#9a9a9a" stroke-width="0.5"><path d="M189.65794,178.95892l2.91715,-1.44668l2.89617,1.54145l-2.91715,1.44668z" data-paper-data="{&quot;index&quot;:null}"/><path d="M192.60472,177.49446l2.91715,-1.44668l2.89617,1.54145l-2.91715,1.44668z" data-paper-data="{&quot;index&quot;:null}"/><path d="M195.50983,176.04191l2.91715,-1.44668l2.89617,1.54145l-2.91715,1.44668z" data-paper-data="{&quot;index&quot;:null}"/></g><path d="M189.66687,175.95261l2.91715,-1.44668l2.89617,1.54145l-2.91715,1.44668z" data-paper-data="{&quot;index&quot;:null}" fill="#9a9a9a" stroke-width="0.5"/><g fill="#9a9a9a" stroke-width="0.5"><path d="M176.00283,182.68493l2.91715,-1.44668l2.89617,1.54145l-2.91715,1.44668z" data-paper-data="{&quot;index&quot;:null}"/><path d="M178.94961,181.22047l2.91715,-1.44668l2.89617,1.54145l-2.91715,1.44668z" data-paper-data="{&quot;index&quot;:null}"/><path d="M181.85472,179.76791l2.91715,-1.44668l2.89617,1.54145l-2.91715,1.44668z" data-paper-data="{&quot;index&quot;:null}"/></g><g fill="#9a9a9a" stroke-width="0.5"><path d="M173.07391,181.11332l2.91715,-1.44668l2.89617,1.54145l-2.91715,1.44668z" data-paper-data="{&quot;index&quot;:null}"/><path d="M176.02069,179.64885l2.91715,-1.44668l2.89617,1.54145l-2.91715,1.44668z" data-paper-data="{&quot;index&quot;:null}"/><path d="M178.9258,178.1963l2.91715,-1.44668l2.89617,1.54145l-2.91715,1.44668z" data-paper-data="{&quot;index&quot;:null}"/></g><g fill="#9a9a9a" stroke-width="0.5"><path d="M178.90794,184.20892l2.91715,-1.44668l2.89617,1.54145l-2.91715,1.44668z" data-paper-data="{&quot;index&quot;:null}"/><path d="M181.85472,182.74446l2.91715,-1.44668l2.89617,1.54145l-2.91715,1.44668z" data-paper-data="{&quot;index&quot;:null}"/><path d="M184.75983,181.29191l2.91715,-1.44668l2.89617,1.54145l-2.91715,1.44668z" data-paper-data="{&quot;index&quot;:null}"/></g><path d="M178.91687,181.20261l2.91715,-1.44668l2.89617,1.54145l-2.91715,1.44668z" data-paper-data="{&quot;index&quot;:null}" fill="#9a9a9a" stroke-width="0.5"/><g fill="#9a9a9a" stroke-width="0.5"><path d="M229.00283,167.18493l2.91715,-1.44668l2.89617,1.54145l-2.91715,1.44668z" data-paper-data="{&quot;index&quot;:null}"/><path d="M231.94961,165.72046l2.91715,-1.44668l2.89617,1.54145l-2.91715,1.44668z" data-paper-data="{&quot;index&quot;:null}"/><path d="M234.85472,164.26791l2.91715,-1.44668l2.89617,1.54145l-2.91715,1.44668z" data-paper-data="{&quot;index&quot;:null}"/></g><g fill="#9a9a9a" stroke-width="0.5"><path d="M226.07391,165.61332l2.91715,-1.44668l2.89617,1.54145l-2.91715,1.44668z" data-paper-data="{&quot;index&quot;:null}"/><path d="M229.02069,164.14885l2.91715,-1.44668l2.89617,1.54145l-2.91715,1.44668z" data-paper-data="{&quot;index&quot;:null}"/><path d="M231.9258,162.6963l2.91715,-1.44668l2.89617,1.54145l-2.91715,1.44668z" data-paper-data="{&quot;index&quot;:null}"/></g><g fill="#9a9a9a" stroke-width="0.5"><path d="M231.90794,168.70892l2.91715,-1.44668l2.89617,1.54145l-2.91715,1.44668z" data-paper-data="{&quot;index&quot;:null}"/><path d="M234.85472,167.24445l2.91715,-1.44668l2.89617,1.54145l-2.91715,1.44668z" data-paper-data="{&quot;index&quot;:null}"/><path d="M237.75983,165.79191l2.91715,-1.44668l2.89617,1.54145l-2.91715,1.44668z" data-paper-data="{&quot;index&quot;:null}"/></g><path d="M231.91687,165.70261l2.91715,-1.44668l2.89617,1.54145l-2.91715,1.44668z" data-paper-data="{&quot;index&quot;:null}" fill="#9a9a9a" stroke-width="0.5"/><g fill="#9a9a9a" stroke-width="0.5"><path d="M218.75283,172.43493l2.91715,-1.44668l2.89617,1.54145l-2.91715,1.44668z" data-paper-data="{&quot;index&quot;:null}"/><path d="M221.69961,170.97047l2.91715,-1.44668l2.89617,1.54145l-2.91715,1.44668z" data-paper-data="{&quot;index&quot;:null}"/><path d="M224.60472,169.51791l2.91715,-1.44668l2.89617,1.54145l-2.91715,1.44668z" data-paper-data="{&quot;index&quot;:null}"/></g><g fill="#9a9a9a" stroke-width="0.5"><path d="M215.82391,170.86332l2.91715,-1.44668l2.89617,1.54145l-2.91715,1.44668z" data-paper-data="{&quot;index&quot;:null}"/><path d="M218.77069,169.39885l2.91715,-1.44668l2.89617,1.54145l-2.91715,1.44668z" data-paper-data="{&quot;index&quot;:null}"/><path d="M221.6758,167.9463l2.91715,-1.44668l2.89617,1.54145l-2.91715,1.44668z" data-paper-data="{&quot;index&quot;:null}"/></g><g fill="#9a9a9a" stroke-width="0.5"><path d="M221.65794,173.95892l2.91715,-1.44668l2.89617,1.54145l-2.91715,1.44668z" data-paper-data="{&quot;index&quot;:null}"/><path d="M224.60472,172.49446l2.91715,-1.44668l2.89617,1.54145l-2.91715,1.44668z" data-paper-data="{&quot;index&quot;:null}"/><path d="M227.50983,171.04191l2.91715,-1.44668l2.89617,1.54145l-2.91715,1.44668z" data-paper-data="{&quot;index&quot;:null}"/></g><path d="M221.66687,170.95261l2.91715,-1.44668l2.89617,1.54145l-2.91715,1.44668z" data-paper-data="{&quot;index&quot;:null}" fill="#9a9a9a" stroke-width="0.5"/><g fill="#9a9a9a" stroke-width="0.5"><path d="M208.25283,177.68493l2.91715,-1.44668l2.89617,1.54145l-2.91715,1.44668z" data-paper-data="{&quot;index&quot;:null}"/><path d="M211.19961,176.22047l2.91715,-1.44668l2.89617,1.54145l-2.91715,1.44668z" data-paper-data="{&quot;index&quot;:null}"/><path d="M214.10472,174.76791l2.91715,-1.44668l2.89617,1.54145l-2.91715,1.44668z" data-paper-data="{&quot;index&quot;:null}"/></g><g fill="#9a9a9a" stroke-width="0.5"><path d="M205.32391,176.11332l2.91715,-1.44668l2.89617,1.54145l-2.91715,1.44668z" data-paper-data="{&quot;index&quot;:null}"/><path d="M208.27069,174.64885l2.91715,-1.44668l2.89617,1.54145l-2.91715,1.44668z" data-paper-data="{&quot;index&quot;:null}"/><path d="M211.1758,173.1963l2.91715,-1.44668l2.89617,1.54145l-2.91715,1.44668z" data-paper-data="{&quot;index&quot;:null}"/></g><g fill="#9a9a9a" stroke-width="0.5"><path d="M211.15794,179.20892l2.91715,-1.44668l2.89617,1.54145l-2.91715,1.44668z" data-paper-data="{&quot;index&quot;:null}"/><path d="M214.10472,177.74446l2.91715,-1.44668l2.89617,1.54145l-2.91715,1.44668z" data-paper-data="{&quot;index&quot;:null}"/><path d="M217.00983,176.29191l2.91715,-1.44668l2.89617,1.54145l-2.91715,1.44668z" data-paper-data="{&quot;index&quot;:null}"/></g><path d="M211.16687,176.20261l2.91715,-1.44668l2.89617,1.54145l-2.91715,1.44668z" data-paper-data="{&quot;index&quot;:null}" fill="#9a9a9a" stroke-width="0.5"/><g fill="#9a9a9a" stroke-width="0.5"><path d="M197.75283,182.93493l2.91715,-1.44668l2.89617,1.54145l-2.91715,1.44668z" data-paper-data="{&quot;index&quot;:null}"/><path d="M200.69961,181.47047l2.91715,-1.44668l2.89617,1.54145l-2.91715,1.44668z" data-paper-data="{&quot;index&quot;:null}"/><path d="M203.60472,180.01791l2.91715,-1.44668l2.89617,1.54145l-2.91715,1.44668z" data-paper-data="{&quot;index&quot;:null}"/></g><g fill="#9a9a9a" stroke-width="0.5"><path d="M194.82391,181.36332l2.91715,-1.44668l2.89617,1.54145l-2.91715,1.44668z" data-paper-data="{&quot;index&quot;:null}"/><path d="M197.77069,179.89885l2.91715,-1.44668l2.89617,1.54145l-2.91715,1.44668z" data-paper-data="{&quot;index&quot;:null}"/><path d="M200.6758,178.4463l2.91715,-1.44668l2.89617,1.54145l-2.91715,1.44668z" data-paper-data="{&quot;index&quot;:null}"/></g><g fill="#9a9a9a" stroke-width="0.5"><path d="M200.65794,184.45892l2.91715,-1.44668l2.89617,1.54145l-2.91715,1.44668z" data-paper-data="{&quot;index&quot;:null}"/><path d="M203.60472,182.99446l2.91715,-1.44668l2.89617,1.54145l-2.91715,1.44668z" data-paper-data="{&quot;index&quot;:null}"/><path d="M206.50983,181.54191l2.91715,-1.44668l2.89617,1.54145l-2.91715,1.44668z" data-paper-data="{&quot;index&quot;:null}"/></g><path d="M200.66687,181.45261l2.91715,-1.44668l2.89617,1.54145l-2.91715,1.44668z" data-paper-data="{&quot;index&quot;:null}" fill="#9a9a9a" stroke-width="0.5"/><g fill="#9a9a9a" stroke-width="0.5"><path d="M187.00283,188.18493l2.91715,-1.44668l2.89617,1.54145l-2.91715,1.44668z" data-paper-data="{&quot;index&quot;:null}"/><path d="M189.94961,186.72047l2.91715,-1.44668l2.89617,1.54145l-2.91715,1.44668z" data-paper-data="{&quot;index&quot;:null}"/><path d="M192.85472,185.26791l2.91715,-1.44668l2.89617,1.54145l-2.91715,1.44668z" data-paper-data="{&quot;index&quot;:null}"/></g><g fill="#9a9a9a" stroke-width="0.5"><path d="M184.07391,186.61332l2.91715,-1.44668l2.89617,1.54145l-2.91715,1.44668z" data-paper-data="{&quot;index&quot;:null}"/><path d="M187.02069,185.14885l2.91715,-1.44668l2.89617,1.54145l-2.91715,1.44668z" data-paper-data="{&quot;index&quot;:null}"/><path d="M189.9258,183.6963l2.91715,-1.44668l2.89617,1.54145l-2.91715,1.44668z" data-paper-data="{&quot;index&quot;:null}"/></g><g fill="#9a9a9a" stroke-width="0.5"><path d="M189.90794,189.70892l2.91715,-1.44668l2.89617,1.54145l-2.91715,1.44668z" data-paper-data="{&quot;index&quot;:null}"/><path d="M192.85472,188.24446l2.91715,-1.44668l2.89617,1.54145l-2.91715,1.44668z" data-paper-data="{&quot;index&quot;:null}"/><path d="M195.75983,186.79191l2.91715,-1.44668l2.89617,1.54145l-2.91715,1.44668z" data-paper-data="{&quot;index&quot;:null}"/></g><path d="M189.91687,186.70261l2.91715,-1.44668l2.89617,1.54145l-2.91715,1.44668z" data-paper-data="{&quot;index&quot;:null}" fill="#9a9a9a" stroke-width="0.5"/></g></g></svg>