<svg version="1.1" xmlns="http://www.w3.org/2000/svg" xmlns:xlink="http://www.w3.org/1999/xlink" width="85.75158" height="44.07719" viewBox="0,0,85.75158,44.07719"><g transform="translate(-197.12422,-157.96141)"><g data-paper-data="{&quot;isPaintingLayer&quot;:true}" fill-rule="nonzero" stroke-linejoin="miter" stroke-miterlimit="10" stroke-dasharray="" stroke-dashoffset="0" style="mix-blend-mode: normal"><path d="M199.31165,179.33665l40.83521,-20.25102l40.54149,21.57772l-40.83521,20.25102z" data-paper-data="{&quot;index&quot;:null}" fill="#65ff78" stroke="#65ff78" stroke-width="2" stroke-linecap="butt"/><path d="M255.71298,172.14351l-31.42596,15.71298" fill="none" stroke="#ffffff" stroke-width="2" stroke-linecap="round"/><path d="M237.02325,188.52917c0,0.8678 -0.70349,1.5713 -1.5713,1.5713c-0.8678,0 -1.5713,-0.70349 -1.5713,-1.5713c0,-0.8678 0.70349,-1.5713 1.5713,-1.5713c0.8678,0 1.5713,0.70349 1.5713,1.5713z" fill="#ffffff" stroke="#ffffff" stroke-width="2" stroke-linecap="butt"/><path d="M242.75434,192.86454c0,0.86781 -0.70349,1.5713 -1.57129,1.5713c-0.86781,0 -1.5713,-0.7035 -1.5713,-1.5713c0,-0.86781 0.7035,-1.57129 1.5713,-1.57129c0.86781,0 1.57129,0.70349 1.57129,1.57129z" fill="#ffffff" stroke="#ffffff" stroke-width="2" stroke-linecap="butt"/><path d="M244.85646,186.56851l-1.93396,2.33857l-2.23514,-0.10053l-2.4772,1.88267" fill="none" stroke="#ffffff" stroke-width="1.5" stroke-linecap="round"/><path d="M247.02325,184.10669c0,0.46403 -0.37617,0.84021 -0.8402,0.84021c-0.46403,0 -0.84021,-0.37617 -0.84021,-0.84021c0,-0.46403 0.37617,-0.8402 0.84021,-0.8402c0.46403,0 0.8402,0.37617 0.8402,0.8402z" fill="#ffffff" stroke="#ffffff" stroke-width="2" stroke-linecap="butt"/><path d="M242.9955,186.30266l-4.71888,-0.26585" fill="none" stroke="#ffffff" stroke-width="1" stroke-linecap="round"/><path d="M244.69872,169.4602c0,-0.89824 0.72816,-1.6264 1.62639,-1.6264c0.89824,0 1.6264,0.72816 1.6264,1.6264c0,0.89824 -0.72816,1.62639 -1.6264,1.62639c-0.89824,0 -1.62639,-0.72816 -1.62639,-1.62639z" data-paper-data="{&quot;index&quot;:null}" fill="#ffffff" stroke="#ffffff" stroke-width="2" stroke-linecap="butt"/><path d="M238.76666,164.97281c0,-0.89824 0.72816,-1.6264 1.62639,-1.6264c0.89824,0 1.6264,0.72816 1.6264,1.6264c0,0.89824 -0.72816,1.62639 -1.6264,1.62639c-0.89824,0 -1.62639,-0.72816 -1.62639,-1.62639z" data-paper-data="{&quot;index&quot;:null}" fill="#ffffff" stroke="#ffffff" stroke-width="2" stroke-linecap="butt"/><path d="M236.59082,171.48961l2.00178,-2.42057l2.31352,0.10406l2.56406,-1.94869" data-paper-data="{&quot;index&quot;:null}" fill="none" stroke="#ffffff" stroke-width="1.5" stroke-linecap="round"/><path d="M234.34806,174.03776c0,-0.48031 0.38936,-0.86967 0.86966,-0.86967c0.48031,0 0.86967,0.38937 0.86967,0.86967c0,0.48031 -0.38936,0.86966 -0.86967,0.86966c-0.48031,0 -0.86966,-0.38936 -0.86966,-0.86966z" data-paper-data="{&quot;index&quot;:null}" fill="#ffffff" stroke="#ffffff" stroke-width="2" stroke-linecap="butt"/><path d="M243.40139,172.03995l-4.88435,-0.27517" data-paper-data="{&quot;index&quot;:null}" fill="none" stroke="#ffffff" stroke-width="1" stroke-linecap="round"/></g></g></svg>