<svg version="1.1" xmlns="http://www.w3.org/2000/svg" xmlns:xlink="http://www.w3.org/1999/xlink" width="215.47955" height="136.81607" viewBox="0,0,215.47955,136.81607"><g transform="translate(-132.02045,-112.00768)"><g data-paper-data="{&quot;isPaintingLayer&quot;:true}" fill-rule="nonzero" stroke="#000000" stroke-width="2" stroke-linejoin="miter" stroke-miterlimit="10" stroke-dasharray="" stroke-dashoffset="0" style="mix-blend-mode: normal"><g><path d="M262.99023,162.32898l40.83521,-20.25102l40.54149,21.57772l-40.83521,20.25102z" data-paper-data="{&quot;index&quot;:null}" fill="#000000" stroke-linecap="butt"/><path d="M290.15271,165.39964l18.74741,-9.01505l8.30433,4.03113l-18.40881,9.18435z" fill="#ffffff" stroke-linecap="butt"/><path d="M220.32356,183.32898l40.83521,-20.25102l40.54149,21.57772l-40.83521,20.25102z" data-paper-data="{&quot;index&quot;:null}" fill="#000000" stroke-linecap="butt"/><path d="M247.48604,186.39964l18.74741,-9.01505l8.30433,4.03113l-18.40881,9.18435z" fill="#ffffff" stroke-linecap="butt"/><path d="M304.16667,140.32566l-85,41.33333c0,0 14.74404,-60.02888 28.83067,-67.90888c10.68093,-5.97486 55.836,26.07554 55.836,26.07554" fill="#707373" stroke-linecap="round"/><path d="M346.5,163.82565l-85,41.33333c0,0 14.74404,-60.02888 28.83067,-67.90887c10.68093,-5.97486 55.836,26.07554 55.836,26.07554" fill="#707373" stroke-linecap="round"/><path d="M177.32355,204.16231l40.83521,-20.25102l40.54149,21.57772l-40.83521,20.25102z" data-paper-data="{&quot;index&quot;:null}" fill="#000000" stroke-linecap="butt"/><path d="M204.48604,207.23296l18.74741,-9.01505l8.30433,4.03113l-18.40881,9.18435z" fill="#ffffff" stroke-linecap="butt"/><path d="M134.65689,225.16231l40.83521,-20.25102l40.54149,21.57772l-40.83521,20.25102z" data-paper-data="{&quot;index&quot;:null}" fill="#000000" stroke-linecap="butt"/><path d="M161.81937,228.23296l18.74741,-9.01505l8.30433,4.03113l-18.40881,9.18435z" fill="#ffffff" stroke-linecap="butt"/><path d="M218.5,182.15899l-85,41.33333c0,0 14.74404,-60.02888 28.83067,-67.90888c10.68093,-5.97486 55.836,26.07554 55.836,26.07554" fill="#707373" stroke-linecap="round"/><path d="M260.83334,205.65899l-85,41.33333c0,0 14.74404,-60.02888 28.83067,-67.90887c10.68093,-5.97486 55.836,26.07554 55.836,26.07554" fill="#707373" stroke-linecap="round"/></g></g></g></svg>