<svg version="1.1" xmlns="http://www.w3.org/2000/svg" xmlns:xlink="http://www.w3.org/1999/xlink" width="129.81289" height="94.98274" viewBox="0,0,129.81289,94.98274"><g transform="translate(-174.85378,-132.92434)"><g data-paper-data="{&quot;isPaintingLayer&quot;:true}" fill-rule="nonzero" stroke="#000000" stroke-width="2" stroke-linejoin="miter" stroke-miterlimit="10" stroke-dasharray="" stroke-dashoffset="0" style="mix-blend-mode: normal"><g><path d="M220.15687,183.24566l40.83521,-20.25102l40.54149,21.57772l-40.83521,20.25102z" data-paper-data="{&quot;index&quot;:null}" fill="#000000" stroke-linecap="butt"/><path d="M247.31937,186.31631l18.74741,-9.01505l8.30433,4.03113l-18.40881,9.18435z" fill="#ffffff" stroke-linecap="butt"/><path d="M177.49022,204.24566l40.83521,-20.25102l40.54149,21.57772l-40.83521,20.25102z" data-paper-data="{&quot;index&quot;:null}" fill="#000000" stroke-linecap="butt"/><path d="M204.6527,207.31631l18.74741,-9.01505l8.30433,4.03113l-18.40881,9.18435z" fill="#ffffff" stroke-linecap="butt"/><path d="M261.33333,161.24233l-85,41.33333c0,0 14.74404,-60.02888 28.83067,-67.90888c10.68093,-5.97486 55.836,26.07554 55.836,26.07554" fill="#707373" stroke-linecap="round"/><path d="M303.66667,184.74233l-85,41.33333c0,0 14.74404,-60.02888 28.83067,-67.90887c10.68093,-5.97486 55.83599,26.07554 55.83599,26.07554" fill="#707373" stroke-linecap="round"/></g></g></g></svg>