<svg version="1.1" xmlns="http://www.w3.org/2000/svg" xmlns:xlink="http://www.w3.org/1999/xlink" width="86.64688" height="117.42339" viewBox="0,0,86.64688,117.42339"><g transform="translate(-196.8373,-85.61229)"><g data-paper-data="{&quot;isPaintingLayer&quot;:true}" fill-rule="nonzero" stroke-width="2" stroke-linejoin="miter" stroke-miterlimit="10" stroke-dasharray="" stroke-dashoffset="0" style="mix-blend-mode: normal"><path d="M199.31165,179.33666l40.83521,-20.25102l40.54149,21.57772l-40.83521,20.25102z" data-paper-data="{&quot;index&quot;:null}" fill="none" stroke="#000000" stroke-linecap="butt"/><path d="M199.49517,126.88292l40.83521,-20.25102l40.54149,21.57772l-40.83521,20.25102z" data-paper-data="{&quot;index&quot;:null}" fill="#c2c2c2" stroke="#000000" stroke-linecap="butt"/><path d="M200.08447,179.12142l-0.34403,-51.60515l40.59605,21.33013v51.94918z" fill="#cacdc5" stroke="#000000" stroke-linecap="butt"/><path d="M240.69958,201.40536v-51.94918l40.59605,-21.33013l0.00001,52.63725z" data-paper-data="{&quot;index&quot;:null}" fill="#eff087" stroke="#000000" stroke-linecap="butt"/><path d="M240.09603,88.16757l0.83049,59.79553l-42.35517,-22.00808z" fill="#989898" stroke="#272726" stroke-linecap="round"/><path d="M281.79227,127.56627l-40.86575,21.22732l0.04974,-60.81996z" fill="#989898" stroke="#272726" stroke-linecap="round"/><path d="M265.68357,188.02504l-0.29341,-17.01774l9.68251,-4.40114v17.01774z" fill="#0084ff" stroke="#272726" stroke-linecap="butt"/><path d="M247.3175,190.67776l-0.4001,-10.85615l13.20342,-6.1616v10.85615z" fill="#0084ff" stroke="#272726" stroke-linecap="butt"/><path d="M251.83003,168.36661l-0.88023,-16.38233l22.94922,-9.09569l0.88023,16.96915z" fill="#ffffff" stroke="#272726" stroke-linecap="butt"/><path d="M273.31221,143.42681l-9.97592,13.20342l-12.3232,-4.69455" fill="none" stroke="#272726" stroke-linecap="round"/><path d="M224.01942,191.54595v-18.7782l10.26933,4.40114v19.65843z" fill="#ffed1a" stroke="#272726" stroke-linecap="butt"/><path d="M226.66011,180.10298l4.40114,2.05387" fill="none" stroke="#272726" stroke-linecap="round"/></g></g></svg>