<svg version="1.1" xmlns="http://www.w3.org/2000/svg" xmlns:xlink="http://www.w3.org/1999/xlink" width="211.46648" height="258.89018" viewBox="0,0,211.46648,258.89018"><g transform="translate(-176.49922,1.1804)"><g data-paper-data="{&quot;isPaintingLayer&quot;:true}" fill-rule="nonzero" stroke-linecap="butt" stroke-linejoin="miter" stroke-miterlimit="10" stroke-dasharray="" stroke-dashoffset="0" style="mix-blend-mode: normal"><g fill="none" stroke="#000000" stroke-width="2"><path d="M178.68666,189.58665l40.83521,-20.25102l40.54149,21.57772l-40.83521,20.25102z" data-paper-data="{&quot;index&quot;:null}"/><path d="M219.93666,169.08665l40.83521,-20.25102l40.54149,21.57772l-40.83521,20.25102z" data-paper-data="{&quot;index&quot;:null}"/></g><g fill="#b9ffa7" stroke="#000000" stroke-width="2"><path d="M178.87017,135.75679l40.83521,-20.25102l40.54149,21.57772l-40.83521,20.25102z" data-paper-data="{&quot;index&quot;:null}"/><path d="M220.12017,115.25679l40.83521,-20.25102l40.54149,21.57772l-40.83521,20.25102z" data-paper-data="{&quot;index&quot;:null}"/></g><path d="M177.55777,189.52964v-53.66935l41.97219,22.0182v53.32532z" fill="#cccccc" stroke="#000000" stroke-width="2"/><path d="M219.71348,211.38732v-53.32532l41.97218,-22.0182v53.66936z" data-paper-data="{&quot;index&quot;:null}" fill="#cccccc" stroke="#000000" stroke-width="2"/><path d="M261.52515,190.24072v-51.86435l40.94008,-21.41496v52.19896z" data-paper-data="{&quot;index&quot;:null}" fill="#cccccc" stroke="#000000" stroke-width="2"/><g fill="#9a9a9a" stroke="#000000" stroke-width="2"><g><path d="M221.4849,211.05174l40.83521,-20.25102l40.54149,21.57772l-40.83521,20.25102z" data-paper-data="{&quot;index&quot;:null}"/><path d="M262.7349,190.55174l40.83521,-20.25102l40.54149,21.57772l-40.83521,20.25102z" data-paper-data="{&quot;index&quot;:null}"/></g><g><path d="M263.15156,233.05174l40.83521,-20.25102l40.54149,21.57772l-40.83521,20.25102z" data-paper-data="{&quot;index&quot;:null}"/><path d="M304.40156,212.55174l40.83521,-20.25102l40.54149,21.57772l-40.83521,20.25102z" data-paper-data="{&quot;index&quot;:null}"/></g></g><g stroke="#000000" stroke-width="2"><g fill="none"><path d="M179.08034,136.04578l40.83521,-20.25102l40.54149,21.57772l-40.83521,20.25102z" data-paper-data="{&quot;index&quot;:null}"/><path d="M220.33034,115.54578l40.83521,-20.25102l40.54149,21.57772l-40.83521,20.25102z" data-paper-data="{&quot;index&quot;:null}"/></g><g fill="#cccccc"><path d="M179.26385,82.21592l40.83521,-20.25102l40.54149,21.57772l-40.83521,20.25102z" data-paper-data="{&quot;index&quot;:null}"/><path d="M220.51385,61.71592l40.83521,-20.25102l40.54149,21.57772l-40.83521,20.25102z" data-paper-data="{&quot;index&quot;:null}"/></g><path d="M177.95145,135.98877v-53.66935l41.97219,22.0182v53.32532z" fill="#cccccc"/><path d="M220.10716,157.84644v-53.32532l41.97218,-22.0182v53.66936z" data-paper-data="{&quot;index&quot;:null}" fill="#cccccc"/><path d="M261.91883,136.69985v-51.86435l40.94008,-21.41496v52.19896z" data-paper-data="{&quot;index&quot;:null}" fill="#cccccc"/></g><g stroke="#000000" stroke-width="2"><path d="M200.09902,72.64859l40.83521,-20.25102l40.54149,21.57772l-40.83521,20.25102z" data-paper-data="{&quot;index&quot;:null}" fill="none"/><path d="M200.28254,20.19485l40.83521,-20.25102l40.54149,21.57772l-40.83521,20.25102z" data-paper-data="{&quot;index&quot;:null}" fill="#cccccc"/><path d="M200.0193,72.43335l-0.34403,-51.60515l40.59605,21.33013v51.94918z" fill="#cccccc"/><path d="M241.48695,94.29103v-51.94918l40.59605,-21.33013l0.00001,52.63725z" data-paper-data="{&quot;index&quot;:null}" fill="#cccccc"/></g><path d="M221.83964,211.54615l-0.39368,-14.95995l82.6734,42.91143v16.53468z" fill="none" stroke="#000000" stroke-width="2"/><path d="M305.18253,253.94602v-15.35363l26.77044,-11.81048v13.7789z" data-paper-data="{&quot;index&quot;:null}" fill="none" stroke="#000000" stroke-width="2"/><path d="M303.6078,169.30421l-0.39368,-14.95995l82.6734,42.91143v16.53468z" fill="none" stroke="#000000" stroke-width="2"/><path d="M359.39289,226.27034v-15.35363l26.77044,-11.81048v13.77891z" data-paper-data="{&quot;index&quot;:null}" fill="none" stroke="#000000" stroke-width="2"/><path d="M224.63924,189.6857l-0.57773,-21.17723l20.86519,-9.79329l0.3873,21.13088z" fill="#00acf3" stroke="#000000" stroke-width="2"/><path d="M278.79017,165.02565l-0.57772,-21.17723l20.86519,-9.79329l0.10482,21.13088z" fill="#00acf3" stroke="#000000" stroke-width="2"/><path d="M227.01237,137.25836l-0.57772,-21.17723l20.86519,-9.79329l0.10482,21.13088z" fill="#00acf3" stroke="#000000" stroke-width="2"/><path d="M277.77358,115.1406l-0.57772,-21.17723l20.86519,-9.79329l0.10482,21.13088z" fill="#00acf3" stroke="#000000" stroke-width="2"/><text transform="translate(245.89331,63.47417) rotate(-30.63528) scale(0.16992,0.16992)" font-size="40" xml:space="preserve" fill="#f2f2f2" fill-rule="nonzero" stroke="none" stroke-width="1" stroke-linecap="butt" stroke-linejoin="miter" stroke-miterlimit="10" stroke-dasharray="" stroke-dashoffset="0" font-family="Serif" font-weight="normal" text-anchor="start" style="mix-blend-mode: normal"><tspan x="0" dy="0">Ecole Primaire</tspan><tspan x="0" dy="46.150000000000006px">Victor Hugo</tspan></text><path d="M253.64975,195.25065l-0.01278,-22.02466l19.73528,-8.94586l0.66977,21.13088z" fill="#b2a600" stroke="#000000" stroke-width="2"/><path d="M187.08582,121.11965l0.10482,-21.13088l20.86519,9.79329l-0.57772,21.17723z" data-paper-data="{&quot;index&quot;:null}" fill="#00acf3" stroke="#000000" stroke-width="2"/><path d="M185.0239,180.35517l0.10482,-21.13088l20.86519,9.79329l-0.57772,21.17723z" data-paper-data="{&quot;index&quot;:null}" fill="#00acf3" stroke="#000000" stroke-width="2"/><path d="M208.66736,63.89021l0.10482,-21.13088l20.86519,9.79329l-0.57772,21.17723z" data-paper-data="{&quot;index&quot;:null}" fill="#00acf3" stroke="#000000" stroke-width="2"/></g></g></svg>