<svg version="1.1" xmlns="http://www.w3.org/2000/svg" xmlns:xlink="http://www.w3.org/1999/xlink" width="89.73975" height="90.5983" viewBox="0,0,89.73975,90.5983"><g transform="translate(-190.91567,-118.19661)"><g data-paper-data="{&quot;isPaintingLayer&quot;:true}" fill-rule="nonzero" stroke="#000000" stroke-linejoin="miter" stroke-miterlimit="10" stroke-dasharray="" stroke-dashoffset="0" style="mix-blend-mode: normal"><path d="M195.86208,185.37342l40.83521,-20.25102l40.54149,21.57772l-40.83521,20.25102z" data-paper-data="{&quot;index&quot;:null}" fill="none" stroke-width="2" stroke-linecap="butt"/><path d="M278.37673,151.13602l-41.22548,14.78374l2.13686,-45.4439z" data-paper-data="{&quot;index&quot;:null}" fill="#ffa933" stroke-width="2" stroke-linecap="round"/><path d="M238.66022,119.97513l-2.09486,46.20414l-43.47161,-19.91603z" data-paper-data="{&quot;index&quot;:null}" fill="#ffa933" stroke-width="2" stroke-linecap="round"/><path d="M195.15607,186.06659l-1.10119,-38.37575l43.2542,20.29706l-1.29359,39.19194z" data-paper-data="{&quot;index&quot;:null}" fill="#e4e4e4" stroke-width="2" stroke-linecap="butt"/><path d="M200.43603,178.73695l0.20917,-17.12408l29.53487,11.45159l-0.26337,19.5403z" data-paper-data="{&quot;index&quot;:null}" fill="#cfe0e3" stroke-width="2" stroke-linecap="butt"/><path d="M236.78463,207.00546l0.8624,-39.40753l41.96061,-14.9071l-1.10119,33.41698z" data-paper-data="{&quot;index&quot;:null}" fill="#e4e4e4" stroke-width="2" stroke-linecap="butt"/><path d="M242.05006,193.37899l-0.17486,-14.11825l19.60869,-7.6029l-0.43368,13.65919z" data-paper-data="{&quot;index&quot;:null}" fill="#cfe0e3" stroke-width="2" stroke-linecap="butt"/><path d="M266.81628,190.81913l0.52672,-19.48874l8.4237,-2.90084l-0.52672,19.48874" data-paper-data="{&quot;index&quot;:null}" fill="#7b2f00" stroke-width="2" stroke-linecap="round"/><path d="M242.6004,176.83777l-0.52672,-8.95429l33.97361,-12.11462l0.26336,8.1642z" data-paper-data="{&quot;index&quot;:null}" fill="none" stroke-width="0.5" stroke-linecap="butt"/><g data-paper-data="{&quot;index&quot;:null}" fill="none" stroke-width="0.5" stroke-linecap="round"><path d="M247.22812,174.13033l-0.4547,-6.02474l2.27349,2.27349l1.25042,-3.5239l1.02307,5.91106"/><path d="M252.79816,172.19787l-1.02307,-6.25209l2.38716,-0.79572l1.02307,6.02474"/><path d="M252.45714,168.67396l2.04614,-0.56837"/><path d="M257.45881,170.03805l-1.02307,-5.34269l2.27349,-0.79572l0.34102,1.93246l-2.04614,0.56837l2.72818,1.93246"/><path d="M264.16559,166.85517l-2.27349,1.25042l-1.25042,-4.88799l2.27349,-0.79572"/><path d="M265.07498,161.96718l0.90939,4.20595"/><path d="M268.03052,165.60476l-1.13674,-4.54697"/><path d="M267.12112,163.44494l-1.70511,0.4547"/><path d="M272.00912,164.01332l-2.15981,0.79572l-1.13674,-4.20595l2.15981,-0.90939"/><path d="M269.16726,162.53555l1.13674,-0.56837"/></g></g></g></svg>