<svg version="1.1" xmlns="http://www.w3.org/2000/svg" xmlns:xlink="http://www.w3.org/1999/xlink" width="165.02697" height="258.95203" viewBox="0,0,165.02697,258.95203"><defs><linearGradient x1="285.01048" y1="209.33153" x2="316.61202" y2="209.33153" gradientUnits="userSpaceOnUse" id="color-1"><stop offset="0" stop-color="#ffffff"/><stop offset="1" stop-color="#676767"/></linearGradient><linearGradient x1="268.9916" y1="201.5844" x2="300.59314" y2="201.5844" gradientUnits="userSpaceOnUse" id="color-2"><stop offset="0" stop-color="#ffffff"/><stop offset="1" stop-color="#676767"/></linearGradient><linearGradient x1="284.38048" y1="203.08302" x2="300.67981" y2="203.08302" gradientUnits="userSpaceOnUse" id="color-3"><stop offset="0" stop-color="#ffffff"/><stop offset="1" stop-color="#676767"/></linearGradient><linearGradient x1="268.54429" y1="195.48159" x2="284.44281" y2="195.48159" gradientUnits="userSpaceOnUse" id="color-4"><stop offset="0" stop-color="#ffffff"/><stop offset="1" stop-color="#676767"/></linearGradient><linearGradient x1="269.61046" y1="217.13153" x2="301.21202" y2="217.13153" gradientUnits="userSpaceOnUse" id="color-5"><stop offset="0" stop-color="#ffffff"/><stop offset="1" stop-color="#676767"/></linearGradient><linearGradient x1="253.59159" y1="209.3844" x2="285.19313" y2="209.3844" gradientUnits="userSpaceOnUse" id="color-6"><stop offset="0" stop-color="#ffffff"/><stop offset="1" stop-color="#676767"/></linearGradient><linearGradient x1="253.52034" y1="189.04165" x2="284.98915" y2="189.04165" gradientUnits="userSpaceOnUse" id="color-7"><stop offset="0" stop-color="#ffffff"/><stop offset="1" stop-color="#676767"/></linearGradient><linearGradient x1="268.98048" y1="210.88303" x2="285.27981" y2="210.88303" gradientUnits="userSpaceOnUse" id="color-8"><stop offset="0" stop-color="#ffffff"/><stop offset="1" stop-color="#676767"/></linearGradient><linearGradient x1="224.15704" y1="260.80214" x2="257.17643" y2="260.80214" gradientUnits="userSpaceOnUse" id="color-9"><stop offset="0" stop-color="#000000"/><stop offset="1" stop-color="#ffffff"/></linearGradient><linearGradient x1="253.14429" y1="203.28159" x2="269.04281" y2="203.28159" gradientUnits="userSpaceOnUse" id="color-10"><stop offset="0" stop-color="#ffffff"/><stop offset="1" stop-color="#676767"/></linearGradient><linearGradient x1="223.71166" y1="291.77643" x2="287.73044" y2="291.77643" gradientUnits="userSpaceOnUse" id="color-11"><stop offset="0" stop-color="#000000"/><stop offset="1" stop-color="#ffffff"/></linearGradient><linearGradient x1="256.1629" y1="275.64915" x2="320.18168" y2="275.64915" gradientUnits="userSpaceOnUse" id="color-12"><stop offset="0" stop-color="#000000"/><stop offset="1" stop-color="#ffffff"/></linearGradient><linearGradient x1="192.26956" y1="273.95409" x2="256.28833" y2="273.95409" gradientUnits="userSpaceOnUse" id="color-13"><stop offset="0" stop-color="#000000"/><stop offset="1" stop-color="#ffffff"/></linearGradient><linearGradient x1="159.81831" y1="257.82681" x2="223.8371" y2="257.82681" gradientUnits="userSpaceOnUse" id="color-14"><stop offset="0" stop-color="#000000"/><stop offset="1" stop-color="#ffffff"/></linearGradient><linearGradient x1="159.67395" y1="215.47905" x2="223.69272" y2="215.47905" gradientUnits="userSpaceOnUse" id="color-15"><stop offset="0" stop-color="#000000"/><stop offset="1" stop-color="#ffffff"/></linearGradient><linearGradient x1="159.90418" y1="217.36628" x2="223.92296" y2="217.36628" gradientUnits="userSpaceOnUse" id="color-16"><stop offset="0" stop-color="#000000"/><stop offset="1" stop-color="#ffffff"/></linearGradient><linearGradient x1="192.35542" y1="201.23899" x2="256.3742" y2="201.23899" gradientUnits="userSpaceOnUse" id="color-17"><stop offset="0" stop-color="#000000"/><stop offset="1" stop-color="#ffffff"/></linearGradient><linearGradient x1="225.07295" y1="188.53467" x2="257.28037" y2="188.53467" gradientUnits="userSpaceOnUse" id="color-18"><stop offset="0" stop-color="#000000"/><stop offset="1" stop-color="#ffffff"/></linearGradient><linearGradient x1="225.69169" y1="217.16959" x2="289.71047" y2="217.16959" gradientUnits="userSpaceOnUse" id="color-19"><stop offset="0" stop-color="#000000"/><stop offset="1" stop-color="#ffffff"/></linearGradient></defs><g transform="translate(-157.48651,-51.09491)"><g data-paper-data="{&quot;isPaintingLayer&quot;:true}" fill-rule="nonzero" stroke="#000000" stroke-linecap="butt" stroke-linejoin="miter" stroke-miterlimit="10" stroke-dasharray="" stroke-dashoffset="0" style="mix-blend-mode: normal"><g><g data-paper-data="{&quot;index&quot;:null}" stroke-width="0.5"><path d="M300.86827,217.23523l-15.8578,-7.65302l15.74374,-8.1544l15.8578,7.65303z" data-paper-data="{&quot;index&quot;:null}" fill="url(#color-1)"/><path d="M284.8494,209.48812l-15.85781,-7.65303l15.74374,-8.15439l15.85781,7.65303z" data-paper-data="{&quot;index&quot;:null}" fill="url(#color-2)"/></g><g data-paper-data="{&quot;index&quot;:null}" fill="#9a9a9a" stroke-width="0.5"><path d="M300.66314,196.89249l-15.7912,-7.65303l15.67762,-8.1544l15.7912,7.65303z" data-paper-data="{&quot;index&quot;:null}"/><path d="M284.71154,189.14537l-15.7912,-7.65302l15.67762,-8.1544l15.7912,7.65302z" data-paper-data="{&quot;index&quot;:null}"/></g><path d="M300.75106,217.25014v-20.15208l16.29934,-8.32086v20.28209z" data-paper-data="{&quot;index&quot;:null}" fill="#9a9a9a" stroke-width="0.5"/><path d="M284.38048,209.12865v-20.28209l16.29933,8.32086v20.15208z" data-paper-data="{&quot;index&quot;:null}" fill="url(#color-3)" stroke-width="0.5"/><path d="M268.54429,201.36158v-19.72642l15.89852,8.09289v19.59996z" data-paper-data="{&quot;index&quot;:null}" fill="url(#color-4)" stroke-width="0.5"/><g data-paper-data="{&quot;index&quot;:null}" stroke-width="0.5"><path d="M285.46828,225.03524l-15.85781,-7.65302l15.74374,-8.15441l15.85781,7.65304z" data-paper-data="{&quot;index&quot;:null}" fill="url(#color-5)"/><path d="M269.44939,217.28812l-15.8578,-7.65303l15.74374,-8.15439l15.8578,7.65302z" data-paper-data="{&quot;index&quot;:null}" fill="url(#color-6)"/></g><g data-paper-data="{&quot;index&quot;:null}" stroke-width="0.5"><path d="M285.26313,204.69249l-15.7912,-7.65303l15.67762,-8.1544l15.7912,7.65304z" data-paper-data="{&quot;index&quot;:null}" fill="#9a9a9a"/><path d="M269.31154,196.94537l-15.7912,-7.65303l15.67762,-8.1544l15.7912,7.65302z" data-paper-data="{&quot;index&quot;:null}" fill="url(#color-7)"/></g><path d="M285.35107,225.05014v-20.15208l16.29933,-8.32086v20.28209z" data-paper-data="{&quot;index&quot;:null}" fill="#9a9a9a" stroke-width="0.5"/><path d="M268.98048,216.92864v-20.28209l16.29933,8.32086v20.15208z" data-paper-data="{&quot;index&quot;:null}" fill="url(#color-8)" stroke-width="0.5"/><path d="M224.15704,290.43839v-41.95085l33.01938,-17.32164v42.2215z" data-paper-data="{&quot;index&quot;:null}" fill="url(#color-9)" stroke-width="2"/><path d="M253.14429,209.16158v-19.72642l15.89853,8.09289v19.59996z" data-paper-data="{&quot;index&quot;:null}" fill="url(#color-10)" stroke-width="0.5"/><g stroke-width="2"><path d="M223.71166,291.25457l32.12492,-15.93141l31.89385,16.97512l-32.12492,15.93141z" data-paper-data="{&quot;index&quot;:null}" fill="url(#color-11)"/><path d="M256.1629,275.1273l32.12492,-15.93141l31.89385,16.97512l-32.12492,15.93141z" data-paper-data="{&quot;index&quot;:null}" fill="url(#color-12)"/></g><path d="M255.98733,308.40509v-41.95085l33.01937,-17.32165v42.22151z" data-paper-data="{&quot;index&quot;:null}" fill="#9a9a9a" stroke-width="2"/><path d="M288.88043,291.76913v-40.80151l32.20743,-16.84707v41.06474z" data-paper-data="{&quot;index&quot;:null}" fill="#9a9a9a" stroke-width="2"/><g data-paper-data="{&quot;index&quot;:null}" stroke-width="2"><path d="M224.39448,290.40735l-32.12492,-15.93141l31.89386,-16.97512l32.12492,15.93141z" data-paper-data="{&quot;index&quot;:null}" fill="url(#color-13)"/><path d="M191.94324,274.28007l-32.12492,-15.93141l31.89386,-16.97512l32.12493,15.93141z" data-paper-data="{&quot;index&quot;:null}" fill="url(#color-14)"/></g><g data-paper-data="{&quot;index&quot;:null}" stroke-width="2"><path d="M224.2501,248.05959l-32.12492,-15.93141l31.89386,-16.97512l32.12492,15.93141z" data-paper-data="{&quot;index&quot;:null}" fill="#9a9a9a"/><path d="M191.79887,231.93231l-32.12492,-15.93141l31.89385,-16.97512l32.12492,15.93141z" data-paper-data="{&quot;index&quot;:null}" fill="url(#color-15)"/></g><path d="M190.99329,273.53176v-42.22151l33.01937,17.32164v41.95085z" data-paper-data="{&quot;index&quot;:null}" fill="#9a9a9a" stroke-width="2"/><path d="M222.82357,291.20972v-42.22149l33.01938,17.32164v41.95085z" fill="#9a9a9a" stroke-width="2"/><path d="M158.91215,257.36296v-41.06475l32.20743,16.84708v40.80151z" data-paper-data="{&quot;index&quot;:null}" fill="#9a9a9a" stroke-width="2"/><g stroke-width="2"><path d="M159.90418,216.84442l32.12492,-15.93141l31.89385,16.97512l-32.12492,15.93141z" data-paper-data="{&quot;index&quot;:null}" fill="url(#color-16)"/><path d="M192.35542,200.71714l32.12492,-15.9314l31.89386,16.97512l-32.12493,15.93141z" data-paper-data="{&quot;index&quot;:null}" fill="url(#color-17)"/></g><g fill="#9a9a9a" stroke-width="2"><path d="M160.04854,174.49665l32.12492,-15.93141l31.89386,16.97512l-32.12493,15.93141z" data-paper-data="{&quot;index&quot;:null}"/><path d="M192.49979,158.36936l32.12492,-15.93141l31.89386,16.97512l-32.12493,15.93141z" data-paper-data="{&quot;index&quot;:null}"/></g><path d="M159.01609,216.79957v-42.2215l33.01938,17.32164v41.95085z" fill="#9a9a9a" stroke-width="2"/><path d="M192.17985,233.99493v-41.95085l33.01938,-17.32164v42.22151z" data-paper-data="{&quot;index&quot;:null}" fill="#9a9a9a" stroke-width="2"/><path d="M225.07295,217.35898v-40.80151l32.20743,-16.84708v41.06474z" data-paper-data="{&quot;index&quot;:null}" fill="url(#color-18)" stroke-width="2"/><path d="M225.69169,216.64774l32.12492,-15.93141l31.89385,16.97512l-32.12492,15.93141z" data-paper-data="{&quot;index&quot;:null}" fill="url(#color-19)" stroke-width="2"/><path d="M225.83606,175.38256l32.12492,-15.93141l31.89386,16.97512l-32.12493,15.93141z" data-paper-data="{&quot;index&quot;:null}" fill="#9a9a9a" stroke-width="2"/><path d="M225.62897,216.47841l-0.27065,-40.5976l31.93677,16.78034v40.86825z" fill="#9a9a9a" stroke-width="2"/><path d="M258.25144,233.67377v-40.86824l31.93678,-16.78034v41.40955z" data-paper-data="{&quot;index&quot;:null}" fill="#9a9a9a" stroke-width="2"/><g fill="#9a9a9a" stroke-width="2"><path d="M223.85603,248.90681l32.12492,-15.93141l31.89386,16.97512l-32.12492,15.93141z" data-paper-data="{&quot;index&quot;:null}"/><path d="M256.30727,232.77953l32.12492,-15.93141l31.89385,16.97512l-32.12492,15.93141z" data-paper-data="{&quot;index&quot;:null}"/></g><path d="M307.04105,282.05303l-0.32609,-19.95227l10.25129,-4.91264l0.20774,19.7887z" fill="#000000" stroke-width="0.5"/><path d="M166.13127,208.15345l-0.24922,-18.94798l17.70189,9.71976v18.2003z" fill="#4ccbff" stroke-width="0.5"/><path d="M164.49215,250.66448l-0.24922,-18.94798l17.70189,9.71976v18.2003z" fill="#4ccbff" stroke-width="0.5"/><path d="M201.69032,216.65955v-18.2003l17.70189,-9.71976l-0.24922,18.94798z" data-paper-data="{&quot;index&quot;:null}" fill="#4ccbff" stroke-width="0.5"/><path d="M216.77503,157.10396v-47.20623c0,0 5.66271,-4.58858 8.39663,-4.58858c3.03236,0 8.99514,4.58858 8.99514,4.58858v47.20623c0,0 -6.04837,3.79056 -8.99514,3.79056c-2.84705,0 -8.39662,-3.79056 -8.39662,-3.79056z" data-paper-data="{&quot;index&quot;:null}" fill="#9a9a9a" stroke-width="2"/><path d="M216.96211,158.48807v-47.20622c0,0 5.66272,3.79056 8.39663,3.79056c3.03237,0 8.99514,-3.79056 8.99514,-3.79056v47.20622c0,0 -6.04837,3.79056 -8.99514,3.79056c-2.84705,0 -8.39663,-3.79056 -8.39663,-3.79056z" fill="#9a9a9a" stroke-width="2"/><path d="M292.19237,73.93929c0,7.71279 -17.76338,2.19454 -34.01533,2.19454c-8.11651,0 -13.96762,3.47555 -19.98878,1.9997c-6.03521,-1.47929 -14.02655,-8.71249 -14.02655,-12.57338c0,-7.71279 13.1748,-13.96524 29.42675,-13.96524c8.67386,0 28.4414,-0.01453 33.8271,2.81894c4.70532,2.47552 4.7768,15.92906 4.7768,19.52543z" fill="#fcfcfc" stroke-width="1"/><path d="M234.7354,85.90949c0,3.1953 -2.94758,5.7856 -6.58361,5.7856c-3.63603,0 -6.58361,-2.5903 -6.58361,-5.7856c0,-3.1953 2.94758,-5.7856 6.58361,-5.7856c3.63603,0 6.58361,2.5903 6.58361,5.7856z" fill="#fcfcfc" stroke-width="1"/><path d="M229.54831,98.97696c0,2.25874 -2.27768,4.08982 -5.08734,4.08982c-2.80966,0 -5.08734,-1.83107 -5.08734,-4.08982c0,-2.25874 2.27768,-4.08982 5.08734,-4.08982c2.80966,0 5.08734,1.83107 5.08734,4.08982z" fill="#fcfcfc" stroke-width="1"/></g></g></g></svg>