<svg version="1.1" xmlns="http://www.w3.org/2000/svg" xmlns:xlink="http://www.w3.org/1999/xlink" width="90.8805" height="82.30852" viewBox="0,0,90.8805,82.30852"><g transform="translate(-194.95129,-119.73008)"><g data-paper-data="{&quot;isPaintingLayer&quot;:true}" fill-rule="nonzero" stroke-linejoin="miter" stroke-miterlimit="10" stroke-dasharray="" stroke-dashoffset="0" style="mix-blend-mode: normal"><path d="M199.31165,179.33665l40.83521,-20.25102l40.54149,21.57772l-40.83521,20.25102z" data-paper-data="{&quot;index&quot;:null}" fill="#51cc5f" stroke="#000000" stroke-width="2" stroke-linecap="butt"/><path d="M206.36389,179.5668l-0.3308,-34.07236" fill="none" stroke="#cc7a52" stroke-width="2.5" stroke-linecap="round"/><path d="M217.28027,145.74254c0,5.52654 -4.99851,10.00669 -11.16449,10.00669c-6.16598,0 -11.16449,-4.48015 -11.16449,-10.00669c0,-5.52654 4.99851,-10.00669 11.16449,-10.00669c6.16598,0 11.16449,4.48014 11.16449,10.00669z" fill="#51cc5f" stroke="none" stroke-width="0" stroke-linecap="butt"/><path d="M239.48185,163.56102l-0.3308,-34.07236" fill="none" stroke="#cc7a52" stroke-width="2.5" stroke-linecap="round"/><path d="M250.39824,129.73676c0,5.52654 -4.99851,10.00669 -11.16449,10.00669c-6.16598,0 -11.16449,-4.48015 -11.16449,-10.00669c0,-5.52654 4.99851,-10.00669 11.16449,-10.00669c6.16598,0 11.16449,4.48014 11.16449,10.00669z" fill="#51cc5f" stroke="none" stroke-width="0" stroke-linecap="butt"/><path d="M274.91541,180.30441l-0.3308,-34.07236" fill="none" stroke="#cc7a52" stroke-width="2.5" stroke-linecap="round"/><path d="M285.8318,146.48015c0,5.52654 -4.99851,10.00669 -11.16449,10.00669c-6.16598,0 -11.16449,-4.48015 -11.16449,-10.00669c0,-5.52654 4.99851,-10.00669 11.16449,-10.00669c6.16598,0 11.16449,4.48014 11.16449,10.00669z" fill="#51cc5f" stroke="none" stroke-width="0" stroke-linecap="butt"/><path d="M250.08939,180c0,2.74043 -4.51717,4.96199 -10.08939,4.96199c-5.57221,0 -10.08939,-2.22156 -10.08939,-4.96199c0,-2.74043 4.51717,-4.96199 10.08939,-4.96199c5.57221,0 10.08939,2.22156 10.08939,4.96199z" fill="#66cfff" stroke="#000000" stroke-width="1.5" stroke-linecap="butt"/><path d="M239.85066,196.84439l-0.3308,-34.07236" fill="none" stroke="#cc7a52" stroke-width="2.5" stroke-linecap="round"/><path d="M250.76704,163.02013c0,5.52654 -4.99851,10.00669 -11.16449,10.00669c-6.16598,0 -11.16449,-4.48015 -11.16449,-10.00669c0,-5.52654 4.99851,-10.00669 11.16449,-10.00669c6.16598,0 11.16449,4.48014 11.16449,10.00669z" fill="#51cc5f" stroke="none" stroke-width="0" stroke-linecap="butt"/></g></g></svg>