<svg version="1.1" xmlns="http://www.w3.org/2000/svg" xmlns:xlink="http://www.w3.org/1999/xlink" width="174.77281" height="124.08054" viewBox="0,0,174.77281,124.08054"><g transform="translate(-152.6136,-118.52184)"><g data-paper-data="{&quot;isPaintingLayer&quot;:true}" fill-rule="nonzero" stroke-linejoin="miter" stroke-miterlimit="10" stroke-dasharray="" stroke-dashoffset="0" style="mix-blend-mode: normal"><g><g fill="#51cc5f" stroke="#000000" stroke-width="2" stroke-linecap="butt"><path d="M158.0523,197.90044l40.83521,-20.25102l40.54149,21.57772l-40.83521,20.25102z" data-paper-data="{&quot;index&quot;:null}"/><path d="M199.3023,177.40044l40.83521,-20.25102l40.54149,21.57772l-40.83521,20.25102z" data-paper-data="{&quot;index&quot;:null}"/></g><g fill="#51cc5f" stroke="#000000" stroke-width="2" stroke-linecap="butt"><path d="M199.71896,219.90044l40.83521,-20.25102l40.54149,21.57772l-40.83521,20.25102z" data-paper-data="{&quot;index&quot;:null}"/><path d="M240.96896,199.40044l40.83521,-20.25102l40.54149,21.57772l-40.83521,20.25102z" data-paper-data="{&quot;index&quot;:null}"/></g><path d="M164.0262,198.63751l-0.3308,-34.07236" fill="none" stroke="#cc7a52" stroke-width="2.5" stroke-linecap="round"/><path d="M174.94258,164.81325c0,5.52654 -4.99851,10.00669 -11.16449,10.00669c-6.16598,0 -11.16449,-4.48015 -11.16449,-10.00669c0,-5.52654 4.99851,-10.00669 11.16449,-10.00669c6.16598,0 11.16449,4.48014 11.16449,10.00669z" fill="#49b756" stroke="none" stroke-width="0" stroke-linecap="butt"/><path d="M197.14416,182.63173l-0.3308,-34.07236" fill="none" stroke="#cc7a52" stroke-width="2.5" stroke-linecap="round"/><path d="M208.06055,148.80747c0,5.52654 -4.99851,10.00669 -11.16449,10.00669c-6.16598,0 -11.16449,-4.48015 -11.16449,-10.00669c0,-5.52654 4.99851,-10.00669 11.16449,-10.00669c6.16598,0 11.16449,4.48014 11.16449,10.00669z" fill="#49b756" stroke="none" stroke-width="0" stroke-linecap="butt"/><path d="M207.7517,199.07071c0,2.74043 -4.51717,4.96199 -10.08939,4.96199c-5.57221,0 -10.08939,-2.22156 -10.08939,-4.96199c0,-2.74043 4.51717,-4.96199 10.08939,-4.96199c5.57221,0 10.08939,2.22156 10.08939,4.96199z" fill="#66cfff" stroke="#000000" stroke-width="1.5" stroke-linecap="butt"/><path d="M237.6319,162.35279l-0.3308,-34.07236" fill="none" stroke="#cc7a52" stroke-width="2.5" stroke-linecap="round"/><path d="M248.54829,128.52853c0,5.52654 -4.99851,10.00669 -11.16449,10.00669c-6.16598,0 -11.16449,-4.48015 -11.16449,-10.00669c0,-5.52654 4.99851,-10.00669 11.16449,-10.00669c6.16598,0 11.16449,4.48014 11.16449,10.00669z" fill="#49b756" stroke="none" stroke-width="0" stroke-linecap="butt"/><path d="M272.73466,145.02382l0.3308,34.07236" fill="none" stroke="#cc7a52" stroke-width="2.5" stroke-linecap="round"/><path d="M283.98185,145.27192c0,5.52654 -4.99851,10.00669 -11.16449,10.00669c-6.16598,0 -11.16449,-4.48015 -11.16449,-10.00669c0,-5.52654 4.99851,-10.00669 11.16449,-10.00669c6.16598,0 11.16449,4.48014 11.16449,10.00669z" fill="#49b756" stroke="none" stroke-width="0" stroke-linecap="butt"/><path d="M248.23944,178.79177c0,2.74043 -4.51717,4.96199 -10.08939,4.96199c-5.57221,0 -10.08939,-2.22156 -10.08939,-4.96199c0,-2.74043 4.51717,-4.96199 10.08939,-4.96199c5.57221,0 10.08939,2.22156 10.08939,4.96199z" fill="#66cfff" stroke="#000000" stroke-width="1.5" stroke-linecap="butt"/><path d="M316.13921,167.03849l0.3308,34.07236" fill="none" stroke="#cc7a52" stroke-width="2.5" stroke-linecap="round"/><path d="M327.3864,167.28659c0,5.52654 -4.99851,10.00669 -11.16449,10.00669c-6.16598,0 -11.16449,-4.48015 -11.16449,-10.00669c0,-5.52654 4.99851,-10.00669 11.16449,-10.00669c6.16598,0 11.16449,4.48014 11.16449,10.00669z" fill="#49b756" stroke="none" stroke-width="0" stroke-linecap="butt"/><path d="M291.64399,200.80644c0,2.74043 -4.51717,4.96199 -10.08939,4.96199c-5.57221,0 -10.08939,-2.22156 -10.08939,-4.96199c0,-2.74043 4.51717,-4.96199 10.08939,-4.96199c5.57221,0 10.08939,2.22156 10.08939,4.96199z" fill="#66cfff" stroke="#000000" stroke-width="1.5" stroke-linecap="butt"/><path d="M206.17133,220.59336l-0.3308,-34.07236" fill="none" stroke="#cc7a52" stroke-width="2.5" stroke-linecap="round"/><path d="M217.08771,186.7691c0,5.52654 -4.99851,10.00669 -11.16449,10.00669c-6.16598,0 -11.16449,-4.48015 -11.16449,-10.00669c0,-5.52654 4.99851,-10.00669 11.16449,-10.00669c6.16598,0 11.16449,4.48014 11.16449,10.00669z" fill="#49b756" stroke="none" stroke-width="0" stroke-linecap="butt"/><path d="M274.39205,187.25861l0.3308,34.07236" fill="none" stroke="#cc7a52" stroke-width="2.5" stroke-linecap="round"/><path d="M284.66697,188.47897c0,5.52654 -4.99851,10.00669 -11.16449,10.00669c-6.16598,0 -11.16449,-4.48015 -11.16449,-10.00669c0,-5.52654 4.99851,-10.00669 11.16449,-10.00669c6.16598,0 11.16449,4.48014 11.16449,10.00669z" fill="#49b756" stroke="none" stroke-width="0" stroke-linecap="butt"/><path d="M249.89683,221.02656c0,2.74043 -4.51717,4.96199 -10.08939,4.96199c-5.57221,0 -10.08939,-2.22156 -10.08939,-4.96199c0,-2.74043 4.51717,-4.96199 10.08939,-4.96199c5.57221,0 10.08939,2.22156 10.08939,4.96199z" fill="#66cfff" stroke="#000000" stroke-width="1.5" stroke-linecap="butt"/><path d="M239.6581,237.87095l-0.3308,-34.07236" fill="none" stroke="#cc7a52" stroke-width="2.5" stroke-linecap="round"/><path d="M251.36348,199.31379c0,5.52654 -4.99851,10.00669 -11.16449,10.00669c-6.16598,0 -11.16449,-4.48015 -11.16449,-10.00669c0,-5.52654 4.99851,-10.00669 11.16449,-10.00669c6.16598,0 11.16449,4.48014 11.16449,10.00669z" fill="#49b756" stroke="none" stroke-width="0" stroke-linecap="butt"/></g></g></g></svg>