<svg version="1.1" xmlns="http://www.w3.org/2000/svg" xmlns:xlink="http://www.w3.org/1999/xlink" width="171.39269" height="309.86949" viewBox="0,0,171.39269,309.86949"><g transform="translate(-149.51287,-25.57525)"><g data-paper-data="{&quot;isPaintingLayer&quot;:true}" fill-rule="nonzero" stroke="#000000" stroke-width="2" stroke-linejoin="miter" stroke-miterlimit="10" stroke-dasharray="" stroke-dashoffset="0" style="mix-blend-mode: normal"><path d="M151.70031,312.74279l40.83521,-20.25102l40.54149,21.57772l-40.83521,20.25102z" data-paper-data="{&quot;index&quot;:null}" fill="none" stroke-linecap="butt"/><path d="M203.87931,313.40614c0,2.71976 -5.14454,4.92456 -11.49064,4.92456c-6.3461,0 -11.49064,-2.2048 -11.49064,-4.92456c0,-2.71976 5.14454,-4.92456 11.49065,-4.92456c6.3461,0 11.49065,2.2048 11.49065,4.92456z" fill="#e6e6e6" stroke-linecap="butt"/><path d="M193.33,215.44007c3.77388,0 10.83404,4.59626 10.83404,4.59626v90.94023c0,0 -7.29224,-4.59626 -11.16234,-4.59626c-3.54244,0 -11.16234,4.59626 -11.16234,4.59626v-90.94023c0,0 7.82618,-4.59626 11.49065,-4.59626z" data-paper-data="{&quot;index&quot;:null}" fill="#e6e6e6" stroke-linecap="butt"/><path d="M181.43561,313.52757v-90.94023c0,0 7.6199,4.59626 11.16234,4.59626c3.8701,0 11.16234,-4.59626 11.16234,-4.59626v90.94023c0,0 -7.06016,4.59626 -10.83403,4.59626c-3.66446,0 -11.49064,-4.59626 -11.49064,-4.59626z" fill="#e6e6e6" stroke-linecap="butt"/><path d="M193.40544,121.62055c3.77388,0 10.83404,4.59626 10.83404,4.59626v90.94023c0,0 -7.29224,-4.59626 -11.16234,-4.59626c-3.54244,0 -11.16234,4.59626 -11.16234,4.59626v-90.94023c0,0 7.82618,-4.59626 11.49065,-4.59626z" data-paper-data="{&quot;index&quot;:null}" fill="#e6e6e6" stroke-linecap="butt"/><path d="M181.51105,219.70804v-90.94023c0,0 7.6199,4.59626 11.16234,4.59626c3.8701,0 11.16234,-4.59626 11.16234,-4.59626v90.94023c0,0 -7.06016,4.59626 -10.83403,4.59626c-3.66447,0 -11.49064,-4.59626 -11.49064,-4.59626z" fill="#e6e6e6" stroke-linecap="butt"/><g fill="#e6e6e6" stroke-linecap="butt"><path d="M228.68362,122.12843c0.00108,3.77387 -2.1969,10.83679 -2.1969,10.83679l-43.52894,0.0546c0,0 2.19792,-7.295 2.19681,-11.1651c-0.00102,-3.54243 -2.20323,-11.15958 -2.20323,-11.15958l43.52894,-0.0546c0,0 2.20227,7.82342 2.20332,11.48788z" data-paper-data="{&quot;index&quot;:null}"/><path d="M181.7302,110.29294l43.52894,-0.0546c0,0 -2.19783,7.62266 -2.19681,11.1651c0.00111,3.8701 2.20323,11.15958 2.20323,11.15958l-43.52894,0.0546c0,0 -2.20205,-7.0574 -2.20313,-10.83127c-0.00106,-3.66446 2.19672,-11.4934 2.19672,-11.4934z"/></g><g><path d="M243.83298,121.7372c0,8.00813 -4.94402,14.5 -11.04277,14.5c-6.09876,0 -11.04277,-6.49187 -11.04277,-14.5c0,-8.00813 4.94402,-14.5 11.04277,-14.5c6.09876,0 11.04277,6.49187 11.04277,14.5z" fill="#e6e6e6" stroke-linecap="butt"/><g fill="#f2f2f2" stroke-linecap="round"><path d="M234.08965,136.57053l-52.66667,65.66667l42,-72.33333c0,0 2.93325,4.46994 4.6759,5.68979c1.57335,1.10134 5.99077,0.97687 5.99077,0.97687z"/><path d="M225.49885,109.77013l3.82785,-84.09065l8.7183,83.18715c0,0 -5.0045,-1.88128 -7.13126,-1.83925c-1.92014,0.03795 -5.41489,2.74274 -5.41489,2.74274z"/><path d="M243.85185,121.12797l76.6611,32.72525l-81.12144,-20.38194c0,0 3.4856,-4.05399 4.17654,-6.06583c0.62382,-1.81638 0.28379,-6.27749 0.28379,-6.27749z"/></g></g></g></g></svg>